<svg width="546" height="308" viewBox="0 0 546 308" fill="none" xmlns="http://www.w3.org/2000/svg">
<g clip-path="url(#clip0_181_178)">
<path fill-rule="evenodd" clip-rule="evenodd" d="M118.534 4.66124C118.95 4.06614 119.551 4.28254 119.176 1.70738C117.777 -2.51026 119.559 2.4994 119.394 1.78312C119.187 3.02742 118.423 2.4215 117.956 2.35442C118.099 2.91273 118.293 3.81295 118.534 4.66124Z" fill="#1A1A1A"/>
<path fill-rule="evenodd" clip-rule="evenodd" d="M29.6826 262.733C26.447 257.356 23.8076 251.442 21.2182 246.166C19.8409 248.291 15.8938 271.543 10.4409 308H22.2388C25.8116 281.238 28.4684 264.642 29.6826 262.733Z" fill="#1A1A1A"/>
<path fill-rule="evenodd" clip-rule="evenodd" d="M19.58 247.308C16.9646 242.316 14.5341 237.562 12.0753 233.95C10.7371 235.887 5.96097 264.387 -0.605957 308H10.0582C14.83 272.201 18.2984 249.358 19.58 247.308Z" fill="#1A1A1A"/>
<path fill-rule="evenodd" clip-rule="evenodd" d="M10.8982 232.5C8.69403 229.36 6.58991 226.378 4.51191 223.543C2.05095 237.772 -0.440478 251.812 -2.83181 265.765C-5.26449 279.935 -7.66453 294.034 -10.0015 307.97L-9.8448 307.998H-0.257701C3.31516 283.201 7.10996 257.949 10.8982 232.498V232.5Z" fill="#1A1A1A"/>
<path fill-rule="evenodd" clip-rule="evenodd" d="M3.64789 222.068C1.80706 219.131 0.0510921 216.519 -1.62001 214.059C-4.78815 229.678 -7.95194 245.127 -10.9982 260.279C-14.0728 275.585 -17.0908 290.716 -20 305.553V306.161C-17.2366 306.682 -14.397 307.199 -11.4813 307.671C-9.103 293.625 -6.58764 279.357 -4.05051 264.967C-1.55691 250.818 1.09771 236.534 3.64789 222.068Z" fill="#1A1A1A"/>
<path fill-rule="evenodd" clip-rule="evenodd" d="M120.499 308C114.226 301.906 108.264 296.236 102.606 290.45C99.1249 296.169 95.4846 302.071 91.853 308H120.499Z" fill="#1A1A1A"/>
<path fill-rule="evenodd" clip-rule="evenodd" d="M99.3774 287.526C92.9019 280.723 86.8942 275.083 81.2411 269.875C74.8548 278.673 68.9363 287.215 62.6914 296.682C65.4831 300.101 68.3336 303.94 71.3168 308.002H86.5743C90.8739 300.976 95.1387 294.183 99.3774 287.526Z" fill="#1A1A1A"/>
<path fill-rule="evenodd" clip-rule="evenodd" d="M78.5929 267.085C72.9921 262.086 68.0592 257.334 63.2701 252.762C57.6714 260.264 51.927 268.267 46.3262 276.161C50.6019 281.625 55.3214 287.213 60.1759 293.386C66.3468 284.464 72.2566 275.815 78.5929 267.085Z" fill="#1A1A1A"/>
<path fill-rule="evenodd" clip-rule="evenodd" d="M60.9505 250.658C56.5334 246.791 52.299 242.866 48.3345 239.219C43.3712 245.792 38.223 252.175 33.0073 258.985C36.6389 263.467 40.3423 268.198 44.2895 273.519C49.8489 265.856 55.4693 257.951 60.9527 250.658H60.9505Z" fill="#1A1A1A"/>
<path fill-rule="evenodd" clip-rule="evenodd" d="M34.5742 225.805C31.5344 222.795 28.5425 220.109 25.6529 217.512C21.5557 222.362 17.0798 227.696 12.9956 232.853C15.3108 235.965 17.998 239.289 20.6766 243.076C25.3287 236.986 29.872 231.676 34.5742 225.805Z" fill="#1A1A1A"/>
<path fill-rule="evenodd" clip-rule="evenodd" d="M23.9731 216.621C21.3903 214.093 18.777 211.799 16.5053 209.237C12.8411 213.559 8.99842 218.012 5.42773 222.334C7.37518 225.253 9.54675 228.179 11.8141 231.297C15.7764 226.441 19.9999 221.375 23.9731 216.621Z" fill="#1A1A1A"/>
<path fill-rule="evenodd" clip-rule="evenodd" d="M14.8602 207.761C12.7604 205.439 10.7477 203.325 8.81985 201.224C5.47111 205.035 2.01793 209.062 -1.15674 212.816C0.381636 215.225 2.19853 217.666 4.10246 220.354C7.67096 216.078 11.4462 211.795 14.8624 207.761H14.8602Z" fill="#1A1A1A"/>
<path fill-rule="evenodd" clip-rule="evenodd" d="M7.60802 200.053C5.77372 198.253 4.14178 196.379 2.39887 194.641C-0.501626 197.907 -3.56097 201.252 -6.46582 204.518C-5.24295 206.87 -3.81338 209.181 -2.49912 211.667C0.869202 207.885 4.38331 203.875 7.60802 200.053Z" fill="#1A1A1A"/>
<path fill-rule="evenodd" clip-rule="evenodd" d="M1.72202 193.732C0.187995 192.079 -1.20894 190.159 -2.41223 188.45C-5.11254 191.362 -7.65184 194.232 -10.5371 197.333C-9.35123 199.423 -8.1523 201.399 -6.88374 203.546C-4.04852 200.382 -1.11756 197.099 1.72419 193.732H1.72202Z" fill="#1A1A1A"/>
<path fill-rule="evenodd" clip-rule="evenodd" d="M6.45069 132.238C8.22624 131.283 9.89299 130.385 11.7208 129.654C11.7186 129.916 11.773 130.074 11.9384 130.056C9.99744 130.965 7.94119 132.168 6.32666 133.032C6.33319 132.679 6.33319 132.577 6.45069 132.238Z" fill="#1A1A1A"/>
<path fill-rule="evenodd" clip-rule="evenodd" d="M184.989 297.92C174.029 290.543 164.54 283.556 154.637 277.133C148.732 287.152 142.593 297.057 136.394 308.002H179.595C181.377 304.605 183.174 301.244 184.989 297.92Z" fill="#1A1A1A"/>
<path fill-rule="evenodd" clip-rule="evenodd" d="M150.198 274.287C141.488 268.148 133.341 262.268 125.802 256.88C119.478 266.291 113.216 275.668 106.98 285.624C114.3 292.4 121.791 299.943 130.354 307.269C136.918 295.732 143.742 284.964 150.198 274.287Z" fill="#1A1A1A"/>
<path fill-rule="evenodd" clip-rule="evenodd" d="M122.194 254.367C114.97 250.187 108.577 245.575 102.36 241.282C96.6247 248.96 90.6997 257.01 84.9727 265.408C90.8041 270.872 96.7857 276.449 103.49 282.846C109.878 272.826 115.849 263.387 122.194 254.367Z" fill="#1A1A1A"/>
<path fill-rule="evenodd" clip-rule="evenodd" d="M99.5296 238.999C93.5415 235.142 88.0821 231.234 82.8229 227.951C77.5594 234.523 71.9585 241.974 66.6123 249.574C71.5081 253.874 76.726 258.07 82.3573 262.887C87.8689 254.863 93.7547 246.889 99.5296 238.999Z" fill="#1A1A1A"/>
<path fill-rule="evenodd" clip-rule="evenodd" d="M80.3163 226.35C75.3074 223.379 70.7815 220.215 66.2925 217.631C61.301 223.498 56.5161 229.598 51.418 236.153C55.426 239.646 59.8366 243.208 64.2624 247.166C69.5543 240.226 75.0397 232.875 80.3163 226.35Z" fill="#1A1A1A"/>
<path fill-rule="evenodd" clip-rule="evenodd" d="M20.6178 126.308C19.4537 126.189 18.4006 126.064 17.4606 125.882C15.5327 127.78 13.7637 129.55 11.875 131.35C12.8172 131.48 13.7049 131.788 14.7059 132.021C16.6511 130.186 18.529 128.278 20.6178 126.308Z" fill="#1A1A1A"/>
<path fill-rule="evenodd" clip-rule="evenodd" d="M50.5954 207.045C47.0508 204.927 43.8414 202.682 40.5427 200.622C36.4563 205.478 32.2481 210.358 28.1182 215.32C31.0622 217.69 34.115 220.313 37.4006 222.948C41.7503 217.599 46.113 212.366 50.5954 207.045Z" fill="#1A1A1A"/>
<path fill-rule="evenodd" clip-rule="evenodd" d="M38.7017 199.962C35.7621 197.9 32.7963 196.043 29.9763 194.146C26.4665 198.19 22.7958 202.421 19.2729 206.692C21.6708 209.084 24.2188 211.349 26.8691 213.814C30.7618 209.315 34.7263 204.63 38.7017 199.962Z" fill="#1A1A1A"/>
<path fill-rule="evenodd" clip-rule="evenodd" d="M28.2205 193.022C25.5724 191.415 23.44 189.534 21.0857 188.002C17.7413 191.733 14.3664 195.424 11.2026 199.105C13.1305 201.122 15.2694 203.092 17.5628 205.301C21.2075 200.86 24.7651 196.866 28.2183 193.022H28.2205Z" fill="#1A1A1A"/>
<path fill-rule="evenodd" clip-rule="evenodd" d="M19.7541 186.978C17.5477 185.433 15.5436 183.866 13.4374 182.657C10.5151 185.821 7.44488 189.114 4.33984 192.817C6.01965 194.561 7.77997 196.264 9.74482 198.246C12.9717 194.593 16.4097 190.625 19.7541 186.978Z" fill="#1A1A1A"/>
<path fill-rule="evenodd" clip-rule="evenodd" d="M12.6934 181.992C10.8482 180.527 9.07699 179.294 7.5582 177.874C4.88182 180.772 2.12058 183.776 -0.544922 186.597C0.84549 188.238 2.24678 190.051 3.90918 191.828C6.82274 188.419 9.76893 185.206 12.6934 181.99V181.992Z" fill="#1A1A1A"/>
<path fill-rule="evenodd" clip-rule="evenodd" d="M6.47241 176.903C4.85135 175.847 3.54362 174.438 2.24242 173.228C-0.309929 175.886 -2.88622 178.682 -5.42334 181.527C-4.06339 182.761 -3.00589 184.408 -1.75474 185.907C0.912936 182.949 3.79821 179.824 6.47241 176.905V176.903Z" fill="#1A1A1A"/>
<path fill-rule="evenodd" clip-rule="evenodd" d="M1.52855 172.847C0.116374 171.82 -0.806216 170.45 -1.96381 169.275C-4.14843 171.547 -6.40921 173.966 -8.50244 176.273C-7.47106 177.563 -6.55935 179.004 -5.51926 180.493C-3.17144 177.937 -0.84103 175.375 1.52855 172.847Z" fill="#1A1A1A"/>
<path fill-rule="evenodd" clip-rule="evenodd" d="M366.163 194.215C348.294 190.454 331.874 186.747 316.41 183.219C310.45 192.83 304.366 202.007 298.67 211.856C313.671 216.03 330.221 221.41 348.546 226.889C354.508 215.547 360.288 204.818 366.165 194.215H366.163Z" fill="#1A1A1A"/>
<path fill-rule="evenodd" clip-rule="evenodd" d="M263.113 183.362C250.639 180.597 239.664 177.87 228.74 175.808C223.383 183.061 217.55 190.575 211.733 198.452C222.391 201.689 233.577 205.164 245.599 209.01C251.2 200.371 257.297 191.499 263.113 183.36V183.362Z" fill="#1A1A1A"/>
<path fill-rule="evenodd" clip-rule="evenodd" d="M248.436 126.906C238.501 126.507 229.206 125.906 220.237 125.43C215.191 130.939 210.251 136.312 205.503 141.896C214.203 142.685 223.442 143.69 233.27 145.126C238.175 138.834 243.071 132.74 248.436 126.906Z" fill="#1A1A1A"/>
<path fill-rule="evenodd" clip-rule="evenodd" d="M301.225 308C288.489 301.246 276.571 294.858 265.348 288.701C262.141 295.005 258.927 301.434 255.75 308H301.222H301.225Z" fill="#1A1A1A"/>
<path fill-rule="evenodd" clip-rule="evenodd" d="M257.723 284.748C243.101 276.973 230.218 269.476 217.613 262.768C211 274.207 204.226 286.509 197.485 298.788C201.611 301.839 205.81 304.899 210.117 308H246.374C250.214 300.054 253.99 292.33 257.723 284.748Z" fill="#1A1A1A"/>
<path fill-rule="evenodd" clip-rule="evenodd" d="M211.781 259.758C200.368 254.157 189.833 248.955 180.154 243.798C173.918 253.266 167.275 263.428 161.276 273.913C170.704 280.444 180.846 287.145 191.998 294.365C198.441 282.272 205.166 271.039 211.781 259.758Z" fill="#1A1A1A"/>
<path fill-rule="evenodd" clip-rule="evenodd" d="M174.856 242.361C165.427 237.54 156.835 233.325 148.688 229.297C143.072 237.278 137.147 245.536 131.191 253.935C139.014 259.262 147.578 265.135 156.597 271.314C162.786 260.892 168.754 251.673 174.856 242.359V242.361Z" fill="#1A1A1A"/>
<path fill-rule="evenodd" clip-rule="evenodd" d="M143.664 226.361C136.135 222.89 129.026 219.505 122.294 216.138C116.922 223.022 111.525 230.286 106.123 237.75C112.496 242.162 119.165 246.378 126.446 250.587C132.088 242.606 137.921 234.439 143.664 226.363V226.361Z" fill="#1A1A1A"/>
<path fill-rule="evenodd" clip-rule="evenodd" d="M118.401 214.167C112.283 210.709 106.425 208.157 100.613 205.63C95.5564 212.066 90.3669 218.642 85.0337 225.288C90.5301 228.371 96.2767 231.951 102.069 235.926C107.435 228.57 113.04 221.198 118.401 214.167Z" fill="#1A1A1A"/>
<path fill-rule="evenodd" clip-rule="evenodd" d="M98.0697 204.922C92.9062 202.423 87.808 200.073 82.8448 197.993C78.4494 203.537 73.7995 209.062 69.2104 214.589C73.7168 217.378 78.4886 220.382 83.3278 223.602C88.3063 217.274 93.3327 210.943 98.0675 204.922H98.0697Z" fill="#1A1A1A"/>
<path fill-rule="evenodd" clip-rule="evenodd" d="M65.2676 189.716C61.166 188.227 57.5845 186.558 54.0268 184.916C50.1994 189.227 46.2196 193.754 42.5532 198.019C45.7845 200.103 48.9265 202.347 52.7822 204.323C56.8251 199.46 61.0028 194.548 65.2676 189.714V189.716Z" fill="#1A1A1A"/>
<path fill-rule="evenodd" clip-rule="evenodd" d="M52.1358 184.146C48.6805 182.51 45.5602 180.88 42.49 179.675C38.9258 183.542 35.6271 187.307 31.939 191.488C34.7503 193.317 37.6442 195.082 40.6361 197.106C44.5549 192.715 48.2366 188.394 52.1358 184.146Z" fill="#1A1A1A"/>
<path fill-rule="evenodd" clip-rule="evenodd" d="M40.9603 179.073C38.1599 177.755 35.6184 176.388 32.9812 175.245C29.6325 178.829 26.3055 182.345 23.3267 185.894C25.5004 187.496 28.0571 189.03 30.5768 190.677C34.154 186.719 37.5768 182.884 40.9581 179.073H40.9603Z" fill="#1A1A1A"/>
<path fill-rule="evenodd" clip-rule="evenodd" d="M31.0602 174.745C28.5056 173.598 26.2144 172.518 23.995 171.281C21.3403 174.148 18.1896 177.517 15.4937 180.601C17.4172 181.992 19.6018 183.377 21.8103 184.946C24.7957 181.482 28.003 178.069 31.0602 174.745Z" fill="#1A1A1A"/>
<path fill-rule="evenodd" clip-rule="evenodd" d="M22.7677 170.655C20.6353 169.707 18.5095 168.77 16.6382 167.816C14.0358 170.577 11.5335 173.308 8.94629 176.007C10.5848 177.245 12.4756 178.387 14.2599 179.915C17.0777 176.734 19.8128 173.696 22.7677 170.657V170.655Z" fill="#1A1A1A"/>
<path fill-rule="evenodd" clip-rule="evenodd" d="M16.0921 167.288C14.2317 166.403 12.6215 165.414 10.8438 164.613C8.59171 166.92 6.2069 169.458 3.80469 171.951C5.28866 173.064 6.72259 174.319 8.34365 175.598C10.8677 172.821 13.4897 170.106 16.0921 167.288Z" fill="#1A1A1A"/>
<path fill-rule="evenodd" clip-rule="evenodd" d="M10.0753 163.834C8.66098 162.789 7.25751 161.807 5.8584 161.069C3.55192 163.488 1.46522 165.687 -0.636719 167.928C0.46212 169.11 1.68716 170.207 2.97966 171.376C5.38187 168.796 7.7645 166.338 10.0753 163.832V163.834Z" fill="#1A1A1A"/>
<path fill-rule="evenodd" clip-rule="evenodd" d="M5.04479 160.541C3.77188 159.848 2.56424 159.121 1.53503 158.212C-0.418942 160.279 -2.2032 162.148 -4.30078 164.386C-3.3956 165.392 -2.48389 166.375 -1.45033 167.39C0.649434 165.208 2.73396 163.062 5.04479 160.541Z" fill="#1A1A1A"/>
<path fill-rule="evenodd" clip-rule="evenodd" d="M199.909 152.941C191.593 151.798 183.668 150.822 175.976 149.619C171.178 155.373 166.346 160.921 161.258 166.697C168.589 168.242 176.392 169.701 184.704 171.752C189.809 165.317 194.926 159.121 199.911 152.941H199.909Z" fill="#1A1A1A"/>
<path fill-rule="evenodd" clip-rule="evenodd" d="M45.5802 123.316C43.3172 123.333 41.1718 123.337 39.1438 123.372C36.7677 125.752 34.3176 128.074 32.0264 130.385C34.0065 130.351 35.7232 130.682 37.8905 130.76C40.3928 128.26 42.9364 125.767 45.5823 123.313L45.5802 123.316Z" fill="#1A1A1A"/>
<path fill-rule="evenodd" clip-rule="evenodd" d="M45.2231 115.921C43.1712 116.17 41.2259 116.358 39.3416 116.512C37.0351 118.676 34.8309 120.756 32.6724 122.798C34.4066 122.809 36.1974 122.788 38.0447 122.714C40.3599 120.511 42.8208 118.187 45.2231 115.921Z" fill="#1A1A1A"/>
<path fill-rule="evenodd" clip-rule="evenodd" d="M439.332 308C433.268 305.444 427.343 302.928 421.564 300.441C420.593 302.923 419.64 305.444 418.7 308H439.334H439.332Z" fill="#1A1A1A"/>
<path fill-rule="evenodd" clip-rule="evenodd" d="M195.446 98.6372C188.274 99.0116 181.464 99.3405 174.977 99.6478C170.978 103.612 167.02 107.633 162.938 111.472C169.427 111.511 175.92 111.42 182.904 111.325C186.956 107.031 191.245 102.833 195.444 98.6372H195.446Z" fill="#1A1A1A"/>
<path fill-rule="evenodd" clip-rule="evenodd" d="M334.707 263.926C316.456 256.469 299.719 249.875 283.791 243.779C277.585 255.24 270.942 267.555 264.884 280.749C280.52 288.916 296.899 297.208 315.209 306.081C321.399 291.744 328.086 277.54 334.705 263.926H334.707Z" fill="#1A1A1A"/>
<path fill-rule="evenodd" clip-rule="evenodd" d="M231.371 223.295C219.823 219.005 208.831 215.19 198.639 211.436C192.703 219.921 186.654 228.917 180.77 238.012C190.512 242.993 201.241 248.053 212.206 253.171C218.594 243.151 224.969 232.838 231.369 223.297L231.371 223.295Z" fill="#1A1A1A"/>
<path fill-rule="evenodd" clip-rule="evenodd" d="M161.293 199.235C153.314 196.537 146.034 194.072 139.101 191.533C134.075 197.718 128.815 204.437 123.77 211.345C130.371 214.53 137.597 217.91 144.893 221.403C150.168 213.73 155.849 206.21 161.295 199.235H161.293Z" fill="#1A1A1A"/>
<path fill-rule="evenodd" clip-rule="evenodd" d="M135.141 190.307C128.532 188.091 122.342 186.132 116.408 184.343C111.438 190.205 106.614 196.156 101.645 202.074C107.289 204.483 113.04 206.902 119.261 209.912C124.651 203.001 129.814 196.344 135.141 190.307Z" fill="#1A1A1A"/>
<path fill-rule="evenodd" clip-rule="evenodd" d="M113.852 183.691C108.351 181.919 103.014 180.175 97.7761 178.402C93.4134 183.57 89.0485 188.649 84.5879 193.918C89.4119 196.076 94.5057 198.497 99.6888 200.83C104.541 194.985 109.332 189.209 113.85 183.689L113.852 183.691Z" fill="#1A1A1A"/>
<path fill-rule="evenodd" clip-rule="evenodd" d="M94.3162 177.353C89.6228 175.94 85.025 174.581 80.8255 173.228C76.4389 178.112 72.2742 182.657 68.166 187.541C72.1044 189.093 76.3431 190.852 80.9844 193.068C85.3623 187.509 89.9753 182.3 94.3162 177.353Z" fill="#1A1A1A"/>
<path fill-rule="evenodd" clip-rule="evenodd" d="M78.7669 172.791C74.4999 171.616 70.6768 170.27 66.8342 169.167C63.0698 173.228 59.2315 177.595 55.6543 181.826C59.1249 183.343 62.6934 185.029 66.8363 186.433C70.6834 182.042 74.7676 177.288 78.7647 172.791H78.7669Z" fill="#1A1A1A"/>
<path fill-rule="evenodd" clip-rule="evenodd" d="M64.7888 168.508C61.1115 167.52 57.6496 166.663 54.3814 165.708C50.9326 169.467 47.3836 173.165 44.1089 176.846C47.1008 177.982 50.3799 179.322 53.6351 180.93C57.2754 176.669 61.0223 172.616 64.7888 168.508Z" fill="#1A1A1A"/>
<path fill-rule="evenodd" clip-rule="evenodd" d="M52.876 165.237C49.7601 164.38 46.7791 163.471 43.9265 162.475C40.7388 165.905 37.5206 169.324 34.5156 172.659C37.0266 173.862 39.7988 175.057 42.6449 176.176C46.0502 172.575 49.4163 168.872 52.8782 165.237H52.876Z" fill="#1A1A1A"/>
<path fill-rule="evenodd" clip-rule="evenodd" d="M41.97 162.131C39.211 161.296 36.7609 160.355 34.3935 159.61C31.4625 162.547 28.5772 165.557 25.7246 168.476C27.8244 169.777 30.2309 170.952 32.8355 172.003C35.9057 168.64 38.8911 165.399 41.9722 162.131H41.97Z" fill="#1A1A1A"/>
<path fill-rule="evenodd" clip-rule="evenodd" d="M32.653 159.467C30.3595 158.677 28.0792 158.013 25.8684 157.405C23.451 159.933 20.7833 162.694 18.3311 165.379C20.3177 166.197 22.2564 167.128 24.3845 168.037C27.0608 165.23 29.8373 162.408 32.653 159.465V159.467Z" fill="#1A1A1A"/>
<path fill-rule="evenodd" clip-rule="evenodd" d="M25.2657 156.944C23.3574 156.165 21.4644 155.444 19.5191 154.804C17.2083 157.195 14.7125 159.87 12.4321 162.285C14.1511 163.148 15.8179 164.068 17.613 164.955C20.124 162.298 22.7373 159.684 25.2679 156.946L25.2657 156.944Z" fill="#1A1A1A"/>
<path fill-rule="evenodd" clip-rule="evenodd" d="M18.6333 154.265C16.8774 153.611 15.302 153.034 13.6744 152.538C11.418 154.769 9.20725 156.95 7.04004 159.275C8.49355 159.974 9.89702 160.82 11.3658 161.746C13.7658 159.288 16.1484 156.743 18.6312 154.265H18.6333Z" fill="#1A1A1A"/>
<path fill-rule="evenodd" clip-rule="evenodd" d="M146.464 146.592C140.232 145.955 134.233 145.473 128.48 144.843C124.226 149.42 119.887 154.107 115.56 158.729C121.11 159.66 126.652 160.774 132.876 162.034C137.415 156.786 141.906 151.567 146.464 146.592Z" fill="#1A1A1A"/>
<path fill-rule="evenodd" clip-rule="evenodd" d="M125.867 144.428C120.443 143.746 115.142 143.285 110.381 142.651C106.212 146.927 102.089 151.3 98.2178 155.583C102.931 156.496 107.794 157.418 113.047 158.258C117.216 153.772 121.611 148.989 125.867 144.428Z" fill="#1A1A1A"/>
<path fill-rule="evenodd" clip-rule="evenodd" d="M108.018 142.389C103.07 141.913 98.6335 141.491 94.3295 141.078C90.6021 144.86 86.692 148.916 82.9712 152.8C87.1098 153.579 91.3898 154.367 95.8961 155.321C99.8172 150.902 103.954 146.54 108.018 142.389Z" fill="#1A1A1A"/>
<path fill-rule="evenodd" clip-rule="evenodd" d="M92.2991 140.844C88.0865 140.442 84.0872 140.197 80.2684 139.844C76.7717 143.372 73.0531 147.273 69.6782 150.744C73.3142 151.357 77.1264 151.811 81.0322 152.426C84.5985 148.706 88.5739 144.65 92.3012 140.844H92.2991Z" fill="#1A1A1A"/>
<path fill-rule="evenodd" clip-rule="evenodd" d="M78.3993 139.708C74.7133 139.299 71.2688 138.799 67.8112 138.663C64.5626 141.893 61.2356 145.256 57.9521 148.732C61.0507 149.266 64.3493 149.879 67.907 150.539C71.3297 146.886 74.9591 143.229 78.3993 139.708Z" fill="#1A1A1A"/>
<path fill-rule="evenodd" clip-rule="evenodd" d="M66.2097 138.606C62.9894 138.299 60.0192 138.015 57.0056 137.816C53.8353 140.878 50.6497 144.029 47.895 146.955C50.5366 147.483 53.3653 148.028 56.4899 148.42C59.6689 145.029 62.8327 141.826 66.2076 138.606H66.2097Z" fill="#1A1A1A"/>
<path fill-rule="evenodd" clip-rule="evenodd" d="M55.6502 137.715C52.7628 137.42 49.9493 137.232 47.4296 136.959C44.5161 139.794 41.6482 142.718 38.813 145.542C41.1869 146.098 43.909 146.382 46.4657 146.758C49.4554 143.8 52.4168 140.777 55.6502 137.717V137.715Z" fill="#1A1A1A"/>
<path fill-rule="evenodd" clip-rule="evenodd" d="M45.9784 137.005C43.4173 136.778 41.0325 136.55 38.7717 136.341C36.2955 138.903 33.6866 141.48 31.0581 143.99C33.2188 144.354 35.51 144.906 37.6925 145.393C40.4146 142.564 43.1236 139.879 45.9784 137.005Z" fill="#1A1A1A"/>
<path fill-rule="evenodd" clip-rule="evenodd" d="M37.3857 136.191C35.1967 136.038 33.2406 135.782 31.2366 135.685C28.8496 137.951 26.4517 140.307 24.043 142.699C25.8925 143.04 27.6332 143.454 29.6046 143.778C32.1766 141.262 34.8464 138.689 37.3857 136.189V136.191Z" fill="#1A1A1A"/>
<path fill-rule="evenodd" clip-rule="evenodd" d="M30.0876 135.481C28.2033 135.254 26.5496 135.051 24.7914 134.897C22.5089 137.124 20.2133 139.281 17.9634 141.599C19.5083 141.974 21.1707 142.246 22.8962 142.683C25.2505 140.275 27.705 137.849 30.0898 135.481H30.0876Z" fill="#1A1A1A"/>
<path fill-rule="evenodd" clip-rule="evenodd" d="M24.0514 134.856C22.463 134.594 21.1052 134.259 19.6952 133.993C17.6324 136.055 15.5044 138.145 13.5874 140.082C14.832 140.452 16.2507 140.809 17.5606 141.246C19.6974 139.111 21.9364 136.942 24.0514 134.856Z" fill="#1A1A1A"/>
<path fill-rule="evenodd" clip-rule="evenodd" d="M18.7965 133.811C17.5605 133.567 16.2158 133.493 15.0974 133.192C13.1434 135.118 11.1764 137.027 9.37256 138.866C10.38 139.206 11.3918 139.576 12.5755 139.894C14.5469 137.964 16.6793 135.964 18.7986 133.811H18.7965Z" fill="#1A1A1A"/>
<path fill-rule="evenodd" clip-rule="evenodd" d="M4.74443 134.971C4.36364 134.646 4.04378 134.142 3.77179 133.783C2.47277 135.157 1.17375 136.367 0.0901402 137.583C0.0705569 138.18 0.279446 138.708 0.542732 139.219C1.96578 137.81 3.27351 136.464 4.74225 134.971H4.74443Z" fill="#1A1A1A"/>
<path fill-rule="evenodd" clip-rule="evenodd" d="M30.0786 123.753C33.1858 123.095 36.2386 122.435 39.744 121.742C40.5687 121.322 41.3455 121.13 42.3377 120.76C38.6169 121.669 35.2312 122.389 31.9586 123.162C31.1927 123.679 30.6813 123.441 30.0786 123.753Z" fill="#1A1A1A"/>
<path fill-rule="evenodd" clip-rule="evenodd" d="M51.2329 120.284C55.6326 119.903 60.0846 119.914 64.9303 119.693C65.8399 119.609 66.8669 119.533 67.9287 119.21C62.8676 119.693 58.2307 119.585 53.757 119.853C52.7038 120.245 51.9009 120.104 51.2329 120.286V120.284Z" fill="#1A1A1A"/>
<path fill-rule="evenodd" clip-rule="evenodd" d="M139.425 129.427C133.813 129.07 128.245 128.87 123.217 128.546C119.187 132.577 115.205 136.678 111.319 140.853C116.291 141.352 121.589 141.835 126.866 142.447C131.026 137.955 135.33 133.497 139.423 129.424L139.425 129.427Z" fill="#1A1A1A"/>
<path fill-rule="evenodd" clip-rule="evenodd" d="M120.771 128.405C115.749 128.325 110.982 128.224 106.506 128.031C102.874 131.757 98.8793 135.659 95.3608 139.379C99.5952 139.795 104.195 140.117 108.945 140.504C112.792 136.442 116.846 132.337 120.771 128.408V128.405Z" fill="#1A1A1A"/>
<path fill-rule="evenodd" clip-rule="evenodd" d="M104.349 128.014C99.9149 127.905 95.748 127.912 91.6377 127.814C88.1475 131.136 84.666 134.67 81.2847 138.31C85.1447 138.52 89.1376 138.799 93.3001 139.286C96.7642 135.583 100.705 131.664 104.352 128.011L104.349 128.014Z" fill="#1A1A1A"/>
<path fill-rule="evenodd" clip-rule="evenodd" d="M89.7227 127.696C85.8082 127.616 82.1592 127.685 78.6168 127.57C75.268 130.779 72.0107 133.978 68.8447 137.152C72.1804 137.299 75.6706 137.719 79.4088 138.124C82.8163 134.649 86.2956 131.058 89.7227 127.696Z" fill="#1A1A1A"/>
<path fill-rule="evenodd" clip-rule="evenodd" d="M76.9087 127.49C73.399 127.557 70.344 127.392 67.1432 127.423C63.9881 130.467 60.9201 133.398 57.9478 136.379C60.9005 136.646 63.9816 136.897 67.2455 137.1C70.4092 133.869 73.6274 130.814 76.9087 127.49Z" fill="#1A1A1A"/>
<path fill-rule="evenodd" clip-rule="evenodd" d="M65.6789 127.315C62.5456 127.28 59.706 127.269 56.8708 127.167C53.9638 129.972 51.1525 132.744 48.3281 135.572C50.8609 136.062 53.6091 136.185 56.4856 136.384C59.5711 133.322 62.4672 130.364 65.6811 127.315H65.6789Z" fill="#1A1A1A"/>
<path fill-rule="evenodd" clip-rule="evenodd" d="M55.548 127.2C52.9021 127.2 50.2126 127.319 47.9192 127.256C45.2646 129.738 42.5447 132.396 39.8574 134.941C42.1661 135.077 44.5422 135.27 47.051 135.566C49.7644 132.755 52.6953 130 55.548 127.2Z" fill="#1A1A1A"/>
<path fill-rule="evenodd" clip-rule="evenodd" d="M153.486 114.473C147.583 114.536 141.886 114.621 136.564 114.753C132.68 118.643 128.807 122.385 124.981 126.243C130.217 126.419 135.724 126.681 141.253 126.919C145.398 122.733 149.556 118.49 153.486 114.476V114.473Z" fill="#1A1A1A"/>
<path fill-rule="evenodd" clip-rule="evenodd" d="M134.079 114.928C128.883 114.945 123.854 115.173 119.176 115.326C115.499 118.899 111.795 122.472 108.229 126.021C112.779 125.975 117.655 126.049 122.568 126.276C126.324 122.329 130.162 118.631 134.079 114.928Z" fill="#1A1A1A"/>
<path fill-rule="evenodd" clip-rule="evenodd" d="M116.811 115.365C112.204 115.456 107.744 115.638 103.531 115.826C100.174 119.052 96.7552 122.381 93.3325 125.88C97.3688 125.908 101.601 125.988 105.966 126.055C109.524 122.454 113.227 118.814 116.809 115.365H116.811Z" fill="#1A1A1A"/>
<path fill-rule="evenodd" clip-rule="evenodd" d="M101.597 115.848C97.4059 116.086 93.7874 116.159 89.9643 116.376C86.5699 119.529 83.4888 122.556 80.2271 125.707C83.8695 125.724 87.5751 125.685 91.544 125.763C94.7513 122.413 98.1762 119.085 101.597 115.848Z" fill="#1A1A1A"/>
<path fill-rule="evenodd" clip-rule="evenodd" d="M88.004 116.54C84.5226 116.607 81.1129 116.705 77.7206 116.904C74.5786 119.931 71.5715 122.805 68.6558 125.633C71.6955 125.787 74.9659 125.808 78.5257 125.731C81.6743 122.567 84.825 119.602 88.004 116.54Z" fill="#1A1A1A"/>
<path fill-rule="evenodd" clip-rule="evenodd" d="M76.0536 116.956C72.7353 117.183 69.8174 117.308 67.017 117.421C64.0512 120.152 61.018 122.907 58.3003 125.577C61.0724 125.622 63.9707 125.713 67.1498 125.633C70.0677 122.816 73.0226 119.948 76.0536 116.956Z" fill="#1A1A1A"/>
<path fill-rule="evenodd" clip-rule="evenodd" d="M65.272 117.75C62.3215 117.994 59.7104 118.131 57.0492 118.289C54.3358 120.855 51.4984 123.502 48.8765 126.15C51.3809 125.958 54.016 125.923 56.7663 125.811C59.4928 123.248 62.204 120.688 65.272 117.752V117.75Z" fill="#1A1A1A"/>
<path fill-rule="evenodd" clip-rule="evenodd" d="M146.59 102.448C141.188 102.755 136.074 102.965 131.131 103.368C127.466 106.86 123.928 110.241 120.351 113.88C125.229 113.551 130.108 113.517 135.395 113.363C138.988 109.717 142.739 106.077 146.588 102.448H146.59Z" fill="#1A1A1A"/>
<path fill-rule="evenodd" clip-rule="evenodd" d="M128.657 103.716C123.817 103.937 119.37 104.353 114.883 104.824C111.473 107.96 108.17 111.156 104.789 114.411C109.147 114.047 113.39 114.036 118.104 113.889C121.655 110.418 125.223 106.887 128.657 103.716Z" fill="#1A1A1A"/>
<path fill-rule="evenodd" clip-rule="evenodd" d="M112.811 105C108.551 105.328 104.602 105.748 100.602 106.181C97.3646 109.111 94.2378 112.162 90.9805 115.222C94.8362 114.831 98.6223 114.751 102.857 114.439C106.031 111.372 109.406 108.209 112.811 105Z" fill="#1A1A1A"/>
<path fill-rule="evenodd" clip-rule="evenodd" d="M98.6548 106.322C94.8861 106.657 91.3372 106.861 87.8144 107.196C84.7725 110.035 81.8198 112.842 78.8018 115.72C82.1918 115.545 85.5362 115.395 89.2897 115.227C92.497 112.206 95.4693 109.269 98.6548 106.322Z" fill="#1A1A1A"/>
<path fill-rule="evenodd" clip-rule="evenodd" d="M86.0632 107.408C82.882 107.618 79.7139 107.919 76.4544 108.38C73.593 110.992 70.7273 113.714 67.9443 116.319C70.9079 116.176 73.9803 115.882 77.1398 115.802C80.2187 112.922 83.1801 110.191 86.0632 107.408Z" fill="#1A1A1A"/>
<path fill-rule="evenodd" clip-rule="evenodd" d="M66.7171 110.412C63.9189 110.758 61.2382 111.076 58.7772 111.292C56.2488 113.614 53.5506 116.075 50.9482 118.518C53.4223 118.297 55.9703 118.239 58.5117 118.081C61.0946 115.547 63.8863 112.987 66.7171 110.414V110.412Z" fill="#1A1A1A"/>
<path fill-rule="evenodd" clip-rule="evenodd" d="M57.2667 111.422C54.8688 111.632 52.5819 111.786 50.3625 112.065C48.0386 114.302 45.6951 116.393 43.4604 118.578C45.4231 118.55 47.6643 118.39 49.8033 118.323C52.1924 116.096 54.7839 113.671 57.2667 111.422Z" fill="#1A1A1A"/>
<path fill-rule="evenodd" clip-rule="evenodd" d="M140.746 92.5435C135.885 93.1169 131.198 93.6687 126.474 94.2314C123.128 97.3432 119.862 100.36 116.424 103.524C121.059 102.922 125.408 102.66 130.367 102.126C133.755 98.8494 137.276 95.7635 140.746 92.5435Z" fill="#1A1A1A"/>
<path fill-rule="evenodd" clip-rule="evenodd" d="M124.303 94.4587C119.975 94.9305 115.627 95.5429 111.495 96.0601C108.429 98.9512 105.235 101.87 102.034 104.863C106.081 104.415 109.989 104.101 114.356 103.738C117.788 100.524 121.065 97.5359 124.303 94.4565V94.4587Z" fill="#1A1A1A"/>
<path fill-rule="evenodd" clip-rule="evenodd" d="M109.517 96.2915C105.675 96.7286 101.906 97.2458 98.0415 97.8258C95.0975 100.587 92.284 103.115 89.2095 105.943C92.7279 105.608 96.3204 105.324 100.1 105.073C103.24 102.063 106.486 99.0744 109.517 96.2915Z" fill="#1A1A1A"/>
<path fill-rule="evenodd" clip-rule="evenodd" d="M96.3597 98.0876C92.9478 98.6092 89.5381 99.0593 86.3004 99.4964C83.4869 102.076 80.5451 104.664 77.749 107.205C80.9607 106.876 84.1223 106.529 87.4558 106.153C90.5391 103.363 93.457 100.723 96.3597 98.0876Z" fill="#1A1A1A"/>
<path fill-rule="evenodd" clip-rule="evenodd" d="M75.8642 101.717C72.9289 102.189 70.2112 102.513 67.6588 102.842C65.0216 105.255 62.3605 107.631 59.8604 110.061C62.3714 109.799 64.9411 109.54 67.7916 109.176C70.444 106.711 73.0856 104.292 75.8642 101.719V101.717Z" fill="#1A1A1A"/>
<path fill-rule="evenodd" clip-rule="evenodd" d="M65.766 103.567C63.168 103.913 60.8528 104.277 58.4919 104.714C56.0375 106.899 53.6288 109.063 51.0503 111.392C53.2654 111.102 55.6611 110.92 58.0568 110.721C60.5656 108.323 63.1158 105.949 65.7682 103.565L65.766 103.567Z" fill="#1A1A1A"/>
<path fill-rule="evenodd" clip-rule="evenodd" d="M151.175 81.0461C146.051 81.8489 141.212 82.5652 136.559 83.3681C133.217 86.1467 130.047 89.0031 126.618 92.1323C131.307 91.416 136.042 90.9053 140.879 90.2799C144.327 87.0945 147.733 84.0714 151.173 81.0439L151.175 81.0461Z" fill="#1A1A1A"/>
<path fill-rule="evenodd" clip-rule="evenodd" d="M134.351 83.5996C129.771 84.3873 125.397 85.0019 121.106 85.7441C118.134 88.4989 115.02 91.1563 111.865 94.0431C116.028 93.4415 120.325 92.9135 124.671 92.2534C127.854 89.3623 131.035 86.5448 134.351 83.5996Z" fill="#1A1A1A"/>
<path fill-rule="evenodd" clip-rule="evenodd" d="M146.214 73.3618C141.555 74.182 137.09 75.0822 132.726 75.8959C129.586 78.6723 126.515 81.3362 123.441 84.0087C127.56 83.3032 132.031 82.6216 136.723 81.8252C139.821 79.0704 143.055 76.2226 146.216 73.3618H146.214Z" fill="#1A1A1A"/>
<path fill-rule="evenodd" clip-rule="evenodd" d="M196.887 76.2766C190.185 77.2006 183.944 78.0597 178.008 78.6765C174.059 82.0761 170.443 85.5645 166.944 88.8365C172.706 88.3539 178.842 87.6614 185.348 86.9624C189.049 83.433 192.898 79.8559 196.884 76.2788L196.887 76.2766Z" fill="#1A1A1A"/>
<path fill-rule="evenodd" clip-rule="evenodd" d="M16.0331 142.24C14.61 141.848 13.3066 141.433 12.062 141.097C10.1298 143.006 8.13231 144.953 6.23926 147.096C7.20101 147.596 8.33467 148.197 9.53142 148.743C11.5985 146.659 13.8223 144.38 16.0331 142.24Z" fill="#1A1A1A"/>
<path fill-rule="evenodd" clip-rule="evenodd" d="M21.3645 143.586C19.6955 143.194 18.1484 142.768 16.6623 142.383C14.3928 144.676 12.2256 146.882 10.1606 148.976C11.3618 149.634 12.6847 150.249 14.1295 150.878C16.4795 148.442 18.9296 145.949 21.3645 143.586Z" fill="#1A1A1A"/>
<path fill-rule="evenodd" clip-rule="evenodd" d="M27.5591 144.99C25.6443 144.65 23.9035 144.179 22.2259 143.7C19.6801 146.273 17.23 148.71 14.9409 151.091C16.5076 151.597 18.0829 152.192 19.9521 152.664C22.4652 150.097 25.0785 147.518 27.5612 144.99H27.5591Z" fill="#1A1A1A"/>
<path fill-rule="evenodd" clip-rule="evenodd" d="M35.4684 146.568C33.2294 146.085 31.0557 145.574 28.8972 145.232C26.3579 147.749 23.6967 150.571 21.127 153.235C23.07 153.763 24.9653 154.535 26.9258 155.302C29.7153 152.302 32.6615 149.452 35.4684 146.565V146.568Z" fill="#1A1A1A"/>
<path fill-rule="evenodd" clip-rule="evenodd" d="M44.0613 147.987C41.4437 147.596 38.8391 147.204 36.6458 146.704C33.7823 149.543 30.8383 152.43 27.9922 155.406C30.2051 156.126 32.5399 156.752 34.9508 157.433C37.836 154.343 40.8736 151.22 44.0613 147.987Z" fill="#1A1A1A"/>
<path fill-rule="evenodd" clip-rule="evenodd" d="M53.8618 149.857C50.8481 149.392 48.0804 148.868 45.4388 148.312C42.1401 151.658 39.0503 154.871 36.165 157.916C38.589 158.608 41.2132 159.472 43.907 160.283C47.2905 156.71 50.4195 153.428 53.8618 149.855V149.857Z" fill="#1A1A1A"/>
<path fill-rule="evenodd" clip-rule="evenodd" d="M64.926 152.179C61.4989 151.595 58.3155 150.935 55.2105 150.305C51.8901 153.832 48.587 157.228 45.2622 160.738C48.1083 161.664 51.1481 162.566 54.2618 163.475C57.7824 159.64 61.4489 155.797 64.926 152.179Z" fill="#1A1A1A"/>
<path fill-rule="evenodd" clip-rule="evenodd" d="M78.9239 154.207C74.9898 153.423 71.2233 152.837 67.7201 152.326C64.1255 155.905 60.4786 159.822 56.9058 163.646C60.2197 164.436 63.7969 165.286 67.3654 166.464C71.2951 162.153 75.0355 158.149 78.9261 154.207H78.9239Z" fill="#1A1A1A"/>
<path fill-rule="evenodd" clip-rule="evenodd" d="M93.3178 156.752C88.8854 155.888 84.5205 154.912 80.6909 154.157C76.7655 158.275 72.7923 162.335 69.041 166.544C72.8206 167.697 76.8199 168.957 81.1848 169.987C85.1842 165.544 89.2161 161.233 93.3178 156.754V156.752Z" fill="#1A1A1A"/>
<path fill-rule="evenodd" clip-rule="evenodd" d="M110.427 159.803C105.294 158.911 100.202 158.139 95.8044 156.873C91.6636 161.435 87.4314 166.035 83.5039 170.515C87.8688 171.776 92.4535 173.06 97.3079 174.28C101.747 169.305 105.996 164.596 110.429 159.803H110.427Z" fill="#1A1A1A"/>
<path fill-rule="evenodd" clip-rule="evenodd" d="M129.812 163.897C123.78 162.653 118.234 161.54 113.021 160.359C108.545 165.271 104.023 170.179 99.606 175.297C105.046 176.801 110.063 178.677 115.821 180.146C120.577 174.682 125.28 169.242 129.812 163.897Z" fill="#1A1A1A"/>
<path fill-rule="evenodd" clip-rule="evenodd" d="M152.217 169.019C145.163 167.639 138.912 166.334 132.608 164.964C127.904 170.359 123.21 175.851 118.51 181.22C124.396 183.163 130.63 185.065 137.171 187.013C142.345 180.713 147.263 174.791 152.217 169.019Z" fill="#1A1A1A"/>
<path fill-rule="evenodd" clip-rule="evenodd" d="M385.424 137.834C380.983 134.289 376.635 130.712 372.662 127.447C366.243 131.076 359.852 134.456 353.398 138.288C357 142.043 360.566 145.979 364.876 150.006C371.835 145.899 378.789 141.815 385.421 137.834H385.424Z" fill="#1A1A1A"/>
<path fill-rule="evenodd" clip-rule="evenodd" d="M167.579 130.559C165.813 128.782 164.087 127.129 162.292 125.713C159.792 127.462 157.187 129.325 154.615 131.097C156.212 132.779 157.72 134.586 159.341 136.618C162.109 134.551 164.87 132.5 167.582 130.559H167.579Z" fill="#1A1A1A"/>
<path fill-rule="evenodd" clip-rule="evenodd" d="M97.6584 64.9223C96.9708 63.8749 96.3398 62.7842 95.7589 61.6914C93.509 63.5503 91.1067 65.5628 88.748 67.5234C89.1158 68.7807 89.6358 69.9298 90.2233 71.1611C92.6908 69.0901 95.1996 66.9846 97.6563 64.9223H97.6584Z" fill="#1A1A1A"/>
<path fill-rule="evenodd" clip-rule="evenodd" d="M462.912 246.62C457.362 242.281 452.126 238.124 447.041 234.465C440.42 236.499 433.923 238.908 427.105 241.206C432.049 245.205 436.915 249.527 441.915 254.183C449.026 251.513 456.3 249.107 462.915 246.618L462.912 246.62Z" fill="#1A1A1A"/>
<path fill-rule="evenodd" clip-rule="evenodd" d="M113.503 78.9968C112.957 78.3974 112.526 77.8131 112.098 77.2505C110.635 78.3108 109.165 79.3517 107.744 80.3904C108.072 81.0332 108.412 81.7884 108.792 82.4203C110.366 81.2842 111.88 80.1567 113.503 78.9947V78.9968Z" fill="#1A1A1A"/>
<path fill-rule="evenodd" clip-rule="evenodd" d="M163.889 51.5725C162.571 51.012 161.322 50.5164 160.086 50.0598C158.221 51.3258 156.358 52.635 154.452 54.0156C155.492 54.641 156.635 55.1972 157.934 55.9156C159.875 54.403 161.883 52.9899 163.889 51.5746V51.5725Z" fill="#1A1A1A"/>
<path fill-rule="evenodd" clip-rule="evenodd" d="M444.334 102.926C439.108 100.78 434.249 98.9057 429.632 97.1399C423.661 99.6112 418.008 101.979 412.599 104.489C416.77 106.568 421.163 108.698 426.078 111.316C432.389 108.38 438.52 105.467 444.334 102.926Z" fill="#1A1A1A"/>
<path fill-rule="evenodd" clip-rule="evenodd" d="M142.515 48.2269C141.719 47.8525 141.122 47.3613 140.491 46.9912C138.973 47.9823 137.526 49.1011 136.063 50.1809C136.599 50.6549 137.093 51.2153 137.739 51.6481C139.195 50.538 140.853 49.363 142.515 48.2269Z" fill="#1A1A1A"/>
<path fill-rule="evenodd" clip-rule="evenodd" d="M109.289 40.0513C108.867 39.744 108.405 39.5081 107.99 39.2246C106.895 40.0707 105.696 40.945 104.646 41.7522C105.009 42.0811 105.324 42.4143 105.649 42.7952C106.848 41.8928 108.092 40.9731 109.289 40.0513Z" fill="#1A1A1A"/>
<path fill-rule="evenodd" clip-rule="evenodd" d="M29.0646 123.378C28.8861 122.924 28.6511 122.469 28.5293 122.032C27.6546 122.629 26.8386 123.311 25.9639 123.934C26.0313 124.462 26.1532 124.962 26.275 125.462C27.2607 124.763 28.1376 124.071 29.0646 123.378Z" fill="#1A1A1A"/>
<path fill-rule="evenodd" clip-rule="evenodd" d="M466.927 173.371C463.206 171.594 460.195 169.917 457.018 168.312C452.353 169.629 447.886 170.822 443.434 172.112C446.164 173.758 449.256 175.678 452.529 177.496C457.405 176.171 462.181 174.73 466.927 173.371Z" fill="#1A1A1A"/>
<path fill-rule="evenodd" clip-rule="evenodd" d="M193.112 42.9771C191.806 42.5919 190.473 42.3279 189.343 41.9341C187.526 43.1178 185.607 44.3469 183.888 45.4874C184.983 45.9678 186.008 46.3768 187.217 46.8269C189.026 45.5869 191.141 44.2193 193.112 42.9771Z" fill="#1A1A1A"/>
<path fill-rule="evenodd" clip-rule="evenodd" d="M145.002 13.7154C144.173 13.5618 143.344 13.4298 142.53 13.3887C141.164 14.2543 139.862 15.2432 138.555 16.1911C139.329 16.3252 140.108 16.4724 140.889 16.6433C142.286 15.6219 143.644 14.6503 145.002 13.7154Z" fill="#1A1A1A"/>
<path fill-rule="evenodd" clip-rule="evenodd" d="M124.361 49.562C123.608 49.324 122.866 49.1552 122.172 48.9431C121.004 49.7827 119.681 50.7046 118.454 51.5356C119.152 51.7823 119.796 52.0117 120.499 52.2627C121.822 51.3452 123.043 50.4817 124.363 49.562H124.361Z" fill="#1A1A1A"/>
<path fill-rule="evenodd" clip-rule="evenodd" d="M106.621 68.8692C105.868 68.6225 105.163 68.339 104.471 68.1572C103.37 68.9038 102.16 69.7045 100.999 70.4489C101.697 70.6956 102.395 70.9553 103.046 71.2496C104.201 70.4641 105.413 69.6742 106.621 68.8692Z" fill="#1A1A1A"/>
<path fill-rule="evenodd" clip-rule="evenodd" d="M223.751 79.1959C222.117 78.7696 220.55 78.3346 219.044 77.9321C217.062 78.999 215.132 80.0139 213.041 81.1305C214.588 81.4833 216.107 81.9658 217.624 82.4138C219.595 81.3145 221.753 80.2238 223.751 79.1959Z" fill="#1A1A1A"/>
<path fill-rule="evenodd" clip-rule="evenodd" d="M88.3913 85.7681C87.6928 85.5236 86.9878 85.2011 86.3459 84.9436C85.2645 85.6642 84.2897 86.3242 83.2583 87.0275C83.8458 87.3002 84.4377 87.6075 85.0861 87.9364C86.1697 87.1877 87.2576 86.5341 88.3913 85.7659V85.7681Z" fill="#1A1A1A"/>
<path fill-rule="evenodd" clip-rule="evenodd" d="M97.256 57.1231C96.6446 56.9651 96.0462 56.9045 95.4391 56.792C94.5492 57.3979 93.6157 58.0752 92.7192 58.6444C93.2197 58.7526 93.8289 58.9084 94.3381 59.0815C95.326 58.3998 96.2638 57.742 97.256 57.1253V57.1231Z" fill="#1A1A1A"/>
<path fill-rule="evenodd" clip-rule="evenodd" d="M546 213.243C541.035 211.75 535.784 209.977 530.477 208.439C525.562 209.49 520.252 210.239 515.261 211.159C520.033 212.617 525.2 214.327 529.974 216.021C535.551 215.084 540.71 214.221 546 213.245V213.243Z" fill="#1A1A1A"/>
<path fill-rule="evenodd" clip-rule="evenodd" d="M164.4 22.6377C163.306 22.681 162.32 22.6918 161.335 22.7005C160.179 23.434 158.974 24.2001 157.729 25.0203C158.71 24.9748 159.609 25.057 160.599 25.0484C161.844 24.2304 163.09 23.4038 164.398 22.6377H164.4Z" fill="#1A1A1A"/>
<path fill-rule="evenodd" clip-rule="evenodd" d="M5.72138 143.389C5.38629 143.14 5.0512 142.883 4.83143 142.645C4.20694 143.043 3.5237 143.497 2.95361 143.861C3.17338 144.127 3.44972 144.354 3.72607 144.64C4.4093 144.179 5.03814 143.794 5.72138 143.391V143.389Z" fill="#1A1A1A"/>
<path fill-rule="evenodd" clip-rule="evenodd" d="M300.767 116.865C298.295 116.263 295.647 115.904 293.125 115.359C290.641 116.222 288.38 116.977 286.158 117.865C288.447 118.284 290.926 118.875 293.513 119.466C295.93 118.574 298.413 117.717 300.765 116.865H300.767Z" fill="#1A1A1A"/>
<path fill-rule="evenodd" clip-rule="evenodd" d="M292.329 161.698C290.099 160.307 287.893 158.922 285.673 157.717C282.566 158.909 279.398 160.311 276.208 161.664C278.273 163.038 280.325 164.377 282.398 165.94C285.856 164.373 289.131 163.059 292.329 161.696V161.698Z" fill="#1A1A1A"/>
<path fill-rule="evenodd" clip-rule="evenodd" d="M238.325 106.335C236.315 105.188 234.461 104.164 232.74 103.167C230.094 104.632 227.337 106.187 224.582 107.771C226.314 108.834 227.861 110.111 229.791 111.208C232.72 109.565 235.516 107.932 238.325 106.335Z" fill="#1A1A1A"/>
</g>
<defs>
<clipPath id="clip0_181_178">
<rect width="566" height="308" fill="white" transform="translate(-20)"/>
</clipPath>
</defs>
</svg>
