<svg width="458" height="236" viewBox="0 0 458 236" fill="none" xmlns="http://www.w3.org/2000/svg">
<g clip-path="url(#clip0_322_1576)">
<path fill-rule="evenodd" clip-rule="evenodd" d="M356.473 3.88937C356.127 3.39281 355.626 3.57338 355.938 1.42462C357.105 -2.09464 355.619 2.0855 355.757 1.48782C355.929 2.52609 356.566 2.0205 356.956 1.96452C356.836 2.43039 356.675 3.18155 356.473 3.88937Z" fill="#1A1A1A"/>
<path fill-rule="evenodd" clip-rule="evenodd" d="M430.568 219.229C433.266 214.742 435.467 209.807 437.627 205.405C438.775 207.178 442.067 226.58 446.614 257H436.776C433.796 234.669 431.581 220.821 430.568 219.229Z" fill="#1A1A1A"/>
<path fill-rule="evenodd" clip-rule="evenodd" d="M438.994 206.358C441.175 202.192 443.202 198.225 445.252 195.212C446.368 196.828 450.351 220.609 455.827 257H446.934C442.955 227.129 440.062 208.068 438.994 206.358Z" fill="#1A1A1A"/>
<path fill-rule="evenodd" clip-rule="evenodd" d="M446.233 194.002C448.072 191.382 449.826 188.894 451.559 186.528C453.611 198.4 455.689 210.116 457.683 221.759C459.712 233.582 461.713 245.346 463.662 256.975L463.531 256.998H455.537C452.557 236.307 449.393 215.237 446.233 194V194.002Z" fill="#1A1A1A"/>
<path fill-rule="evenodd" clip-rule="evenodd" d="M452.28 185.297C453.815 182.846 455.279 180.667 456.673 178.614C459.315 191.647 461.953 204.538 464.493 217.181C467.057 229.953 469.574 242.578 472 254.958V255.465C469.696 255.9 467.328 256.332 464.896 256.726C462.913 245.005 460.815 233.1 458.699 221.092C456.62 209.287 454.406 197.368 452.28 185.297Z" fill="#1A1A1A"/>
<path fill-rule="evenodd" clip-rule="evenodd" d="M457.366 177.704C458.679 175.741 459.714 173.76 460.628 171.656C463.844 185.67 467.097 199.561 470.107 213.234L472 221.831V249.532C469.852 238.717 467.621 227.746 465.368 216.661C462.769 203.866 460.082 190.827 457.364 177.706L457.366 177.704Z" fill="#1A1A1A"/>
<path fill-rule="evenodd" clip-rule="evenodd" d="M372.449 239.917C377.849 234.24 382.859 229.534 387.573 225.188C392.899 232.53 397.834 239.657 403.042 247.556C400.714 250.409 398.337 253.613 395.849 257.002H383.126C379.54 251.139 375.983 245.471 372.449 239.917Z" fill="#1A1A1A"/>
<path fill-rule="evenodd" clip-rule="evenodd" d="M389.782 222.86C394.452 218.689 398.566 214.724 402.56 210.908C407.228 217.168 412.019 223.846 416.689 230.433C413.124 234.992 409.188 239.655 405.14 244.806C399.994 237.361 395.065 230.144 389.782 222.86Z" fill="#1A1A1A"/>
<path fill-rule="evenodd" clip-rule="evenodd" d="M404.493 209.153C408.177 205.927 411.708 202.651 415.014 199.609C419.153 205.092 423.446 210.419 427.796 216.102C424.767 219.841 421.679 223.788 418.387 228.229C413.751 221.835 409.064 215.239 404.492 209.153H404.493Z" fill="#1A1A1A"/>
<path fill-rule="evenodd" clip-rule="evenodd" d="M426.49 188.415C429.024 185.903 431.519 183.662 433.929 181.496C437.346 185.542 441.078 189.993 444.484 194.296C442.554 196.893 440.313 199.666 438.079 202.826C434.2 197.745 430.411 193.314 426.49 188.415Z" fill="#1A1A1A"/>
<path fill-rule="evenodd" clip-rule="evenodd" d="M435.33 180.752C437.483 178.643 439.663 176.729 441.557 174.591C444.613 178.197 447.817 181.913 450.795 185.519C449.171 187.955 447.36 190.396 445.469 192.998C442.165 188.946 438.643 184.719 435.33 180.752Z" fill="#1A1A1A"/>
<path fill-rule="evenodd" clip-rule="evenodd" d="M442.929 173.359C444.68 171.422 446.359 169.658 447.966 167.904C450.759 171.084 453.639 174.444 456.286 177.577C455.003 179.587 453.488 181.624 451.9 183.866C448.925 180.298 445.776 176.725 442.927 173.359H442.929Z" fill="#1A1A1A"/>
<path fill-rule="evenodd" clip-rule="evenodd" d="M448.977 166.927C450.507 165.425 451.868 163.861 453.321 162.411C455.74 165.136 458.291 167.928 460.714 170.652C459.694 172.615 458.502 174.544 457.406 176.618C454.597 173.462 451.667 170.116 448.977 166.927Z" fill="#1A1A1A"/>
<path fill-rule="evenodd" clip-rule="evenodd" d="M453.885 161.653C455.164 160.273 456.329 158.672 457.333 157.245C459.585 159.676 461.702 162.07 464.108 164.658C463.119 166.402 462.12 168.051 461.062 169.842C458.697 167.202 456.253 164.463 453.883 161.653H453.885Z" fill="#1A1A1A"/>
<path fill-rule="evenodd" clip-rule="evenodd" d="M457.979 156.122C459.067 154.853 460.002 153.649 460.978 152.406C463.067 154.672 465.128 157.004 466.932 158.99C466.331 160.559 465.514 162.032 464.852 163.719C462.608 161.187 460.28 158.582 457.977 156.122H457.979Z" fill="#1A1A1A"/>
<path fill-rule="evenodd" clip-rule="evenodd" d="M449.942 110.341C448.462 109.545 447.072 108.796 445.548 108.185C445.549 108.404 445.504 108.536 445.366 108.521C446.985 109.28 448.7 110.283 450.046 111.004C450.04 110.71 450.04 110.625 449.942 110.341Z" fill="#1A1A1A"/>
<path fill-rule="evenodd" clip-rule="evenodd" d="M459.923 118.001C459.059 117.1 458.154 116.271 457.205 115.527C457.446 115.863 457.689 116.215 457.883 116.499C458.932 117.432 459.934 118.299 460.894 119.191C460.554 118.817 460.358 118.537 459.923 118.001Z" fill="#1A1A1A"/>
<path fill-rule="evenodd" clip-rule="evenodd" d="M301.055 248.589C310.195 242.434 318.108 236.603 326.366 231.244C331.291 239.604 336.409 247.869 341.579 257.002H305.553C304.067 254.167 302.568 251.363 301.055 248.589Z" fill="#1A1A1A"/>
<path fill-rule="evenodd" clip-rule="evenodd" d="M330.068 228.869C337.331 223.747 344.125 218.841 350.413 214.344C355.686 222.197 360.908 230.021 366.108 238.329C360.004 243.983 353.757 250.277 346.617 256.39C341.142 246.764 335.452 237.779 330.068 228.869Z" fill="#1A1A1A"/>
<path fill-rule="evenodd" clip-rule="evenodd" d="M353.421 212.248C359.446 208.759 364.777 204.912 369.961 201.329C374.744 207.736 379.685 214.453 384.461 221.461C379.598 226.02 374.61 230.673 369.019 236.011C363.692 227.65 358.713 219.774 353.421 212.248Z" fill="#1A1A1A"/>
<path fill-rule="evenodd" clip-rule="evenodd" d="M372.321 199.424C377.315 196.207 381.867 192.946 386.253 190.206C390.642 195.69 395.313 201.907 399.771 208.249C395.689 211.836 391.337 215.338 386.641 219.357C382.045 212.662 377.137 206.008 372.321 199.424Z" fill="#1A1A1A"/>
<path fill-rule="evenodd" clip-rule="evenodd" d="M388.344 188.87C392.521 186.391 396.296 183.751 400.039 181.595C404.202 186.49 408.192 191.58 412.443 197.05C409.101 199.964 405.423 202.936 401.732 206.239C397.319 200.448 392.745 194.314 388.344 188.87Z" fill="#1A1A1A"/>
<path fill-rule="evenodd" clip-rule="evenodd" d="M438.128 105.394C439.099 105.294 439.977 105.19 440.761 105.038C442.369 106.622 443.844 108.099 445.419 109.601C444.633 109.709 443.893 109.966 443.058 110.161C441.436 108.629 439.87 107.037 438.128 105.394Z" fill="#1A1A1A"/>
<path fill-rule="evenodd" clip-rule="evenodd" d="M413.129 172.762C416.085 170.994 418.761 169.121 421.512 167.402C424.92 171.454 428.429 175.526 431.873 179.666C429.418 181.644 426.872 183.832 424.132 186.031C420.505 181.568 416.867 177.202 413.129 172.762Z" fill="#1A1A1A"/>
<path fill-rule="evenodd" clip-rule="evenodd" d="M423.047 166.852C425.498 165.131 427.972 163.582 430.323 161.998C433.25 165.373 436.311 168.903 439.249 172.467C437.249 174.463 435.125 176.353 432.914 178.41C429.668 174.656 426.362 170.747 423.047 166.852Z" fill="#1A1A1A"/>
<path fill-rule="evenodd" clip-rule="evenodd" d="M431.788 161.061C433.996 159.719 435.774 158.15 437.738 156.872C440.527 159.985 443.341 163.065 445.979 166.137C444.372 167.819 442.588 169.463 440.676 171.306C437.636 167.601 434.669 164.268 431.79 161.061H431.788Z" fill="#1A1A1A"/>
<path fill-rule="evenodd" clip-rule="evenodd" d="M438.848 156.018C440.688 154.728 442.359 153.421 444.116 152.412C446.552 155.052 449.113 157.8 451.702 160.889C450.301 162.345 448.833 163.766 447.195 165.42C444.504 162.372 441.637 159.06 438.848 156.018Z" fill="#1A1A1A"/>
<path fill-rule="evenodd" clip-rule="evenodd" d="M444.737 151.857C446.275 150.635 447.752 149.606 449.019 148.421C451.251 150.839 453.554 153.345 455.776 155.7C454.617 157.069 453.448 158.582 452.062 160.064C449.632 157.22 447.175 154.539 444.737 151.856V151.857Z" fill="#1A1A1A"/>
<path fill-rule="evenodd" clip-rule="evenodd" d="M449.925 147.61C451.276 146.729 452.367 145.554 453.452 144.544C455.581 146.762 457.729 149.095 459.845 151.469C458.711 152.498 457.829 153.873 456.785 155.124C454.561 152.656 452.155 150.048 449.925 147.612V147.61Z" fill="#1A1A1A"/>
<path fill-rule="evenodd" clip-rule="evenodd" d="M454.047 144.227C455.225 143.369 455.994 142.226 456.959 141.245C458.781 143.141 460.667 145.16 462.412 147.085C461.552 148.161 460.792 149.364 459.924 150.606C457.966 148.473 456.023 146.336 454.047 144.227Z" fill="#1A1A1A"/>
<path fill-rule="evenodd" clip-rule="evenodd" d="M457.418 114.991C456.748 114.252 456.039 113.597 455.38 113.01C455.808 113.564 456.191 114.09 456.618 114.545C457.425 115.294 458.236 116.105 458.951 116.753C458.374 116.109 457.944 115.621 457.416 114.991H457.418Z" fill="#1A1A1A"/>
<path fill-rule="evenodd" clip-rule="evenodd" d="M149.97 162.056C164.871 158.917 178.564 155.824 191.46 152.881C196.43 160.9 201.503 168.558 206.254 176.776C193.744 180.259 179.943 184.748 164.661 189.32C159.689 179.856 154.87 170.904 149.968 162.056H149.97Z" fill="#1A1A1A"/>
<path fill-rule="evenodd" clip-rule="evenodd" d="M235.906 153C246.309 150.693 255.461 148.418 264.57 146.697C269.038 152.749 273.903 159.019 278.753 165.591C269.865 168.293 260.537 171.193 250.511 174.401C245.841 167.193 240.756 159.79 235.906 152.999V153Z" fill="#1A1A1A"/>
<path fill-rule="evenodd" clip-rule="evenodd" d="M248.144 105.892C256.43 105.56 264.181 105.058 271.661 104.661C275.869 109.258 279.988 113.741 283.947 118.4C276.693 119.059 268.988 119.897 260.792 121.096C256.702 115.845 252.619 110.76 248.144 105.892Z" fill="#1A1A1A"/>
<path fill-rule="evenodd" clip-rule="evenodd" d="M240.4 237.598C252.594 231.11 263.338 224.855 273.849 219.258C279.364 228.803 285.012 239.068 290.634 249.313C287.193 251.859 283.691 254.413 280.1 257H249.865C246.662 250.37 243.514 243.925 240.4 237.598Z" fill="#1A1A1A"/>
<path fill-rule="evenodd" clip-rule="evenodd" d="M278.713 216.746C288.23 212.073 297.016 207.732 305.087 203.429C310.288 211.329 315.827 219.808 320.83 228.557C312.968 234.007 304.51 239.599 295.21 245.622C289.838 235.532 284.229 226.159 278.713 216.746Z" fill="#1A1A1A"/>
<path fill-rule="evenodd" clip-rule="evenodd" d="M309.505 202.23C317.368 198.207 324.534 194.69 331.327 191.329C336.011 197.989 340.952 204.879 345.918 211.887C339.395 216.333 332.253 221.233 324.731 226.388C319.571 217.692 314.593 210 309.505 202.228V202.23Z" fill="#1A1A1A"/>
<path fill-rule="evenodd" clip-rule="evenodd" d="M335.517 188.879C341.795 185.983 347.723 183.159 353.338 180.349C357.818 186.093 362.318 192.155 366.823 198.382C361.508 202.064 355.947 205.582 349.875 209.094C345.17 202.434 340.305 195.62 335.517 188.881V188.879Z" fill="#1A1A1A"/>
<path fill-rule="evenodd" clip-rule="evenodd" d="M356.584 178.704C361.687 175.819 366.571 173.69 371.418 171.581C375.635 176.951 379.963 182.438 384.41 187.984C379.827 190.557 375.034 193.543 370.204 196.86C365.729 190.723 361.055 184.571 356.584 178.704Z" fill="#1A1A1A"/>
<path fill-rule="evenodd" clip-rule="evenodd" d="M373.539 170.99C377.845 168.905 382.097 166.944 386.236 165.208C389.901 169.835 393.779 174.445 397.605 179.056C393.848 181.384 389.868 183.89 385.833 186.577C381.681 181.297 377.489 176.014 373.541 170.99H373.539Z" fill="#1A1A1A"/>
<path fill-rule="evenodd" clip-rule="evenodd" d="M400.893 158.302C404.313 157.06 407.3 155.667 410.267 154.297C413.459 157.894 416.777 161.671 419.835 165.23C417.14 166.969 414.52 168.842 411.305 170.49C407.933 166.433 404.449 162.334 400.893 158.3V158.302Z" fill="#1A1A1A"/>
<path fill-rule="evenodd" clip-rule="evenodd" d="M411.844 153.654C414.725 152.289 417.327 150.929 419.888 149.923C422.86 153.15 425.611 156.292 428.687 159.781C426.342 161.306 423.929 162.78 421.434 164.468C418.166 160.804 415.096 157.198 411.844 153.654Z" fill="#1A1A1A"/>
<path fill-rule="evenodd" clip-rule="evenodd" d="M421.164 149.422C423.499 148.322 425.619 147.181 427.818 146.227C430.611 149.217 433.385 152.152 435.869 155.113C434.056 156.449 431.924 157.729 429.823 159.104C426.84 155.801 423.986 152.601 421.166 149.422H421.164Z" fill="#1A1A1A"/>
<path fill-rule="evenodd" clip-rule="evenodd" d="M429.42 145.81C431.55 144.853 433.461 143.952 435.312 142.919C437.526 145.312 440.153 148.123 442.401 150.696C440.797 151.857 438.976 153.013 437.134 154.322C434.644 151.431 431.97 148.584 429.42 145.81Z" fill="#1A1A1A"/>
<path fill-rule="evenodd" clip-rule="evenodd" d="M436.335 142.397C438.114 141.606 439.886 140.825 441.447 140.028C443.617 142.332 445.704 144.611 447.861 146.863C446.495 147.896 444.918 148.849 443.43 150.124C441.08 147.47 438.799 144.934 436.335 142.399V142.397Z" fill="#1A1A1A"/>
<path fill-rule="evenodd" clip-rule="evenodd" d="M441.902 139.588C443.453 138.849 444.796 138.024 446.278 137.356C448.156 139.281 450.145 141.399 452.148 143.479C450.911 144.407 449.715 145.454 448.363 146.522C446.258 144.205 444.072 141.939 441.902 139.588Z" fill="#1A1A1A"/>
<path fill-rule="evenodd" clip-rule="evenodd" d="M446.92 136.706C448.099 135.834 449.269 135.014 450.436 134.398C452.36 136.417 454.1 138.252 455.853 140.122C454.936 141.108 453.915 142.024 452.837 142.999C450.834 140.846 448.847 138.795 446.92 136.704V136.706Z" fill="#1A1A1A"/>
<path fill-rule="evenodd" clip-rule="evenodd" d="M451.115 133.958C452.176 133.38 453.183 132.773 454.042 132.015C455.671 133.739 457.159 135.299 458.908 137.166C458.153 138.006 457.393 138.826 456.531 139.673C454.78 137.852 453.042 136.061 451.115 133.958Z" fill="#1A1A1A"/>
<path fill-rule="evenodd" clip-rule="evenodd" d="M288.613 127.616C295.548 126.663 302.157 125.848 308.571 124.844C312.572 129.646 316.602 134.276 320.845 139.095C314.732 140.384 308.225 141.601 301.293 143.313C297.036 137.943 292.768 132.773 288.611 127.616H288.613Z" fill="#1A1A1A"/>
<path fill-rule="evenodd" clip-rule="evenodd" d="M417.311 102.896C419.199 102.911 420.988 102.915 422.679 102.943C424.66 104.93 426.704 106.867 428.614 108.796C426.963 108.767 425.531 109.043 423.724 109.108C421.637 107.022 419.516 104.942 417.31 102.895L417.311 102.896Z" fill="#1A1A1A"/>
<path fill-rule="evenodd" clip-rule="evenodd" d="M417.609 96.7264C419.32 96.9341 420.942 97.0912 422.514 97.2194C424.437 99.0251 426.275 100.76 428.075 102.465C426.629 102.474 425.136 102.456 423.595 102.394C421.664 100.556 419.612 98.617 417.609 96.7264Z" fill="#1A1A1A"/>
<path fill-rule="evenodd" clip-rule="evenodd" d="M292.334 82.3044C298.315 82.6168 303.994 82.8913 309.403 83.1477C312.739 86.4557 316.039 89.8106 319.443 93.0139C314.032 93.0464 308.618 92.9706 302.793 92.8911C299.414 89.3087 295.838 85.8056 292.336 82.3044H292.334Z" fill="#1A1A1A"/>
<path fill-rule="evenodd" clip-rule="evenodd" d="M176.202 220.224C191.422 214.002 205.38 208.5 218.662 203.413C223.837 212.976 229.377 223.252 234.429 234.261C221.389 241.076 207.731 247.995 192.462 255.398C187.299 243.436 181.723 231.583 176.204 220.224H176.202Z" fill="#1A1A1A"/>
<path fill-rule="evenodd" clip-rule="evenodd" d="M262.376 186.32C272.006 182.742 281.173 179.558 289.672 176.425C294.622 183.505 299.667 191.012 304.573 198.601C296.45 202.757 287.502 206.979 278.358 211.25C273.031 202.889 267.714 194.283 262.378 186.322L262.376 186.32Z" fill="#1A1A1A"/>
<path fill-rule="evenodd" clip-rule="evenodd" d="M320.816 166.245C327.469 163.993 333.541 161.937 339.322 159.819C343.514 164.979 347.899 170.586 352.107 176.35C346.602 179.008 340.576 181.828 334.492 184.742C330.093 178.339 325.356 172.065 320.814 166.245H320.816Z" fill="#1A1A1A"/>
<path fill-rule="evenodd" clip-rule="evenodd" d="M342.624 158.795C348.135 156.946 353.298 155.312 358.246 153.818C362.39 158.71 366.413 163.676 370.558 168.614C365.851 170.624 361.055 172.643 355.867 175.154C351.372 169.387 347.066 163.833 342.624 158.795Z" fill="#1A1A1A"/>
<path fill-rule="evenodd" clip-rule="evenodd" d="M360.378 153.275C364.966 151.796 369.417 150.341 373.784 148.862C377.422 153.174 381.062 157.412 384.782 161.809C380.759 163.609 376.512 165.629 372.189 167.576C368.143 162.699 364.147 157.879 360.38 153.273L360.378 153.275Z" fill="#1A1A1A"/>
<path fill-rule="evenodd" clip-rule="evenodd" d="M376.669 147.986C380.583 146.807 384.417 145.673 387.92 144.544C391.578 148.62 395.051 152.412 398.477 156.487C395.192 157.782 391.657 159.25 387.787 161.099C384.136 156.46 380.289 152.114 376.669 147.986Z" fill="#1A1A1A"/>
<path fill-rule="evenodd" clip-rule="evenodd" d="M389.636 144.18C393.194 143.199 396.383 142.076 399.587 141.155C402.726 144.544 405.927 148.188 408.91 151.718C406.016 152.984 403.04 154.391 399.585 155.563C396.377 151.899 392.971 147.932 389.638 144.18H389.636Z" fill="#1A1A1A"/>
<path fill-rule="evenodd" clip-rule="evenodd" d="M401.293 140.606C404.359 139.781 407.246 139.066 409.972 138.27C412.848 141.406 415.807 144.492 418.538 147.563C416.043 148.511 413.309 149.629 410.594 150.971C407.558 147.415 404.434 144.033 401.293 140.606Z" fill="#1A1A1A"/>
<path fill-rule="evenodd" clip-rule="evenodd" d="M411.227 137.876C413.825 137.161 416.311 136.403 418.69 135.572C421.348 138.434 424.032 141.287 426.538 144.07C424.444 145.073 422.132 146.07 419.759 147.004C416.919 143.999 414.112 140.91 411.225 137.876H411.227Z" fill="#1A1A1A"/>
<path fill-rule="evenodd" clip-rule="evenodd" d="M420.322 135.285C422.623 134.588 424.666 133.802 426.64 133.181C429.084 135.631 431.49 138.143 433.869 140.579C432.118 141.664 430.111 142.645 427.939 143.522C425.379 140.716 422.889 138.011 420.32 135.285H420.322Z" fill="#1A1A1A"/>
<path fill-rule="evenodd" clip-rule="evenodd" d="M428.092 133.062C430.004 132.403 431.906 131.849 433.75 131.341C435.766 133.45 437.99 135.754 440.035 137.995C438.378 138.678 436.762 139.454 434.987 140.213C432.755 137.871 430.44 135.516 428.092 133.06V133.062Z" fill="#1A1A1A"/>
<path fill-rule="evenodd" clip-rule="evenodd" d="M434.252 130.957C435.843 130.307 437.422 129.705 439.044 129.171C440.971 131.166 443.052 133.398 444.954 135.413C443.521 136.134 442.131 136.901 440.634 137.641C438.54 135.424 436.36 133.243 434.25 130.959L434.252 130.957Z" fill="#1A1A1A"/>
<path fill-rule="evenodd" clip-rule="evenodd" d="M439.782 128.721C441.247 128.176 442.56 127.694 443.918 127.28C445.799 129.142 447.643 130.962 449.45 132.901C448.238 133.485 447.068 134.191 445.843 134.963C443.841 132.912 441.855 130.789 439.784 128.721H439.782Z" fill="#1A1A1A"/>
<path fill-rule="evenodd" clip-rule="evenodd" d="M333.182 122.318C338.379 121.787 343.382 121.385 348.179 120.859C351.727 124.678 355.345 128.589 358.954 132.446C354.325 133.223 349.704 134.153 344.514 135.204C340.729 130.825 336.984 126.469 333.182 122.318Z" fill="#1A1A1A"/>
<path fill-rule="evenodd" clip-rule="evenodd" d="M350.359 120.513C354.882 119.944 359.302 119.559 363.273 119.03C366.749 122.598 370.188 126.247 373.416 129.821C369.486 130.583 365.43 131.352 361.05 132.053C357.573 128.31 353.908 124.319 350.359 120.513Z" fill="#1A1A1A"/>
<path fill-rule="evenodd" clip-rule="evenodd" d="M365.243 118.812C369.369 118.414 373.069 118.062 376.658 117.717C379.766 120.874 383.027 124.258 386.13 127.499C382.679 128.149 379.109 128.806 375.351 129.602C372.082 125.915 368.632 122.275 365.243 118.812Z" fill="#1A1A1A"/>
<path fill-rule="evenodd" clip-rule="evenodd" d="M378.351 117.522C381.864 117.186 385.199 116.982 388.383 116.688C391.299 119.631 394.4 122.887 397.215 125.783C394.183 126.294 391.004 126.673 387.747 127.186C384.772 124.082 381.457 120.699 378.349 117.522H378.351Z" fill="#1A1A1A"/>
<path fill-rule="evenodd" clip-rule="evenodd" d="M389.943 116.574C393.017 116.233 395.889 115.816 398.772 115.702C401.482 118.398 404.256 121.204 406.994 124.104C404.41 124.55 401.659 125.061 398.693 125.612C395.838 122.564 392.812 119.512 389.943 116.574Z" fill="#1A1A1A"/>
<path fill-rule="evenodd" clip-rule="evenodd" d="M400.108 115.655C402.793 115.399 405.27 115.162 407.783 114.996C410.427 117.551 413.084 120.18 415.381 122.622C413.178 123.062 410.819 123.517 408.213 123.844C405.562 121.015 402.924 118.342 400.11 115.655H400.108Z" fill="#1A1A1A"/>
<path fill-rule="evenodd" clip-rule="evenodd" d="M408.914 114.911C411.322 114.666 413.668 114.509 415.769 114.281C418.199 116.647 420.591 119.086 422.955 121.443C420.975 121.907 418.705 122.143 416.573 122.457C414.08 119.989 411.611 117.466 408.914 114.913V114.911Z" fill="#1A1A1A"/>
<path fill-rule="evenodd" clip-rule="evenodd" d="M416.98 114.319C419.115 114.13 421.104 113.94 422.989 113.765C425.054 115.903 427.23 118.053 429.422 120.148C427.62 120.451 425.709 120.912 423.889 121.318C421.619 118.958 419.36 116.717 416.98 114.319Z" fill="#1A1A1A"/>
<path fill-rule="evenodd" clip-rule="evenodd" d="M424.145 113.64C425.97 113.512 427.601 113.299 429.273 113.218C431.263 115.108 433.263 117.075 435.271 119.07C433.729 119.355 432.277 119.7 430.634 119.971C428.489 117.871 426.262 115.724 424.145 113.638V113.64Z" fill="#1A1A1A"/>
<path fill-rule="evenodd" clip-rule="evenodd" d="M430.231 113.048C431.803 112.858 433.182 112.689 434.648 112.56C436.551 114.418 438.466 116.219 440.342 118.153C439.053 118.465 437.667 118.692 436.228 119.057C434.265 117.048 432.218 115.023 430.229 113.048H430.231Z" fill="#1A1A1A"/>
<path fill-rule="evenodd" clip-rule="evenodd" d="M435.264 112.526C436.589 112.308 437.721 112.028 438.897 111.806C440.617 113.526 442.392 115.271 443.99 116.887C442.952 117.196 441.769 117.494 440.677 117.858C438.895 116.076 437.028 114.267 435.264 112.526Z" fill="#1A1A1A"/>
<path fill-rule="evenodd" clip-rule="evenodd" d="M439.647 111.654C440.678 111.45 441.799 111.389 442.732 111.138C444.361 112.745 446.002 114.337 447.506 115.872C446.666 116.156 445.822 116.464 444.835 116.73C443.191 115.119 441.413 113.451 439.645 111.654H439.647Z" fill="#1A1A1A"/>
<path fill-rule="evenodd" clip-rule="evenodd" d="M451.365 112.622C451.682 112.351 451.949 111.93 452.176 111.63C453.259 112.777 454.342 113.786 455.246 114.801C455.262 115.3 455.088 115.74 454.869 116.166C453.682 114.991 452.591 113.868 451.367 112.622H451.365Z" fill="#1A1A1A"/>
<path fill-rule="evenodd" clip-rule="evenodd" d="M430.238 103.261C427.647 102.712 425.101 102.162 422.178 101.584C421.49 101.233 420.843 101.073 420.015 100.764C423.118 101.522 425.941 102.124 428.671 102.768C429.309 103.2 429.736 103.001 430.238 103.261Z" fill="#1A1A1A"/>
<path fill-rule="evenodd" clip-rule="evenodd" d="M412.598 100.367C408.929 100.049 405.216 100.058 401.175 99.8737C400.417 99.8033 399.56 99.7401 398.675 99.4711C402.895 99.8737 406.762 99.7834 410.493 100.007C411.371 100.334 412.041 100.217 412.598 100.368V100.367Z" fill="#1A1A1A"/>
<path fill-rule="evenodd" clip-rule="evenodd" d="M339.052 107.996C343.731 107.698 348.375 107.532 352.568 107.261C355.929 110.625 359.249 114.046 362.49 117.53C358.344 117.947 353.926 118.349 349.525 118.86C346.056 115.112 342.467 111.392 339.054 107.994L339.052 107.996Z" fill="#1A1A1A"/>
<path fill-rule="evenodd" clip-rule="evenodd" d="M354.608 107.143C358.796 107.077 362.771 106.992 366.504 106.831C369.532 109.94 372.864 113.196 375.798 116.3C372.267 116.647 368.431 116.916 364.47 117.239C361.262 113.85 357.881 110.424 354.608 107.145V107.143Z" fill="#1A1A1A"/>
<path fill-rule="evenodd" clip-rule="evenodd" d="M368.302 106.817C372 106.726 375.475 106.732 378.903 106.65C381.813 109.422 384.716 112.371 387.536 115.408C384.317 115.583 380.987 115.816 377.516 116.222C374.627 113.133 371.341 109.863 368.3 106.815L368.302 106.817Z" fill="#1A1A1A"/>
<path fill-rule="evenodd" clip-rule="evenodd" d="M380.5 106.551C383.764 106.484 386.807 106.542 389.761 106.446C392.554 109.124 395.27 111.793 397.91 114.442C395.128 114.565 392.218 114.915 389.101 115.253C386.259 112.353 383.357 109.357 380.5 106.551Z" fill="#1A1A1A"/>
<path fill-rule="evenodd" clip-rule="evenodd" d="M391.185 106.38C394.112 106.436 396.66 106.298 399.329 106.324C401.96 108.864 404.518 111.309 406.997 113.797C404.535 114.019 401.965 114.229 399.244 114.399C396.605 111.703 393.921 109.153 391.185 106.38Z" fill="#1A1A1A"/>
<path fill-rule="evenodd" clip-rule="evenodd" d="M400.55 106.233C403.163 106.204 405.531 106.195 407.896 106.11C410.32 108.451 412.664 110.764 415.02 113.124C412.907 113.532 410.616 113.635 408.217 113.801C405.644 111.246 403.229 108.777 400.549 106.233H400.55Z" fill="#1A1A1A"/>
<path fill-rule="evenodd" clip-rule="evenodd" d="M408.999 106.138C411.206 106.138 413.449 106.237 415.361 106.185C417.575 108.256 419.843 110.473 422.084 112.596C420.159 112.71 418.177 112.871 416.085 113.118C413.822 110.773 411.378 108.474 408.999 106.138Z" fill="#1A1A1A"/>
<path fill-rule="evenodd" clip-rule="evenodd" d="M327.326 95.5184C332.249 95.5708 336.999 95.6412 341.438 95.7514C344.677 98.998 347.907 102.12 351.097 105.34C346.731 105.486 342.138 105.704 337.527 105.903C334.071 102.411 330.603 98.8698 327.326 95.5202V95.5184Z" fill="#1A1A1A"/>
<path fill-rule="evenodd" clip-rule="evenodd" d="M343.511 95.8976C347.844 95.912 352.037 96.1016 355.938 96.2298C359.005 99.211 362.093 102.192 365.067 105.153C361.273 105.116 357.207 105.177 353.11 105.367C349.978 102.073 346.777 98.9871 343.511 95.8976Z" fill="#1A1A1A"/>
<path fill-rule="evenodd" clip-rule="evenodd" d="M357.91 96.2623C361.752 96.3382 365.472 96.4898 368.984 96.6469C371.784 99.3392 374.635 102.116 377.489 105.036C374.123 105.06 370.594 105.126 366.954 105.182C363.987 102.178 360.899 99.1406 357.912 96.2623H357.91Z" fill="#1A1A1A"/>
<path fill-rule="evenodd" clip-rule="evenodd" d="M370.597 96.665C374.092 96.8637 377.11 96.9251 380.298 97.1056C383.129 99.7365 385.698 102.263 388.418 104.892C385.38 104.906 382.29 104.874 378.981 104.939C376.306 102.143 373.45 99.3663 370.597 96.665Z" fill="#1A1A1A"/>
<path fill-rule="evenodd" clip-rule="evenodd" d="M381.933 97.2428C384.837 97.2988 387.68 97.38 390.509 97.5462C393.129 100.072 395.637 102.47 398.068 104.83C395.533 104.958 392.806 104.977 389.838 104.912C387.212 102.272 384.584 99.7978 381.933 97.2428Z" fill="#1A1A1A"/>
<path fill-rule="evenodd" clip-rule="evenodd" d="M391.898 97.5896C394.665 97.7792 397.099 97.8839 399.434 97.9778C401.907 100.257 404.437 102.555 406.703 104.783C404.391 104.821 401.974 104.897 399.323 104.83C396.89 102.479 394.426 100.087 391.898 97.5896Z" fill="#1A1A1A"/>
<path fill-rule="evenodd" clip-rule="evenodd" d="M400.89 98.2522C403.35 98.4562 405.528 98.57 407.747 98.7018C410.01 100.843 412.376 103.052 414.562 105.262C412.474 105.101 410.277 105.072 407.983 104.978C405.709 102.84 403.448 100.704 400.89 98.254V98.2522Z" fill="#1A1A1A"/>
<path fill-rule="evenodd" clip-rule="evenodd" d="M333.076 85.4843C337.582 85.7407 341.846 85.9158 345.969 86.2517C349.024 89.166 351.975 91.9865 354.958 95.0236C350.89 94.7492 346.822 94.7203 342.412 94.5921C339.416 91.5495 336.288 88.5124 333.078 85.4843H333.076Z" fill="#1A1A1A"/>
<path fill-rule="evenodd" clip-rule="evenodd" d="M348.032 86.5424C352.067 86.7265 355.776 87.0732 359.518 87.4669C362.361 90.0833 365.116 92.7503 367.936 95.466C364.301 95.1627 360.763 95.1536 356.832 95.0308C353.871 92.1345 350.895 89.1877 348.032 86.5424Z" fill="#1A1A1A"/>
<path fill-rule="evenodd" clip-rule="evenodd" d="M361.246 87.6132C364.799 87.8876 368.092 88.2379 371.427 88.5991C374.127 91.0439 376.735 93.5899 379.451 96.1432C376.236 95.8163 373.078 95.7495 369.547 95.4895C366.9 92.9309 364.086 90.291 361.246 87.6132Z" fill="#1A1A1A"/>
<path fill-rule="evenodd" clip-rule="evenodd" d="M373.051 88.7164C376.193 88.9963 379.153 89.166 382.091 89.4459C384.627 91.815 387.09 94.1569 389.606 96.5585C386.779 96.4122 383.99 96.2876 380.86 96.1468C378.186 93.6261 375.707 91.1758 373.051 88.7164Z" fill="#1A1A1A"/>
<path fill-rule="evenodd" clip-rule="evenodd" d="M383.551 89.6229C386.204 89.7981 388.846 90.0491 391.564 90.4337C393.951 92.6131 396.34 94.8847 398.661 97.0587C396.19 96.9395 393.628 96.694 390.993 96.6271C388.425 94.2238 385.956 91.945 383.551 89.6229Z" fill="#1A1A1A"/>
<path fill-rule="evenodd" clip-rule="evenodd" d="M399.685 92.1292C402.018 92.4181 404.254 92.6835 406.306 92.8641C408.415 94.8015 410.665 96.8546 412.835 98.8932C410.772 98.709 408.647 98.6603 406.528 98.5285C404.374 96.414 402.046 94.2779 399.685 92.131V92.1292Z" fill="#1A1A1A"/>
<path fill-rule="evenodd" clip-rule="evenodd" d="M407.566 92.9724C409.565 93.1476 411.473 93.2758 413.323 93.5087C415.261 95.3758 417.216 97.12 419.079 98.9438C417.442 98.9203 415.573 98.7867 413.79 98.7307C411.797 96.8727 409.636 94.8485 407.566 92.9724Z" fill="#1A1A1A"/>
<path fill-rule="evenodd" clip-rule="evenodd" d="M337.95 77.2197C342.004 77.6982 345.913 78.1587 349.852 78.6282C352.643 81.2247 355.366 83.7418 358.233 86.3817C354.368 85.8798 350.741 85.6613 346.606 85.2153C343.781 82.4815 340.845 79.9066 337.95 77.2197Z" fill="#1A1A1A"/>
<path fill-rule="evenodd" clip-rule="evenodd" d="M351.663 78.8177C355.272 79.2114 358.898 79.7224 362.344 80.1539C364.9 82.5663 367.564 85.0022 370.233 87.4994C366.858 87.1256 363.599 86.8638 359.958 86.5605C357.096 83.879 354.363 81.3854 351.663 78.8159V78.8177Z" fill="#1A1A1A"/>
<path fill-rule="evenodd" clip-rule="evenodd" d="M363.993 80.3472C367.197 80.7119 370.34 81.1435 373.562 81.6274C376.018 83.9314 378.364 86.0405 380.928 88.4005C377.994 88.1206 374.998 87.8841 371.846 87.6746C369.228 85.1629 366.52 82.6693 363.993 80.3472Z" fill="#1A1A1A"/>
<path fill-rule="evenodd" clip-rule="evenodd" d="M374.966 81.8458C377.811 82.281 380.654 82.6566 383.354 83.0213C385.7 85.1737 388.154 87.3333 390.485 89.4531C387.807 89.1787 385.171 88.8898 382.391 88.5756C379.819 86.2481 377.386 84.0451 374.966 81.8458Z" fill="#1A1A1A"/>
<path fill-rule="evenodd" clip-rule="evenodd" d="M392.056 84.874C394.504 85.2677 396.771 85.5385 398.899 85.813C401.098 87.8263 403.317 89.8089 405.402 91.8367C403.308 91.6182 401.165 91.4015 398.788 91.0982C396.576 89.0415 394.374 87.0228 392.056 84.8758V84.874Z" fill="#1A1A1A"/>
<path fill-rule="evenodd" clip-rule="evenodd" d="M400.478 86.4178C402.645 86.7067 404.575 87.0101 406.544 87.3748C408.591 89.1986 410.6 91.0042 412.75 92.9471C410.903 92.7052 408.905 92.5535 406.907 92.3874C404.815 90.3867 402.688 88.4059 400.476 86.416L400.478 86.4178Z" fill="#1A1A1A"/>
<path fill-rule="evenodd" clip-rule="evenodd" d="M329.253 67.6262C333.527 68.2961 337.562 68.8938 341.442 69.5637C344.229 71.8822 346.873 74.2657 349.732 76.8767C345.822 76.279 341.874 75.8529 337.84 75.331C334.964 72.6731 332.124 70.1505 329.255 67.6244L329.253 67.6262Z" fill="#1A1A1A"/>
<path fill-rule="evenodd" clip-rule="evenodd" d="M343.284 69.7568C347.103 70.4141 350.75 70.9269 354.329 71.5463C356.807 73.8449 359.404 76.0623 362.035 78.471C358.564 77.969 354.98 77.5285 351.357 76.9777C348.702 74.5653 346.049 72.2144 343.284 69.7568Z" fill="#1A1A1A"/>
<path fill-rule="evenodd" clip-rule="evenodd" d="M333.391 61.2142C337.276 61.8986 340.999 62.6497 344.639 63.3287C347.258 65.6454 349.818 67.8681 352.382 70.0982C348.947 69.5095 345.218 68.9407 341.306 68.2762C338.722 65.9776 336.026 63.6013 333.389 61.2142H333.391Z" fill="#1A1A1A"/>
<path fill-rule="evenodd" clip-rule="evenodd" d="M291.134 63.6465C296.722 64.4175 301.926 65.1344 306.877 65.649C310.17 68.4857 313.186 71.3964 316.104 74.1266C311.299 73.724 306.182 73.1461 300.756 72.5629C297.67 69.6178 294.46 66.6331 291.135 63.6483L291.134 63.6465Z" fill="#1A1A1A"/>
<path fill-rule="evenodd" clip-rule="evenodd" d="M441.951 118.687C443.138 118.36 444.225 118.014 445.262 117.734C446.874 119.326 448.54 120.951 450.118 122.739C449.316 123.156 448.371 123.658 447.373 124.113C445.649 122.374 443.794 120.473 441.951 118.687Z" fill="#1A1A1A"/>
<path fill-rule="evenodd" clip-rule="evenodd" d="M437.506 119.81C438.897 119.483 440.187 119.128 441.427 118.806C443.319 120.72 445.127 122.56 446.849 124.308C445.847 124.857 444.744 125.37 443.539 125.895C441.579 123.862 439.536 121.782 437.506 119.81Z" fill="#1A1A1A"/>
<path fill-rule="evenodd" clip-rule="evenodd" d="M432.34 120.982C433.937 120.699 435.388 120.305 436.787 119.906C438.91 122.053 440.953 124.086 442.862 126.072C441.556 126.495 440.242 126.991 438.683 127.385C436.588 125.243 434.408 123.091 432.338 120.982H432.34Z" fill="#1A1A1A"/>
<path fill-rule="evenodd" clip-rule="evenodd" d="M425.743 122.298C427.611 121.896 429.423 121.47 431.223 121.184C433.341 123.284 435.56 125.639 437.703 127.862C436.083 128.302 434.502 128.947 432.867 129.586C430.541 127.083 428.084 124.705 425.743 122.297V122.298Z" fill="#1A1A1A"/>
<path fill-rule="evenodd" clip-rule="evenodd" d="M418.578 123.483C420.761 123.156 422.933 122.829 424.762 122.412C427.15 124.781 429.605 127.19 431.979 129.673C430.133 130.274 428.186 130.796 426.176 131.365C423.77 128.786 421.236 126.181 418.578 123.483Z" fill="#1A1A1A"/>
<path fill-rule="evenodd" clip-rule="evenodd" d="M410.405 125.043C412.919 124.655 415.227 124.218 417.429 123.754C420.18 126.545 422.757 129.227 425.163 131.767C423.142 132.345 420.953 133.066 418.707 133.743C415.885 130.762 413.276 128.023 410.405 125.041V125.043Z" fill="#1A1A1A"/>
<path fill-rule="evenodd" clip-rule="evenodd" d="M401.178 126.98C404.036 126.493 406.691 125.942 409.28 125.417C412.049 128.36 414.804 131.193 417.576 134.122C415.203 134.895 412.668 135.648 410.071 136.406C407.135 133.206 404.078 130 401.178 126.98Z" fill="#1A1A1A"/>
<path fill-rule="evenodd" clip-rule="evenodd" d="M389.505 128.672C392.786 128.019 395.926 127.529 398.848 127.103C401.846 130.09 404.887 133.358 407.866 136.549C405.103 137.208 402.12 137.917 399.144 138.9C395.867 135.303 392.747 131.962 389.503 128.672H389.505Z" fill="#1A1A1A"/>
<path fill-rule="evenodd" clip-rule="evenodd" d="M377.502 130.796C381.198 130.075 384.838 129.261 388.032 128.631C391.305 132.067 394.619 135.455 397.747 138.967C394.595 139.929 391.26 140.98 387.62 141.839C384.285 138.132 380.923 134.535 377.502 130.798V130.796Z" fill="#1A1A1A"/>
<path fill-rule="evenodd" clip-rule="evenodd" d="M363.234 133.342C367.515 132.598 371.761 131.953 375.428 130.897C378.881 134.703 382.41 138.542 385.686 142.28C382.046 143.333 378.222 144.403 374.174 145.422C370.472 141.271 366.929 137.341 363.232 133.342H363.234Z" fill="#1A1A1A"/>
<path fill-rule="evenodd" clip-rule="evenodd" d="M347.068 136.758C352.098 135.72 356.723 134.792 361.071 133.806C364.804 137.905 368.574 142 372.258 146.27C367.721 147.525 363.537 149.091 358.736 150.317C354.769 145.758 350.848 141.218 347.068 136.758Z" fill="#1A1A1A"/>
<path fill-rule="evenodd" clip-rule="evenodd" d="M328.384 141.032C334.267 139.88 339.48 138.791 344.737 137.648C348.66 142.15 352.574 146.733 356.493 151.213C351.585 152.834 346.386 154.421 340.932 156.046C336.617 150.79 332.516 145.848 328.384 141.032Z" fill="#1A1A1A"/>
<path fill-rule="evenodd" clip-rule="evenodd" d="M133.908 115.011C137.611 112.053 141.237 109.068 144.55 106.344C149.903 109.372 155.232 112.192 160.614 115.39C157.611 118.523 154.637 121.807 151.043 125.168C145.24 121.741 139.44 118.333 133.91 115.011H133.908Z" fill="#1A1A1A"/>
<path fill-rule="evenodd" clip-rule="evenodd" d="M315.574 108.94C317.047 107.458 318.486 106.078 319.983 104.897C322.068 106.356 324.24 107.911 326.385 109.39C325.053 110.793 323.795 112.3 322.444 113.996C320.135 112.271 317.833 110.56 315.572 108.94H315.574Z" fill="#1A1A1A"/>
<path fill-rule="evenodd" clip-rule="evenodd" d="M373.882 54.1721C374.455 53.2981 374.982 52.3881 375.466 51.4762C377.342 53.0273 379.346 54.7066 381.312 56.3425C381.006 57.3916 380.572 58.3504 380.082 59.3778C378.025 57.6498 375.932 55.8929 373.884 54.1721H373.882Z" fill="#1A1A1A"/>
<path fill-rule="evenodd" clip-rule="evenodd" d="M69.2882 205.784C73.9171 202.163 78.283 198.695 82.5236 195.641C88.0452 197.339 93.4635 199.348 99.1484 201.266C95.0258 204.603 90.9684 208.209 86.7986 212.095C80.8687 209.866 74.8026 207.859 69.2864 205.782L69.2882 205.784Z" fill="#1A1A1A"/>
<path fill-rule="evenodd" clip-rule="evenodd" d="M360.669 65.9162C361.124 65.416 361.483 64.9285 361.841 64.459C363.06 65.3438 364.287 66.2123 365.472 67.079C365.198 67.6153 364.915 68.2455 364.597 68.7727C363.285 67.8248 362.022 66.884 360.669 65.9144V65.9162Z" fill="#1A1A1A"/>
<path fill-rule="evenodd" clip-rule="evenodd" d="M318.651 43.0329C319.75 42.5653 320.792 42.1517 321.823 41.7708C323.378 42.8271 324.931 43.9195 326.521 45.0715C325.653 45.5934 324.701 46.0574 323.617 46.6569C321.999 45.3947 320.324 44.2156 318.651 43.0347V43.0329Z" fill="#1A1A1A"/>
<path fill-rule="evenodd" clip-rule="evenodd" d="M84.7809 85.8833C89.1395 84.0921 93.1914 82.5284 97.0418 81.0549C102.021 83.117 106.735 85.0924 111.246 87.187C107.768 88.9223 104.104 90.699 100.005 92.8839C94.7428 90.4336 89.6294 88.0032 84.7809 85.8833Z" fill="#1A1A1A"/>
<path fill-rule="evenodd" clip-rule="evenodd" d="M336.475 40.2412C337.139 39.9289 337.637 39.519 338.163 39.2102C339.429 40.0372 340.636 40.9707 341.855 41.8718C341.409 42.2672 340.997 42.7349 340.458 43.096C339.244 42.1697 337.862 41.1892 336.475 40.2412Z" fill="#1A1A1A"/>
<path fill-rule="evenodd" clip-rule="evenodd" d="M364.183 33.4195C364.535 33.1631 364.92 32.9663 365.267 32.7297C366.179 33.4358 367.179 34.1652 368.056 34.8388C367.753 35.1132 367.49 35.3913 367.219 35.7091C366.219 34.9561 365.181 34.1887 364.183 33.4195Z" fill="#1A1A1A"/>
<path fill-rule="evenodd" clip-rule="evenodd" d="M431.084 102.949C431.233 102.57 431.429 102.19 431.531 101.826C432.26 102.324 432.94 102.893 433.67 103.413C433.614 103.853 433.512 104.271 433.41 104.688C432.588 104.104 431.857 103.527 431.084 102.949Z" fill="#1A1A1A"/>
<path fill-rule="evenodd" clip-rule="evenodd" d="M65.9406 144.664C69.0434 143.181 71.5548 141.782 74.204 140.442C78.0944 141.542 81.8197 142.536 85.5322 143.613C83.255 144.987 80.6765 146.588 77.9475 148.105C73.8811 147 69.8981 145.798 65.9406 144.664Z" fill="#1A1A1A"/>
<path fill-rule="evenodd" clip-rule="evenodd" d="M294.282 35.8607C295.371 35.5393 296.483 35.319 297.425 34.9904C298.94 35.9781 300.54 37.0037 301.974 37.9553C301.061 38.3561 300.206 38.6974 299.197 39.073C297.689 38.0383 295.926 36.8972 294.282 35.8607Z" fill="#1A1A1A"/>
<path fill-rule="evenodd" clip-rule="evenodd" d="M334.401 11.4444C335.092 11.3162 335.784 11.2061 336.462 11.1718C337.602 11.894 338.687 12.7192 339.777 13.5101C339.131 13.6221 338.482 13.7448 337.83 13.8875C336.665 13.0352 335.533 12.2245 334.401 11.4444Z" fill="#1A1A1A"/>
<path fill-rule="evenodd" clip-rule="evenodd" d="M351.614 41.3554C352.241 41.1568 352.86 41.0159 353.439 40.839C354.413 41.5396 355.517 42.3088 356.54 43.0022C355.958 43.208 355.42 43.3994 354.834 43.6089C353.731 42.8433 352.713 42.1228 351.612 41.3554H351.614Z" fill="#1A1A1A"/>
<path fill-rule="evenodd" clip-rule="evenodd" d="M457.511 122.28C457.689 121.991 457.821 121.764 458.001 121.475C458.576 121.869 459.15 122.266 459.678 122.636C459.549 122.934 459.465 123.214 459.286 123.456C458.709 123.082 458.085 122.679 457.511 122.28Z" fill="#1A1A1A"/>
<path fill-rule="evenodd" clip-rule="evenodd" d="M366.408 57.4657C367.036 57.2598 367.624 57.0233 368.201 56.8716C369.119 57.4945 370.128 58.1626 371.097 58.7838C370.514 58.9896 369.932 59.2063 369.389 59.4519C368.426 58.7964 367.415 58.1374 366.408 57.4657Z" fill="#1A1A1A"/>
<path fill-rule="evenodd" clip-rule="evenodd" d="M268.731 66.0823C270.094 65.7266 271.4 65.3637 272.656 65.0278C274.309 65.918 275.918 66.7649 277.662 67.6966C276.372 67.9909 275.105 68.3936 273.841 68.7674C272.197 67.8501 270.397 66.94 268.731 66.0823Z" fill="#1A1A1A"/>
<path fill-rule="evenodd" clip-rule="evenodd" d="M381.61 71.5661C382.193 71.3621 382.78 71.093 383.316 70.8782C384.218 71.4795 385.031 72.0302 385.891 72.617C385.401 72.8446 384.907 73.101 384.366 73.3754C383.463 72.7507 382.555 72.2053 381.61 71.5643V71.5661Z" fill="#1A1A1A"/>
<path fill-rule="evenodd" clip-rule="evenodd" d="M374.218 47.6645C374.728 47.5326 375.227 47.4821 375.733 47.3882C376.475 47.8938 377.253 48.4589 378.001 48.9338C377.584 49.0241 377.076 49.1541 376.651 49.2986C375.827 48.7298 375.045 48.1809 374.218 47.6663V47.6645Z" fill="#1A1A1A"/>
<path fill-rule="evenodd" clip-rule="evenodd" d="M-0.000322509 177.933C4.14047 176.687 8.51895 175.208 12.9446 173.925C17.0437 174.802 21.4712 175.427 25.6338 176.194C21.6545 177.411 17.3449 178.838 13.3638 180.252C8.71312 179.47 4.41084 178.749 -0.000322509 177.935V177.933Z" fill="#1A1A1A"/>
<path fill-rule="evenodd" clip-rule="evenodd" d="M318.225 18.8892C319.137 18.9253 319.959 18.9343 320.781 18.9415C321.745 19.5536 322.75 20.1929 323.788 20.8772C322.97 20.8393 322.22 20.9079 321.395 20.9007C320.357 20.2181 319.317 19.5284 318.226 18.8892H318.225Z" fill="#1A1A1A"/>
<path fill-rule="evenodd" clip-rule="evenodd" d="M450.55 119.646C450.83 119.438 451.109 119.223 451.292 119.025C451.813 119.357 452.383 119.736 452.858 120.04C452.675 120.262 452.445 120.451 452.214 120.69C451.644 120.305 451.12 119.984 450.55 119.648V119.646Z" fill="#1A1A1A"/>
<path fill-rule="evenodd" clip-rule="evenodd" d="M204.505 97.5137C206.566 97.0117 208.774 96.712 210.877 96.257C212.95 96.9774 214.835 97.6076 216.688 98.3479C214.779 98.6982 212.712 99.1912 210.554 99.6841C208.538 98.9402 206.468 98.2251 204.506 97.5137H204.505Z" fill="#1A1A1A"/>
<path fill-rule="evenodd" clip-rule="evenodd" d="M211.541 134.924C213.401 133.763 215.241 132.607 217.092 131.601C219.683 132.596 222.325 133.766 224.985 134.895C223.263 136.041 221.552 137.159 219.823 138.463C216.94 137.156 214.209 136.06 211.541 134.922V134.924Z" fill="#1A1A1A"/>
<path fill-rule="evenodd" clip-rule="evenodd" d="M456.426 129.113C456.604 128.602 456.732 128.08 456.863 127.634C457.591 128.156 458.369 128.734 459.149 129.335C459.071 129.857 458.992 130.449 458.868 130.984C458.084 130.368 457.255 129.742 456.426 129.111V129.113Z" fill="#1A1A1A"/>
<path fill-rule="evenodd" clip-rule="evenodd" d="M256.577 88.7273C258.254 87.7702 259.8 86.9162 261.235 86.0837C263.442 87.3062 265.741 88.6045 268.038 89.9262C266.594 90.8128 265.304 91.8782 263.694 92.7936C261.252 91.4231 258.92 90.0598 256.577 88.7273Z" fill="#1A1A1A"/>
</g>
<defs>
<clipPath id="clip0_322_1576">
<rect width="472" height="257" fill="white" transform="matrix(-1 0 0 1 472 0)"/>
</clipPath>
</defs>
</svg>
