<svg width="263" height="395" viewBox="0 0 263 395" fill="none" xmlns="http://www.w3.org/2000/svg">
<g clip-path="url(#clip0_181_1247)">
<path fill-rule="evenodd" clip-rule="evenodd" d="M258.702 18.7648C259.251 19.148 259.051 19.7019 261.426 19.3567C265.315 18.0664 260.695 19.7099 261.356 19.5574C260.209 19.3668 260.767 18.6624 260.829 18.231C260.314 18.3634 259.484 18.542 258.702 18.7648Z" fill="#1A1A1A"/>
<path fill-rule="evenodd" clip-rule="evenodd" d="M-2.12201 1.09726C4.15146 -4.87487 9.35142 -10.4156 14.1543 -15.6291C6.04109 -21.519 -1.83466 -26.9774 -10.5644 -32.7368C-13.7171 -30.1621 -17.2569 -27.5333 -21.0023 -24.782L-21.0023 -10.7105C-14.5233 -6.74518 -8.25979 -2.81192 -2.12201 1.09726Z" fill="#1A1A1A"/>
<path fill-rule="evenodd" clip-rule="evenodd" d="M-11.7057 80.0534C-4.90342 69.9454 1.53964 61.1939 7.46191 52.0611C-1.77668 46.6147 -10.9095 40.9536 -21.0021 35.2363L-21.0021 75.0787C-17.8694 76.7222 -14.7706 78.3798 -11.7057 80.0534Z" fill="#1A1A1A"/>
<path fill-rule="evenodd" clip-rule="evenodd" d="M10.0859 47.9673C15.7468 39.9342 21.1682 32.4209 26.1367 25.4674C17.4588 19.6358 8.81287 13.8603 -0.367863 8.10889C-6.61539 14.8596 -13.5713 21.7689 -20.3256 29.6656C-9.68827 35.72 0.240729 42.0132 10.0859 47.9673Z" fill="#1A1A1A"/>
<path fill-rule="evenodd" clip-rule="evenodd" d="M28.4535 22.1402C32.3086 15.4778 36.5607 9.58191 40.5195 3.84857C33.4399 -1.44126 26.0171 -6.90569 18.2731 -12.1875C13.2348 -6.80937 8.09265 -1.29276 2.19432 4.89009C11.4329 10.782 20.1368 16.2885 28.4535 22.1402Z" fill="#1A1A1A"/>
<path fill-rule="evenodd" clip-rule="evenodd" d="M42.6241 1.23776C46.1799 -4.28486 49.7836 -9.31984 52.8105 -14.1702C46.7506 -19.0246 39.8805 -24.19 32.8727 -29.1206C28.9079 -24.6054 25.0389 -19.7932 20.5972 -14.5996C27.9961 -9.5165 35.349 -4.0882 42.6241 1.23776Z" fill="#1A1A1A"/>
<path fill-rule="evenodd" clip-rule="evenodd" d="M83.9191 247.143C87.3871 230.663 90.8052 215.52 94.0576 201.258C85.1961 195.762 76.7338 190.151 67.6528 184.897C63.8037 198.732 58.8432 213.995 53.7909 230.896C64.2487 236.395 74.1418 241.725 83.9191 247.145L83.9191 247.143Z" fill="#1A1A1A"/>
<path fill-rule="evenodd" clip-rule="evenodd" d="M93.9257 152.104C96.4758 140.599 98.99 130.477 100.892 120.403C94.2031 115.463 87.2752 110.083 80.012 104.719C77.0269 114.548 73.8223 124.864 70.2765 135.952C78.2421 141.117 86.4231 146.74 93.9277 152.104L93.9257 152.104Z" fill="#1A1A1A"/>
<path fill-rule="evenodd" clip-rule="evenodd" d="M145.983 138.569C146.35 129.406 146.905 120.833 147.344 112.561C142.264 107.907 137.309 103.352 132.161 98.9731C131.433 106.996 130.507 115.517 129.182 124.581C134.984 129.105 140.603 133.62 145.983 138.569Z" fill="#1A1A1A"/>
<path fill-rule="evenodd" clip-rule="evenodd" d="M0.44 147.134C7.60939 133.648 14.5214 121.766 20.707 110.141C10.1595 104.042 -1.18423 97.7953 -12.506 91.5784C-15.3195 95.3832 -18.141 99.2563 -21.0003 103.228L-21.0003 136.666C-13.6733 140.208 -6.5518 143.69 0.44 147.134Z" fill="#1A1A1A"/>
<path fill-rule="evenodd" clip-rule="evenodd" d="M23.4833 104.763C28.6473 94.2371 33.4442 84.5204 38.1992 75.5943C29.4694 69.8429 20.0991 63.7162 10.4316 58.1836C4.4095 66.8789 -1.77018 76.2324 -8.42676 86.5171C2.72341 92.4592 13.0814 98.6621 23.4833 104.763Z" fill="#1A1A1A"/>
<path fill-rule="evenodd" clip-rule="evenodd" d="M39.5242 70.708C43.9699 62.0127 47.8569 54.088 51.5703 46.5746C44.2114 41.3952 36.597 35.9308 28.853 30.4382C23.9403 37.6526 18.5249 45.5512 12.8281 53.8692C22.4378 59.5765 30.9381 65.081 39.5262 70.708L39.5242 70.708Z" fill="#1A1A1A"/>
<path fill-rule="evenodd" clip-rule="evenodd" d="M54.2779 41.9408C57.4785 34.9974 60.5993 28.4413 63.7041 22.2324C57.3568 17.2777 50.6583 12.3009 43.7763 7.31811C39.7077 13.1959 35.8207 19.3467 31.9397 26.0613C39.2986 31.2649 46.8292 36.645 54.2759 41.9408L54.2779 41.9408Z" fill="#1A1A1A"/>
<path fill-rule="evenodd" clip-rule="evenodd" d="M65.5218 18.6424C68.7104 12.9994 71.063 7.59717 73.3936 2.2371C67.4593 -2.42662 61.3954 -7.21276 55.2676 -12.1313C52.4241 -7.06226 49.1238 -1.76239 45.4583 3.57963C52.2406 8.52831 59.0388 13.6977 65.5218 18.6424Z" fill="#1A1A1A"/>
<path fill-rule="evenodd" clip-rule="evenodd" d="M121.977 93.8139C123.031 86.1441 123.931 78.8354 125.04 71.7415C119.734 67.3166 114.618 62.8595 109.293 58.1677C107.868 64.9285 106.523 72.1248 104.631 79.7906C110.566 84.4985 116.278 89.2184 121.977 93.8159L121.977 93.8139Z" fill="#1A1A1A"/>
<path fill-rule="evenodd" clip-rule="evenodd" d="M172.049 89.6979C171.704 83.0836 171.4 76.8024 171.117 70.8202C167.461 67.1318 163.754 63.4815 160.214 59.7168C160.178 65.701 160.262 71.6892 160.35 78.1309C164.309 81.8675 168.18 85.8228 172.049 89.6959L172.049 89.6979Z" fill="#1A1A1A"/>
<path fill-rule="evenodd" clip-rule="evenodd" d="M19.6398 218.133C26.5159 201.3 32.5958 185.864 38.2168 171.175C27.6493 165.451 16.2936 159.325 4.12779 153.738C-3.40276 168.158 -11.0491 183.263 -19.2301 200.15C-6.01073 205.86 7.08693 212.026 19.6398 218.131L19.6398 218.133Z" fill="#1A1A1A"/>
<path fill-rule="evenodd" clip-rule="evenodd" d="M57.1054 122.83C61.0602 112.18 64.5781 102.042 68.04 92.6419C60.2162 87.1675 51.9214 81.5886 43.5348 76.1624C38.9415 85.1466 34.2763 95.042 29.5572 105.154C38.7958 111.046 48.3058 116.926 57.1034 122.828L57.1054 122.83Z" fill="#1A1A1A"/>
<path fill-rule="evenodd" clip-rule="evenodd" d="M79.2901 58.1997C81.7783 50.8409 84.051 44.1263 86.3916 37.7327C80.6888 33.0971 74.4932 28.2467 68.1239 23.593C65.1867 29.6815 62.07 36.346 58.8494 43.0747C65.925 47.9391 72.859 53.1788 79.2901 58.2017L79.2901 58.1997Z" fill="#1A1A1A"/>
<path fill-rule="evenodd" clip-rule="evenodd" d="M87.5222 34.0804C89.5655 27.9858 91.3713 22.2766 93.0215 16.8041C87.616 12.2207 82.1287 7.77169 76.6714 3.18823C74.4505 8.39378 72.2197 13.6977 69.4441 19.435C75.8173 24.4058 81.9551 29.1678 87.5222 34.0804Z" fill="#1A1A1A"/>
<path fill-rule="evenodd" clip-rule="evenodd" d="M93.6223 14.4463C95.2565 9.37318 96.8648 4.45058 98.499 -0.379709C93.7341 -4.40328 89.0509 -8.42885 84.1922 -12.5427C82.2028 -8.09372 79.97 -3.39589 77.8189 1.38423C83.2084 5.85932 88.5341 10.2782 93.6243 14.4443L93.6223 14.4463Z" fill="#1A1A1A"/>
<path fill-rule="evenodd" clip-rule="evenodd" d="M127.831 44.5236C128.418 38.7762 128.863 33.2436 129.443 27.9377C125.223 24.0144 120.901 20.0129 116.639 16.0215C115.781 21.1407 114.753 26.252 113.592 31.9913C118.431 36.1774 123.244 40.3194 127.831 44.5236Z" fill="#1A1A1A"/>
<path fill-rule="evenodd" clip-rule="evenodd" d="M129.827 25.5276C130.455 20.5247 130.88 15.6362 131.465 11.2454C127.522 7.40045 123.489 3.59762 119.54 0.0275874C118.698 4.37424 117.848 8.85937 117.074 13.7037C121.211 17.5487 125.62 21.6023 129.827 25.5276Z" fill="#1A1A1A"/>
<path fill-rule="evenodd" clip-rule="evenodd" d="M131.706 9.0662C132.145 4.50281 132.534 0.411008 132.915 -3.55838C129.427 -6.99597 125.688 -10.6021 122.106 -14.0337C121.388 -10.2168 120.661 -6.26951 119.781 -2.1135C123.856 1.50269 127.879 5.31756 131.706 9.0662Z" fill="#1A1A1A"/>
<path fill-rule="evenodd" clip-rule="evenodd" d="M143.659 38.0317C143.988 32.8563 144.171 27.721 144.471 23.0833C140.753 19.3668 136.972 15.6944 133.123 12.1104C132.662 16.6958 132.217 21.5823 131.652 26.4487C135.795 30.2856 139.905 34.255 143.661 38.0297L143.659 38.0317Z" fill="#1A1A1A"/>
<path fill-rule="evenodd" clip-rule="evenodd" d="M144.6 20.8278C144.674 16.1962 144.768 11.7994 144.945 7.67148C141.509 4.32219 137.912 0.637763 134.482 -2.60718C134.098 1.29799 133.801 5.54029 133.444 9.92106C137.189 13.469 140.975 17.2076 144.598 20.8278L144.6 20.8278Z" fill="#1A1A1A"/>
<path fill-rule="evenodd" clip-rule="evenodd" d="M144.962 5.6826C145.062 1.59282 145.056 -2.25014 145.146 -6.04092C142.083 -9.25977 138.824 -12.4706 135.468 -15.5891C135.274 -12.0291 135.017 -8.34669 134.568 -4.50775C137.982 -1.31298 141.596 2.32127 144.964 5.68461L144.962 5.6826Z" fill="#1A1A1A"/>
<path fill-rule="evenodd" clip-rule="evenodd" d="M157.446 50.9993C157.388 45.555 157.311 40.3013 157.189 35.3927C153.601 31.8106 150.151 28.2386 146.593 24.7107C146.432 29.539 146.19 34.6181 145.971 39.7173C149.83 43.5402 153.743 47.3751 157.444 50.9993L157.446 50.9993Z" fill="#1A1A1A"/>
<path fill-rule="evenodd" clip-rule="evenodd" d="M157.027 33.1011C157.011 28.309 156.802 23.6713 156.66 19.3568C153.366 15.9653 150.071 12.5498 146.799 9.26074C146.841 13.4569 146.773 17.9541 146.564 22.4853C150.203 25.949 153.613 29.4889 157.027 33.1011Z" fill="#1A1A1A"/>
<path fill-rule="evenodd" clip-rule="evenodd" d="M156.624 17.1755C156.54 12.9272 156.373 8.81327 156.199 4.92817C153.224 1.83173 150.155 -1.3209 146.928 -4.47754C146.903 -0.754988 146.829 3.14817 146.767 7.17375C150.087 10.4548 153.443 13.8703 156.624 17.1735L156.624 17.1755Z" fill="#1A1A1A"/>
<path fill-rule="evenodd" clip-rule="evenodd" d="M156.18 3.144C155.96 -0.721028 155.892 -4.05829 155.693 -7.58417C152.786 -10.7147 149.994 -13.5563 147.089 -16.5645C147.073 -13.2051 147.109 -9.7876 147.037 -6.12726C150.126 -3.16929 153.195 -0.0106336 156.18 3.144Z" fill="#1A1A1A"/>
<path fill-rule="evenodd" clip-rule="evenodd" d="M168.535 44.64C168.252 39.6572 168.058 34.9413 167.687 30.3819C164.467 27.0026 161.35 23.7396 157.994 20.4404C158.297 24.9396 158.329 29.4388 158.47 34.3152C161.833 37.6284 165.189 41.088 168.535 44.638L168.535 44.64Z" fill="#1A1A1A"/>
<path fill-rule="evenodd" clip-rule="evenodd" d="M167.365 28.1003C167.162 23.6373 166.779 19.5355 166.344 15.3975C163.452 12.2529 160.505 9.20665 157.504 6.08813C157.839 10.1077 157.849 14.0209 157.985 18.3675C161.186 21.6426 164.442 24.9337 167.365 28.1003Z" fill="#1A1A1A"/>
<path fill-rule="evenodd" clip-rule="evenodd" d="M166.183 13.4869C165.879 9.55766 165.492 5.91538 165.093 2.22695C162.391 -0.759121 159.578 -3.64284 156.756 -6.64697C157.118 -3.09098 157.191 0.400787 157.479 4.30595C160.306 7.23383 163.223 10.3463 166.183 13.4869Z" fill="#1A1A1A"/>
<path fill-rule="evenodd" clip-rule="evenodd" d="M164.963 0.431068C164.654 -3.04465 164.466 -6.31769 164.157 -9.56664C161.539 -12.3721 158.951 -15.0953 156.297 -17.8787C156.459 -14.7521 156.596 -11.6677 156.752 -8.20605C159.537 -5.24808 162.245 -2.50684 164.963 0.431068Z" fill="#1A1A1A"/>
<path fill-rule="evenodd" clip-rule="evenodd" d="M177.668 39.25C177.139 34.7669 176.63 30.4443 176.112 26.0876C173.242 23.0012 170.461 19.989 167.543 16.8184C168.098 21.0928 168.34 25.1043 168.832 29.6777C171.853 32.8023 174.699 36.0492 177.668 39.25Z" fill="#1A1A1A"/>
<path fill-rule="evenodd" clip-rule="evenodd" d="M175.902 24.0846C175.467 20.0931 174.903 16.0836 174.426 12.2728C171.76 9.44524 169.068 6.49932 166.309 3.54736C166.722 7.27995 167.011 10.8841 167.346 14.9117C170.309 18.0763 173.065 21.0985 175.904 24.0846L175.902 24.0846Z" fill="#1A1A1A"/>
<path fill-rule="evenodd" clip-rule="evenodd" d="M174.212 10.4486C173.809 6.90468 173.332 3.42896 172.797 -0.135054C170.251 -2.85021 167.92 -5.44496 165.313 -8.28052C165.622 -5.03558 165.883 -1.7224 166.115 1.76335C168.89 4.65912 171.646 7.6532 174.212 10.4486Z" fill="#1A1A1A"/>
<path fill-rule="evenodd" clip-rule="evenodd" d="M188.269 48.8683C187.529 44.1424 186.869 39.6794 186.128 35.3889C183.566 32.3065 180.932 29.3826 178.047 26.22C178.708 30.5446 179.179 34.9113 179.755 39.3723C182.692 42.553 185.48 45.6936 188.271 48.8663L188.269 48.8683Z" fill="#1A1A1A"/>
<path fill-rule="evenodd" clip-rule="evenodd" d="M185.915 33.3519C185.189 29.1277 184.622 25.0941 183.938 21.1367C181.398 18.3955 178.947 15.5238 176.285 12.614C176.84 16.453 177.327 20.4163 177.936 24.4238C180.601 27.3597 183.199 30.2936 185.915 33.3519Z" fill="#1A1A1A"/>
<path fill-rule="evenodd" clip-rule="evenodd" d="M195.354 44.2929C194.598 39.9964 193.768 35.8785 193.018 31.8529C190.458 28.9572 188.002 26.1256 185.537 23.29C186.188 27.0888 186.816 31.2128 187.551 35.5393C190.091 38.397 192.717 41.379 195.354 44.2949L195.354 44.2929Z" fill="#1A1A1A"/>
<path fill-rule="evenodd" clip-rule="evenodd" d="M192.667 91.0265C191.815 84.8456 191.023 79.0902 190.454 73.6158C187.319 69.9735 184.103 66.6383 181.086 63.4114C181.531 68.7253 182.169 74.3844 182.814 80.3846C186.068 83.7981 189.367 87.3481 192.665 91.0245L192.667 91.0265Z" fill="#1A1A1A"/>
<path fill-rule="evenodd" clip-rule="evenodd" d="M115.65 11.2875C116.472 6.55352 117.184 1.85769 118.352 -2.19798C114.145 -6.01686 109.903 -9.92002 105.773 -13.5422C104.609 -9.51666 103.426 -5.28841 102.301 -0.811311C106.888 3.28249 111.23 7.20171 115.65 11.2895L115.65 11.2875Z" fill="#1A1A1A"/>
<path fill-rule="evenodd" clip-rule="evenodd" d="M111.874 29.1658C113.022 23.603 114.047 18.4878 115.137 13.6796C110.607 9.55166 106.082 5.3816 101.363 1.30786C99.9758 6.32478 98.2459 10.9524 96.891 16.2623C101.929 20.6491 106.946 24.9857 111.874 29.1658Z" fill="#1A1A1A"/>
<path fill-rule="evenodd" clip-rule="evenodd" d="M107.151 49.8295C108.424 43.3236 109.628 37.5581 110.891 31.7445C105.916 27.4059 100.852 23.0773 95.9014 18.7427C94.1095 24.171 92.3556 29.9204 90.5597 35.9527C96.3683 40.7248 101.83 45.2601 107.151 49.8295Z" fill="#1A1A1A"/>
<path fill-rule="evenodd" clip-rule="evenodd" d="M135.907 264.907C139.175 260.811 142.473 256.801 145.484 253.137C142.138 247.217 139.021 241.323 135.488 235.371C132.026 238.692 128.396 241.981 124.683 245.957C128.47 252.374 132.235 258.788 135.907 264.905L135.907 264.907Z" fill="#1A1A1A"/>
<path fill-rule="evenodd" clip-rule="evenodd" d="M142.615 63.9973C144.254 62.3678 145.778 60.7765 147.083 59.1209C145.471 56.8151 143.753 54.413 142.119 52.041C140.568 53.514 138.902 54.9047 137.028 56.3997C138.934 58.9523 140.826 61.4989 142.615 63.9993L142.615 63.9973Z" fill="#1A1A1A"/>
<path fill-rule="evenodd" clip-rule="evenodd" d="M35.5966 336.372C39.5974 331.252 43.4305 326.424 46.8047 321.734C44.929 315.628 42.7082 309.636 40.5891 303.348C36.9016 307.908 32.9169 312.395 28.6228 317.006C31.0851 323.565 33.304 330.273 35.5986 336.374L35.5966 336.372Z" fill="#1A1A1A"/>
<path fill-rule="evenodd" clip-rule="evenodd" d="M190.159 14.1251C190.712 13.6214 191.251 13.2241 191.77 12.8288C190.792 11.4802 189.832 10.1237 188.874 8.81323C188.282 9.11625 187.585 9.42931 187.003 9.7805C188.05 11.2314 189.09 12.6281 190.161 14.1251L190.159 14.1251Z" fill="#1A1A1A"/>
<path fill-rule="evenodd" clip-rule="evenodd" d="M215.446 60.5937C215.963 59.3776 216.42 58.2257 216.841 57.0859C215.674 55.3661 214.466 53.6483 213.193 51.8904C212.617 52.8496 212.104 53.9032 211.441 55.1012C212.836 56.8912 214.139 58.7435 215.444 60.5937L215.446 60.5937Z" fill="#1A1A1A"/>
<path fill-rule="evenodd" clip-rule="evenodd" d="M168.094 319.238C170.073 314.418 171.801 309.937 173.43 305.678C171.151 300.172 168.968 294.958 166.653 289.969C164.736 293.816 162.772 297.868 160.358 302.401C163.066 308.221 165.751 313.876 168.094 319.238Z" fill="#1A1A1A"/>
<path fill-rule="evenodd" clip-rule="evenodd" d="M218.531 40.8815C218.876 40.147 219.329 39.5971 219.67 39.0152C218.756 37.6145 217.724 36.2799 216.729 34.9314C216.292 35.4251 215.775 35.8806 215.376 36.4766C216.399 37.8191 217.483 39.3483 218.531 40.8815Z" fill="#1A1A1A"/>
<path fill-rule="evenodd" clip-rule="evenodd" d="M226.07 10.238C226.353 9.84869 226.571 9.42326 226.832 9.03997C226.052 8.03056 225.246 6.92483 224.501 5.95557C224.198 6.2907 223.891 6.58167 223.54 6.88068C224.372 7.98641 225.22 9.13428 226.07 10.238Z" fill="#1A1A1A"/>
<path fill-rule="evenodd" clip-rule="evenodd" d="M103.139 340.074C104.777 336.642 106.323 333.865 107.804 330.935C106.589 326.633 105.489 322.513 104.3 318.407C102.781 320.925 101.011 323.777 99.3353 326.795C100.557 331.292 101.885 335.697 103.139 340.074Z" fill="#1A1A1A"/>
<path fill-rule="evenodd" clip-rule="evenodd" d="M223.372 87.5448C223.727 86.3407 223.971 85.1106 224.334 84.0691C223.243 82.3934 222.109 80.6234 221.058 79.0381C220.615 80.0475 220.237 80.9927 219.822 82.1084C220.966 83.7761 222.227 85.7266 223.372 87.5448Z" fill="#1A1A1A"/>
<path fill-rule="evenodd" clip-rule="evenodd" d="M250.353 43.1751C250.495 42.4105 250.616 41.6459 250.654 40.8954C249.856 39.6351 248.944 38.4351 248.07 37.229C247.947 37.9434 247.811 38.6618 247.653 39.3823C248.595 40.6706 249.491 41.9228 250.353 43.1751Z" fill="#1A1A1A"/>
<path fill-rule="evenodd" clip-rule="evenodd" d="M217.299 24.1388C217.519 23.4445 217.675 22.7602 217.87 22.12C217.096 21.0424 216.246 19.8222 215.48 18.6904C215.252 19.3346 215.041 19.9286 214.809 20.5768C215.655 21.7969 216.451 22.9227 217.299 24.1408L217.299 24.1388Z" fill="#1A1A1A"/>
<path fill-rule="evenodd" clip-rule="evenodd" d="M199.497 7.77776C199.724 7.08342 199.986 6.43323 200.153 5.79508C199.465 4.77965 198.727 3.6639 198.04 2.59229C197.813 3.23646 197.573 3.88062 197.302 4.48065C198.026 5.54624 198.755 6.66401 199.497 7.77776Z" fill="#1A1A1A"/>
<path fill-rule="evenodd" clip-rule="evenodd" d="M189.975 115.802C190.368 114.295 190.769 112.85 191.141 111.461C190.157 109.633 189.221 107.853 188.191 105.925C187.866 107.351 187.421 108.752 187.008 110.151C188.022 111.969 189.028 113.96 189.975 115.802Z" fill="#1A1A1A"/>
<path fill-rule="evenodd" clip-rule="evenodd" d="M66.374 413C67.7508 408.421 69.385 403.578 70.8037 398.684C69.834 394.15 69.1436 389.254 68.2955 384.65C66.9506 389.051 65.3743 393.817 63.8119 398.22C64.6759 403.364 65.4721 408.122 66.372 413L66.374 413Z" fill="#1A1A1A"/>
<path fill-rule="evenodd" clip-rule="evenodd" d="M242.126 61.0654C242.086 60.0559 242.076 59.1469 242.068 58.2378C241.392 57.1722 240.685 56.0605 239.929 54.9126C239.971 55.8176 239.895 56.6464 239.903 57.5595C240.657 58.7074 241.42 59.8573 242.126 61.0633L242.126 61.0654Z" fill="#1A1A1A"/>
<path fill-rule="evenodd" clip-rule="evenodd" d="M155.242 186.831C155.797 184.552 156.128 182.109 156.631 179.784C155.835 177.492 155.138 175.407 154.32 173.358C153.933 175.469 153.388 177.755 152.844 180.141C153.666 182.37 154.456 184.66 155.242 186.829L155.242 186.831Z" fill="#1A1A1A"/>
<path fill-rule="evenodd" clip-rule="evenodd" d="M113.902 179.049C115.185 176.992 116.462 174.957 117.573 172.911C116.474 170.045 115.181 167.123 113.934 164.181C112.667 166.086 111.431 167.978 109.991 169.89C111.435 173.079 112.647 176.099 113.904 179.049L113.902 179.049Z" fill="#1A1A1A"/>
<path fill-rule="evenodd" clip-rule="evenodd" d="M164.951 129.243C166.008 127.389 166.952 125.679 167.872 124.092C166.521 121.652 165.087 119.109 163.626 116.569C162.646 118.166 161.469 119.593 160.457 121.373C161.972 124.074 163.478 126.653 164.951 129.243Z" fill="#1A1A1A"/>
</g>
<defs>
<clipPath id="clip0_181_1247">
<rect width="522" height="284" fill="white" transform="translate(263 -109) rotate(90)"/>
</clipPath>
</defs>
</svg>
