<svg width="633" height="331" viewBox="0 0 633 331" fill="none" xmlns="http://www.w3.org/2000/svg">
<g clip-path="url(#clip0_181_3)">
<path fill-rule="evenodd" clip-rule="evenodd" d="M547.549 5.96278C547.016 5.20152 546.247 5.47834 546.726 2.18414C548.519 -3.21114 546.236 3.19732 546.448 2.28103C546.713 3.87277 547.691 3.09766 548.29 3.01185C548.106 3.72605 547.858 4.87764 547.549 5.96278Z" fill="#1A1A1A"/>
<path fill-rule="evenodd" clip-rule="evenodd" d="M598.71 341.661C605.885 335.266 612.203 329.187 618.338 323.338C625.509 332.936 632.867 343.173 640.042 353.271C634.565 360.261 628.519 367.408 622.301 375.306C614.397 363.893 606.827 352.828 598.71 341.661Z" fill="#1A1A1A"/>
<path fill-rule="evenodd" clip-rule="evenodd" d="M621.309 320.648C626.967 315.701 632.39 310.679 637.469 306.015C643.826 314.422 650.421 322.588 657.102 331.3C652.45 337.033 647.706 343.084 642.65 349.891C635.529 340.089 628.33 329.977 621.306 320.648H621.309Z" fill="#1A1A1A"/>
<path fill-rule="evenodd" clip-rule="evenodd" d="M506.99 350.874C518.147 343.02 528.582 335.499 538.24 328.606C546.339 340.645 554.361 352.64 562.349 365.376C552.973 374.044 543.376 383.694 532.409 393.064C524 378.307 515.259 364.532 506.99 350.874Z" fill="#1A1A1A"/>
<path fill-rule="evenodd" clip-rule="evenodd" d="M542.861 325.392C552.114 320.044 560.303 314.145 568.266 308.653C575.613 318.474 583.202 328.772 590.538 339.516C583.068 346.505 575.407 353.639 566.819 361.822C558.636 349.005 550.988 336.93 542.861 325.392Z" fill="#1A1A1A"/>
<path fill-rule="evenodd" clip-rule="evenodd" d="M571.892 305.732C579.563 300.799 586.556 295.8 593.292 291.6C600.034 300.007 607.209 309.539 614.057 319.261C607.785 324.761 601.102 330.129 593.889 336.291C586.829 326.026 579.289 315.825 571.892 305.732Z" fill="#1A1A1A"/>
<path fill-rule="evenodd" clip-rule="evenodd" d="M596.503 289.552C602.919 285.751 608.716 281.704 614.466 278.398C620.86 285.903 626.989 293.707 633.52 302.092C628.386 306.56 622.736 311.116 617.067 316.179C610.288 307.302 603.262 297.898 596.503 289.552Z" fill="#1A1A1A"/>
<path fill-rule="evenodd" clip-rule="evenodd" d="M230.357 248.444C253.245 243.632 274.277 238.89 294.086 234.378C301.72 246.672 309.513 258.412 316.81 271.01C297.595 276.35 276.396 283.232 252.922 290.241C245.285 275.733 237.882 262.008 230.354 248.444H230.357Z" fill="#1A1A1A"/>
<path fill-rule="evenodd" clip-rule="evenodd" d="M362.355 234.561C378.334 231.023 392.392 227.535 406.384 224.897C413.246 234.176 420.718 243.787 428.168 253.864C414.517 258.005 400.188 262.451 384.789 267.37C377.615 256.319 369.805 244.969 362.355 234.558V234.561Z" fill="#1A1A1A"/>
<path fill-rule="evenodd" clip-rule="evenodd" d="M381.155 162.34C393.881 161.831 405.788 161.061 417.276 160.452C423.74 167.5 430.067 174.374 436.148 181.516C425.005 182.526 413.171 183.811 400.581 185.649C394.299 177.599 388.028 169.803 381.155 162.34Z" fill="#1A1A1A"/>
<path fill-rule="evenodd" clip-rule="evenodd" d="M428.107 332.288C442.726 325.124 456.221 318.469 468.619 311.872C476.607 323.983 485.116 336.983 492.8 350.395C480.723 358.749 467.732 367.323 453.448 376.557C445.195 361.089 436.58 346.719 428.107 332.288Z" fill="#1A1A1A"/>
<path fill-rule="evenodd" clip-rule="evenodd" d="M475.406 310.034C487.483 303.866 498.489 298.474 508.924 293.322C516.118 303.531 523.707 314.095 531.336 324.838C521.316 331.654 510.346 339.167 498.793 347.07C490.866 333.738 483.221 321.946 475.406 310.031V310.034Z" fill="#1A1A1A"/>
<path fill-rule="evenodd" clip-rule="evenodd" d="M515.36 289.566C525.003 285.125 534.109 280.796 542.732 276.489C549.614 285.294 556.526 294.587 563.447 304.135C555.283 309.779 546.74 315.172 537.415 320.556C530.187 310.347 522.715 299.899 515.36 289.568V289.566Z" fill="#1A1A1A"/>
<path fill-rule="evenodd" clip-rule="evenodd" d="M547.719 273.967C555.557 269.543 563.06 266.279 570.504 263.046C576.982 271.279 583.629 279.691 590.46 288.193C583.42 292.137 576.059 296.716 568.64 301.801C561.766 292.392 554.587 282.961 547.719 273.967Z" fill="#1A1A1A"/>
<path fill-rule="evenodd" clip-rule="evenodd" d="M573.762 262.141C580.376 258.943 586.907 255.937 593.264 253.277C598.894 260.369 604.85 267.436 610.729 274.506C604.956 278.075 598.844 281.917 592.645 286.036C586.268 277.942 579.83 269.842 573.765 262.141H573.762Z" fill="#1A1A1A"/>
<path fill-rule="evenodd" clip-rule="evenodd" d="M615.779 242.688C621.033 240.784 625.621 238.649 630.178 236.548C635.08 242.063 640.178 247.854 644.875 253.31C640.736 255.976 636.711 258.846 631.772 261.374C626.593 255.154 621.242 248.87 615.779 242.686V242.688Z" fill="#1A1A1A"/>
<path fill-rule="evenodd" clip-rule="evenodd" d="M632.6 235.563C637.026 233.47 641.022 231.386 644.955 229.844C649.521 234.791 653.746 239.607 658.47 244.956C654.869 247.295 651.162 249.554 647.33 252.142C642.31 246.525 637.594 240.997 632.6 235.563Z" fill="#1A1A1A"/>
<path fill-rule="evenodd" clip-rule="evenodd" d="M443.314 195.645C453.967 194.183 464.118 192.935 473.97 191.396C480.116 198.756 486.306 205.854 492.823 213.243C483.433 215.219 473.438 217.085 462.791 219.709C456.252 211.477 449.697 203.551 443.311 195.645H443.314Z" fill="#1A1A1A"/>
<path fill-rule="evenodd" clip-rule="evenodd" d="M449.03 126.179C458.217 126.658 466.941 127.079 475.249 127.472C480.372 132.543 485.442 137.687 490.671 142.597C482.36 142.647 474.043 142.531 465.096 142.409C459.906 136.917 454.413 131.547 449.033 126.179H449.03Z" fill="#1A1A1A"/>
<path fill-rule="evenodd" clip-rule="evenodd" d="M270.649 337.619C294.028 328.08 315.467 319.645 335.869 311.847C343.818 326.508 352.327 342.262 360.086 359.14C340.058 369.587 319.079 380.195 295.625 391.545C287.695 373.205 279.13 355.034 270.652 337.619H270.649Z" fill="#1A1A1A"/>
<path fill-rule="evenodd" clip-rule="evenodd" d="M403.014 285.643C417.806 280.156 431.887 275.276 444.942 270.473C452.545 281.327 460.294 292.835 467.83 304.47C455.352 310.842 441.608 317.314 427.564 323.861C419.381 311.044 411.214 297.851 403.017 285.646L403.014 285.643Z" fill="#1A1A1A"/>
<path fill-rule="evenodd" clip-rule="evenodd" d="M492.778 254.866C502.999 251.414 512.324 248.261 521.204 245.014C527.643 252.925 534.379 261.521 540.843 270.357C532.386 274.432 523.13 278.756 513.785 283.224C507.029 273.407 499.751 263.788 492.775 254.866H492.778Z" fill="#1A1A1A"/>
<path fill-rule="evenodd" clip-rule="evenodd" d="M526.277 243.444C534.742 240.609 542.671 238.104 550.272 235.815C556.638 243.314 562.817 250.926 569.183 258.498C561.953 261.579 554.587 264.674 546.618 268.524C539.714 259.682 533.1 251.167 526.277 243.444Z" fill="#1A1A1A"/>
<path fill-rule="evenodd" clip-rule="evenodd" d="M553.547 234.982C560.593 232.714 567.43 230.483 574.139 228.216C579.727 234.827 585.318 241.324 591.032 248.064C584.853 250.824 578.328 253.922 571.689 256.906C565.473 249.429 559.336 242.041 553.55 234.979L553.547 234.982Z" fill="#1A1A1A"/>
<path fill-rule="evenodd" clip-rule="evenodd" d="M578.57 226.873C584.582 225.066 590.471 223.327 595.851 221.597C601.47 227.845 606.804 233.658 612.066 239.906C607.022 241.891 601.592 244.142 595.647 246.976C590.039 239.865 584.131 233.202 578.57 226.873Z" fill="#1A1A1A"/>
<path fill-rule="evenodd" clip-rule="evenodd" d="M598.487 221.038C603.953 219.535 608.85 217.813 613.772 216.401C618.594 221.597 623.511 227.183 628.093 232.595C623.647 234.536 619.076 236.692 613.769 238.489C608.842 232.872 603.61 226.79 598.49 221.038H598.487Z" fill="#1A1A1A"/>
<path fill-rule="evenodd" clip-rule="evenodd" d="M616.392 215.56C621.102 214.295 625.537 213.198 629.723 211.978C634.141 216.786 638.687 221.517 642.881 226.226C639.049 227.679 634.849 229.393 630.679 231.449C626.016 225.999 621.217 220.814 616.392 215.56Z" fill="#1A1A1A"/>
<path fill-rule="evenodd" clip-rule="evenodd" d="M631.652 211.374C635.643 210.278 639.461 209.115 643.115 207.842C647.199 212.229 651.321 216.603 655.17 220.869C651.954 222.408 648.403 223.936 644.757 225.367C640.395 220.761 636.083 216.025 631.649 211.374H631.652Z" fill="#1A1A1A"/>
<path fill-rule="evenodd" clip-rule="evenodd" d="M511.773 187.523C519.755 186.709 527.439 186.092 534.809 185.286C540.258 191.141 545.815 197.137 551.359 203.05C544.249 204.24 537.15 205.666 529.179 207.277C523.364 200.564 517.612 193.887 511.773 187.523Z" fill="#1A1A1A"/>
<path fill-rule="evenodd" clip-rule="evenodd" d="M538.156 184.755C545.105 183.883 551.894 183.293 557.992 182.482C563.333 187.952 568.614 193.547 573.573 199.025C567.536 200.193 561.306 201.372 554.578 202.446C549.238 196.708 543.608 190.59 538.156 184.755Z" fill="#1A1A1A"/>
<path fill-rule="evenodd" clip-rule="evenodd" d="M561.019 182.147C567.357 181.538 573.04 180.998 578.553 180.469C583.328 185.308 588.336 190.496 593.103 195.465C587.801 196.462 582.319 197.469 576.547 198.69C571.524 193.037 566.226 187.457 561.019 182.147Z" fill="#1A1A1A"/>
<path fill-rule="evenodd" clip-rule="evenodd" d="M581.154 180.171C586.55 179.656 591.673 179.343 596.564 178.892C601.043 183.404 605.806 188.395 610.129 192.835C605.472 193.619 600.589 194.2 595.586 194.986C591.018 190.228 585.926 185.04 581.151 180.171H581.154Z" fill="#1A1A1A"/>
<path fill-rule="evenodd" clip-rule="evenodd" d="M598.958 178.717C603.68 178.194 608.092 177.555 612.521 177.38C616.682 181.513 620.944 185.815 625.149 190.261C621.18 190.944 616.955 191.728 612.398 192.572C608.014 187.899 603.365 183.221 598.958 178.717Z" fill="#1A1A1A"/>
<path fill-rule="evenodd" clip-rule="evenodd" d="M614.572 177.308C618.697 176.915 622.502 176.553 626.362 176.298C630.423 180.215 634.503 184.245 638.032 187.988C634.648 188.664 631.025 189.361 627.022 189.862C622.95 185.524 618.898 181.427 614.575 177.308H614.572Z" fill="#1A1A1A"/>
<path fill-rule="evenodd" clip-rule="evenodd" d="M628.098 176.168C631.797 175.791 635.401 175.55 638.628 175.202C642.36 178.828 646.034 182.568 649.666 186.18C646.625 186.892 643.138 187.255 639.863 187.736C636.033 183.952 632.24 180.085 628.098 176.171V176.168Z" fill="#1A1A1A"/>
<path fill-rule="evenodd" clip-rule="evenodd" d="M633.756 153.87C628.121 153.382 622.418 153.396 616.211 153.114C615.046 153.006 613.73 152.909 612.37 152.497C618.853 153.114 624.793 152.975 630.523 153.319C631.872 153.82 632.901 153.64 633.756 153.872V153.87Z" fill="#1A1A1A"/>
<path fill-rule="evenodd" clip-rule="evenodd" d="M520.789 165.565C527.977 165.109 535.11 164.854 541.551 164.439C546.713 169.596 551.813 174.842 556.791 180.182C550.422 180.821 543.636 181.438 536.877 182.222C531.548 176.475 526.035 170.772 520.792 165.563L520.789 165.565Z" fill="#1A1A1A"/>
<path fill-rule="evenodd" clip-rule="evenodd" d="M544.684 164.259C551.117 164.156 557.223 164.026 562.957 163.78C567.608 168.547 572.726 173.538 577.232 178.296C571.809 178.828 565.916 179.24 559.832 179.736C554.904 174.54 549.712 169.289 544.684 164.261V164.259Z" fill="#1A1A1A"/>
<path fill-rule="evenodd" clip-rule="evenodd" d="M565.719 163.758C571.399 163.619 576.736 163.628 582.001 163.503C586.472 167.752 590.931 172.273 595.263 176.929C590.318 177.197 585.204 177.554 579.872 178.177C575.435 173.441 570.387 168.428 565.716 163.755L565.719 163.758Z" fill="#1A1A1A"/>
<path fill-rule="evenodd" clip-rule="evenodd" d="M584.454 163.351C589.468 163.248 594.142 163.337 598.68 163.19C602.969 167.295 607.141 171.387 611.197 175.448C606.924 175.636 602.453 176.173 597.665 176.691C593.3 172.245 588.844 167.653 584.454 163.351Z" fill="#1A1A1A"/>
<path fill-rule="evenodd" clip-rule="evenodd" d="M600.867 163.088C605.363 163.174 609.276 162.963 613.376 163.002C617.418 166.897 621.348 170.645 625.155 174.46C621.373 174.8 617.426 175.121 613.245 175.381C609.193 171.248 605.07 167.34 600.867 163.088Z" fill="#1A1A1A"/>
<path fill-rule="evenodd" clip-rule="evenodd" d="M615.252 162.864C619.266 162.819 622.903 162.805 626.535 162.675C630.258 166.263 633.859 169.809 637.477 173.427C634.233 174.053 630.713 174.211 627.028 174.465C623.076 170.548 619.366 166.764 615.249 162.864H615.252Z" fill="#1A1A1A"/>
<path fill-rule="evenodd" clip-rule="evenodd" d="M628.229 162.717C631.619 162.717 635.063 162.869 638.001 162.789C641.402 165.964 644.885 169.363 648.328 172.619C645.37 172.793 642.327 173.04 639.113 173.419C635.638 169.823 631.883 166.299 628.229 162.717Z" fill="#1A1A1A"/>
<path fill-rule="evenodd" clip-rule="evenodd" d="M502.779 146.437C510.34 146.517 517.637 146.625 524.454 146.794C529.429 151.771 534.391 156.557 539.291 161.493C532.585 161.717 525.53 162.052 518.448 162.357C513.138 157.003 507.812 151.575 502.779 146.44V146.437Z" fill="#1A1A1A"/>
<path fill-rule="evenodd" clip-rule="evenodd" d="M527.637 147.018C534.293 147.04 540.734 147.331 546.727 147.527C551.437 152.098 556.181 156.668 560.749 161.208C554.921 161.15 548.675 161.244 542.382 161.535C537.571 156.485 532.654 151.755 527.637 147.018Z" fill="#1A1A1A"/>
<path fill-rule="evenodd" clip-rule="evenodd" d="M549.756 147.577C555.657 147.694 561.371 147.926 566.767 148.167C571.067 152.294 575.446 156.552 579.83 161.028C574.66 161.064 569.239 161.167 563.648 161.252C559.091 156.646 554.347 151.99 549.759 147.577H549.756Z" fill="#1A1A1A"/>
<path fill-rule="evenodd" clip-rule="evenodd" d="M569.244 148.195C574.612 148.499 579.248 148.593 584.145 148.87C588.493 152.903 592.439 156.776 596.617 160.807C591.951 160.829 587.205 160.779 582.121 160.879C578.013 156.593 573.626 152.336 569.244 148.195Z" fill="#1A1A1A"/>
<path fill-rule="evenodd" clip-rule="evenodd" d="M586.656 149.081C591.115 149.166 595.483 149.291 599.828 149.546C603.853 153.418 607.705 157.095 611.439 160.713C607.546 160.909 603.357 160.937 598.797 160.837C594.764 156.79 590.728 152.998 586.656 149.081Z" fill="#1A1A1A"/>
<path fill-rule="evenodd" clip-rule="evenodd" d="M601.963 149.612C606.213 149.903 609.951 150.063 613.538 150.207C617.337 153.701 621.222 157.225 624.704 160.641C621.153 160.699 617.44 160.815 613.368 160.713C609.631 157.108 605.846 153.441 601.963 149.612Z" fill="#1A1A1A"/>
<path fill-rule="evenodd" clip-rule="evenodd" d="M615.774 150.628C619.553 150.941 622.898 151.115 626.306 151.317C629.782 154.6 633.416 157.986 636.775 161.374C633.567 161.128 630.192 161.084 626.669 160.94C623.176 157.662 619.703 154.387 615.774 150.631V150.628Z" fill="#1A1A1A"/>
<path fill-rule="evenodd" clip-rule="evenodd" d="M511.611 131.054C518.532 131.447 525.082 131.715 531.414 132.23C536.108 136.698 540.64 141.022 545.222 145.678C538.973 145.258 532.724 145.213 525.951 145.017C521.35 140.352 516.544 135.696 511.614 131.054H511.611Z" fill="#1A1A1A"/>
<path fill-rule="evenodd" clip-rule="evenodd" d="M534.583 132.676C540.781 132.958 546.478 133.49 552.226 134.093C556.593 138.105 560.824 142.193 565.155 146.357C559.573 145.892 554.138 145.878 548.101 145.689C543.552 141.249 538.981 136.731 534.583 132.676Z" fill="#1A1A1A"/>
<path fill-rule="evenodd" clip-rule="evenodd" d="M554.879 134.317C560.336 134.738 565.395 135.275 570.518 135.829C574.665 139.577 578.67 143.48 582.843 147.395C577.904 146.893 573.054 146.791 567.63 146.392C563.564 142.47 559.241 138.423 554.879 134.317Z" fill="#1A1A1A"/>
<path fill-rule="evenodd" clip-rule="evenodd" d="M573.013 136.009C577.84 136.438 582.386 136.698 586.898 137.127C590.795 140.759 594.577 144.349 598.443 148.031C594.1 147.807 589.817 147.616 585.009 147.4C580.9 143.536 577.093 139.779 573.013 136.009Z" fill="#1A1A1A"/>
<path fill-rule="evenodd" clip-rule="evenodd" d="M589.142 137.398C593.217 137.667 597.275 138.052 601.45 138.641C605.115 141.983 608.786 145.465 612.351 148.798C608.554 148.615 604.619 148.239 600.572 148.136C596.628 144.452 592.835 140.958 589.142 137.398Z" fill="#1A1A1A"/>
<path fill-rule="evenodd" clip-rule="evenodd" d="M613.923 141.241C617.507 141.684 620.941 142.091 624.093 142.367C627.332 145.338 630.788 148.485 634.122 151.611C630.953 151.328 627.689 151.253 624.433 151.051C621.125 147.81 617.549 144.535 613.923 141.243V141.241Z" fill="#1A1A1A"/>
<path fill-rule="evenodd" clip-rule="evenodd" d="M626.027 142.534C629.099 142.802 632.028 142.999 634.871 143.356C637.848 146.218 640.849 148.892 643.712 151.688C641.198 151.652 638.327 151.447 635.587 151.362C632.527 148.513 629.207 145.41 626.027 142.534Z" fill="#1A1A1A"/>
<path fill-rule="evenodd" clip-rule="evenodd" d="M519.097 118.384C525.324 119.117 531.328 119.823 537.378 120.543C541.665 124.523 545.849 128.382 550.252 132.43C544.316 131.66 538.744 131.325 532.392 130.641C528.053 126.45 523.543 122.503 519.097 118.384Z" fill="#1A1A1A"/>
<path fill-rule="evenodd" clip-rule="evenodd" d="M540.16 120.833C545.704 121.437 551.273 122.22 556.565 122.882C560.493 126.58 564.584 130.315 568.684 134.143C563.5 133.57 558.494 133.169 552.9 132.704C548.505 128.593 544.307 124.77 540.16 120.831V120.833Z" fill="#1A1A1A"/>
<path fill-rule="evenodd" clip-rule="evenodd" d="M559.099 123.178C564.021 123.737 568.849 124.399 573.799 125.141C577.57 128.673 581.174 131.906 585.112 135.525C580.605 135.095 576.003 134.733 571.162 134.412C567.14 130.561 562.982 126.738 559.099 123.178Z" fill="#1A1A1A"/>
<path fill-rule="evenodd" clip-rule="evenodd" d="M575.953 125.476C580.323 126.143 584.691 126.719 588.838 127.278C592.442 130.578 596.21 133.888 599.792 137.138C595.678 136.718 591.628 136.275 587.358 135.793C583.408 132.225 579.671 128.848 575.953 125.476Z" fill="#1A1A1A"/>
<path fill-rule="evenodd" clip-rule="evenodd" d="M602.205 130.118C605.965 130.722 609.446 131.137 612.716 131.558C616.094 134.644 619.503 137.684 622.705 140.792C619.489 140.458 616.197 140.125 612.546 139.66C609.148 136.507 605.765 133.412 602.205 130.121V130.118Z" fill="#1A1A1A"/>
<path fill-rule="evenodd" clip-rule="evenodd" d="M615.141 132.485C618.468 132.928 621.434 133.393 624.458 133.952C627.602 136.748 630.687 139.516 633.99 142.495C631.153 142.124 628.084 141.891 625.016 141.637C621.802 138.57 618.535 135.533 615.138 132.482L615.141 132.485Z" fill="#1A1A1A"/>
<path fill-rule="evenodd" clip-rule="evenodd" d="M505.738 103.676C512.302 104.703 518.501 105.619 524.46 106.646C528.741 110.201 532.802 113.855 537.194 117.858C531.188 116.941 525.123 116.288 518.927 115.488C514.51 111.413 510.148 107.546 505.741 103.673L505.738 103.676Z" fill="#1A1A1A"/>
<path fill-rule="evenodd" clip-rule="evenodd" d="M527.289 106.942C533.156 107.95 538.758 108.736 544.255 109.686C548.062 113.21 552.05 116.609 556.092 120.302C550.76 119.532 545.255 118.857 539.689 118.013C535.612 114.314 531.537 110.71 527.289 106.942Z" fill="#1A1A1A"/>
<path fill-rule="evenodd" clip-rule="evenodd" d="M512.093 93.8459C518.06 94.8951 523.78 96.0467 529.371 97.0875C533.393 100.639 537.325 104.047 541.264 107.466C535.988 106.563 530.26 105.691 524.251 104.673C520.282 101.149 516.14 97.5056 512.09 93.8459H512.093Z" fill="#1A1A1A"/>
<path fill-rule="evenodd" clip-rule="evenodd" d="M447.186 97.5747C455.77 98.7567 463.764 99.8557 471.367 100.645C476.426 104.994 481.058 109.456 485.54 113.642C478.16 113.024 470.3 112.138 461.966 111.244C457.225 106.729 452.295 102.153 447.189 97.5775L447.186 97.5747Z" fill="#1A1A1A"/>
<path fill-rule="evenodd" clip-rule="evenodd" d="M630.39 191.7C634.25 191.105 637.795 190.435 641.179 189.724C645.404 194.003 649.362 198.114 653.058 202.009C649.953 202.895 646.591 203.999 643.141 205.038C638.807 200.467 634.799 196.268 630.39 191.697V191.7Z" fill="#1A1A1A"/>
<path fill-rule="evenodd" clip-rule="evenodd" d="M616.217 194.67C620.606 193.923 624.684 193.079 628.661 192.273C632.915 196.785 637.145 201.129 641.404 205.619C637.759 206.804 633.865 207.958 629.877 209.121C625.367 204.215 620.67 199.299 616.217 194.67Z" fill="#1A1A1A"/>
<path fill-rule="evenodd" clip-rule="evenodd" d="M598.287 197.264C603.326 196.262 608.151 195.512 612.638 194.859C617.242 199.438 621.914 204.448 626.49 209.34C622.245 210.35 617.663 211.438 613.092 212.944C608.059 207.429 603.267 202.308 598.284 197.264H598.287Z" fill="#1A1A1A"/>
<path fill-rule="evenodd" clip-rule="evenodd" d="M579.849 200.52C585.527 199.415 591.118 198.167 596.023 197.201C601.051 202.469 606.141 207.662 610.946 213.046C606.104 214.522 600.982 216.133 595.391 217.45C590.268 211.767 585.103 206.253 579.849 200.523V200.52Z" fill="#1A1A1A"/>
<path fill-rule="evenodd" clip-rule="evenodd" d="M557.934 204.423C564.509 203.282 571.031 202.294 576.664 200.675C581.968 206.51 587.389 212.396 592.419 218.126C586.828 219.74 580.956 221.381 574.738 222.942C569.052 216.578 563.608 210.555 557.931 204.423H557.934Z" fill="#1A1A1A"/>
<path fill-rule="evenodd" clip-rule="evenodd" d="M533.103 209.661C540.829 208.069 547.933 206.646 554.611 205.135C560.345 211.418 566.136 217.697 571.794 224.244C564.826 226.168 558.399 228.568 551.024 230.447C544.932 223.457 538.909 216.498 533.103 209.661Z" fill="#1A1A1A"/>
<path fill-rule="evenodd" clip-rule="evenodd" d="M504.403 216.213C513.439 214.447 521.447 212.777 529.521 211.025C535.547 217.926 541.559 224.952 547.58 231.82C540.04 234.306 532.055 236.739 523.677 239.231C517.049 231.172 510.75 223.596 504.403 216.213Z" fill="#1A1A1A"/>
<path fill-rule="evenodd" clip-rule="evenodd" d="M205.685 176.32C211.374 171.786 216.942 167.21 222.032 163.032C230.254 167.675 238.44 171.999 246.707 176.901C242.094 181.704 237.526 186.74 232.004 191.891C223.091 186.637 214.183 181.414 205.688 176.32H205.685Z" fill="#1A1A1A"/>
<path fill-rule="evenodd" clip-rule="evenodd" d="M484.726 167.013C486.989 164.74 489.199 162.625 491.499 160.815C494.701 163.052 498.038 165.435 501.332 167.702C499.286 169.853 497.355 172.165 495.278 174.764C491.733 172.12 488.196 169.496 484.723 167.013H484.726Z" fill="#1A1A1A"/>
<path fill-rule="evenodd" clip-rule="evenodd" d="M574.289 83.0497C575.17 81.7099 575.978 80.3147 576.722 78.9167C579.604 81.2947 582.681 83.8691 585.703 86.3771C585.232 87.9855 584.565 89.4554 583.813 91.0305C580.652 88.3813 577.439 85.6879 574.292 83.0497H574.289Z" fill="#1A1A1A"/>
<path fill-rule="evenodd" clip-rule="evenodd" d="M106.428 315.482C113.538 309.931 120.244 304.614 126.758 299.933C135.239 302.535 143.562 305.616 152.294 308.556C145.961 313.671 139.729 319.2 133.324 325.157C124.216 321.741 114.898 318.663 106.425 315.479L106.428 315.482Z" fill="#1A1A1A"/>
<path fill-rule="evenodd" clip-rule="evenodd" d="M553.993 101.054C554.693 100.287 555.244 99.5401 555.793 98.8203C557.666 100.177 559.551 101.508 561.371 102.837C560.95 103.659 560.515 104.625 560.027 105.434C558.012 103.98 556.072 102.538 553.993 101.052V101.054Z" fill="#1A1A1A"/>
<path fill-rule="evenodd" clip-rule="evenodd" d="M489.453 65.9726C491.142 65.2556 492.742 64.6217 494.325 64.0376C496.714 65.657 499.099 67.3318 501.541 69.0979C500.209 69.898 498.745 70.6094 497.082 71.5284C494.595 69.5934 492.023 67.7858 489.453 65.9754V65.9726Z" fill="#1A1A1A"/>
<path fill-rule="evenodd" clip-rule="evenodd" d="M130.225 131.665C136.92 128.919 143.144 126.522 149.058 124.263C156.706 127.425 163.947 130.453 170.876 133.664C165.533 136.324 159.906 139.048 153.609 142.398C145.527 138.641 137.672 134.915 130.225 131.665Z" fill="#1A1A1A"/>
<path fill-rule="evenodd" clip-rule="evenodd" d="M516.831 61.693C517.851 61.2141 518.615 60.5857 519.423 60.1123C521.369 61.3802 523.222 62.8113 525.095 64.1927C524.41 64.7989 523.777 65.5159 522.949 66.0695C521.084 64.6494 518.961 63.1463 516.831 61.693Z" fill="#1A1A1A"/>
<path fill-rule="evenodd" clip-rule="evenodd" d="M559.392 51.2345C559.932 50.8414 560.523 50.5396 561.055 50.177C562.457 51.2594 563.993 52.3778 565.339 53.4103C564.874 53.8311 564.47 54.2574 564.054 54.7446C562.519 53.5902 560.924 52.4137 559.392 51.2345Z" fill="#1A1A1A"/>
<path fill-rule="evenodd" clip-rule="evenodd" d="M101.286 221.78C106.052 219.507 109.909 217.362 113.979 215.308C119.954 216.993 125.676 218.519 131.379 220.169C127.881 222.275 123.92 224.731 119.729 227.056C113.483 225.362 107.365 223.518 101.286 221.78Z" fill="#1A1A1A"/>
<path fill-rule="evenodd" clip-rule="evenodd" d="M452.021 54.9771C453.693 54.4844 455.402 54.1466 456.848 53.6428C459.176 55.157 461.634 56.7294 463.836 58.1883C462.434 58.8028 461.121 59.326 459.572 59.9018C457.255 58.3156 454.546 56.5661 452.021 54.9771Z" fill="#1A1A1A"/>
<path fill-rule="evenodd" clip-rule="evenodd" d="M513.646 17.545C514.708 17.3484 515.77 17.1795 516.812 17.127C518.562 18.2342 520.229 19.4993 521.904 20.7118C520.912 20.8834 519.914 21.0717 518.914 21.2904C517.124 19.9838 515.385 18.7408 513.646 17.545Z" fill="#1A1A1A"/>
<path fill-rule="evenodd" clip-rule="evenodd" d="M540.085 63.4008C541.049 63.0963 541.999 62.8804 542.889 62.6091C544.385 63.6832 546.08 64.8625 547.652 65.9255C546.757 66.2411 545.932 66.5345 545.032 66.8556C543.337 65.6819 541.774 64.5773 540.082 63.4008H540.085Z" fill="#1A1A1A"/>
<path fill-rule="evenodd" clip-rule="evenodd" d="M562.809 88.099C563.773 87.7834 564.676 87.4208 565.562 87.1882C566.973 88.1433 568.522 89.1675 570.011 90.1198C569.116 90.4354 568.221 90.7676 567.388 91.144C565.908 90.1392 564.356 89.1288 562.809 88.099Z" fill="#1A1A1A"/>
<path fill-rule="evenodd" clip-rule="evenodd" d="M412.775 101.309C414.868 100.764 416.875 100.207 418.804 99.6924C421.343 101.057 423.815 102.355 426.494 103.784C424.512 104.235 422.567 104.852 420.624 105.425C418.099 104.019 415.334 102.624 412.775 101.309Z" fill="#1A1A1A"/>
<path fill-rule="evenodd" clip-rule="evenodd" d="M586.159 109.716C587.054 109.403 587.957 108.991 588.779 108.661C590.165 109.583 591.413 110.428 592.734 111.327C591.982 111.676 591.224 112.069 590.393 112.49C589.005 111.532 587.612 110.696 586.159 109.713V109.716Z" fill="#1A1A1A"/>
<path fill-rule="evenodd" clip-rule="evenodd" d="M574.804 73.073C575.588 72.8709 576.354 72.7934 577.132 72.6494C578.272 73.4245 579.467 74.291 580.616 75.019C579.975 75.1574 579.194 75.3567 578.542 75.5782C577.277 74.7062 576.075 73.8647 574.804 73.0757V73.073Z" fill="#1A1A1A"/>
<path fill-rule="evenodd" clip-rule="evenodd" d="M8.01086e-05 272.785C6.36041 270.875 13.0858 268.607 19.8837 266.639C26.18 267.985 32.9807 268.942 39.3745 270.119C33.2622 271.985 26.6427 274.172 20.5276 276.339C13.3841 275.14 6.7757 274.036 8.01086e-05 272.787V272.785Z" fill="#1A1A1A"/>
<path fill-rule="evenodd" clip-rule="evenodd" d="M488.798 28.9585C490.2 29.0139 491.463 29.0277 492.725 29.0388C494.205 29.9772 495.749 30.9572 497.344 32.0063C496.087 31.9482 494.936 32.0534 493.667 32.0423C492.073 30.9959 490.476 29.9385 488.801 28.9585H488.798Z" fill="#1A1A1A"/>
<path fill-rule="evenodd" clip-rule="evenodd" d="M314.123 149.496C317.289 148.726 320.681 148.267 323.911 147.569C327.094 148.674 329.99 149.64 332.836 150.775C329.904 151.312 326.729 152.067 323.415 152.823C320.319 151.683 317.139 150.586 314.126 149.496H314.123Z" fill="#1A1A1A"/>
<path fill-rule="evenodd" clip-rule="evenodd" d="M324.932 206.848C327.789 205.068 330.615 203.296 333.458 201.754C337.438 203.28 341.496 205.074 345.582 206.804C342.937 208.561 340.309 210.275 337.653 212.274C333.224 210.269 329.029 208.589 324.932 206.845V206.848Z" fill="#1A1A1A"/>
<path fill-rule="evenodd" clip-rule="evenodd" d="M394.107 136.026C396.682 134.558 399.057 133.249 401.261 131.973C404.651 133.847 408.182 135.837 411.71 137.864C409.492 139.223 407.51 140.856 405.038 142.26C401.286 140.159 397.705 138.069 394.107 136.026Z" fill="#1A1A1A"/>
</g>
<defs>
<clipPath id="clip0_181_3">
<rect width="725" height="394" fill="white" transform="matrix(-1 0 0 1 725 0)"/>
</clipPath>
</defs>
</svg>
