<svg width="348" height="167" viewBox="0 0 348 167" fill="none" xmlns="http://www.w3.org/2000/svg">
<g clip-path="url(#clip0_181_1072)">
<path fill-rule="evenodd" clip-rule="evenodd" d="M300.585 3.28401C300.293 2.86474 299.871 3.0172 300.134 1.20288C301.118 -1.76863 299.865 1.7609 299.981 1.25624C300.126 2.13291 300.663 1.70601 300.992 1.65875C300.891 2.0521 300.755 2.68635 300.585 3.28401Z" fill="#1A1A1A"/>
<path fill-rule="evenodd" clip-rule="evenodd" d="M313.949 168.385C318.16 165.668 321.999 162.915 325.697 160.602C329.398 165.232 333.336 170.482 337.096 175.836C333.653 178.866 329.984 181.822 326.024 185.216C322.149 179.562 318.01 173.944 313.949 168.385Z" fill="#1A1A1A"/>
<path fill-rule="evenodd" clip-rule="evenodd" d="M327.46 159.474C330.982 157.38 334.164 155.151 337.321 153.331C340.831 157.464 344.195 161.762 347.78 166.38C344.962 168.841 341.86 171.351 338.748 174.139C335.027 169.25 331.17 164.071 327.46 159.474Z" fill="#1A1A1A"/>
<path fill-rule="evenodd" clip-rule="evenodd" d="M126.458 136.833C139.023 134.183 150.569 131.572 161.443 129.086C165.634 135.857 169.912 142.323 173.918 149.262C163.37 152.203 151.732 155.993 138.846 159.854C134.653 151.863 130.59 144.304 126.457 136.833H126.458Z" fill="#1A1A1A"/>
<path fill-rule="evenodd" clip-rule="evenodd" d="M198.92 129.187C207.692 127.239 215.41 125.317 223.091 123.865C226.858 128.975 230.96 134.269 235.05 139.818C227.556 142.099 219.689 144.548 211.236 147.257C207.298 141.171 203.01 134.92 198.92 129.185V129.187Z" fill="#1A1A1A"/>
<path fill-rule="evenodd" clip-rule="evenodd" d="M209.241 89.4109C216.227 89.1304 222.764 88.7065 229.071 88.3711C232.619 92.2528 236.092 96.0385 239.431 99.9721C233.313 100.529 226.817 101.236 219.906 102.248C216.457 97.8147 213.014 93.5213 209.241 89.4109Z" fill="#1A1A1A"/>
<path fill-rule="evenodd" clip-rule="evenodd" d="M260.982 170.755C267.612 167.358 273.654 164.388 279.382 161.551C283.331 167.173 287.498 172.991 291.686 178.909C286.185 182.662 280.163 186.8 273.821 191.153C269.469 183.81 265.272 177.315 260.982 170.753V170.755Z" fill="#1A1A1A"/>
<path fill-rule="evenodd" clip-rule="evenodd" d="M282.914 159.482C288.208 157.036 293.207 154.652 297.941 152.279C301.719 157.129 305.513 162.247 309.312 167.506C304.831 170.615 300.141 173.585 295.022 176.55C291.054 170.927 286.952 165.173 282.914 159.483V159.482Z" fill="#1A1A1A"/>
<path fill-rule="evenodd" clip-rule="evenodd" d="M300.679 150.89C304.982 148.454 309.101 146.656 313.187 144.875C316.743 149.41 320.392 154.043 324.143 158.725C320.278 160.898 316.237 163.42 312.164 166.22C308.391 161.038 304.449 155.844 300.679 150.89Z" fill="#1A1A1A"/>
<path fill-rule="evenodd" clip-rule="evenodd" d="M314.975 144.377C318.606 142.616 322.191 140.96 325.681 139.495C328.772 143.401 332.042 147.294 335.269 151.188C332.1 153.153 328.744 155.269 325.342 157.538C321.841 153.08 318.306 148.619 314.977 144.377H314.975Z" fill="#1A1A1A"/>
<path fill-rule="evenodd" clip-rule="evenodd" d="M338.041 133.663C340.926 132.614 343.444 131.439 345.946 130.282C348.637 133.319 351.436 136.508 354.014 139.513C351.742 140.982 349.532 142.563 346.821 143.955C343.978 140.529 341.04 137.068 338.041 133.662V133.663Z" fill="#1A1A1A"/>
<path fill-rule="evenodd" clip-rule="evenodd" d="M347.275 129.739C349.705 128.586 351.899 127.438 354.058 126.589C356.565 129.314 358.884 131.967 361.478 134.912C359.501 136.2 357.466 137.445 355.362 138.87C352.606 135.777 350.017 132.732 347.275 129.739Z" fill="#1A1A1A"/>
<path fill-rule="evenodd" clip-rule="evenodd" d="M243.364 107.754C249.212 106.949 254.785 106.261 260.194 105.413C263.567 109.467 266.966 113.377 270.543 117.446C265.388 118.534 259.901 119.562 254.057 121.007C250.467 116.473 246.868 112.108 243.363 107.754H243.364Z" fill="#1A1A1A"/>
<path fill-rule="evenodd" clip-rule="evenodd" d="M246.502 69.4944C251.545 69.7581 256.334 69.9899 260.895 70.2064C263.708 72.9995 266.491 75.8323 269.361 78.537C264.799 78.5644 260.233 78.5004 255.321 78.4333C252.472 75.4085 249.457 72.4507 246.504 69.4944H246.502Z" fill="#1A1A1A"/>
<path fill-rule="evenodd" clip-rule="evenodd" d="M221.241 157.321C229.361 154.299 237.091 151.611 244.257 148.966C248.431 154.944 252.685 161.282 256.822 167.69C249.972 171.2 242.427 174.764 234.717 178.37C230.225 171.311 225.742 164.045 221.242 157.323L221.241 157.321Z" fill="#1A1A1A"/>
<path fill-rule="evenodd" clip-rule="evenodd" d="M270.518 140.37C276.129 138.469 281.249 136.732 286.123 134.944C289.658 139.302 293.356 144.035 296.904 148.902C292.262 151.146 287.181 153.528 282.05 155.989C278.342 150.582 274.347 145.284 270.517 140.37H270.518Z" fill="#1A1A1A"/>
<path fill-rule="evenodd" clip-rule="evenodd" d="M288.908 134.08C293.555 132.518 297.908 131.139 302.08 129.878C305.575 134.008 308.967 138.201 312.462 142.371C308.493 144.067 304.449 145.772 300.075 147.893C296.285 143.023 292.654 138.333 288.908 134.08Z" fill="#1A1A1A"/>
<path fill-rule="evenodd" clip-rule="evenodd" d="M303.878 129.419C307.746 128.17 311.499 126.941 315.182 125.693C318.25 129.333 321.319 132.912 324.456 136.624C321.064 138.144 317.482 139.85 313.837 141.494C310.425 137.376 307.056 133.307 303.88 129.417L303.878 129.419Z" fill="#1A1A1A"/>
<path fill-rule="evenodd" clip-rule="evenodd" d="M317.615 124.953C320.915 123.957 324.148 123 327.101 122.047C330.186 125.488 333.114 128.69 336.003 132.131C333.234 133.224 330.253 134.464 326.989 136.025C323.911 132.108 320.667 128.438 317.615 124.953Z" fill="#1A1A1A"/>
<path fill-rule="evenodd" clip-rule="evenodd" d="M328.548 121.739C331.549 120.911 334.237 119.963 336.939 119.185C339.586 122.047 342.285 125.124 344.801 128.104C342.36 129.173 339.851 130.361 336.938 131.35C334.233 128.257 331.361 124.907 328.55 121.739H328.548Z" fill="#1A1A1A"/>
<path fill-rule="evenodd" clip-rule="evenodd" d="M338.378 118.722C340.964 118.025 343.398 117.421 345.696 116.749C348.122 119.397 350.617 122.003 352.92 124.596C350.816 125.397 348.51 126.341 346.221 127.473C343.662 124.471 341.027 121.616 338.378 118.722Z" fill="#1A1A1A"/>
<path fill-rule="evenodd" clip-rule="evenodd" d="M346.755 116.417C348.946 115.813 351.043 115.173 353.048 114.471C355.29 116.888 357.553 119.297 359.666 121.646C357.9 122.494 355.951 123.335 353.95 124.124C351.555 121.587 349.188 118.978 346.754 116.417H346.755Z" fill="#1A1A1A"/>
<path fill-rule="evenodd" clip-rule="evenodd" d="M280.945 103.28C285.327 102.832 289.546 102.492 293.591 102.049C296.583 105.273 299.633 108.576 302.677 111.832C298.774 112.488 294.876 113.273 290.501 114.16C287.309 110.463 284.151 106.786 280.945 103.28Z" fill="#1A1A1A"/>
<path fill-rule="evenodd" clip-rule="evenodd" d="M295.43 101.756C299.244 101.276 302.971 100.951 306.319 100.504C309.251 103.517 312.15 106.598 314.872 109.615C311.558 110.259 308.138 110.908 304.445 111.5C301.513 108.339 298.422 104.97 295.43 101.756Z" fill="#1A1A1A"/>
<path fill-rule="evenodd" clip-rule="evenodd" d="M307.98 100.319C311.46 99.984 314.579 99.6867 317.606 99.3955C320.227 102.061 322.976 104.918 325.593 107.654C322.683 108.203 319.673 108.758 316.504 109.431C313.747 106.317 310.838 103.244 307.98 100.319Z" fill="#1A1A1A"/>
<path fill-rule="evenodd" clip-rule="evenodd" d="M319.034 99.231C321.996 98.9474 324.808 98.7751 327.494 98.5266C329.952 101.012 332.567 103.761 334.94 106.206C332.384 106.638 329.703 106.958 326.957 107.391C324.449 104.77 321.653 101.913 319.032 99.231H319.034Z" fill="#1A1A1A"/>
<path fill-rule="evenodd" clip-rule="evenodd" d="M328.808 98.4305C331.399 98.1423 333.822 97.7901 336.253 97.6941C338.537 99.9704 340.877 102.34 343.186 104.788C341.007 105.165 338.687 105.596 336.186 106.061C333.779 103.488 331.227 100.911 328.808 98.4305Z" fill="#1A1A1A"/>
<path fill-rule="evenodd" clip-rule="evenodd" d="M337.379 97.6544C339.644 97.4379 341.732 97.2382 343.851 97.0979C346.081 99.2553 348.321 101.475 350.258 103.536C348.4 103.908 346.411 104.293 344.214 104.569C341.979 102.18 339.754 99.9231 337.381 97.6544H337.379Z" fill="#1A1A1A"/>
<path fill-rule="evenodd" clip-rule="evenodd" d="M344.804 97.0262C346.834 96.8189 348.813 96.6862 350.585 96.4941C352.633 98.4914 354.65 100.551 356.644 102.541C354.974 102.933 353.06 103.132 351.262 103.398C349.16 101.314 347.078 99.1836 344.804 97.0278V97.0262Z" fill="#1A1A1A"/>
<path fill-rule="evenodd" clip-rule="evenodd" d="M347.91 84.7455C344.816 84.4771 341.686 84.4848 338.278 84.3292C337.639 84.2698 336.917 84.2164 336.17 83.9893C339.729 84.3293 342.989 84.253 346.135 84.4421C346.876 84.718 347.44 84.6189 347.91 84.747V84.7455Z" fill="#1A1A1A"/>
<path fill-rule="evenodd" clip-rule="evenodd" d="M285.895 91.1869C289.841 90.9354 293.757 90.7951 297.293 90.5664C300.126 93.4068 302.926 96.296 305.659 99.237C302.163 99.5892 298.437 99.9292 294.727 100.361C291.801 97.1955 288.775 94.0548 285.897 91.1854L285.895 91.1869Z" fill="#1A1A1A"/>
<path fill-rule="evenodd" clip-rule="evenodd" d="M299.013 90.4674C302.544 90.411 305.897 90.3393 309.044 90.2036C311.598 92.829 314.407 95.578 316.881 98.1988C313.903 98.4915 310.669 98.7187 307.329 98.9916C304.624 96.1299 301.773 93.2376 299.013 90.4689V90.4674Z" fill="#1A1A1A"/>
<path fill-rule="evenodd" clip-rule="evenodd" d="M310.56 90.1913C313.678 90.1151 316.608 90.1196 319.498 90.051C321.953 92.3913 324.401 94.8811 326.778 97.4455C324.064 97.5934 321.256 97.7901 318.329 98.1331C315.893 95.5245 313.123 92.7633 310.558 90.1898L310.56 90.1913Z" fill="#1A1A1A"/>
<path fill-rule="evenodd" clip-rule="evenodd" d="M320.845 89.9673C323.598 89.9109 326.164 89.9597 328.655 89.8789C331.01 92.1399 333.3 94.3934 335.526 96.63C333.181 96.7337 330.727 97.0295 328.098 97.3146C325.702 94.866 323.255 92.3366 320.845 89.9673Z" fill="#1A1A1A"/>
<path fill-rule="evenodd" clip-rule="evenodd" d="M329.856 89.8224C332.324 89.8696 334.472 89.7538 336.722 89.7751C338.941 91.9203 341.098 93.9846 343.188 96.0856C341.112 96.2731 338.946 96.45 336.651 96.5933C334.426 94.317 332.163 92.1642 329.856 89.8224Z" fill="#1A1A1A"/>
<path fill-rule="evenodd" clip-rule="evenodd" d="M337.752 89.6989C339.956 89.6745 341.952 89.6669 343.946 89.5952C345.99 91.5711 347.967 93.5242 349.953 95.5169C348.172 95.8615 346.24 95.9484 344.217 96.0886C342.047 93.9313 340.011 91.8471 337.751 89.6989H337.752Z" fill="#1A1A1A"/>
<path fill-rule="evenodd" clip-rule="evenodd" d="M344.876 89.6182C346.736 89.6182 348.628 89.702 350.24 89.6578C352.107 91.4066 354.02 93.2788 355.909 95.0718C354.286 95.1678 352.615 95.3035 350.851 95.5124C348.943 93.5319 346.882 91.591 344.876 89.6182Z" fill="#1A1A1A"/>
<path fill-rule="evenodd" clip-rule="evenodd" d="M276.008 80.6519C280.159 80.6961 284.165 80.7555 287.907 80.8485C290.638 83.5898 293.362 86.2259 296.052 88.9444C292.37 89.0679 288.498 89.2523 284.61 89.42C281.695 86.4714 278.771 83.4816 276.008 80.6534V80.6519Z" fill="#1A1A1A"/>
<path fill-rule="evenodd" clip-rule="evenodd" d="M289.655 80.9719C293.309 80.9841 296.845 81.1442 300.134 81.2525C302.72 83.7696 305.324 86.2868 307.832 88.7872C304.633 88.7552 301.204 88.807 297.749 88.9671C295.108 86.1862 292.409 83.5806 289.655 80.9719Z" fill="#1A1A1A"/>
<path fill-rule="evenodd" clip-rule="evenodd" d="M301.797 81.2798C305.036 81.3438 308.173 81.4719 311.135 81.6045C313.496 83.8778 315.9 86.2227 318.307 88.688C315.468 88.7078 312.492 88.7642 309.423 88.8115C306.921 86.2745 304.317 83.7101 301.799 81.2798H301.797Z" fill="#1A1A1A"/>
<path fill-rule="evenodd" clip-rule="evenodd" d="M312.496 81.6199C315.443 81.7876 317.987 81.8394 320.675 81.9919C323.062 84.2133 325.229 86.3462 327.522 88.5661C324.961 88.5783 322.355 88.5509 319.565 88.6057C317.309 86.2456 314.901 83.9007 312.496 81.6199Z" fill="#1A1A1A"/>
<path fill-rule="evenodd" clip-rule="evenodd" d="M322.054 82.1077C324.502 82.1549 326.9 82.2235 329.285 82.3638C331.494 84.4968 333.609 86.5215 335.659 88.5142C333.522 88.6224 331.222 88.6377 328.719 88.5828C326.505 86.3538 324.289 84.265 322.054 82.1077Z" fill="#1A1A1A"/>
<path fill-rule="evenodd" clip-rule="evenodd" d="M330.457 82.4004C332.79 82.5605 334.842 82.6489 336.811 82.7282C338.896 84.6523 341.029 86.5931 342.94 88.4745C340.991 88.5066 338.953 88.5706 336.718 88.5142C334.666 86.5291 332.588 84.509 330.457 82.4004Z" fill="#1A1A1A"/>
<path fill-rule="evenodd" clip-rule="evenodd" d="M338.038 82.96C340.113 83.1322 341.949 83.2283 343.82 83.3396C345.728 85.1478 347.724 87.0124 349.567 88.8786C347.806 88.7429 345.953 88.7185 344.019 88.6392C342.102 86.8341 340.196 85.0304 338.038 82.9615V82.96Z" fill="#1A1A1A"/>
<path fill-rule="evenodd" clip-rule="evenodd" d="M280.857 72.1794C284.656 72.3959 288.251 72.5438 291.728 72.8274C294.304 75.2882 296.792 77.6697 299.308 80.2341C295.877 80.0024 292.447 79.978 288.729 79.8697C286.203 77.3007 283.565 74.7363 280.858 72.1794H280.857Z" fill="#1A1A1A"/>
<path fill-rule="evenodd" clip-rule="evenodd" d="M293.468 73.0728C296.871 73.2283 299.998 73.521 303.153 73.8534C305.551 76.0626 307.873 78.3145 310.251 80.6075C307.186 80.3514 304.203 80.3437 300.889 80.2401C298.391 77.7945 295.882 75.3063 293.468 73.0728Z" fill="#1A1A1A"/>
<path fill-rule="evenodd" clip-rule="evenodd" d="M304.61 73.9768C307.606 74.2086 310.383 74.5043 313.195 74.8093C315.472 76.8736 317.67 79.0234 319.961 81.1792C317.25 80.9032 314.587 80.8468 311.61 80.6273C309.377 78.4669 307.004 76.2378 304.61 73.9768Z" fill="#1A1A1A"/>
<path fill-rule="evenodd" clip-rule="evenodd" d="M314.564 74.9084C317.214 75.1448 319.71 75.2881 322.187 75.5244C324.326 77.5247 326.402 79.5022 328.524 81.5299C326.141 81.4064 323.789 81.3012 321.15 81.1823C318.894 79.0539 316.804 76.985 314.564 74.9084Z" fill="#1A1A1A"/>
<path fill-rule="evenodd" clip-rule="evenodd" d="M323.418 75.6738C325.655 75.8217 327.883 76.0336 330.175 76.3584C332.187 78.1986 334.202 80.1166 336.159 81.9523C334.075 81.8517 331.915 81.6443 329.693 81.5879C327.528 79.5586 325.446 77.6345 323.418 75.6738Z" fill="#1A1A1A"/>
<path fill-rule="evenodd" clip-rule="evenodd" d="M337.022 77.79C338.99 78.034 340.875 78.2581 342.605 78.4106C344.383 80.0465 346.28 81.78 348.11 83.5013C346.371 83.3458 344.579 83.3046 342.792 83.1933C340.976 81.408 339.013 79.6044 337.022 77.7916V77.79Z" fill="#1A1A1A"/>
<path fill-rule="evenodd" clip-rule="evenodd" d="M343.668 78.502C345.354 78.6498 346.962 78.7581 348.523 78.9548C350.157 80.5312 351.805 82.004 353.376 83.5439C351.996 83.5241 350.42 83.4113 348.916 83.364C347.236 81.7952 345.414 80.0861 343.668 78.502Z" fill="#1A1A1A"/>
<path fill-rule="evenodd" clip-rule="evenodd" d="M284.966 65.2012C288.384 65.6052 291.68 65.994 295.002 66.3904C297.355 68.5828 299.652 70.7082 302.069 72.9372C298.81 72.5133 295.752 72.3288 292.265 71.9523C289.882 69.644 287.407 67.4698 284.966 65.2012Z" fill="#1A1A1A"/>
<path fill-rule="evenodd" clip-rule="evenodd" d="M296.529 66.5504C299.572 66.8827 302.629 67.3142 305.535 67.6786C307.691 69.7155 309.937 71.7722 312.188 73.8808C309.342 73.5652 306.594 73.3441 303.523 73.088C301.11 70.8239 298.806 68.7184 296.529 66.5488V66.5504Z" fill="#1A1A1A"/>
<path fill-rule="evenodd" clip-rule="evenodd" d="M306.926 67.8418C309.628 68.1498 312.278 68.5142 314.996 68.9228C317.066 70.8682 319.044 72.649 321.206 74.6417C318.732 74.4054 316.206 74.2056 313.548 74.0288C311.34 71.908 309.057 69.8025 306.926 67.8418Z" fill="#1A1A1A"/>
<path fill-rule="evenodd" clip-rule="evenodd" d="M316.178 69.1072C318.577 69.4746 320.975 69.7917 323.252 70.0997C325.23 71.9171 327.299 73.7405 329.265 75.5305C327.006 75.2987 324.783 75.0548 322.439 74.7895C320.271 72.8242 318.219 70.9642 316.178 69.1072Z" fill="#1A1A1A"/>
<path fill-rule="evenodd" clip-rule="evenodd" d="M330.59 71.6641C332.654 71.9964 334.565 72.2251 336.36 72.4569C338.214 74.1568 340.086 75.8309 341.844 77.5431C340.078 77.3586 338.271 77.1756 336.267 76.9195C334.402 75.1829 332.544 73.4784 330.59 71.6656V71.6641Z" fill="#1A1A1A"/>
<path fill-rule="evenodd" clip-rule="evenodd" d="M337.691 72.9676C339.518 73.2115 341.146 73.4677 342.806 73.7757C344.532 75.3155 346.226 76.8402 348.039 78.4807C346.481 78.2764 344.797 78.1483 343.112 78.008C341.348 76.3187 339.555 74.6462 337.69 72.9661L337.691 72.9676Z" fill="#1A1A1A"/>
<path fill-rule="evenodd" clip-rule="evenodd" d="M277.633 57.1006C281.236 57.6663 284.639 58.1709 287.911 58.7366C290.261 60.6942 292.49 62.7067 294.901 64.9114C291.604 64.4067 288.275 64.0469 284.873 63.6063C282.448 61.362 280.054 59.2321 277.635 57.0991L277.633 57.1006Z" fill="#1A1A1A"/>
<path fill-rule="evenodd" clip-rule="evenodd" d="M289.464 58.8997C292.685 59.4546 295.76 59.8876 298.777 60.4106C300.867 62.3514 303.057 64.2237 305.275 66.2576C302.348 65.8337 299.327 65.4617 296.271 64.9967C294.032 62.9598 291.796 60.9747 289.464 58.8997Z" fill="#1A1A1A"/>
<path fill-rule="evenodd" clip-rule="evenodd" d="M281.121 51.6868C284.397 52.2646 287.537 52.8989 290.606 53.4721C292.814 55.4282 294.973 57.3051 297.135 59.188C294.238 58.6909 291.094 58.2107 287.795 57.6496C285.616 55.7088 283.343 53.7023 281.12 51.6868H281.121Z" fill="#1A1A1A"/>
<path fill-rule="evenodd" clip-rule="evenodd" d="M245.49 53.7405C250.202 54.3915 254.591 54.9968 258.765 55.4313C261.542 57.8265 264.085 60.2842 266.545 62.5895C262.493 62.2495 258.179 61.7616 253.604 61.2691C251.001 58.7824 248.294 56.2622 245.491 53.742L245.49 53.7405Z" fill="#1A1A1A"/>
<path fill-rule="evenodd" clip-rule="evenodd" d="M346.062 105.581C348.181 105.253 350.127 104.884 351.985 104.492C354.304 106.85 356.477 109.114 358.506 111.259C356.801 111.747 354.956 112.355 353.062 112.927C350.683 110.41 348.482 108.097 346.062 105.579V105.581Z" fill="#1A1A1A"/>
<path fill-rule="evenodd" clip-rule="evenodd" d="M338.281 107.217C340.691 106.805 342.93 106.34 345.113 105.897C347.448 108.382 349.77 110.774 352.108 113.247C350.107 113.9 347.97 114.535 345.78 115.176C343.304 112.474 340.726 109.766 338.281 107.217Z" fill="#1A1A1A"/>
<path fill-rule="evenodd" clip-rule="evenodd" d="M328.439 108.646C331.206 108.094 333.854 107.681 336.317 107.321C338.845 109.843 341.41 112.602 343.922 115.296C341.592 115.853 339.076 116.452 336.567 117.281C333.804 114.244 331.173 111.424 328.438 108.646H328.439Z" fill="#1A1A1A"/>
<path fill-rule="evenodd" clip-rule="evenodd" d="M318.318 110.439C321.434 109.83 324.504 109.143 327.197 108.611C329.957 111.512 332.751 114.372 335.389 117.338C332.731 118.15 329.919 119.038 326.849 119.763C324.037 116.633 321.202 113.596 318.318 110.44V110.439Z" fill="#1A1A1A"/>
<path fill-rule="evenodd" clip-rule="evenodd" d="M306.286 112.588C309.896 111.96 313.476 111.416 316.568 110.524C319.48 113.738 322.456 116.979 325.218 120.135C322.148 121.024 318.925 121.928 315.511 122.788C312.39 119.283 309.402 115.965 306.285 112.588H306.286Z" fill="#1A1A1A"/>
<path fill-rule="evenodd" clip-rule="evenodd" d="M292.655 115.473C296.897 114.596 300.797 113.813 304.463 112.98C307.61 116.441 310.789 119.899 313.896 123.505C310.07 124.564 306.542 125.886 302.493 126.921C299.149 123.072 295.842 119.239 292.655 115.473Z" fill="#1A1A1A"/>
<path fill-rule="evenodd" clip-rule="evenodd" d="M276.9 119.082C281.861 118.109 286.257 117.19 290.689 116.225C293.997 120.026 297.298 123.895 300.603 127.678C296.464 129.047 292.08 130.387 287.481 131.759C283.842 127.321 280.384 123.148 276.9 119.082Z" fill="#1A1A1A"/>
<path fill-rule="evenodd" clip-rule="evenodd" d="M112.914 97.1102C116.037 94.6129 119.094 92.0927 121.888 89.792C126.402 92.3488 130.895 94.7303 135.434 97.4304C132.901 100.076 130.394 102.849 127.363 105.686C122.469 102.793 117.579 99.9156 112.916 97.1102H112.914Z" fill="#1A1A1A"/>
<path fill-rule="evenodd" clip-rule="evenodd" d="M266.098 91.9845C267.34 90.7327 268.553 89.5679 269.816 88.5708C271.574 89.8027 273.405 91.1154 275.214 92.3641C274.091 93.5487 273.03 94.8218 271.891 96.2534C269.944 94.7974 268.003 93.3521 266.096 91.9845H266.098Z" fill="#1A1A1A"/>
<path fill-rule="evenodd" clip-rule="evenodd" d="M315.265 45.7406C315.748 45.0027 316.192 44.2343 316.6 43.4644C318.182 44.774 319.872 46.1919 321.53 47.5733C321.272 48.4591 320.906 49.2686 320.493 50.1362C318.758 48.6771 316.994 47.1936 315.266 45.7406H315.265Z" fill="#1A1A1A"/>
<path fill-rule="evenodd" clip-rule="evenodd" d="M58.4258 173.755C62.329 170.698 66.0103 167.77 69.5861 165.191C74.2421 166.625 78.8108 168.321 83.6045 169.941C80.1282 172.758 76.707 175.803 73.1909 179.084C68.1906 177.202 63.0756 175.507 58.4242 173.754L58.4258 173.755Z" fill="#1A1A1A"/>
<path fill-rule="evenodd" clip-rule="evenodd" d="M304.123 55.6569C304.507 55.2346 304.81 54.8229 305.111 54.4265C306.139 55.1736 307.174 55.9069 308.173 56.6388C307.942 57.0916 307.703 57.6237 307.435 58.0689C306.329 57.2684 305.264 56.4741 304.123 55.6554V55.6569Z" fill="#1A1A1A"/>
<path fill-rule="evenodd" clip-rule="evenodd" d="M268.693 36.3353C269.62 35.9404 270.499 35.5912 271.368 35.2695C272.679 36.1614 273.989 37.0838 275.329 38.0566C274.598 38.4972 273.794 38.889 272.881 39.3952C271.516 38.3295 270.104 37.3339 268.693 36.3368V36.3353Z" fill="#1A1A1A"/>
<path fill-rule="evenodd" clip-rule="evenodd" d="M71.4887 72.5163C75.1639 71.0039 78.5806 69.6836 81.8274 68.4395C86.0259 70.1806 90.001 71.8485 93.8047 73.6171C90.8716 75.0823 87.7823 76.5825 84.3259 78.4273C79.8888 76.3584 75.577 74.3063 71.4887 72.5163Z" fill="#1A1A1A"/>
<path fill-rule="evenodd" clip-rule="evenodd" d="M283.723 33.978C284.283 33.7142 284.702 33.3681 285.146 33.1074C286.214 33.8057 287.232 34.5939 288.26 35.3547C287.883 35.6886 287.536 36.0835 287.082 36.3884C286.058 35.6063 284.892 34.7784 283.723 33.978Z" fill="#1A1A1A"/>
<path fill-rule="evenodd" clip-rule="evenodd" d="M307.086 28.2179C307.383 28.0014 307.708 27.8352 308 27.6355C308.769 28.2316 309.613 28.8476 310.352 29.4163C310.096 29.648 309.874 29.8828 309.646 30.1511C308.803 29.5154 307.928 28.8674 307.086 28.2179Z" fill="#1A1A1A"/>
<path fill-rule="evenodd" clip-rule="evenodd" d="M55.603 122.148C58.2194 120.896 60.337 119.715 62.5709 118.583C65.8513 119.512 68.9925 120.352 72.123 121.261C70.2028 122.421 68.0286 123.773 65.7274 125.054C62.2985 124.121 58.94 123.105 55.603 122.148Z" fill="#1A1A1A"/>
<path fill-rule="evenodd" clip-rule="evenodd" d="M248.144 30.2793C249.062 30.0079 250 29.8219 250.794 29.5444C252.072 30.3784 253.421 31.2444 254.63 32.0479C253.86 32.3864 253.14 32.6745 252.289 32.9916C251.017 32.118 249.53 31.1545 248.144 30.2793Z" fill="#1A1A1A"/>
<path fill-rule="evenodd" clip-rule="evenodd" d="M281.974 9.66308C282.557 9.55483 283.14 9.46183 283.712 9.43286C284.673 10.0427 285.588 10.7395 286.508 11.4073C285.963 11.5018 285.415 11.6055 284.866 11.7259C283.884 11.0063 282.929 10.3217 281.974 9.66308Z" fill="#1A1A1A"/>
<path fill-rule="evenodd" clip-rule="evenodd" d="M296.488 34.9187C297.018 34.751 297.54 34.6321 298.028 34.4827C298.849 35.0742 299.78 35.7237 300.643 36.3092C300.151 36.483 299.699 36.6446 299.204 36.8215C298.274 36.175 297.416 35.5667 296.487 34.9187H296.488Z" fill="#1A1A1A"/>
<path fill-rule="evenodd" clip-rule="evenodd" d="M308.962 48.5216C309.492 48.3478 309.987 48.1481 310.474 48.02C311.248 48.546 312.099 49.1101 312.916 49.6346C312.425 49.8084 311.934 49.9914 311.476 50.1987C310.664 49.6453 309.812 49.0888 308.962 48.5216Z" fill="#1A1A1A"/>
<path fill-rule="evenodd" clip-rule="evenodd" d="M226.599 55.7971C227.748 55.4968 228.85 55.1903 229.908 54.9067C231.302 55.6584 232.659 56.3734 234.13 57.1602C233.042 57.4087 231.974 57.7487 230.908 58.0643C229.521 57.2897 228.004 56.5213 226.599 55.7971Z" fill="#1A1A1A"/>
<path fill-rule="evenodd" clip-rule="evenodd" d="M321.781 60.4273C322.272 60.255 322.768 60.0279 323.219 59.8464C323.98 60.3541 324.665 60.8192 325.391 61.3147C324.978 61.5068 324.561 61.7233 324.105 61.955C323.343 61.4275 322.578 60.967 321.781 60.4258V60.4273Z" fill="#1A1A1A"/>
<path fill-rule="evenodd" clip-rule="evenodd" d="M315.548 40.2457C315.978 40.1344 316.399 40.0917 316.826 40.0125C317.451 40.4393 318.108 40.9166 318.738 41.3175C318.386 41.3938 317.958 41.5035 317.6 41.6255C316.905 41.1453 316.246 40.6818 315.548 40.2472V40.2457Z" fill="#1A1A1A"/>
<path fill-rule="evenodd" clip-rule="evenodd" d="M2.86102e-05 150.239C3.49163 149.187 7.18365 147.939 10.9155 146.854C14.3719 147.595 18.1053 148.123 21.6152 148.771C18.2598 149.799 14.6259 151.003 11.2689 152.197C7.34738 151.537 3.71961 150.928 2.86102e-05 150.241V150.239Z" fill="#1A1A1A"/>
<path fill-rule="evenodd" clip-rule="evenodd" d="M268.333 15.9492C269.103 15.9797 269.796 15.9873 270.489 15.9934C271.302 16.5103 272.149 17.05 273.024 17.6278C272.334 17.5958 271.702 17.6538 271.006 17.6477C270.131 17.0714 269.254 16.4889 268.335 15.9492H268.333Z" fill="#1A1A1A"/>
<path fill-rule="evenodd" clip-rule="evenodd" d="M172.443 82.3365C174.181 81.9127 176.043 81.6596 177.817 81.2754C179.564 81.8837 181.154 82.4158 182.716 83.0409C181.106 83.3367 179.363 83.7529 177.544 84.1691C175.844 83.541 174.099 82.9372 172.445 82.3365H172.443Z" fill="#1A1A1A"/>
<path fill-rule="evenodd" clip-rule="evenodd" d="M178.377 113.924C179.945 112.944 181.496 111.968 183.057 111.119C185.242 111.959 187.47 112.947 189.713 113.9C188.261 114.868 186.818 115.811 185.36 116.912C182.929 115.808 180.626 114.883 178.377 113.922V113.924Z" fill="#1A1A1A"/>
<path fill-rule="evenodd" clip-rule="evenodd" d="M216.351 74.9176C217.765 74.1096 219.068 73.3884 220.278 72.6855C222.139 73.7177 224.078 74.8139 226.015 75.93C224.797 76.6786 223.709 77.5781 222.352 78.3511C220.292 77.1939 218.326 76.0428 216.351 74.9176Z" fill="#1A1A1A"/>
</g>
<defs>
<clipPath id="clip0_181_1072">
<rect width="398" height="217" fill="white" transform="matrix(-1 0 0 1 398 0)"/>
</clipPath>
</defs>
</svg>
