<svg width="326" height="177" viewBox="0 0 326 177" fill="none" xmlns="http://www.w3.org/2000/svg">
<g clip-path="url(#clip0_322_1751)">
<path fill-rule="evenodd" clip-rule="evenodd" d="M79.7914 174.321C80.0307 174.663 80.3767 174.539 80.1611 176.019C79.3552 178.443 80.3817 175.564 80.2864 175.975C80.1674 175.26 79.7275 175.608 79.458 175.647C79.5407 175.326 79.6523 174.809 79.7914 174.321Z" fill="#1A1A1A"/>
<path fill-rule="evenodd" clip-rule="evenodd" d="M28.6159 26.0136C26.7522 29.1039 25.232 32.5027 23.7406 35.5345C22.9473 34.3133 20.6739 20.9509 17.5332 -7.63997e-06H24.3284C26.3863 15.3796 27.9165 24.9167 28.6159 26.0136Z" fill="#1A1A1A"/>
<path fill-rule="evenodd" clip-rule="evenodd" d="M22.7965 34.878C21.2901 37.7469 19.8902 40.4791 18.474 42.5547C17.7032 41.4417 14.9523 25.0635 11.1699 1.95571e-05H17.3122C20.0606 20.5729 22.0583 33.7003 22.7965 34.878Z" fill="#1A1A1A"/>
<path fill-rule="evenodd" clip-rule="evenodd" d="M17.7964 43.3879C16.5269 45.1924 15.315 46.906 14.1181 48.5352C12.7006 40.3585 11.2656 32.29 9.88831 24.2713C8.48715 16.1283 7.1048 8.02621 5.75879 0.0174419L5.84902 0.00127448H11.3709C13.4288 14.2517 15.6145 28.7632 17.7964 43.3891V43.3879Z" fill="#1A1A1A"/>
<path fill-rule="evenodd" clip-rule="evenodd" d="M13.6205 49.3833C12.5602 51.0709 11.5489 52.5719 10.5864 53.9858C8.76159 45.0096 6.93934 36.1315 5.18477 27.4238C3.4139 18.6279 1.67562 9.93264 0 1.40653V1.05707C1.59165 0.757368 3.22716 0.46015 4.90654 0.189046C6.27636 8.26124 7.72514 16.4603 9.18645 24.7302C10.6227 32.8608 12.1517 41.0698 13.6205 49.3833Z" fill="#1A1A1A"/>
<path fill-rule="evenodd" clip-rule="evenodd" d="M10.1076 54.6125C9.20024 55.9643 8.48588 57.3286 7.85423 58.7773C5.63344 49.1258 3.38633 39.5588 1.30716 30.1423L0 24.2215V5.14346C1.48387 12.5914 3.02414 20.1475 4.58069 27.7819C6.37537 36.5941 8.23146 45.5741 10.1089 54.6113L10.1076 54.6125Z" fill="#1A1A1A"/>
<path fill-rule="evenodd" clip-rule="evenodd" d="M7.39177 59.3245C6.62227 60.5383 5.93172 61.6911 5.32263 62.9608C3.53421 55.7281 1.75081 48.5575 0 41.4578V27.1353L0.751961 30.4606C2.88628 39.907 5.11835 49.5648 7.39177 59.3233V59.3245Z" fill="#1A1A1A"/>
<path fill-rule="evenodd" clip-rule="evenodd" d="M4.98174 63.4894C4.37265 64.4918 3.95657 65.6695 3.54299 66.8409C2.34862 62.3789 1.16805 57.943 0 53.5369V43.516C1.6493 50.1021 3.32367 56.7641 4.98174 63.4882V63.4894Z" fill="#1A1A1A"/>
<path fill-rule="evenodd" clip-rule="evenodd" d="M3.09808 67.1555C2.68575 68.174 2.31353 69.2186 2.04909 70.2272L0 62.9546V55.549C1.02267 59.3967 2.05536 63.268 3.09808 67.1555Z" fill="#1A1A1A"/>
<path fill-rule="evenodd" clip-rule="evenodd" d="M1.88115 71.0269C1.55029 72.0093 1.28836 72.9495 1.06026 73.7914L0 70.1787V64.3686L1.88115 71.0269Z" fill="#1A1A1A"/>
<path fill-rule="evenodd" clip-rule="evenodd" d="M0.987575 74.3162C0.797078 75.2066 0.711856 76.102 0.591542 76.9663L0 75.0076V70.9734L0.987575 74.3162Z" fill="#1A1A1A"/>
<path fill-rule="evenodd" clip-rule="evenodd" d="M0.542665 77.2933C0.458696 78.1451 0.515093 79.1015 0.602822 80.0093L0 78.0705V75.505L0.542665 77.2933Z" fill="#1A1A1A"/>
<path fill-rule="evenodd" clip-rule="evenodd" d="M0.637913 80.6324C0.646686 81.3537 0.798331 82.1956 0.949977 83.0873L0 80.0454V78.5892L0.637913 80.6324Z" fill="#1A1A1A"/>
<path fill-rule="evenodd" clip-rule="evenodd" d="M0.964739 83.3148C1.10761 84.0747 1.34824 84.8059 1.62521 85.6354L0.000976562 80.4197V80.2469L0.965993 83.3148H0.964739Z" fill="#1A1A1A"/>
<path fill-rule="evenodd" clip-rule="evenodd" d="M1.7834 86.1254C2.11928 86.8467 2.49024 87.6363 2.74967 88.2532C1.83604 85.2996 0.917392 82.3461 0 79.3988V80.4036C0.599062 82.31 1.19562 84.2152 1.7834 86.1254Z" fill="#1A1A1A"/>
<path fill-rule="evenodd" clip-rule="evenodd" d="M3.03569 88.7232C3.42922 89.4084 3.95308 90.1795 4.47444 90.907C2.98055 86.0308 1.48289 81.1572 -0.000976562 76.2972V78.9087C1.01417 82.1794 2.03057 85.4563 3.03444 88.7232H3.03569Z" fill="#1A1A1A"/>
<path fill-rule="evenodd" clip-rule="evenodd" d="M80.9231 -1.71245e-05C77.3099 3.50195 73.876 6.76019 70.6175 10.0856C68.6122 6.79874 66.5155 3.40744 64.4238 -1.71245e-05H80.9231Z" fill="#1A1A1A"/>
<path fill-rule="evenodd" clip-rule="evenodd" d="M68.758 11.7656C65.0283 15.6755 61.568 18.9163 58.312 21.9097C54.6337 16.8532 51.2248 11.9447 47.6279 6.50398C49.2359 4.53909 50.8777 2.33294 52.5959 -0.00128809H61.3838C63.8603 4.03667 66.3167 7.94033 68.758 11.7656Z" fill="#1A1A1A"/>
<path fill-rule="evenodd" clip-rule="evenodd" d="M56.7869 23.5128C53.5609 26.3855 50.7198 29.1164 47.9613 31.7441C44.7367 27.4326 41.4281 22.8338 38.2021 18.2971C40.6648 15.157 43.3832 11.9461 46.1792 8.39809C49.7335 13.5254 53.1373 18.4961 56.7869 23.5128Z" fill="#1A1A1A"/>
<path fill-rule="evenodd" clip-rule="evenodd" d="M46.6257 32.9528C44.0816 35.1751 41.6427 37.431 39.3593 39.5265C36.5006 35.7497 33.5353 32.0811 30.5312 28.1675C32.623 25.592 34.756 22.8735 37.0294 19.8155C40.2315 24.219 43.4687 28.7619 46.627 32.9528H46.6257Z" fill="#1A1A1A"/>
<path fill-rule="evenodd" clip-rule="evenodd" d="M31.4335 47.2355C29.6827 48.9654 27.9595 50.5087 26.2951 52.001C23.9352 49.2141 21.3573 46.1486 19.0049 43.1851C20.3384 41.3968 21.8861 39.4867 23.4289 37.3104C26.1084 40.8098 28.7252 43.8616 31.4335 47.2355Z" fill="#1A1A1A"/>
<path fill-rule="evenodd" clip-rule="evenodd" d="M25.3271 52.5134C23.8395 53.966 22.3343 55.2842 21.0259 56.7566C18.9154 54.2731 16.7021 51.7138 14.6455 49.2303C15.7672 47.5527 17.0179 45.8714 18.3238 44.0794C20.606 46.87 23.0386 49.7813 25.3271 52.5134Z" fill="#1A1A1A"/>
<path fill-rule="evenodd" clip-rule="evenodd" d="M20.0788 57.6047C18.8694 58.939 17.7101 60.154 16.5997 61.3616C14.671 59.1716 12.682 56.8573 10.8535 54.6996C11.7396 53.3155 12.7861 51.9127 13.8827 50.3682C15.938 52.8255 18.1124 55.2866 20.0801 57.6047H20.0788Z" fill="#1A1A1A"/>
<path fill-rule="evenodd" clip-rule="evenodd" d="M15.9011 62.0344C14.8446 63.0691 13.9046 64.146 12.9007 65.1447C11.2301 63.2681 9.46803 61.3455 7.79492 59.4689C8.49926 58.1171 9.32266 56.7889 10.0796 55.36C12.0197 57.5338 14.0437 59.8382 15.9011 62.0344Z" fill="#1A1A1A"/>
<path fill-rule="evenodd" clip-rule="evenodd" d="M12.5111 65.6669C11.6276 66.617 10.823 67.7201 10.1299 68.7025C8.57459 67.0286 7.11203 65.3796 5.4502 63.5975C6.13323 62.3962 6.82378 61.2608 7.55443 60.0272C9.18744 61.8453 10.8756 63.7319 12.5124 65.6669H12.5111Z" fill="#1A1A1A"/>
<path fill-rule="evenodd" clip-rule="evenodd" d="M9.68362 69.4761C8.93166 70.3503 8.28623 71.1798 7.61197 72.0354C6.16946 70.4747 4.74575 68.8692 3.5 67.5012C3.91483 66.4206 4.4788 65.4058 4.93624 64.2443C6.48654 65.9878 8.09448 67.7823 9.68488 69.4761H9.68362Z" fill="#1A1A1A"/>
<path fill-rule="evenodd" clip-rule="evenodd" d="M7.34253 72.3052C6.74472 73.1571 6.2572 74.0811 5.73459 74.8285C4.58659 73.6371 3.42732 72.3189 2.29688 71.0455C2.63275 70.0568 2.93354 69.006 3.34461 67.9875C4.66304 69.4363 5.97522 70.8863 7.34253 72.3052Z" fill="#1A1A1A"/>
<path fill-rule="evenodd" clip-rule="evenodd" d="M5.51287 75.3347C4.99527 76.0498 4.68696 76.8755 4.38117 77.6428C3.38482 76.6044 2.34586 75.5175 1.37207 74.4567C1.56257 73.5489 1.85959 72.6548 2.04758 71.584C3.17552 72.8015 4.40623 74.1719 5.51412 75.3347H5.51287Z" fill="#1A1A1A"/>
<path fill-rule="evenodd" clip-rule="evenodd" d="M4.15679 77.9748C3.92368 78.7744 3.65297 79.4472 3.41987 80.2008C2.53506 79.2805 1.74801 78.3789 0.819336 77.4064C0.942156 76.5807 1.06247 75.6903 1.25297 74.831C2.2631 75.9402 3.23188 76.9911 4.15679 77.9735V77.9748Z" fill="#1A1A1A"/>
<path fill-rule="evenodd" clip-rule="evenodd" d="M3.31082 80.7393C3.18048 81.4768 3.01505 82.1297 2.98873 82.9094C2.17912 82.0352 1.47227 81.2704 0.799268 80.559C0.711539 79.6388 0.732844 78.8329 0.781722 77.9313C1.56877 78.7869 2.49494 79.8241 3.31082 80.7381V80.7393Z" fill="#1A1A1A"/>
<path fill-rule="evenodd" clip-rule="evenodd" d="M15.2345 101.006C16.2572 101.555 17.2172 102.071 18.2699 102.491C18.2687 102.341 18.3 102.25 18.3953 102.26C17.2773 101.737 16.093 101.046 15.1631 100.55C15.1668 100.753 15.1668 100.811 15.2345 101.006Z" fill="#1A1A1A"/>
<path fill-rule="evenodd" clip-rule="evenodd" d="M2.8641 85.5571C3.00196 86.2585 3.10222 86.9313 3.26514 87.522C2.85156 87.1141 2.29762 86.5171 1.84394 86.0048C1.6008 85.2114 1.36017 84.4354 1.11328 83.632C1.78002 84.3371 2.27255 84.9017 2.86284 85.5571H2.8641Z" fill="#1A1A1A"/>
<path fill-rule="evenodd" clip-rule="evenodd" d="M3.45428 88.0542C3.68488 88.7034 3.94431 89.3625 4.20373 89.9967C3.79141 89.5229 3.4806 89.1125 3.06702 88.6549C2.6359 87.8938 2.30127 87.17 1.96289 86.3729C2.48801 86.9897 2.90409 87.4697 3.45553 88.0542H3.45428Z" fill="#1A1A1A"/>
<path fill-rule="evenodd" clip-rule="evenodd" d="M8.3414 95.731C8.93795 96.3515 9.56333 96.9223 10.2188 97.4347C10.0521 97.2034 9.88417 96.9609 9.75007 96.7656C9.02568 96.1227 8.33388 95.5258 7.6709 94.9114C7.90526 95.1689 8.04061 95.3616 8.3414 95.731Z" fill="#1A1A1A"/>
<path fill-rule="evenodd" clip-rule="evenodd" d="M118.068 5.79266C111.756 10.0321 106.29 14.0477 100.587 17.7386C97.1851 11.9808 93.6497 6.28884 90.0791 -0.00127381H114.961C115.988 1.95117 117.023 3.88249 118.068 5.79266Z" fill="#1A1A1A"/>
<path fill-rule="evenodd" clip-rule="evenodd" d="M98.0291 19.3741C93.0123 22.9022 88.3201 26.281 83.9775 29.3776C80.3355 23.9692 76.7286 18.5807 73.1367 12.8589C77.3527 8.96516 81.6677 4.62997 86.5993 0.420395C90.3804 7.05001 94.3107 13.2382 98.0291 19.3741Z" fill="#1A1A1A"/>
<path fill-rule="evenodd" clip-rule="evenodd" d="M81.8993 30.8213C77.7385 33.2239 74.0564 35.874 70.4758 38.3413C67.1722 33.929 63.7595 29.3028 60.4609 24.4764C63.8197 21.3364 67.2649 18.1316 71.1263 14.4555C74.8058 20.2134 78.2448 25.638 81.8993 30.8213Z" fill="#1A1A1A"/>
<path fill-rule="evenodd" clip-rule="evenodd" d="M68.8462 39.6534C65.3972 41.8695 62.2527 44.1154 59.2236 46.002C56.1919 42.2251 52.966 37.9434 49.8867 33.5759C52.7066 31.1049 55.7119 28.6936 58.9554 25.9253C62.1299 30.5366 65.52 35.1192 68.8462 39.6534Z" fill="#1A1A1A"/>
<path fill-rule="evenodd" clip-rule="evenodd" d="M57.7794 46.9222C54.8944 48.6296 52.2876 50.4478 49.7021 51.9326C46.8271 48.5612 44.0712 45.0555 41.1348 41.2887C43.4433 39.2815 45.9837 37.2345 48.5328 34.96C51.5808 38.9482 54.7402 43.1727 57.7794 46.9222Z" fill="#1A1A1A"/>
<path fill-rule="evenodd" clip-rule="evenodd" d="M23.395 104.414C22.7245 104.482 22.1179 104.554 21.5765 104.659C20.4661 103.568 19.4472 102.551 18.3594 101.516C18.902 101.442 19.4134 101.265 19.9899 101.131C21.1103 102.185 22.1919 103.282 23.395 104.414Z" fill="#1A1A1A"/>
<path fill-rule="evenodd" clip-rule="evenodd" d="M40.6611 58.0163C38.6195 59.2338 36.771 60.5234 34.871 61.7073C32.5174 58.9166 30.0935 56.1123 27.7148 53.2608C29.4105 51.899 31.1688 50.3918 33.0613 48.8771C35.5666 51.9513 38.0794 54.9583 40.6611 58.0163Z" fill="#1A1A1A"/>
<path fill-rule="evenodd" clip-rule="evenodd" d="M33.8105 62.0867C32.1174 63.2718 30.4092 64.3388 28.7849 65.4294C26.7634 63.1052 24.6492 60.6739 22.6201 58.2191C24.0012 56.8449 25.4688 55.5428 26.9953 54.1264C29.2374 56.7118 31.5208 59.4042 33.8105 62.0867Z" fill="#1A1A1A"/>
<path fill-rule="evenodd" clip-rule="evenodd" d="M27.7735 66.0748C26.2483 66.9988 25.0201 68.0795 23.664 68.96C21.7378 66.816 19.7939 64.6944 17.9717 62.5791C19.0821 61.42 20.314 60.2884 21.635 59.0186C23.7342 61.5705 25.7833 63.8662 27.7722 66.0748H27.7735Z" fill="#1A1A1A"/>
<path fill-rule="evenodd" clip-rule="evenodd" d="M22.8977 69.5482C21.6269 70.4361 20.4726 71.3364 19.2594 72.0316C17.5763 70.2135 15.8079 68.3207 14.0195 66.1929C14.9871 65.1906 16.0009 64.2119 17.1326 63.0727C18.9912 65.1719 20.9714 67.4527 22.8977 69.5482Z" fill="#1A1A1A"/>
<path fill-rule="evenodd" clip-rule="evenodd" d="M18.83 72.4135C17.7672 73.2554 16.747 73.9642 15.8722 74.78C14.3307 73.1149 12.7403 71.3887 11.2051 69.7671C12.0059 68.8244 12.813 67.7823 13.7705 66.7613C15.4486 68.72 17.1456 70.5667 18.83 72.4147V72.4135Z" fill="#1A1A1A"/>
<path fill-rule="evenodd" clip-rule="evenodd" d="M15.2471 75.3383C14.3134 75.9452 13.5602 76.7548 12.8108 77.45C11.3407 75.9228 9.85682 74.3161 8.39551 72.6808C9.1788 71.9719 9.78789 71.0255 10.5085 70.1637C12.045 71.8637 13.7069 73.6595 15.2471 75.3371V75.3383Z" fill="#1A1A1A"/>
<path fill-rule="evenodd" clip-rule="evenodd" d="M12.3996 77.6689C11.5863 78.2596 11.0549 79.0468 10.3881 79.722C9.12986 78.4163 7.82771 77.0259 6.62207 75.7002C7.21612 74.9591 7.74124 74.1308 8.3403 73.2752C9.69258 74.7439 11.0348 76.2163 12.3996 77.6689Z" fill="#1A1A1A"/>
<path fill-rule="evenodd" clip-rule="evenodd" d="M6.69481 84.1966C6.42285 84.8432 6.18222 85.4178 5.97543 86.011C5.11193 85.1007 4.34869 84.2948 3.54785 83.4417C3.67819 82.7503 3.87997 82.1135 3.94138 81.304C4.92143 82.3125 5.79621 83.2626 6.69606 84.1953L6.69481 84.1966Z" fill="#1A1A1A"/>
<path fill-rule="evenodd" clip-rule="evenodd" d="M5.75215 86.2199C5.68322 86.9113 5.47518 87.3851 5.43758 87.9634C4.78463 87.2844 4.09408 86.5507 3.43611 85.8356C3.40227 85.1765 3.46619 84.4875 3.53261 83.8309C4.26452 84.6305 4.99267 85.4439 5.75215 86.2199Z" fill="#1A1A1A"/>
<path fill-rule="evenodd" clip-rule="evenodd" d="M5.53905 90.2342C5.59294 90.6645 5.75085 91.2987 5.86866 91.775C5.42751 91.2888 4.94876 90.7404 4.54019 90.2927C4.2156 89.6199 3.98876 88.9807 3.79199 88.334C4.37351 88.9247 4.92495 89.5739 5.53779 90.233L5.53905 90.2342Z" fill="#1A1A1A"/>
<path fill-rule="evenodd" clip-rule="evenodd" d="M6.65218 93.4849C6.89531 93.9028 7.27129 94.5295 7.77761 95.1526C7.50816 94.8006 7.17103 94.4214 7.03317 94.1502C6.42659 93.4252 5.98293 92.8482 5.50293 92.1953C5.84382 92.5995 6.28246 93.0696 6.65343 93.4849H6.65218Z" fill="#1A1A1A"/>
<path fill-rule="evenodd" clip-rule="evenodd" d="M10.0717 97.804C10.5342 98.3126 11.0242 98.764 11.4791 99.1682C11.1834 98.7864 10.9189 98.4245 10.6244 98.1112C10.0667 97.5951 9.50648 97.0367 9.0127 96.5902C9.41123 97.0342 9.70826 97.37 10.073 97.804H10.0717Z" fill="#1A1A1A"/>
<path fill-rule="evenodd" clip-rule="evenodd" d="M8.86683 95.2284C8.94453 95.6164 9.11999 96.0343 9.19769 96.426C8.73148 95.8776 8.23142 95.3267 7.76395 94.8305C7.5885 94.3766 7.34286 93.8804 7.16113 93.3904C7.69878 93.9612 8.30035 94.5718 8.86683 95.2284Z" fill="#1A1A1A"/>
<path fill-rule="evenodd" clip-rule="evenodd" d="M222.419 65.3897C212.127 67.551 202.67 69.6813 193.763 71.7084C190.33 66.1856 186.826 60.9115 183.545 55.2518C192.185 52.8529 201.717 49.7614 212.272 46.6126C215.706 53.1303 219.035 59.296 222.42 65.3897H222.419Z" fill="#1A1A1A"/>
<path fill-rule="evenodd" clip-rule="evenodd" d="M163.065 71.6262C155.88 73.2156 149.559 74.7825 143.267 75.9677C140.182 71.7991 136.822 67.4813 133.472 62.9546C139.61 61.0942 146.053 59.097 152.978 56.8871C156.203 61.8516 159.715 66.9503 163.065 71.6275V71.6262Z" fill="#1A1A1A"/>
<path fill-rule="evenodd" clip-rule="evenodd" d="M154.612 104.07C148.89 104.299 143.536 104.645 138.37 104.919C135.463 101.752 132.618 98.6645 129.884 95.456C134.894 95.0021 140.216 94.4251 145.877 93.5994C148.702 97.2157 151.521 100.718 154.612 104.07Z" fill="#1A1A1A"/>
<path fill-rule="evenodd" clip-rule="evenodd" d="M185.016 0.00016506C177.681 3.88143 170.817 7.55254 164.352 11.0906C162.505 7.46798 160.654 3.77324 158.824 0.00016506H185.015H185.016Z" fill="#1A1A1A"/>
<path fill-rule="evenodd" clip-rule="evenodd" d="M159.961 13.3624C151.539 17.8307 144.119 22.1385 136.858 25.9937C133.05 19.42 129.148 12.3502 125.266 5.29398C127.642 3.54051 130.061 1.78205 132.541 -2.4875e-05H153.424C155.636 4.56647 157.81 9.00487 159.961 13.3624Z" fill="#1A1A1A"/>
<path fill-rule="evenodd" clip-rule="evenodd" d="M133.5 27.7235C126.926 30.9419 120.858 33.9315 115.284 36.895C111.692 31.4543 107.865 25.6143 104.41 19.5891C109.841 15.8359 115.682 11.9845 122.105 7.83587C125.816 14.7851 129.69 21.2406 133.5 27.7235Z" fill="#1A1A1A"/>
<path fill-rule="evenodd" clip-rule="evenodd" d="M112.231 37.7208C106.801 40.4915 101.852 42.9141 97.1596 45.2284C93.9249 40.642 90.5122 35.8964 87.082 31.07C91.5875 28.0083 96.5204 24.6332 101.715 21.0827C105.279 27.0719 108.717 32.3696 112.231 37.722V37.7208Z" fill="#1A1A1A"/>
<path fill-rule="evenodd" clip-rule="evenodd" d="M94.2662 46.916C89.9299 48.9107 85.8355 50.8557 81.9578 52.7908C78.8635 48.8349 75.7554 44.6601 72.6436 40.371C76.3144 37.8353 80.1556 35.4127 84.3491 32.9939C87.5988 37.5803 90.9588 42.2737 94.2662 46.9148V46.916Z" fill="#1A1A1A"/>
<path fill-rule="evenodd" clip-rule="evenodd" d="M79.715 53.9236C76.1908 55.9109 72.817 57.3771 69.4695 58.8296C66.5569 55.1311 63.5679 51.3518 60.4961 47.5328C63.6618 45.7606 66.9717 43.7037 70.3079 41.4192C73.3985 45.6462 76.6269 49.8831 79.715 53.9236Z" fill="#1A1A1A"/>
<path fill-rule="evenodd" clip-rule="evenodd" d="M68.0049 59.2363C65.0309 60.6726 62.0945 62.0232 59.2358 63.2183C56.7042 60.0322 54.026 56.8573 51.3828 53.6811C53.9783 52.0781 56.7267 50.352 59.514 48.5015C62.3815 52.1378 65.2765 55.7766 68.0036 59.2363H68.0049Z" fill="#1A1A1A"/>
<path fill-rule="evenodd" clip-rule="evenodd" d="M49.1122 67.9751C46.7497 68.8307 44.6869 69.7895 42.6378 70.7334C40.4333 68.2562 38.1411 65.6545 36.0293 63.2034C37.8904 62.0058 39.7001 60.7162 41.9209 59.5808C44.2495 62.3752 46.6558 65.1981 49.1122 67.9763V67.9751Z" fill="#1A1A1A"/>
<path fill-rule="evenodd" clip-rule="evenodd" d="M41.5479 71.1761C39.5577 72.1162 37.7605 73.0527 35.9921 73.7454C33.9393 71.5231 32.0393 69.3592 29.915 66.9566C31.5343 65.9057 33.2011 64.8909 34.9244 63.7282C37.1815 66.2514 39.302 68.7349 41.5479 71.1761Z" fill="#1A1A1A"/>
<path fill-rule="evenodd" clip-rule="evenodd" d="M35.1116 74.0911C33.4986 74.8484 32.0348 75.6344 30.5158 76.291C28.587 74.2316 26.6708 72.2108 24.9551 70.1713C26.2071 69.251 27.6797 68.3693 29.131 67.4229C31.1913 69.6975 33.1627 71.9011 35.1103 74.0911H35.1116Z" fill="#1A1A1A"/>
<path fill-rule="evenodd" clip-rule="evenodd" d="M29.4092 76.5782C27.9379 77.2373 26.6182 77.8579 25.3399 78.5692C23.8109 76.9214 21.9962 74.9852 20.4434 73.213C21.5512 72.4134 22.8095 71.6175 24.0816 70.7159C25.8011 72.7069 27.6484 74.668 29.4092 76.5782Z" fill="#1A1A1A"/>
<path fill-rule="evenodd" clip-rule="evenodd" d="M24.6326 78.9287C23.4044 79.4734 22.18 80.0119 21.1022 80.5603C19.6033 78.9735 18.162 77.404 16.6719 75.8533C17.6156 75.1419 18.7047 74.4853 19.7324 73.6073C21.3553 75.4354 22.9307 77.1814 24.6326 78.9275V78.9287Z" fill="#1A1A1A"/>
<path fill-rule="evenodd" clip-rule="evenodd" d="M20.7881 80.8637C19.7166 81.3723 18.7892 81.9406 17.7653 82.4008C16.4681 81.0751 15.0945 79.6163 13.7109 78.1837C14.5657 77.5445 15.3916 76.8232 16.3253 76.0883C17.779 77.6838 19.2892 79.2445 20.7881 80.8637Z" fill="#1A1A1A"/>
<path fill-rule="evenodd" clip-rule="evenodd" d="M17.3222 82.8484C16.5076 83.4491 15.6992 84.0137 14.8933 84.4377C13.5649 83.0474 12.363 81.7839 11.1523 80.4955C11.7852 79.8165 12.4908 79.186 13.2353 78.5145C14.6189 79.9969 15.9912 81.4096 17.3222 82.8497V82.8484Z" fill="#1A1A1A"/>
<path fill-rule="evenodd" clip-rule="evenodd" d="M14.4248 84.7412C13.6916 85.1392 12.9961 85.557 12.4033 86.0793C11.2778 84.8917 10.2501 83.8172 9.04199 82.5314C9.56335 81.9531 10.0885 81.3885 10.6838 80.8052C11.8932 82.0588 13.0938 83.2924 14.4248 84.7412Z" fill="#1A1A1A"/>
<path fill-rule="evenodd" clip-rule="evenodd" d="M126.661 89.1088C121.871 89.7654 117.307 90.3263 112.877 91.0177C110.113 87.711 107.33 84.5224 104.399 81.2032C108.622 80.3153 113.116 79.4771 117.903 78.2982C120.844 81.9966 123.791 85.5571 126.662 89.1088H126.661Z" fill="#1A1A1A"/>
<path fill-rule="evenodd" clip-rule="evenodd" d="M37.7724 106.134C36.469 106.124 35.2333 106.121 34.0653 106.101C32.6967 104.733 31.2855 103.399 29.9658 102.071C31.1063 102.091 32.0951 101.9 33.3434 101.856C34.7846 103.292 36.2497 104.725 37.7737 106.135L37.7724 106.134Z" fill="#1A1A1A"/>
<path fill-rule="evenodd" clip-rule="evenodd" d="M37.5667 110.383C36.3849 110.24 35.2645 110.132 34.1792 110.043C32.8507 108.8 31.5811 107.605 30.3379 106.431C31.3367 106.425 32.3682 106.437 33.4322 106.479C34.7657 107.745 36.1831 109.081 37.5667 110.383Z" fill="#1A1A1A"/>
<path fill-rule="evenodd" clip-rule="evenodd" d="M264.562 -2.0911e-05C261.069 1.46867 257.657 2.91498 254.328 4.34387C253.769 2.91747 253.22 1.46867 252.679 -2.0911e-05H264.563H264.562Z" fill="#1A1A1A"/>
<path fill-rule="evenodd" clip-rule="evenodd" d="M124.091 120.316C119.96 120.1 116.038 119.911 112.302 119.735C109.998 117.457 107.718 115.146 105.367 112.94C109.104 112.917 112.844 112.97 116.867 113.024C119.201 115.492 121.671 117.904 124.09 120.316H124.091Z" fill="#1A1A1A"/>
<path fill-rule="evenodd" clip-rule="evenodd" d="M204.301 25.3284C193.789 29.6138 184.149 33.403 174.975 36.9062C171.4 30.3202 167.574 23.2428 164.085 15.6606C173.091 10.9673 182.524 6.20182 193.071 1.10307C196.636 9.34191 200.487 17.5049 204.3 25.3284H204.301Z" fill="#1A1A1A"/>
<path fill-rule="evenodd" clip-rule="evenodd" d="M144.782 48.6781C138.131 51.1429 131.8 53.3354 125.93 55.493C122.511 50.6169 119.027 45.4473 115.638 40.2204C121.249 37.3577 127.428 34.4501 133.744 31.509C137.423 37.2669 141.095 43.1939 144.781 48.6769L144.782 48.6781Z" fill="#1A1A1A"/>
<path fill-rule="evenodd" clip-rule="evenodd" d="M104.42 62.5045C99.8245 64.0552 95.6311 65.4717 91.6381 66.9304C88.7431 63.3762 85.7139 59.5148 82.8076 55.5453C86.61 53.7147 90.7721 51.7722 94.9743 49.765C98.0123 54.1748 101.285 58.4963 104.421 62.5045H104.42Z" fill="#1A1A1A"/>
<path fill-rule="evenodd" clip-rule="evenodd" d="M89.3563 67.6355C85.5501 68.909 81.9846 70.0344 78.5669 71.0629C75.7044 67.694 72.9259 64.2741 70.0635 60.8728C73.3145 59.4887 76.6268 58.0984 80.2099 56.3685C83.3143 60.3406 86.2883 64.1659 89.3563 67.6355Z" fill="#1A1A1A"/>
<path fill-rule="evenodd" clip-rule="evenodd" d="M77.0945 71.4372C73.9262 72.4557 70.8519 73.4581 67.8353 74.4766C65.3225 71.5069 62.8085 68.5881 60.2393 65.56C63.0178 64.3201 65.9517 62.9285 68.9369 61.5879C71.7317 64.9469 74.4914 68.266 77.0932 71.4384L77.0945 71.4372Z" fill="#1A1A1A"/>
<path fill-rule="evenodd" clip-rule="evenodd" d="M65.843 75.0797C63.1397 75.8917 60.4916 76.6727 58.0728 77.45C55.5462 74.6432 53.1474 72.0316 50.7812 69.2248C53.0497 68.3331 55.491 67.3221 58.1643 66.0486C60.6858 69.2435 63.3428 72.2368 65.843 75.0797Z" fill="#1A1A1A"/>
<path fill-rule="evenodd" clip-rule="evenodd" d="M56.8874 77.7013C54.4297 78.3765 52.2278 79.1501 50.0145 79.7843C47.8463 77.4501 45.6356 74.9405 43.5752 72.5093C45.5742 71.6375 47.6295 70.6687 50.0157 69.8616C52.2315 72.3849 54.5839 75.1171 56.8862 77.7013H56.8874Z" fill="#1A1A1A"/>
<path fill-rule="evenodd" clip-rule="evenodd" d="M48.8359 80.1623C46.7178 80.7306 44.7239 81.2231 42.8415 81.7715C40.8551 79.6114 38.811 77.4861 36.9248 75.3707C38.648 74.7178 40.5367 73.948 42.4116 73.024C44.5083 75.4727 46.6665 77.8019 48.8359 80.1623Z" fill="#1A1A1A"/>
<path fill-rule="evenodd" clip-rule="evenodd" d="M41.9745 82.0426C40.1798 82.535 38.4628 83.0573 36.8198 83.6294C34.9838 81.6583 33.1302 79.6934 31.3994 77.777C32.8457 77.0856 34.4423 76.3991 36.0816 75.7562C38.043 77.8255 39.9818 79.9533 41.9757 82.0426H41.9745Z" fill="#1A1A1A"/>
<path fill-rule="evenodd" clip-rule="evenodd" d="M35.6928 83.8272C34.1037 84.3072 32.6925 84.8482 31.329 85.276C29.6408 83.5884 27.979 81.8586 26.3359 80.181C27.5453 79.4336 28.9315 78.7583 30.4316 78.1539C32.2 80.0865 33.9195 81.9494 35.6941 83.8272H35.6928Z" fill="#1A1A1A"/>
<path fill-rule="evenodd" clip-rule="evenodd" d="M30.3262 85.3581C29.0052 85.812 27.6918 86.1938 26.4185 86.5432C25.0261 85.0907 23.4896 83.5039 22.0771 81.9606C23.2214 81.4905 24.338 80.9557 25.5637 80.4334C27.1053 82.0464 28.7044 83.668 30.3262 85.3593V85.3581Z" fill="#1A1A1A"/>
<path fill-rule="evenodd" clip-rule="evenodd" d="M26.0715 86.808C24.9723 87.2557 23.882 87.6699 22.7616 88.038C21.4306 86.6638 19.9931 85.1267 18.6797 83.7388C19.6698 83.2427 20.6298 82.7141 21.6637 82.2042C23.11 83.7314 24.6152 85.2336 26.0727 86.8068L26.0715 86.808Z" fill="#1A1A1A"/>
<path fill-rule="evenodd" clip-rule="evenodd" d="M22.2516 88.3477C21.2402 88.7233 20.3329 89.0553 19.3954 89.3401C18.0958 88.0579 16.8225 86.8044 15.5742 85.4688C16.4114 85.0671 17.2198 84.5808 18.0657 84.0486C19.4481 85.4613 20.8204 86.9238 22.2504 88.3477H22.2516Z" fill="#1A1A1A"/>
<path fill-rule="evenodd" clip-rule="evenodd" d="M95.8783 92.7575C92.2889 93.1231 88.8337 93.4004 85.52 93.7623C83.0699 91.1321 80.5709 88.4385 78.0781 85.7822C81.2752 85.2474 84.4673 84.607 88.0516 83.8832C90.6659 86.8989 93.2527 89.8985 95.8783 92.7575Z" fill="#1A1A1A"/>
<path fill-rule="evenodd" clip-rule="evenodd" d="M84.0151 94.0011C80.8907 94.3928 77.8378 94.6577 75.0956 95.0221C72.6944 92.5647 70.3194 90.0514 68.0898 87.5904C70.8044 87.0656 73.6055 86.5358 76.6309 86.0533C79.0321 88.6312 81.5637 91.3796 84.0151 94.0011Z" fill="#1A1A1A"/>
<path fill-rule="evenodd" clip-rule="evenodd" d="M73.735 95.1725C70.885 95.4461 68.3296 95.6886 65.8506 95.9261C63.7038 93.7523 61.4517 91.4218 59.3086 89.1896C61.6923 88.7419 64.1575 88.2892 66.753 87.7408C69.0114 90.2802 71.3939 92.7873 73.735 95.1725Z" fill="#1A1A1A"/>
<path fill-rule="evenodd" clip-rule="evenodd" d="M64.6813 96.0605C62.255 96.2918 59.9515 96.4323 57.752 96.635C55.738 94.6079 53.5962 92.3657 51.6523 90.371C53.7466 90.0191 55.9423 89.7579 58.1919 89.4047C60.246 91.5425 62.5357 93.873 64.6826 96.0605H64.6813Z" fill="#1A1A1A"/>
<path fill-rule="evenodd" clip-rule="evenodd" d="M56.6754 96.7133C54.5524 96.9484 52.5684 97.2356 50.577 97.314C48.7059 95.4573 46.7896 93.5247 44.8984 91.5275C46.6831 91.2203 48.583 90.8684 50.6321 90.4891C52.6035 92.5883 54.694 94.69 56.6754 96.7133Z" fill="#1A1A1A"/>
<path fill-rule="evenodd" clip-rule="evenodd" d="M49.6542 97.3464C47.7994 97.523 46.0887 97.6859 44.3529 97.8003C42.5269 96.0406 40.6921 94.2299 39.1055 92.5486C40.6269 92.2451 42.2562 91.9318 44.0559 91.7067C45.8869 93.6554 47.7092 95.4959 49.653 97.3464H49.6542Z" fill="#1A1A1A"/>
<path fill-rule="evenodd" clip-rule="evenodd" d="M43.5728 97.8587C41.9097 98.0278 40.2892 98.136 38.8379 98.2927C37.1598 96.6636 35.508 94.9835 33.875 93.3606C35.2423 93.041 36.8102 92.8781 38.2827 92.6617C40.0047 94.3617 41.7104 96.099 43.5728 97.8575V97.8587Z" fill="#1A1A1A"/>
<path fill-rule="evenodd" clip-rule="evenodd" d="M38.0019 98.2667C36.5268 98.3972 35.1532 98.5278 33.851 98.6484C32.4248 97.176 30.9222 95.6949 29.4082 94.2523C30.6527 94.0434 31.9724 93.7263 33.2294 93.4465C34.7973 95.0718 36.3576 96.6152 38.0019 98.2667Z" fill="#1A1A1A"/>
<path fill-rule="evenodd" clip-rule="evenodd" d="M33.0522 98.7341C31.7914 98.8224 30.6647 98.9692 29.5105 99.0251C28.1357 97.7231 26.7546 96.3688 25.3672 94.9946C26.4325 94.7982 27.4351 94.5606 28.5705 94.3741C30.0519 95.8204 31.5897 97.299 33.0522 98.7354V98.7341Z" fill="#1A1A1A"/>
<path fill-rule="evenodd" clip-rule="evenodd" d="M28.8494 99.1421C27.7641 99.2727 26.8116 99.3896 25.799 99.4779C24.4843 98.1982 23.1621 96.9584 21.8662 95.6265C22.756 95.4113 23.7135 95.2547 24.7074 95.0034C26.0634 96.3876 27.4771 97.7816 28.8507 99.1421H28.8494Z" fill="#1A1A1A"/>
<path fill-rule="evenodd" clip-rule="evenodd" d="M25.3727 99.5015C24.4578 99.652 23.6757 99.8447 22.8636 99.9977C21.6755 98.8125 20.4498 97.6112 19.3457 96.4982C20.0626 96.2855 20.8797 96.0803 21.6342 95.8291C22.8649 97.0566 24.1545 98.3027 25.3727 99.5015Z" fill="#1A1A1A"/>
<path fill-rule="evenodd" clip-rule="evenodd" d="M22.3459 100.102C21.634 100.243 20.8595 100.285 20.2153 100.458C19.0899 99.351 17.9569 98.2541 16.918 97.197C17.4982 97.0018 18.081 96.7891 18.7628 96.6063C19.8982 97.7156 21.1264 98.8647 22.3471 100.102H22.3459Z" fill="#1A1A1A"/>
<path fill-rule="evenodd" clip-rule="evenodd" d="M14.2518 99.4355C14.0325 99.6221 13.8482 99.9118 13.6916 100.118C12.9434 99.3286 12.1952 98.6334 11.571 97.9345C11.5598 97.5913 11.6801 97.2879 11.8317 96.9944C12.6514 97.8039 13.4046 98.5775 14.2505 99.4355H14.2518Z" fill="#1A1A1A"/>
<path fill-rule="evenodd" clip-rule="evenodd" d="M28.8438 105.882C30.6334 106.26 32.3918 106.64 34.4108 107.038C34.8858 107.279 35.3332 107.39 35.9047 107.602C33.7616 107.08 31.8115 106.666 29.9266 106.222C29.4854 105.925 29.1909 106.061 28.8438 105.882Z" fill="#1A1A1A"/>
<path fill-rule="evenodd" clip-rule="evenodd" d="M41.0283 107.876C43.5624 108.095 46.1266 108.089 48.9176 108.215C49.4415 108.264 50.0331 108.307 50.6446 108.493C47.7295 108.215 45.0588 108.278 42.4821 108.123C41.8755 107.898 41.4131 107.979 41.0283 107.875V107.876Z" fill="#1A1A1A"/>
<path fill-rule="evenodd" clip-rule="evenodd" d="M91.8242 102.622C88.592 102.827 85.3849 102.941 82.4886 103.128C80.1676 100.811 77.8741 98.4544 75.6357 96.0555C78.4995 95.7682 81.5512 95.4909 84.5903 95.1389C86.9866 97.7206 89.4655 100.282 91.8229 102.623L91.8242 102.622Z" fill="#1A1A1A"/>
<path fill-rule="evenodd" clip-rule="evenodd" d="M81.08 103.209C78.1875 103.255 75.4415 103.313 72.8636 103.424C70.7719 101.282 68.4709 99.0401 66.4443 96.9024C68.8832 96.6636 71.5326 96.4783 74.2685 96.2557C76.4843 98.59 78.8191 100.949 81.08 103.207V103.209Z" fill="#1A1A1A"/>
<path fill-rule="evenodd" clip-rule="evenodd" d="M71.6215 103.434C69.0674 103.496 66.6674 103.492 64.3 103.548C62.2897 101.639 60.2845 99.6084 58.3369 97.5166C60.5602 97.396 62.86 97.2356 65.2575 96.9558C67.2527 99.0836 69.5223 101.336 71.6228 103.435L71.6215 103.434Z" fill="#1A1A1A"/>
<path fill-rule="evenodd" clip-rule="evenodd" d="M63.197 103.617C60.9424 103.663 58.8406 103.623 56.8003 103.689C54.8715 101.844 52.9954 100.006 51.1719 98.1821C53.0931 98.0975 55.1034 97.8562 57.2565 97.6237C59.2191 99.6209 61.2231 101.684 63.197 103.617Z" fill="#1A1A1A"/>
<path fill-rule="evenodd" clip-rule="evenodd" d="M55.8165 103.735C53.795 103.696 52.0354 103.791 50.1918 103.773C48.3746 102.023 46.6075 100.34 44.8955 98.626C46.5962 98.473 48.3708 98.3288 50.2507 98.2119C52.073 100.069 53.9266 101.825 55.8165 103.735Z" fill="#1A1A1A"/>
<path fill-rule="evenodd" clip-rule="evenodd" d="M49.349 103.835C47.5443 103.855 45.9088 103.862 44.2758 103.92C42.6014 102.308 40.9822 100.715 39.3555 99.0899C40.8143 98.8089 42.3972 98.738 44.054 98.6236C45.8311 100.383 47.4992 102.083 49.3503 103.835H49.349Z" fill="#1A1A1A"/>
<path fill-rule="evenodd" clip-rule="evenodd" d="M43.5139 103.901C41.9899 103.901 40.4409 103.833 39.1199 103.869C37.5909 102.443 36.0243 100.915 34.4766 99.453C35.8063 99.3747 37.1748 99.264 38.6199 99.0936C40.1827 100.709 41.8708 102.292 43.5139 103.901Z" fill="#1A1A1A"/>
<path fill-rule="evenodd" clip-rule="evenodd" d="M99.9227 111.215C96.5226 111.179 93.2415 111.13 90.176 111.055C87.9389 108.819 85.7081 106.668 83.5049 104.451C86.5202 104.35 89.6923 104.2 92.8768 104.063C95.2643 106.468 97.6593 108.907 99.9227 111.214V111.215Z" fill="#1A1A1A"/>
<path fill-rule="evenodd" clip-rule="evenodd" d="M88.7453 110.954C85.7525 110.944 82.8562 110.813 80.1616 110.725C78.0436 108.672 75.9106 106.619 73.8564 104.579C76.477 104.605 79.2856 104.563 82.1155 104.432C84.2786 106.701 86.4894 108.826 88.7453 110.954Z" fill="#1A1A1A"/>
<path fill-rule="evenodd" clip-rule="evenodd" d="M78.7991 110.703C76.146 110.65 73.5768 110.546 71.1504 110.438C69.2166 108.583 67.2478 106.671 65.2764 104.66C67.6012 104.644 70.0388 104.598 72.5528 104.559C74.6019 106.628 76.735 108.72 78.7979 110.703H78.7991Z" fill="#1A1A1A"/>
<path fill-rule="evenodd" clip-rule="evenodd" d="M70.0359 110.425C67.6221 110.288 65.5379 110.246 63.3359 110.122C61.3808 108.31 59.6062 106.57 57.7275 104.759C59.8255 104.75 61.9598 104.772 64.2458 104.727C66.0931 106.652 68.0657 108.565 70.0359 110.425Z" fill="#1A1A1A"/>
<path fill-rule="evenodd" clip-rule="evenodd" d="M62.2075 110.027C60.2023 109.989 58.2384 109.933 56.2846 109.818C54.4749 108.079 52.7429 106.427 51.0635 104.802C52.8143 104.713 54.698 104.701 56.7483 104.746C58.5618 106.564 60.3765 108.268 62.2075 110.027Z" fill="#1A1A1A"/>
<path fill-rule="evenodd" clip-rule="evenodd" d="M55.324 109.789C53.4128 109.658 51.7322 109.586 50.1192 109.521C48.411 107.952 46.664 106.369 45.0986 104.834C46.6953 104.808 48.3646 104.756 50.1957 104.802C51.8763 106.421 53.5782 108.069 55.324 109.789Z" fill="#1A1A1A"/>
<path fill-rule="evenodd" clip-rule="evenodd" d="M49.1143 109.332C47.4148 109.192 45.9109 109.113 44.3782 109.022C42.8153 107.548 41.1811 106.027 39.6709 104.505C41.1134 104.615 42.6311 104.635 44.2152 104.7C45.7856 106.172 47.3472 107.643 49.1143 109.331V109.332Z" fill="#1A1A1A"/>
<path fill-rule="evenodd" clip-rule="evenodd" d="M95.951 118.126C92.8392 117.949 89.894 117.828 87.0466 117.597C84.9361 115.59 82.8983 113.647 80.8379 111.556C83.6477 111.745 86.4575 111.765 89.503 111.853C91.5721 113.948 93.7328 116.04 95.9498 118.126H95.951Z" fill="#1A1A1A"/>
<path fill-rule="evenodd" clip-rule="evenodd" d="M85.6221 117.397C82.8348 117.27 80.2731 117.031 77.6889 116.76C75.725 114.958 73.8226 113.121 71.875 111.251C74.3853 111.46 76.8292 111.466 79.5437 111.551C81.5891 113.545 83.6444 115.575 85.6221 117.397Z" fill="#1A1A1A"/>
<path fill-rule="evenodd" clip-rule="evenodd" d="M76.4959 116.659C74.042 116.47 71.7673 116.229 69.4638 115.98C67.599 114.297 65.798 112.543 63.9219 110.785C66.1427 111.01 68.3234 111.056 70.7622 111.235C72.5907 112.997 74.5345 114.815 76.4959 116.659Z" fill="#1A1A1A"/>
<path fill-rule="evenodd" clip-rule="evenodd" d="M68.342 115.9C66.1714 115.707 64.1273 115.59 62.0983 115.397C60.3462 113.766 58.6455 112.153 56.9072 110.499C58.8598 110.599 60.7861 110.685 62.948 110.782C64.7953 112.518 66.5073 114.206 68.342 115.9Z" fill="#1A1A1A"/>
<path fill-rule="evenodd" clip-rule="evenodd" d="M61.0893 115.275C59.257 115.155 57.4322 114.982 55.5548 114.717C53.9068 113.216 52.2563 111.651 50.6533 110.154C52.3603 110.236 54.1299 110.405 55.9496 110.451C57.723 112.107 59.4287 113.676 61.0893 115.275Z" fill="#1A1A1A"/>
<path fill-rule="evenodd" clip-rule="evenodd" d="M49.9467 113.549C48.335 113.35 46.791 113.167 45.3735 113.043C43.9172 111.709 42.3632 110.295 40.8643 108.891C42.2892 109.018 43.7568 109.051 45.2206 109.142C46.7082 110.598 48.3162 112.069 49.9467 113.548V113.549Z" fill="#1A1A1A"/>
<path fill-rule="evenodd" clip-rule="evenodd" d="M44.5037 112.968C43.1226 112.848 41.8055 112.759 40.5271 112.599C39.1886 111.313 37.8389 110.112 36.5518 108.856C37.6822 108.872 38.9731 108.964 40.205 109.003C41.5811 110.282 43.0738 111.676 44.5037 112.968Z" fill="#1A1A1A"/>
<path fill-rule="evenodd" clip-rule="evenodd" d="M92.5852 123.818C89.7854 123.488 87.0859 123.171 84.365 122.847C82.4375 121.059 80.5563 119.326 78.5762 117.507C81.2456 117.853 83.7509 118.004 86.6071 118.311C88.5585 120.194 90.5862 121.967 92.5852 123.818Z" fill="#1A1A1A"/>
<path fill-rule="evenodd" clip-rule="evenodd" d="M83.114 122.717C80.6213 122.446 78.1172 122.094 75.7373 121.797C73.9714 120.135 72.1316 118.458 70.2881 116.738C72.6192 116.995 74.87 117.176 77.3853 117.384C79.3617 119.231 81.2492 120.949 83.114 122.718V122.717Z" fill="#1A1A1A"/>
<path fill-rule="evenodd" clip-rule="evenodd" d="M74.5981 121.664C72.3848 121.412 70.2142 121.115 67.9884 120.782C66.2927 119.195 64.6722 117.743 62.9014 116.117C64.9279 116.31 66.997 116.473 69.174 116.617C70.9824 118.347 72.8523 120.064 74.5981 121.664Z" fill="#1A1A1A"/>
<path fill-rule="evenodd" clip-rule="evenodd" d="M67.02 120.631C65.0549 120.332 63.091 120.073 61.2261 119.822C59.6056 118.34 57.9112 116.852 56.3008 115.392C58.1506 115.581 59.9716 115.78 61.8916 115.997C63.6675 117.6 65.3481 119.117 67.02 120.631Z" fill="#1A1A1A"/>
<path fill-rule="evenodd" clip-rule="evenodd" d="M55.2149 118.546C53.5242 118.275 51.9589 118.088 50.4888 117.899C48.9698 116.513 47.4371 115.147 45.9971 113.751C47.4433 113.901 48.9235 114.05 50.5652 114.259C52.093 115.676 53.6144 117.066 55.2149 118.545V118.546Z" fill="#1A1A1A"/>
<path fill-rule="evenodd" clip-rule="evenodd" d="M49.3987 117.483C47.9023 117.284 46.5688 117.075 45.209 116.824C43.7953 115.567 42.408 114.324 40.9229 112.986C42.1987 113.152 43.5785 113.257 44.9584 113.371C46.4034 114.749 47.8722 116.113 49.4 117.484L49.3987 117.483Z" fill="#1A1A1A"/>
<path fill-rule="evenodd" clip-rule="evenodd" d="M98.5916 130.425C95.6402 129.963 92.8529 129.552 90.1734 129.09C88.2484 127.494 86.4224 125.852 84.4473 124.054C87.1481 124.465 89.8752 124.759 92.6612 125.118C94.6476 126.949 96.609 128.686 98.5904 130.426L98.5916 130.425Z" fill="#1A1A1A"/>
<path fill-rule="evenodd" clip-rule="evenodd" d="M88.9015 128.957C86.2633 128.505 83.7443 128.152 81.2728 127.725C79.5609 126.142 77.7674 124.615 75.9502 122.956C78.3477 123.302 80.8229 123.605 83.3257 123.984C85.1592 125.646 86.9915 127.265 88.9015 128.957Z" fill="#1A1A1A"/>
<path fill-rule="evenodd" clip-rule="evenodd" d="M95.7349 134.841C93.0516 134.369 90.4799 133.852 87.9659 133.385C86.1574 131.789 84.389 130.258 82.6182 128.722C84.9906 129.128 87.5661 129.519 90.2681 129.977C92.0528 131.56 93.9151 133.197 95.7361 134.841H95.7349Z" fill="#1A1A1A"/>
<path fill-rule="evenodd" clip-rule="evenodd" d="M124.921 133.166C121.061 132.635 117.467 132.141 114.048 131.787C111.773 129.833 109.69 127.828 107.675 125.948C110.993 126.225 114.528 126.623 118.275 127.025C120.407 129.053 122.624 131.109 124.92 133.164L124.921 133.166Z" fill="#1A1A1A"/>
<path fill-rule="evenodd" clip-rule="evenodd" d="M20.7542 95.2583C19.9346 95.4834 19.1839 95.7222 18.467 95.9149C17.3541 94.8181 16.2036 93.6988 15.1133 92.4677C15.6672 92.1804 16.3202 91.8347 17.0095 91.5213C18.2001 92.7189 19.4809 94.0284 20.7542 95.2583Z" fill="#1A1A1A"/>
<path fill-rule="evenodd" clip-rule="evenodd" d="M23.8242 94.4848C22.8629 94.7099 21.9718 94.9549 21.1159 95.1763C19.8087 93.8581 18.5604 92.5908 17.3711 91.387C18.0629 91.009 18.8249 90.6558 19.6571 90.2939C21.0106 91.6942 22.4218 93.1268 23.8242 94.4848Z" fill="#1A1A1A"/>
<path fill-rule="evenodd" clip-rule="evenodd" d="M27.3927 93.6778C26.2898 93.873 25.2872 94.1441 24.3209 94.4189C22.8546 92.9403 21.4434 91.54 20.125 90.1721C21.0274 89.8811 21.9347 89.5391 23.0113 89.268C24.4588 90.7429 25.964 92.2252 27.394 93.6778H27.3927Z" fill="#1A1A1A"/>
<path fill-rule="evenodd" clip-rule="evenodd" d="M31.9488 92.7712C30.6592 93.0485 29.4071 93.342 28.1639 93.5385C26.7013 92.0921 25.1686 90.4705 23.6885 88.9396C24.8076 88.6362 25.8992 88.1922 27.0284 87.752C28.6351 89.4756 30.332 91.1134 31.9488 92.7724V92.7712Z" fill="#1A1A1A"/>
<path fill-rule="evenodd" clip-rule="evenodd" d="M36.897 91.9553C35.3893 92.1804 33.8891 92.4055 32.6258 92.6927C30.9765 91.0611 29.2809 89.4022 27.6416 87.6922C28.9162 87.2781 30.2609 86.9187 31.6496 86.527C33.3114 88.3028 35.0609 90.0974 36.897 91.9553Z" fill="#1A1A1A"/>
<path fill-rule="evenodd" clip-rule="evenodd" d="M42.5424 90.8809C40.8067 91.1482 39.2125 91.4492 37.691 91.7688C35.7911 89.8462 34.0114 87.9995 32.3496 86.2497C33.7457 85.8518 35.2572 85.3556 36.8087 84.8892C38.7576 86.9424 40.5598 88.8289 42.5424 90.8821V90.8809Z" fill="#1A1A1A"/>
<path fill-rule="evenodd" clip-rule="evenodd" d="M48.9146 89.5465C46.9407 89.8822 45.1072 90.2615 43.3188 90.6234C41.4063 88.5963 39.5039 86.6451 37.5889 84.628C39.2281 84.0958 40.979 83.5772 42.7724 83.0549C44.8002 85.2585 46.9119 87.4672 48.9146 89.5465Z" fill="#1A1A1A"/>
<path fill-rule="evenodd" clip-rule="evenodd" d="M56.9777 88.3812C54.7118 88.8314 52.5424 89.1684 50.5246 89.4619C48.4542 87.405 46.3538 85.1541 44.2959 82.9567C46.2046 82.5027 48.265 82.014 50.3204 81.3375C52.5838 83.8147 54.7381 86.1154 56.979 88.3812H56.9777Z" fill="#1A1A1A"/>
<path fill-rule="evenodd" clip-rule="evenodd" d="M65.2679 86.9188C62.715 87.415 60.2009 87.9759 57.9952 88.4099C55.7343 86.0433 53.4458 83.7104 51.2852 81.2916C53.4621 80.6287 55.7656 79.9049 58.2796 79.313C60.5831 81.8661 62.9055 84.3433 65.2679 86.9176V86.9188Z" fill="#1A1A1A"/>
<path fill-rule="evenodd" clip-rule="evenodd" d="M75.1219 85.1653C72.1655 85.6776 69.2328 86.1216 66.7 86.8491C64.315 84.2276 61.8774 81.5837 59.6152 79.0095C62.1293 78.2845 64.7699 77.547 67.566 76.8456C70.1226 79.7047 72.5703 82.4107 75.1232 85.1653H75.1219Z" fill="#1A1A1A"/>
<path fill-rule="evenodd" clip-rule="evenodd" d="M86.2875 82.8124C82.8135 83.5275 79.6189 84.1667 76.616 84.8457C74.0381 82.0227 71.4338 79.2023 68.8896 76.2612C72.0228 75.3969 74.9129 74.3187 78.229 73.4743C80.9686 76.6143 83.677 79.7407 86.2875 82.8124Z" fill="#1A1A1A"/>
<path fill-rule="evenodd" clip-rule="evenodd" d="M99.1927 79.8688C95.1296 80.6623 91.529 81.4121 87.8982 82.1993C85.1887 79.0991 82.4854 75.9428 79.7783 72.8574C83.1684 71.7407 86.759 70.6476 90.5263 69.5283C93.5066 73.1484 96.339 76.5522 99.1927 79.8688Z" fill="#1A1A1A"/>
<path fill-rule="evenodd" clip-rule="evenodd" d="M233.513 97.7903C230.955 99.8273 228.451 101.883 226.163 103.76C222.465 101.674 218.785 99.7315 215.067 97.5291C217.142 95.3715 219.196 93.1094 221.678 90.795C225.686 93.1554 229.692 95.502 233.512 97.7903H233.513Z" fill="#1A1A1A"/>
<path fill-rule="evenodd" clip-rule="evenodd" d="M108.04 101.971C107.023 102.992 106.029 103.942 104.995 104.756C103.555 103.751 102.055 102.68 100.573 101.662C101.493 100.695 102.362 99.657 103.295 98.4892C104.89 99.6769 106.48 100.856 108.041 101.971H108.04Z" fill="#1A1A1A"/>
<path fill-rule="evenodd" clip-rule="evenodd" d="M67.7679 139.691C67.3718 140.293 67.0084 140.919 66.6738 141.547C65.3779 140.479 63.9943 139.323 62.6357 138.196C62.8475 137.473 63.1471 136.813 63.4855 136.106C64.9067 137.296 66.3517 138.506 67.7666 139.691H67.7679Z" fill="#1A1A1A"/>
<path fill-rule="evenodd" clip-rule="evenodd" d="M278.144 35.2734C274.947 37.7668 271.932 40.1557 269.003 42.2587C265.189 41.0897 261.447 39.7056 257.521 38.3849C260.368 36.0867 263.17 33.6032 266.05 30.927C270.146 32.4616 274.336 33.8445 278.146 35.2746L278.144 35.2734Z" fill="#1A1A1A"/>
<path fill-rule="evenodd" clip-rule="evenodd" d="M76.8945 131.602C76.58 131.947 76.3318 132.283 76.0849 132.606C75.2427 131.997 74.3955 131.399 73.5771 130.802C73.7664 130.432 73.9619 129.998 74.1812 129.635C75.0873 130.288 75.9596 130.936 76.8945 131.604V131.602Z" fill="#1A1A1A"/>
<path fill-rule="evenodd" clip-rule="evenodd" d="M105.915 147.363C105.155 147.685 104.436 147.969 103.724 148.232C102.65 147.504 101.577 146.752 100.479 145.959C101.079 145.599 101.737 145.28 102.485 144.867C103.603 145.736 104.759 146.548 105.915 147.361V147.363Z" fill="#1A1A1A"/>
<path fill-rule="evenodd" clip-rule="evenodd" d="M267.444 117.851C264.434 119.084 261.635 120.161 258.976 121.176C255.537 119.756 252.281 118.395 249.165 116.953C251.568 115.758 254.098 114.534 256.929 113.029C260.564 114.717 264.095 116.391 267.444 117.851Z" fill="#1A1A1A"/>
<path fill-rule="evenodd" clip-rule="evenodd" d="M93.6036 149.285C93.1449 149.5 92.8015 149.783 92.4381 149.995C91.5633 149.426 90.7299 148.783 89.8877 148.162C90.196 147.89 90.4805 147.568 90.8527 147.319C91.6911 147.957 92.6461 148.632 93.6036 149.285Z" fill="#1A1A1A"/>
<path fill-rule="evenodd" clip-rule="evenodd" d="M74.4665 153.983C74.2233 154.16 73.9576 154.296 73.7183 154.458C73.0879 153.972 72.3973 153.47 71.792 153.006C72.0013 152.817 72.183 152.625 72.3697 152.407C73.0603 152.925 73.7772 153.454 74.4665 153.983Z" fill="#1A1A1A"/>
<path fill-rule="evenodd" clip-rule="evenodd" d="M28.2595 106.098C28.1568 106.359 28.0214 106.62 27.9512 106.871C27.4474 106.528 26.9774 106.136 26.4736 105.778C26.5125 105.475 26.5827 105.187 26.6528 104.9C27.2206 105.302 27.7256 105.7 28.2595 106.098Z" fill="#1A1A1A"/>
<path fill-rule="evenodd" clip-rule="evenodd" d="M280.456 77.368C278.313 78.389 276.579 79.3528 274.749 80.2755C272.062 79.5182 269.489 78.8329 266.925 78.0918C268.498 77.1454 270.279 76.0423 272.163 74.9977C274.972 75.7588 277.723 76.587 280.456 77.368Z" fill="#1A1A1A"/>
<path fill-rule="evenodd" clip-rule="evenodd" d="M122.746 152.302C121.994 152.524 121.226 152.675 120.576 152.902C119.529 152.221 118.424 151.515 117.434 150.86C118.064 150.584 118.654 150.349 119.351 150.09C120.393 150.802 121.611 151.588 122.746 152.302Z" fill="#1A1A1A"/>
<path fill-rule="evenodd" clip-rule="evenodd" d="M95.0367 169.118C94.5592 169.206 94.0817 169.282 93.613 169.306C92.8259 168.808 92.0765 168.24 91.3232 167.695C91.7694 167.618 92.2181 167.534 92.668 167.436C93.4726 168.023 94.2546 168.581 95.0367 169.118Z" fill="#1A1A1A"/>
<path fill-rule="evenodd" clip-rule="evenodd" d="M83.1477 148.518C82.7141 148.655 82.2867 148.752 81.887 148.874C81.214 148.391 80.452 147.861 79.7451 147.384C80.1474 147.242 80.5184 147.11 80.9232 146.966C81.6852 147.493 82.3883 147.989 83.149 148.518H83.1477Z" fill="#1A1A1A"/>
<path fill-rule="evenodd" clip-rule="evenodd" d="M10.0071 92.7836C9.88432 92.9826 9.79283 93.1393 9.66876 93.3383C9.27148 93.0672 8.87544 92.7936 8.51074 92.5386C8.59972 92.3334 8.65737 92.1407 8.78145 91.974C9.17999 92.2315 9.61111 92.5088 10.0071 92.7836Z" fill="#1A1A1A"/>
<path fill-rule="evenodd" clip-rule="evenodd" d="M72.9298 137.423C72.4962 137.564 72.0902 137.727 71.6916 137.832C71.0575 137.403 70.3607 136.942 69.6914 136.515C70.0937 136.373 70.496 136.224 70.8707 136.055C71.5362 136.506 72.2343 136.96 72.9298 137.423Z" fill="#1A1A1A"/>
<path fill-rule="evenodd" clip-rule="evenodd" d="M140.393 131.488C139.452 131.733 138.55 131.983 137.682 132.214C136.541 131.601 135.429 131.018 134.225 130.376C135.116 130.174 135.99 129.896 136.864 129.639C137.999 130.271 139.243 130.897 140.393 131.488Z" fill="#1A1A1A"/>
<path fill-rule="evenodd" clip-rule="evenodd" d="M6.96808 97.0827C6.85153 97.2854 6.69988 97.4607 6.58207 97.6174C6.19231 97.37 5.83262 97.1113 5.47168 96.8215C5.58823 96.6487 5.70729 96.4683 5.82385 96.2669C6.21737 96.5442 6.60965 96.8215 6.96808 97.0827Z" fill="#1A1A1A"/>
<path fill-rule="evenodd" clip-rule="evenodd" d="M62.4301 127.711C62.0278 127.852 61.6217 128.037 61.252 128.185C60.6291 127.771 60.0677 127.392 59.4736 126.987C59.812 126.831 60.1529 126.654 60.5264 126.465C61.1505 126.895 61.7771 127.271 62.4301 127.712V127.711Z" fill="#1A1A1A"/>
<path fill-rule="evenodd" clip-rule="evenodd" d="M67.5359 144.173C67.1837 144.264 66.8391 144.298 66.4894 144.363C65.9768 144.015 65.4392 143.626 64.9229 143.299C65.2111 143.236 65.562 143.147 65.8553 143.047C66.4243 143.439 66.9644 143.817 67.5359 144.172V144.173Z" fill="#1A1A1A"/>
<path fill-rule="evenodd" clip-rule="evenodd" d="M326 54.4547C323.14 55.3128 320.116 56.3313 317.059 57.2155C314.228 56.6111 311.17 56.1808 308.295 55.6523C311.043 54.8141 314.02 53.8316 316.77 52.8579C319.982 53.3964 322.953 53.8926 326 54.4534V54.4547Z" fill="#1A1A1A"/>
<path fill-rule="evenodd" clip-rule="evenodd" d="M106.21 163.991C105.579 163.966 105.012 163.96 104.444 163.955C103.778 163.533 103.084 163.093 102.367 162.622C102.932 162.648 103.45 162.6 104.02 162.605C104.737 163.075 105.455 163.55 106.208 163.991H106.21Z" fill="#1A1A1A"/>
<path fill-rule="evenodd" clip-rule="evenodd" d="M14.8149 94.598C14.6219 94.741 14.4289 94.889 14.3023 95.0258C13.9426 94.7969 13.5491 94.5358 13.2207 94.3269C13.3473 94.1739 13.5064 94.0433 13.6656 93.8792C14.0591 94.144 14.4213 94.3654 14.8149 94.5967V94.598Z" fill="#1A1A1A"/>
<path fill-rule="evenodd" clip-rule="evenodd" d="M184.753 109.841C183.33 110.186 181.804 110.393 180.352 110.706C178.921 110.21 177.618 109.776 176.339 109.266C177.657 109.025 179.085 108.685 180.575 108.346C181.967 108.858 183.397 109.351 184.752 109.841H184.753Z" fill="#1A1A1A"/>
<path fill-rule="evenodd" clip-rule="evenodd" d="M179.893 84.0759C178.608 84.8756 177.337 85.6715 176.059 86.3641C174.269 85.6789 172.445 84.8731 170.607 84.0958C171.797 83.3061 172.979 82.5363 174.173 81.6385C176.164 82.5388 178.051 83.2937 179.893 84.0772V84.0759Z" fill="#1A1A1A"/>
<path fill-rule="evenodd" clip-rule="evenodd" d="M10.7571 88.0778C10.6343 88.4297 10.5453 88.7891 10.4551 89.0963C9.95253 88.7369 9.41488 88.339 8.87598 87.9248C8.92987 87.5654 8.98501 87.1575 9.07023 86.7894C9.61165 87.2135 10.1844 87.645 10.7571 88.079V88.0778Z" fill="#1A1A1A"/>
<path fill-rule="evenodd" clip-rule="evenodd" d="M148.788 115.892C147.63 116.551 146.562 117.139 145.571 117.713C144.047 116.871 142.459 115.977 140.872 115.066C141.87 114.456 142.761 113.722 143.872 113.092C145.559 114.035 147.17 114.974 148.788 115.892Z" fill="#1A1A1A"/>
</g>
<defs>
<clipPath id="clip0_322_1751">
<rect width="326" height="177" fill="white" transform="matrix(1 0 0 -1 0 177)"/>
</clipPath>
</defs>
</svg>
