<svg aria-hidden="true" style="position: absolute; width: 0; height: 0; overflow: hidden;" version="1.1" xmlns="http://www.w3.org/2000/svg" xmlns:xlink="http://www.w3.org/1999/xlink">
<defs>
<symbol id="icon-text-desktop" viewBox="0 0 32 32">
<path fill="#fff" style="fill: var(--color1, #fff)" d="M19.364 27.725l-3.28 0.459 0.46 3.28 3.28-0.46-0.46-3.28z"></path>
<path fill="#fff" style="fill: var(--color1, #fff)" d="M15.129 28.823l-0.348 2.292-0.758-0.115c-0.158-0.024-0.302-0.077-0.432-0.158-0.13-0.080-0.239-0.181-0.328-0.303-0.089-0.121-0.152-0.255-0.19-0.402-0.039-0.147-0.047-0.299-0.023-0.457s0.077-0.302 0.158-0.432c0.080-0.128 0.18-0.238 0.301-0.328s0.255-0.153 0.403-0.192c0.148-0.038 0.3-0.045 0.459-0.021l0.758 0.115zM14.737 29.112l-0.418-0.063c-0.111-0.017-0.218-0.012-0.32 0.015-0.103 0.027-0.198 0.072-0.283 0.135-0.087 0.063-0.158 0.14-0.214 0.23s-0.093 0.192-0.11 0.303c-0.017 0.111-0.012 0.219 0.015 0.322s0.072 0.198 0.136 0.284c0.063 0.086 0.14 0.156 0.231 0.213 0.090 0.056 0.19 0.092 0.302 0.109l0.418 0.063 0.245-1.611z"></path>
<path fill="#fff" style="fill: var(--color1, #fff)" d="M11.39 29.698l-0.325-0.115 0.555-1.561 0.325 0.115-0.555 1.56zM11.144 29.866c0.050 0.018 0.086 0.049 0.108 0.093s0.024 0.091 0.007 0.139c-0.017 0.048-0.048 0.082-0.093 0.102-0.045 0.022-0.092 0.024-0.141 0.006-0.048-0.017-0.082-0.048-0.104-0.093s-0.024-0.090-0.007-0.138c0.017-0.049 0.048-0.084 0.093-0.104 0.044-0.021 0.089-0.023 0.137-0.006z"></path>
<path fill="#fff" style="fill: var(--color1, #fff)" d="M10.025 27.266c0.074 0.046 0.14 0.102 0.199 0.168s0.103 0.136 0.134 0.211c0.030 0.075 0.041 0.151 0.035 0.226l-0.318-0.029c0.002-0.033-0.006-0.071-0.024-0.113s-0.044-0.084-0.078-0.123c-0.034-0.039-0.075-0.071-0.121-0.096s-0.091-0.041-0.137-0.050c-0.047-0.008-0.091-0.005-0.131 0.008s-0.070 0.039-0.091 0.077c-0.023 0.043-0.027 0.084-0.010 0.123 0.015 0.040 0.040 0.077 0.076 0.113s0.072 0.071 0.108 0.106c0.084 0.073 0.155 0.15 0.215 0.23 0.058 0.081 0.095 0.163 0.11 0.246 0.014 0.085-0.001 0.169-0.048 0.255-0.051 0.093-0.119 0.16-0.207 0.201s-0.183 0.059-0.284 0.051c-0.102-0.008-0.2-0.037-0.293-0.088-0.116-0.063-0.21-0.146-0.28-0.248s-0.108-0.211-0.112-0.325l0.318-0.012c-0.001 0.037 0.006 0.075 0.023 0.114s0.039 0.075 0.069 0.109c0.029 0.035 0.063 0.064 0.102 0.087 0.048 0.029 0.098 0.048 0.148 0.058 0.049 0.010 0.093 0.008 0.134-0.007s0.073-0.044 0.096-0.087c0.023-0.043 0.025-0.083 0.007-0.121-0.019-0.037-0.048-0.074-0.087-0.111s-0.080-0.078-0.12-0.12c-0.072-0.074-0.134-0.151-0.189-0.232-0.055-0.080-0.090-0.161-0.105-0.244s0-0.164 0.047-0.246c0.050-0.091 0.121-0.156 0.213-0.195s0.191-0.053 0.298-0.042 0.208 0.047 0.303 0.106z"></path>
<path fill="#fff" style="fill: var(--color1, #fff)" d="M7.31 25.989l-0.129-0.326c0.125-0.032 0.252-0.036 0.381-0.010s0.244 0.081 0.348 0.167c0.117 0.098 0.199 0.217 0.245 0.358s0.055 0.285 0.029 0.434c-0.028 0.149-0.093 0.285-0.196 0.408-0.078 0.093-0.167 0.166-0.267 0.219s-0.206 0.087-0.314 0.1c-0.11 0.013-0.218 0.005-0.324-0.025s-0.203-0.081-0.29-0.154c-0.103-0.086-0.179-0.19-0.227-0.312s-0.068-0.249-0.058-0.378l0.344 0.069c0 0.072 0.015 0.139 0.044 0.201s0.068 0.115 0.118 0.156c0.070 0.058 0.149 0.092 0.237 0.101 0.087 0.009 0.173-0.003 0.258-0.038 0.083-0.034 0.155-0.088 0.216-0.161 0.060-0.072 0.099-0.153 0.118-0.242 0.018-0.088 0.014-0.175-0.011-0.259s-0.073-0.156-0.142-0.213c-0.053-0.044-0.112-0.074-0.18-0.090s-0.134-0.018-0.199-0.007z"></path>
<path fill="#fff" style="fill: var(--color1, #fff)" d="M6.039 23.889c0.093 0.121 0.147 0.255 0.162 0.402s-0.008 0.29-0.066 0.429c-0.060 0.139-0.153 0.258-0.28 0.356-0.096 0.074-0.199 0.126-0.308 0.156s-0.22 0.040-0.329 0.029c-0.11-0.011-0.214-0.043-0.311-0.094s-0.18-0.123-0.25-0.213c-0.093-0.121-0.147-0.254-0.161-0.401s0.008-0.291 0.068-0.431c0.059-0.14 0.153-0.26 0.28-0.358 0.095-0.073 0.198-0.125 0.307-0.155s0.219-0.039 0.33-0.028c0.109 0.011 0.212 0.042 0.309 0.094 0.096 0.051 0.18 0.122 0.25 0.213zM5.766 24.099c-0.056-0.073-0.125-0.123-0.208-0.151s-0.169-0.034-0.257-0.019c-0.090 0.015-0.172 0.051-0.247 0.108-0.076 0.059-0.133 0.13-0.169 0.214-0.038 0.083-0.053 0.168-0.046 0.255s0.036 0.167 0.091 0.237c0.055 0.072 0.125 0.122 0.208 0.151s0.17 0.034 0.26 0.019c0.089-0.016 0.172-0.053 0.247-0.111 0.078-0.060 0.135-0.132 0.171-0.215s0.051-0.169 0.044-0.255c-0.008-0.087-0.039-0.165-0.092-0.234z"></path>
<path fill="#fff" style="fill: var(--color1, #fff)" d="M4.407 21.26l0.187 0.401-1.247 1.25-0.156-0.333 0.95-0.948-1.337 0.119-0.155-0.332 1.758-0.157z"></path>
<path fill="#fff" style="fill: var(--color1, #fff)" d="M3.665 18.896c0.033 0.149 0.025 0.293-0.025 0.433-0.050 0.139-0.13 0.259-0.242 0.361-0.113 0.101-0.248 0.169-0.404 0.203-0.119 0.026-0.234 0.030-0.345 0.010-0.113-0.019-0.216-0.057-0.31-0.113-0.095-0.057-0.176-0.13-0.242-0.218s-0.111-0.188-0.136-0.299c-0.027-0.124-0.027-0.243 0.002-0.358 0.028-0.115 0.079-0.219 0.153-0.312 0.073-0.093 0.165-0.17 0.275-0.23 0.109-0.060 0.23-0.098 0.365-0.113l0.276 1.247c0.071-0.030 0.133-0.072 0.184-0.126 0.050-0.054 0.086-0.116 0.106-0.186 0.020-0.071 0.023-0.146 0.006-0.224-0.018-0.082-0.055-0.152-0.111-0.209-0.056-0.059-0.125-0.102-0.207-0.129l0.004-0.359c0.158 0.033 0.297 0.104 0.417 0.215 0.119 0.11 0.197 0.246 0.233 0.408zM2.777 19.574l-0.204-0.918c-0.075 0.028-0.139 0.071-0.192 0.129-0.054 0.057-0.092 0.123-0.114 0.197-0.023 0.073-0.026 0.148-0.009 0.226 0.017 0.077 0.051 0.144 0.102 0.201 0.051 0.057 0.113 0.099 0.186 0.128 0.072 0.028 0.149 0.041 0.23 0.037z"></path>
<path fill="#fff" style="fill: var(--color1, #fff)" d="M3.314 16.764l-1.656 0.033-0.007-0.344 0.175-0.004c-0.070-0.056-0.125-0.126-0.167-0.209s-0.063-0.173-0.065-0.27c-0.001-0.062 0.006-0.123 0.021-0.184l0.35 0.13c-0.016 0.043-0.023 0.087-0.022 0.13 0.001 0.073 0.021 0.139 0.059 0.199 0.037 0.060 0.086 0.108 0.147 0.143s0.129 0.052 0.203 0.051l0.954-0.019 0.007 0.344z"></path>
<path fill="#fff" style="fill: var(--color1, #fff)" d="M1.945 10.742l0.13-0.384 0.951 1.158 0.991 0.336-0.11 0.326-0.991-0.336-1.458 0.341 0.13-0.384 1.027-0.24-0.67-0.816z"></path>
<path fill="#fff" style="fill: var(--color1, #fff)" d="M5.24 9.385c-0.081 0.129-0.188 0.226-0.321 0.291s-0.275 0.093-0.426 0.087c-0.152-0.008-0.295-0.054-0.431-0.139-0.103-0.065-0.187-0.143-0.253-0.235s-0.114-0.192-0.142-0.298c-0.028-0.107-0.034-0.216-0.019-0.325s0.053-0.212 0.113-0.308c0.081-0.129 0.188-0.226 0.32-0.29s0.276-0.094 0.427-0.086c0.152 0.007 0.296 0.053 0.433 0.138 0.102 0.064 0.186 0.142 0.252 0.234s0.113 0.192 0.141 0.299c0.027 0.106 0.034 0.213 0.019 0.322s-0.052 0.211-0.113 0.308zM4.948 9.202c0.049-0.078 0.072-0.16 0.069-0.248s-0.026-0.17-0.071-0.248c-0.045-0.079-0.108-0.144-0.187-0.194-0.081-0.051-0.168-0.079-0.26-0.085s-0.176 0.009-0.255 0.045c-0.080 0.036-0.144 0.092-0.191 0.168s-0.071 0.159-0.069 0.248c0.002 0.088 0.026 0.171 0.072 0.25s0.109 0.143 0.19 0.193c0.083 0.052 0.17 0.081 0.261 0.085s0.176-0.011 0.255-0.048c0.079-0.038 0.141-0.094 0.187-0.168z"></path>
<path fill="#fff" style="fill: var(--color1, #fff)" d="M5.984 7.226l-0.737-0.727 0.242-0.245 0.676 0.668c0.053 0.052 0.113 0.086 0.182 0.103s0.138 0.016 0.206-0.001c0.068-0.018 0.127-0.054 0.178-0.105s0.086-0.113 0.103-0.18c0.017-0.069 0.016-0.137-0.003-0.205s-0.053-0.129-0.105-0.181l-0.676-0.668 0.242-0.245 1.18 1.162-0.242 0.245-0.128-0.124c0.009 0.088-0.002 0.176-0.032 0.264s-0.080 0.166-0.147 0.234c-0.086 0.087-0.186 0.146-0.299 0.175s-0.226 0.030-0.34 0.002c-0.113-0.028-0.214-0.085-0.301-0.171z"></path>
<path fill="#fff" style="fill: var(--color1, #fff)" d="M8.478 5.794l-0.936-1.366 0.284-0.195 0.099 0.145c0.009-0.089 0.036-0.173 0.083-0.254s0.11-0.148 0.19-0.203c0.051-0.035 0.106-0.063 0.166-0.083l0.083 0.365c-0.045 0.011-0.085 0.028-0.121 0.053-0.060 0.041-0.105 0.094-0.134 0.158s-0.043 0.131-0.039 0.201 0.027 0.137 0.069 0.198l0.539 0.787-0.284 0.195z"></path>
<path fill="#fff" style="fill: var(--color1, #fff)" d="M11.966 3.94l-0.568-2.248 0.743-0.188c0.155-0.039 0.308-0.047 0.459-0.022 0.151 0.023 0.29 0.074 0.419 0.152 0.129 0.077 0.239 0.176 0.331 0.297 0.093 0.12 0.159 0.258 0.198 0.413s0.047 0.308 0.022 0.459c-0.024 0.149-0.074 0.289-0.15 0.419-0.077 0.129-0.176 0.24-0.297 0.333-0.121 0.092-0.26 0.158-0.415 0.197l-0.743 0.188zM12.216 3.522l0.409-0.103c0.109-0.028 0.206-0.074 0.29-0.138 0.085-0.065 0.155-0.143 0.209-0.234 0.055-0.091 0.091-0.19 0.108-0.295s0.011-0.213-0.016-0.322c-0.028-0.109-0.074-0.206-0.139-0.291s-0.143-0.155-0.235-0.209c-0.091-0.054-0.19-0.090-0.295-0.107-0.104-0.017-0.211-0.012-0.32 0.016l-0.409 0.103 0.399 1.58z"></path>
<path fill="#fff" style="fill: var(--color1, #fff)" d="M15.162 3.331l-0.059-1.655 0.344-0.012 0.006 0.175c0.055-0.070 0.124-0.127 0.206-0.17s0.172-0.066 0.269-0.069c0.062-0.002 0.123 0.004 0.185 0.018l-0.125 0.352c-0.044-0.015-0.087-0.022-0.13-0.020-0.073 0.003-0.139 0.023-0.198 0.062-0.059 0.037-0.106 0.087-0.141 0.149s-0.050 0.13-0.047 0.204l0.034 0.953-0.344 0.012z"></path>
<path fill="#fff" style="fill: var(--color1, #fff)" d="M18.033 3.504c-0.15-0.025-0.281-0.086-0.393-0.184-0.11-0.098-0.192-0.217-0.245-0.359-0.052-0.143-0.064-0.293-0.038-0.451 0.020-0.12 0.059-0.228 0.119-0.325 0.060-0.098 0.133-0.18 0.22-0.246 0.088-0.067 0.186-0.115 0.292-0.143s0.216-0.033 0.328-0.015c0.125 0.021 0.236 0.066 0.332 0.135 0.096 0.068 0.174 0.154 0.233 0.258 0.059 0.103 0.097 0.216 0.112 0.341 0.016 0.123 0.005 0.25-0.031 0.381l-1.26-0.207c0.002 0.077 0.018 0.15 0.048 0.218 0.032 0.067 0.076 0.123 0.134 0.168 0.059 0.045 0.127 0.075 0.205 0.089 0.083 0.014 0.161 0.005 0.236-0.025 0.075-0.030 0.141-0.078 0.196-0.144l0.332 0.137c-0.089 0.134-0.207 0.237-0.354 0.308-0.147 0.070-0.302 0.091-0.465 0.065zM17.733 2.428l0.928 0.152c0.002-0.080-0.014-0.156-0.049-0.226-0.033-0.071-0.080-0.131-0.14-0.179-0.059-0.049-0.128-0.080-0.206-0.093-0.077-0.013-0.152-0.006-0.225 0.020-0.071 0.026-0.134 0.068-0.188 0.125-0.053 0.056-0.093 0.123-0.12 0.2z"></path>
<path fill="#fff" style="fill: var(--color1, #fff)" d="M21.962 2.907l0.319 0.131-0.628 1.532-0.32-0.131 0.079-0.227c-0.077 0.060-0.164 0.099-0.26 0.115s-0.197 0.004-0.301-0.039c-0.112-0.046-0.21-0.11-0.291-0.193-0.081-0.083-0.145-0.179-0.189-0.285-0.044-0.106-0.066-0.217-0.068-0.332-0.001-0.116 0.021-0.231 0.068-0.344 0.045-0.109 0.107-0.204 0.188-0.283s0.172-0.142 0.274-0.185 0.209-0.065 0.321-0.067c0.113-0.003 0.224 0.019 0.334 0.063 0.111 0.046 0.199 0.111 0.263 0.197 0.065 0.085 0.11 0.179 0.134 0.28l0.079-0.232zM20.969 3.977c0.090 0.037 0.178 0.047 0.263 0.031 0.086-0.017 0.163-0.056 0.23-0.117 0.069-0.060 0.122-0.136 0.16-0.228 0.038-0.093 0.054-0.185 0.047-0.276s-0.035-0.172-0.084-0.244c-0.048-0.072-0.117-0.127-0.207-0.163-0.089-0.036-0.179-0.047-0.271-0.032s-0.175 0.051-0.249 0.109c-0.074 0.058-0.13 0.133-0.167 0.225-0.038 0.093-0.051 0.186-0.038 0.28 0.014 0.093 0.049 0.177 0.103 0.252 0.056 0.074 0.127 0.129 0.214 0.164z"></path>
<path fill="#fff" style="fill: var(--color1, #fff)" d="M22.769 5.141l1.003-1.318 0.274 0.209-0.106 0.14c0.087-0.020 0.176-0.020 0.266-0.002 0.091 0.019 0.175 0.058 0.252 0.117 0.094 0.072 0.163 0.16 0.207 0.266s0.062 0.213 0.052 0.323c0.104-0.039 0.211-0.052 0.322-0.038 0.113 0.014 0.216 0.056 0.311 0.128 0.098 0.074 0.168 0.165 0.212 0.274s0.059 0.22 0.046 0.337c-0.013 0.116-0.057 0.223-0.131 0.32l-0.629 0.826-0.274-0.209 0.576-0.756c0.044-0.058 0.071-0.122 0.079-0.192s0.001-0.138-0.024-0.204c-0.025-0.066-0.066-0.121-0.124-0.165s-0.121-0.070-0.19-0.078-0.136 0.001-0.201 0.028c-0.065 0.027-0.121 0.071-0.168 0.133l-0.576 0.756-0.274-0.209 0.576-0.756c0.047-0.061 0.074-0.127 0.083-0.197s-0.001-0.137-0.028-0.202c-0.026-0.064-0.068-0.118-0.126-0.163-0.057-0.043-0.121-0.069-0.192-0.076s-0.138 0.004-0.203 0.031-0.119 0.069-0.164 0.127l-0.576 0.756-0.274-0.209z"></path>
<path fill="#fff" style="fill: var(--color1, #fff)" d="M26.739 9.053l2.007-1.161 0.4 0.691c0.062 0.108 0.092 0.221 0.089 0.339s-0.035 0.23-0.096 0.334c-0.060 0.105-0.145 0.189-0.255 0.253-0.112 0.065-0.229 0.097-0.35 0.095-0.12-0.001-0.232-0.029-0.337-0.086s-0.187-0.138-0.248-0.243l-0.227-0.393-0.81 0.468-0.173-0.298zM28.019 8.71l0.21 0.363c0.033 0.057 0.078 0.101 0.134 0.131 0.056 0.031 0.116 0.047 0.18 0.047s0.127-0.016 0.187-0.051 0.106-0.080 0.137-0.137c0.033-0.056 0.049-0.116 0.049-0.18 0.002-0.063-0.014-0.124-0.047-0.181l-0.21-0.363-0.639 0.37z"></path>
<path fill="#fff" style="fill: var(--color1, #fff)" d="M27.965 11.467l1.565-0.542 0.113 0.325-0.166 0.057c0.083 0.032 0.158 0.081 0.223 0.147s0.113 0.145 0.145 0.237c0.020 0.058 0.032 0.119 0.037 0.182l-0.374-0.016c0.002-0.046-0.005-0.089-0.019-0.13-0.024-0.069-0.063-0.126-0.117-0.171-0.053-0.046-0.115-0.076-0.184-0.091s-0.139-0.010-0.209 0.014l-0.901 0.312-0.113-0.325z"></path>
<path fill="#fff" style="fill: var(--color1, #fff)" d="M28.642 14.262c-0.021-0.151-0-0.294 0.060-0.429 0.061-0.134 0.151-0.247 0.271-0.339 0.121-0.091 0.261-0.148 0.42-0.169 0.12-0.016 0.235-0.010 0.345 0.018 0.111 0.028 0.211 0.074 0.3 0.138 0.090 0.065 0.164 0.144 0.223 0.237s0.095 0.196 0.111 0.309c0.021 0.151 0 0.294-0.060 0.428-0.060 0.135-0.152 0.249-0.273 0.34-0.121 0.092-0.262 0.149-0.421 0.171-0.119 0.016-0.234 0.010-0.343-0.018s-0.21-0.075-0.3-0.14c-0.089-0.064-0.162-0.142-0.221-0.236-0.058-0.092-0.095-0.195-0.111-0.309zM28.984 14.216c0.012 0.091 0.047 0.169 0.105 0.235s0.129 0.114 0.214 0.145c0.086 0.032 0.175 0.041 0.268 0.029 0.095-0.013 0.18-0.047 0.254-0.101 0.074-0.054 0.13-0.12 0.167-0.198 0.038-0.079 0.051-0.162 0.040-0.251-0.012-0.090-0.047-0.168-0.106-0.235-0.058-0.066-0.13-0.114-0.215-0.146-0.085-0.031-0.175-0.040-0.269-0.027-0.097 0.013-0.182 0.047-0.255 0.102s-0.128 0.121-0.165 0.2c-0.036 0.080-0.048 0.163-0.036 0.249z"></path>
<path fill="#fff" style="fill: var(--color1, #fff)" d="M27.979 16.678l0.031-0.343 2.474 0.225-0.031 0.343-0.243-0.022c0.080 0.063 0.142 0.139 0.187 0.23s0.062 0.194 0.052 0.311c-0.011 0.12-0.044 0.23-0.098 0.33-0.055 0.101-0.126 0.188-0.213 0.26-0.086 0.072-0.184 0.126-0.292 0.161s-0.223 0.048-0.343 0.037c-0.12-0.011-0.23-0.044-0.332-0.098s-0.189-0.125-0.262-0.212c-0.072-0.086-0.126-0.184-0.161-0.294-0.036-0.109-0.048-0.223-0.037-0.343 0.011-0.117 0.046-0.215 0.107-0.296 0.062-0.081 0.137-0.145 0.226-0.192l-1.064-0.097zM30.118 17.388c0.009-0.096-0.008-0.182-0.049-0.259s-0.102-0.14-0.179-0.188c-0.077-0.048-0.164-0.076-0.263-0.086s-0.191 0.003-0.276 0.036c-0.085 0.033-0.155 0.084-0.21 0.152s-0.087 0.15-0.096 0.246c-0.009 0.095 0.007 0.184 0.047 0.267 0.041 0.084 0.1 0.153 0.177 0.207s0.166 0.087 0.266 0.096c0.098 0.009 0.19-0.007 0.275-0.046 0.086-0.039 0.156-0.096 0.212-0.17s0.088-0.16 0.096-0.256z"></path>
<path fill="#fff" style="fill: var(--color1, #fff)" d="M28.163 19.946c0.048-0.145 0.128-0.265 0.242-0.36 0.113-0.094 0.244-0.156 0.392-0.187 0.149-0.029 0.299-0.018 0.452 0.031 0.115 0.038 0.216 0.094 0.302 0.167s0.157 0.159 0.209 0.255c0.053 0.098 0.085 0.201 0.097 0.311s-0 0.218-0.036 0.326c-0.040 0.121-0.101 0.223-0.184 0.307-0.082 0.085-0.179 0.148-0.291 0.19s-0.228 0.062-0.354 0.058c-0.124-0.004-0.248-0.033-0.372-0.089l0.398-1.213c-0.077-0.010-0.151-0.005-0.222 0.014-0.071 0.021-0.133 0.056-0.186 0.106-0.054 0.051-0.094 0.114-0.12 0.189-0.026 0.080-0.030 0.159-0.011 0.237 0.018 0.079 0.055 0.151 0.112 0.216l-0.186 0.307c-0.119-0.109-0.202-0.241-0.25-0.397-0.046-0.156-0.044-0.312 0.008-0.47zM29.273 19.815l-0.293 0.894c0.079 0.014 0.156 0.010 0.231-0.013 0.075-0.022 0.142-0.059 0.198-0.111 0.057-0.051 0.098-0.114 0.123-0.19 0.024-0.074 0.029-0.15 0.015-0.225-0.015-0.075-0.047-0.143-0.095-0.205-0.047-0.061-0.107-0.111-0.179-0.149z"></path>
<path fill="#fff" style="fill: var(--color1, #fff)" d="M27.378 21.958l1.441 0.816-0.17 0.3-0.153-0.087c0.031 0.084 0.043 0.172 0.037 0.264s-0.034 0.181-0.082 0.266c-0.030 0.054-0.068 0.103-0.112 0.148l-0.235-0.291c0.036-0.029 0.064-0.063 0.085-0.1 0.036-0.064 0.053-0.131 0.051-0.201s-0.019-0.136-0.054-0.198-0.085-0.111-0.149-0.147l-0.83-0.47 0.169-0.3z"></path>
<path fill="#fff" style="fill: var(--color1, #fff)" d="M26.683 25.292l0.22-0.269-1.015-0.831 0.218-0.267 1.015 0.831 0.167-0.204 0.267 0.218-0.167 0.204 0.404 0.328-0.218 0.267-0.404-0.328-0.22 0.269-0.267-0.218z"></path>
<path fill="#fff" style="fill: var(--color1, #fff)" d="M24.971 27.395l-0.282 0.235-0.894-2.489 0.281-0.234 0.3 0.828 1.517 0.891-0.289 0.241-1.058-0.659 0.425 1.187z"></path>
</symbol>
<symbol id="icon-text-laptop" viewBox="0 0 32 32">
<path fill="#fff" style="fill: var(--color1, #fff)" d="M19.374 27.807l-3.276 0.459 0.459 3.276 3.276-0.459-0.459-3.276z"></path>
<path fill="#fff" style="fill: var(--color1, #fff)" d="M15.116 28.904l-0.348 2.29-0.757-0.115c-0.158-0.024-0.302-0.077-0.431-0.158-0.13-0.080-0.239-0.181-0.327-0.302-0.089-0.121-0.152-0.255-0.19-0.402-0.039-0.147-0.047-0.299-0.023-0.457s0.076-0.302 0.158-0.431c0.080-0.128 0.18-0.238 0.301-0.327 0.121-0.089 0.255-0.153 0.402-0.192 0.147-0.038 0.3-0.045 0.458-0.021l0.757 0.115zM14.724 29.193l-0.417-0.063c-0.111-0.017-0.218-0.012-0.32 0.015-0.103 0.027-0.198 0.071-0.283 0.134-0.086 0.063-0.158 0.139-0.214 0.23s-0.093 0.192-0.11 0.303c-0.017 0.111-0.012 0.219 0.015 0.322s0.072 0.198 0.136 0.283c0.063 0.086 0.14 0.156 0.23 0.213 0.090 0.056 0.19 0.092 0.301 0.109l0.417 0.063 0.244-1.609z"></path>
<path fill="#fff" style="fill: var(--color1, #fff)" d="M11.362 29.774l-0.324-0.115 0.554-1.559 0.324 0.115-0.554 1.559zM11.117 29.941c0.050 0.018 0.086 0.048 0.107 0.092s0.024 0.091 0.007 0.139c-0.017 0.048-0.048 0.082-0.093 0.102-0.045 0.022-0.092 0.024-0.141 0.006-0.048-0.017-0.082-0.048-0.104-0.093-0.022-0.044-0.024-0.090-0.007-0.138 0.017-0.049 0.048-0.083 0.093-0.104 0.044-0.021 0.089-0.023 0.137-0.006z"></path>
<path fill="#fff" style="fill: var(--color1, #fff)" d="M9.986 27.338c0.074 0.046 0.14 0.102 0.199 0.168s0.103 0.136 0.134 0.21c0.030 0.075 0.041 0.15 0.035 0.226l-0.317-0.029c0.002-0.033-0.006-0.071-0.024-0.113s-0.044-0.084-0.078-0.123c-0.034-0.039-0.075-0.071-0.121-0.096s-0.091-0.041-0.137-0.050c-0.047-0.008-0.091-0.005-0.131 0.008s-0.070 0.039-0.091 0.077c-0.023 0.043-0.026 0.084-0.010 0.123 0.015 0.040 0.040 0.077 0.076 0.113s0.072 0.071 0.108 0.106c0.083 0.073 0.155 0.149 0.214 0.229 0.058 0.080 0.094 0.162 0.109 0.246s-0.002 0.169-0.048 0.255c-0.050 0.093-0.119 0.16-0.207 0.2s-0.182 0.059-0.284 0.051c-0.102-0.008-0.2-0.037-0.293-0.088-0.116-0.063-0.21-0.146-0.28-0.248s-0.107-0.21-0.112-0.324l0.317-0.012c-0.001 0.037 0.006 0.075 0.023 0.114s0.039 0.075 0.069 0.109c0.029 0.035 0.063 0.064 0.101 0.087 0.048 0.029 0.098 0.048 0.148 0.058 0.049 0.010 0.093 0.008 0.133-0.007s0.073-0.043 0.096-0.087c0.023-0.043 0.025-0.083 0.007-0.12s-0.048-0.074-0.087-0.111c-0.040-0.038-0.080-0.078-0.12-0.119-0.072-0.074-0.134-0.151-0.188-0.232s-0.090-0.161-0.105-0.243 0-0.164 0.047-0.246c0.049-0.091 0.12-0.156 0.213-0.195s0.191-0.053 0.297-0.042 0.207 0.047 0.302 0.106z"></path>
<path fill="#fff" style="fill: var(--color1, #fff)" d="M7.258 26.052l-0.129-0.325c0.125-0.032 0.252-0.036 0.381-0.010s0.244 0.081 0.348 0.167c0.117 0.097 0.199 0.217 0.245 0.357s0.055 0.284 0.029 0.433c-0.028 0.149-0.093 0.285-0.196 0.408-0.078 0.093-0.167 0.166-0.267 0.219s-0.205 0.087-0.314 0.1c-0.11 0.013-0.218 0.005-0.324-0.025s-0.203-0.081-0.29-0.153c-0.103-0.086-0.179-0.19-0.227-0.312s-0.068-0.248-0.058-0.378l0.343 0.069c0 0.072 0.015 0.139 0.044 0.2s0.067 0.114 0.117 0.156c0.069 0.058 0.148 0.091 0.237 0.101 0.087 0.009 0.173-0.003 0.257-0.037 0.083-0.034 0.155-0.088 0.216-0.16s0.099-0.153 0.118-0.242c0.018-0.089 0.014-0.175-0.011-0.259s-0.073-0.155-0.141-0.213c-0.053-0.044-0.112-0.074-0.18-0.089s-0.134-0.018-0.199-0.007z"></path>
<path fill="#fff" style="fill: var(--color1, #fff)" d="M5.974 23.939c0.093 0.121 0.147 0.255 0.161 0.402s-0.008 0.29-0.066 0.429c-0.060 0.139-0.153 0.258-0.28 0.355-0.096 0.074-0.199 0.126-0.308 0.156s-0.219 0.040-0.328 0.029c-0.11-0.011-0.214-0.043-0.311-0.095s-0.18-0.123-0.25-0.213c-0.093-0.121-0.146-0.254-0.16-0.401s0.008-0.291 0.068-0.43c0.059-0.14 0.152-0.259 0.28-0.358 0.095-0.073 0.197-0.125 0.307-0.155s0.219-0.039 0.329-0.028c0.109 0.011 0.212 0.042 0.309 0.094s0.18 0.122 0.25 0.213zM5.702 24.149c-0.056-0.073-0.125-0.123-0.208-0.151s-0.169-0.034-0.257-0.019c-0.090 0.015-0.172 0.051-0.246 0.108-0.076 0.059-0.132 0.13-0.169 0.214s-0.053 0.168-0.046 0.255c0.006 0.087 0.036 0.166 0.091 0.237s0.125 0.122 0.208 0.151c0.083 0.028 0.169 0.035 0.259 0.019s0.172-0.053 0.247-0.111c0.078-0.060 0.135-0.132 0.171-0.215s0.051-0.168 0.044-0.255c-0.008-0.087-0.039-0.165-0.092-0.234z"></path>
<path fill="#fff" style="fill: var(--color1, #fff)" d="M4.333 21.295l0.187 0.4-1.246 1.249-0.155-0.333 0.949-0.947-1.336 0.119-0.155-0.331 1.757-0.156z"></path>
<path fill="#fff" style="fill: var(--color1, #fff)" d="M3.584 18.914c0.033 0.149 0.025 0.293-0.025 0.432-0.049 0.139-0.13 0.259-0.242 0.36-0.113 0.101-0.248 0.168-0.404 0.203-0.118 0.026-0.233 0.030-0.345 0.010-0.113-0.019-0.216-0.057-0.31-0.113-0.095-0.057-0.176-0.129-0.241-0.218s-0.111-0.188-0.136-0.299c-0.027-0.124-0.027-0.243 0.002-0.358 0.028-0.115 0.079-0.218 0.153-0.312 0.073-0.093 0.165-0.17 0.274-0.23 0.109-0.060 0.23-0.098 0.365-0.113l0.276 1.245c0.071-0.030 0.132-0.072 0.184-0.125 0.050-0.054 0.086-0.116 0.106-0.186 0.020-0.071 0.022-0.146 0.006-0.223-0.018-0.082-0.055-0.152-0.111-0.209-0.056-0.059-0.125-0.102-0.206-0.129l0.004-0.358c0.158 0.033 0.296 0.104 0.417 0.214 0.119 0.11 0.197 0.246 0.233 0.408zM2.698 19.591l-0.203-0.917c-0.075 0.028-0.139 0.071-0.192 0.129-0.054 0.057-0.092 0.123-0.114 0.196-0.023 0.073-0.026 0.148-0.009 0.226 0.017 0.076 0.051 0.143 0.102 0.201 0.051 0.056 0.113 0.099 0.186 0.128 0.072 0.028 0.148 0.041 0.23 0.037z"></path>
<path fill="#fff" style="fill: var(--color1, #fff)" d="M3.232 16.766l-1.654 0.033-0.007-0.344 0.175-0.004c-0.069-0.056-0.125-0.125-0.166-0.208s-0.063-0.173-0.065-0.27c-0.001-0.062 0.006-0.123 0.021-0.184l0.35 0.13c-0.016 0.043-0.023 0.086-0.022 0.129 0.001 0.073 0.021 0.139 0.059 0.199 0.036 0.060 0.085 0.107 0.147 0.143s0.129 0.052 0.203 0.050l0.953-0.019 0.007 0.344z"></path>
<path fill="#fff" style="fill: var(--color1, #fff)" d="M1.869 10.717l0.13-0.384 0.95 1.156 0.99 0.335-0.11 0.326-0.99-0.335-1.456 0.34 0.13-0.384 1.026-0.24-0.669-0.815z"></path>
<path fill="#fff" style="fill: var(--color1, #fff)" d="M5.171 9.341c-0.081 0.129-0.188 0.226-0.321 0.291s-0.274 0.093-0.425 0.087c-0.151-0.008-0.295-0.054-0.43-0.139-0.103-0.064-0.187-0.143-0.253-0.235s-0.114-0.192-0.142-0.298c-0.028-0.107-0.034-0.215-0.019-0.324s0.053-0.212 0.113-0.308c0.081-0.129 0.187-0.226 0.32-0.29s0.275-0.094 0.427-0.086c0.152 0.007 0.296 0.053 0.433 0.138 0.102 0.064 0.186 0.142 0.252 0.234s0.113 0.192 0.141 0.299c0.027 0.106 0.034 0.213 0.019 0.322s-0.052 0.211-0.113 0.308zM4.879 9.159c0.049-0.078 0.072-0.16 0.069-0.248s-0.026-0.17-0.071-0.248c-0.045-0.079-0.108-0.144-0.187-0.193-0.081-0.051-0.168-0.079-0.259-0.084s-0.176 0.009-0.255 0.045c-0.080 0.036-0.143 0.092-0.191 0.167s-0.071 0.159-0.069 0.248c0.002 0.087 0.026 0.171 0.072 0.25s0.109 0.143 0.19 0.193c0.083 0.052 0.17 0.081 0.261 0.085s0.176-0.011 0.254-0.048c0.078-0.038 0.141-0.094 0.187-0.168z"></path>
<path fill="#fff" style="fill: var(--color1, #fff)" d="M5.927 7.169l-0.736-0.726 0.242-0.245 0.676 0.667c0.053 0.052 0.113 0.086 0.182 0.103s0.137 0.016 0.206-0.001c0.068-0.018 0.127-0.053 0.178-0.105s0.086-0.112 0.103-0.18c0.017-0.069 0.016-0.137-0.003-0.205s-0.053-0.129-0.105-0.181l-0.676-0.667 0.242-0.245 1.179 1.161-0.242 0.245-0.128-0.124c0.009 0.088-0.002 0.176-0.032 0.263s-0.080 0.165-0.147 0.234c-0.086 0.087-0.185 0.145-0.298 0.175s-0.226 0.030-0.339 0.002c-0.113-0.028-0.213-0.085-0.301-0.171z"></path>
<path fill="#fff" style="fill: var(--color1, #fff)" d="M8.432 5.726l-0.935-1.364 0.284-0.195 0.099 0.145c0.009-0.089 0.036-0.173 0.083-0.253s0.11-0.148 0.19-0.203c0.051-0.035 0.106-0.063 0.165-0.083l0.083 0.364c-0.045 0.011-0.085 0.028-0.12 0.053-0.060 0.041-0.105 0.094-0.134 0.158s-0.043 0.13-0.039 0.201 0.027 0.136 0.069 0.197l0.539 0.786-0.284 0.195z"></path>
<path fill="#fff" style="fill: var(--color1, #fff)" d="M11.947 3.86l-0.567-2.245 0.743-0.188c0.155-0.039 0.308-0.046 0.459-0.022 0.15 0.023 0.29 0.074 0.419 0.152 0.129 0.077 0.239 0.176 0.331 0.297 0.093 0.12 0.159 0.257 0.198 0.412s0.046 0.308 0.022 0.459c-0.024 0.149-0.074 0.289-0.15 0.418-0.077 0.129-0.176 0.239-0.296 0.333-0.121 0.092-0.259 0.158-0.414 0.197l-0.743 0.188zM12.197 3.442l0.409-0.103c0.109-0.028 0.206-0.074 0.289-0.138 0.085-0.065 0.155-0.143 0.209-0.234 0.055-0.091 0.091-0.19 0.108-0.295s0.011-0.213-0.016-0.322c-0.028-0.109-0.074-0.206-0.138-0.291s-0.143-0.154-0.235-0.208c-0.091-0.054-0.189-0.090-0.295-0.106-0.104-0.017-0.211-0.012-0.32 0.016l-0.409 0.103 0.399 1.578z"></path>
<path fill="#fff" style="fill: var(--color1, #fff)" d="M15.16 3.249l-0.058-1.653 0.344-0.012 0.006 0.175c0.055-0.070 0.123-0.127 0.206-0.169s0.172-0.066 0.269-0.069c0.062-0.002 0.123 0.004 0.184 0.018l-0.125 0.352c-0.044-0.015-0.087-0.022-0.13-0.020-0.073 0.003-0.139 0.023-0.198 0.062-0.059 0.037-0.106 0.087-0.14 0.149s-0.050 0.13-0.047 0.204l0.034 0.952-0.344 0.012z"></path>
<path fill="#fff" style="fill: var(--color1, #fff)" d="M18.046 3.423c-0.15-0.025-0.281-0.086-0.392-0.183-0.11-0.097-0.192-0.217-0.245-0.359-0.052-0.143-0.064-0.293-0.038-0.451 0.020-0.12 0.059-0.228 0.119-0.324 0.060-0.098 0.133-0.179 0.22-0.246 0.088-0.067 0.185-0.115 0.292-0.143s0.216-0.033 0.328-0.015c0.125 0.021 0.236 0.066 0.332 0.135 0.096 0.068 0.174 0.154 0.233 0.258 0.059 0.102 0.096 0.216 0.112 0.34 0.016 0.123 0.005 0.25-0.031 0.381l-1.259-0.207c0.002 0.077 0.018 0.15 0.048 0.217 0.032 0.067 0.076 0.123 0.133 0.168 0.058 0.045 0.127 0.075 0.205 0.089 0.083 0.014 0.161 0.005 0.235-0.025 0.075-0.030 0.141-0.078 0.196-0.144l0.331 0.136c-0.089 0.134-0.207 0.236-0.354 0.307-0.147 0.070-0.302 0.091-0.465 0.065zM17.746 2.348l0.927 0.152c0.002-0.080-0.014-0.155-0.048-0.226-0.033-0.071-0.080-0.131-0.14-0.179-0.059-0.049-0.128-0.080-0.206-0.092-0.077-0.013-0.152-0.006-0.225 0.020-0.071 0.026-0.134 0.068-0.188 0.125-0.053 0.056-0.093 0.123-0.12 0.2z"></path>
<path fill="#fff" style="fill: var(--color1, #fff)" d="M21.992 2.833l0.318 0.13-0.627 1.531-0.32-0.131 0.079-0.227c-0.077 0.060-0.164 0.099-0.26 0.115s-0.196 0.004-0.3-0.039c-0.112-0.046-0.209-0.11-0.291-0.193-0.081-0.083-0.144-0.178-0.189-0.285-0.044-0.106-0.066-0.217-0.068-0.332-0.001-0.116 0.021-0.231 0.068-0.344 0.045-0.109 0.107-0.203 0.187-0.283 0.081-0.080 0.172-0.142 0.274-0.184s0.209-0.065 0.321-0.067c0.113-0.003 0.224 0.019 0.333 0.063 0.111 0.046 0.199 0.111 0.263 0.197 0.065 0.085 0.11 0.178 0.134 0.28l0.079-0.232zM21 3.901c0.090 0.037 0.177 0.047 0.263 0.031s0.162-0.056 0.23-0.117c0.069-0.060 0.122-0.136 0.16-0.228 0.038-0.093 0.054-0.185 0.047-0.276s-0.035-0.172-0.084-0.244c-0.048-0.072-0.117-0.127-0.207-0.163s-0.179-0.047-0.271-0.032-0.175 0.051-0.249 0.109c-0.074 0.058-0.13 0.133-0.167 0.225-0.038 0.093-0.051 0.186-0.038 0.28 0.014 0.093 0.049 0.177 0.103 0.251 0.055 0.074 0.127 0.129 0.213 0.164z"></path>
<path fill="#fff" style="fill: var(--color1, #fff)" d="M22.82 5.077l1.002-1.316 0.274 0.208-0.106 0.14c0.087-0.020 0.175-0.020 0.265-0.002s0.175 0.058 0.252 0.117c0.094 0.071 0.163 0.16 0.207 0.266s0.062 0.212 0.052 0.322c0.103-0.039 0.211-0.052 0.322-0.038 0.113 0.014 0.216 0.056 0.31 0.128 0.097 0.074 0.168 0.165 0.212 0.273s0.059 0.22 0.046 0.336c-0.013 0.116-0.057 0.223-0.131 0.32l-0.628 0.825-0.274-0.208 0.575-0.756c0.044-0.058 0.070-0.122 0.079-0.191s0.001-0.137-0.024-0.203c-0.025-0.066-0.066-0.121-0.124-0.165s-0.121-0.070-0.19-0.078c-0.069-0.008-0.136 0.002-0.2 0.028s-0.121 0.071-0.167 0.133l-0.575 0.756-0.274-0.208 0.575-0.756c0.047-0.061 0.074-0.127 0.083-0.197s-0-0.137-0.027-0.202c-0.026-0.064-0.068-0.118-0.126-0.162s-0.121-0.069-0.192-0.075c-0.070-0.006-0.138 0.004-0.202 0.031s-0.119 0.069-0.163 0.127l-0.575 0.756-0.274-0.208z"></path>
<path fill="#fff" style="fill: var(--color1, #fff)" d="M26.81 9.012l2.005-1.159 0.399 0.69c0.062 0.108 0.092 0.221 0.089 0.338s-0.034 0.23-0.095 0.334c-0.060 0.105-0.145 0.189-0.255 0.253-0.112 0.065-0.228 0.096-0.35 0.095-0.12-0.001-0.232-0.029-0.337-0.086s-0.187-0.138-0.247-0.243l-0.227-0.392-0.809 0.468-0.172-0.298zM28.089 8.67l0.21 0.362c0.033 0.057 0.078 0.101 0.133 0.131s0.116 0.047 0.18 0.047c0.064 0.001 0.127-0.016 0.187-0.051s0.106-0.080 0.137-0.137c0.033-0.056 0.049-0.116 0.049-0.179 0.002-0.063-0.014-0.124-0.047-0.181l-0.21-0.362-0.639 0.369z"></path>
<path fill="#fff" style="fill: var(--color1, #fff)" d="M28.043 11.441l1.563-0.541 0.113 0.325-0.166 0.057c0.083 0.032 0.158 0.081 0.223 0.147s0.113 0.145 0.145 0.237c0.020 0.058 0.033 0.119 0.037 0.182l-0.373-0.016c0.002-0.046-0.005-0.089-0.019-0.13-0.024-0.069-0.063-0.126-0.117-0.171-0.053-0.046-0.114-0.076-0.184-0.090s-0.139-0.010-0.209 0.014l-0.9 0.312-0.113-0.325z"></path>
<path fill="#fff" style="fill: var(--color1, #fff)" d="M28.724 14.251c-0.021-0.151-0.001-0.294 0.060-0.429 0.061-0.134 0.151-0.247 0.271-0.339 0.121-0.091 0.261-0.147 0.419-0.169 0.12-0.016 0.235-0.010 0.345 0.018s0.21 0.074 0.299 0.138c0.090 0.065 0.164 0.143 0.223 0.237s0.095 0.196 0.111 0.309c0.020 0.151 0 0.293-0.060 0.427-0.061 0.135-0.151 0.248-0.273 0.339-0.121 0.092-0.261 0.149-0.421 0.171-0.119 0.016-0.233 0.010-0.343-0.018s-0.209-0.075-0.299-0.139c-0.089-0.064-0.162-0.142-0.221-0.235-0.058-0.092-0.095-0.195-0.111-0.309zM29.065 14.205c0.012 0.091 0.047 0.169 0.105 0.234s0.129 0.114 0.213 0.145c0.086 0.032 0.175 0.041 0.268 0.029 0.095-0.013 0.18-0.047 0.253-0.101 0.074-0.053 0.129-0.119 0.167-0.198 0.038-0.079 0.051-0.162 0.039-0.251-0.012-0.090-0.048-0.168-0.106-0.234-0.058-0.066-0.13-0.114-0.215-0.146-0.085-0.031-0.175-0.040-0.269-0.027-0.097 0.013-0.182 0.047-0.255 0.102s-0.128 0.121-0.165 0.199c-0.036 0.079-0.048 0.162-0.036 0.249z"></path>
<path fill="#fff" style="fill: var(--color1, #fff)" d="M28.061 16.686l0.031-0.343 2.471 0.225-0.031 0.343-0.242-0.022c0.080 0.063 0.142 0.139 0.187 0.23s0.062 0.194 0.051 0.31c-0.011 0.12-0.044 0.23-0.098 0.33-0.055 0.101-0.126 0.188-0.213 0.26s-0.184 0.126-0.292 0.161c-0.108 0.036-0.223 0.048-0.342 0.037s-0.23-0.044-0.332-0.098c-0.101-0.055-0.189-0.125-0.261-0.212-0.072-0.086-0.126-0.184-0.161-0.294-0.036-0.108-0.048-0.223-0.037-0.342 0.011-0.116 0.046-0.215 0.107-0.296 0.062-0.081 0.137-0.145 0.225-0.192l-1.063-0.097zM30.198 17.395c0.009-0.096-0.008-0.182-0.050-0.259s-0.101-0.139-0.179-0.187c-0.077-0.048-0.164-0.076-0.263-0.085s-0.191 0.003-0.276 0.036c-0.085 0.033-0.155 0.084-0.21 0.152s-0.087 0.15-0.095 0.245c-0.009 0.094 0.007 0.183 0.047 0.267 0.041 0.083 0.1 0.153 0.177 0.207s0.165 0.087 0.265 0.096c0.098 0.009 0.189-0.007 0.275-0.046 0.085-0.039 0.156-0.095 0.212-0.17s0.088-0.16 0.096-0.255z"></path>
<path fill="#fff" style="fill: var(--color1, #fff)" d="M28.241 19.972c0.047-0.145 0.128-0.264 0.242-0.359 0.113-0.094 0.244-0.156 0.392-0.186 0.149-0.029 0.299-0.018 0.451 0.031 0.115 0.038 0.216 0.093 0.302 0.167 0.087 0.074 0.157 0.159 0.209 0.255 0.053 0.097 0.085 0.201 0.097 0.31s-0 0.218-0.036 0.326c-0.040 0.121-0.101 0.223-0.184 0.307-0.082 0.084-0.179 0.148-0.29 0.19-0.11 0.043-0.228 0.062-0.353 0.058-0.124-0.004-0.248-0.033-0.371-0.089l0.398-1.212c-0.077-0.010-0.151-0.005-0.222 0.014-0.071 0.021-0.133 0.056-0.186 0.106-0.054 0.051-0.094 0.114-0.119 0.189-0.026 0.080-0.030 0.158-0.011 0.236 0.018 0.079 0.055 0.151 0.112 0.216l-0.186 0.306c-0.119-0.109-0.202-0.241-0.249-0.397-0.046-0.156-0.044-0.312 0.008-0.469zM29.349 19.841l-0.293 0.893c0.079 0.014 0.156 0.010 0.231-0.013 0.076-0.022 0.142-0.059 0.198-0.111 0.057-0.051 0.098-0.114 0.123-0.189 0.024-0.074 0.029-0.149 0.015-0.225-0.015-0.075-0.047-0.143-0.095-0.205-0.047-0.061-0.107-0.111-0.179-0.149z"></path>
<path fill="#fff" style="fill: var(--color1, #fff)" d="M27.449 21.999l1.44 0.815-0.169 0.299-0.153-0.086c0.031 0.084 0.044 0.172 0.037 0.264s-0.034 0.181-0.082 0.265c-0.030 0.054-0.068 0.103-0.112 0.148l-0.235-0.291c0.036-0.029 0.064-0.063 0.085-0.1 0.036-0.063 0.053-0.13 0.051-0.201s-0.019-0.136-0.054-0.198-0.084-0.11-0.149-0.147l-0.829-0.469 0.169-0.299z"></path>
<path fill="#fff" style="fill: var(--color1, #fff)" d="M26.745 25.343l0.22-0.269-1.014-0.83 0.218-0.267 1.014 0.83 0.166-0.204 0.267 0.218-0.166 0.204 0.403 0.327-0.218 0.267-0.403-0.327-0.22 0.269-0.267-0.218z"></path>
<path fill="#fff" style="fill: var(--color1, #fff)" d="M25.022 27.456l-0.282 0.235-0.893-2.486 0.281-0.234 0.3 0.827 1.516 0.89-0.288 0.241-1.057-0.658 0.425 1.186z"></path>
</symbol>
<symbol id="icon-text-mobile" viewBox="0 0 32 32">
<path fill="#fff" style="fill: var(--color1, #fff)" d="M19.379 27.836l-3.278 0.459 0.459 3.278 3.278-0.459-0.459-3.278z"></path>
<path fill="#fff" style="fill: var(--color1, #fff)" d="M15.162 28.607l-0.348 2.291-0.758-0.115c-0.158-0.024-0.302-0.077-0.431-0.158-0.13-0.080-0.239-0.181-0.327-0.302-0.089-0.121-0.152-0.255-0.19-0.402-0.039-0.147-0.047-0.299-0.023-0.457s0.077-0.302 0.158-0.431c0.080-0.128 0.18-0.238 0.301-0.328 0.121-0.089 0.255-0.153 0.402-0.192 0.148-0.038 0.3-0.045 0.459-0.021l0.758 0.115zM14.77 28.896l-0.417-0.063c-0.111-0.017-0.218-0.012-0.32 0.015-0.103 0.027-0.198 0.072-0.283 0.134-0.087 0.063-0.158 0.14-0.214 0.23s-0.093 0.192-0.11 0.303c-0.017 0.111-0.012 0.219 0.015 0.322s0.072 0.198 0.136 0.283c0.063 0.085 0.14 0.156 0.231 0.212 0.090 0.056 0.19 0.093 0.301 0.109l0.417 0.063 0.245-1.61z"></path>
<path fill="#fff" style="fill: var(--color1, #fff)" d="M11.463 29.491l-0.324-0.115 0.554-1.559 0.324 0.115-0.554 1.559zM11.217 29.659c0.050 0.018 0.086 0.049 0.108 0.093s0.024 0.091 0.007 0.139c-0.017 0.048-0.048 0.082-0.093 0.102-0.045 0.021-0.092 0.023-0.141 0.006-0.048-0.017-0.082-0.048-0.104-0.093-0.022-0.044-0.024-0.090-0.007-0.138 0.017-0.049 0.048-0.084 0.093-0.104 0.044-0.021 0.089-0.023 0.137-0.006z"></path>
<path fill="#fff" style="fill: var(--color1, #fff)" d="M10.129 27.074c0.074 0.046 0.14 0.102 0.199 0.168s0.103 0.136 0.134 0.21c0.030 0.075 0.041 0.15 0.035 0.226l-0.318-0.029c0.002-0.033-0.006-0.071-0.024-0.113s-0.044-0.084-0.078-0.123c-0.034-0.039-0.075-0.071-0.121-0.096s-0.091-0.041-0.137-0.050c-0.047-0.008-0.091-0.005-0.131 0.008s-0.070 0.039-0.091 0.077c-0.023 0.043-0.027 0.084-0.010 0.123 0.015 0.040 0.040 0.077 0.076 0.113s0.072 0.071 0.108 0.106c0.083 0.073 0.155 0.149 0.214 0.229 0.058 0.080 0.095 0.162 0.11 0.246s-0.002 0.169-0.048 0.255c-0.050 0.093-0.119 0.16-0.207 0.2s-0.182 0.059-0.284 0.051c-0.102-0.008-0.2-0.037-0.293-0.088-0.116-0.063-0.21-0.146-0.28-0.248s-0.107-0.21-0.112-0.324l0.317-0.012c-0.001 0.037 0.006 0.075 0.023 0.114s0.039 0.075 0.069 0.109c0.029 0.035 0.063 0.064 0.101 0.087 0.048 0.029 0.098 0.048 0.148 0.058 0.049 0.010 0.093 0.008 0.134-0.007s0.073-0.043 0.096-0.087c0.023-0.043 0.025-0.083 0.007-0.12s-0.048-0.074-0.087-0.111c-0.040-0.038-0.080-0.078-0.12-0.12-0.072-0.074-0.134-0.151-0.188-0.232-0.055-0.080-0.090-0.161-0.105-0.243s0-0.164 0.047-0.246c0.050-0.091 0.121-0.156 0.213-0.195s0.191-0.053 0.298-0.042 0.207 0.047 0.302 0.106z"></path>
<path fill="#fff" style="fill: var(--color1, #fff)" d="M7.451 25.821l-0.129-0.326c0.125-0.032 0.252-0.036 0.381-0.010s0.244 0.081 0.348 0.167c0.117 0.098 0.199 0.217 0.245 0.357s0.055 0.284 0.029 0.433c-0.028 0.149-0.093 0.285-0.196 0.408-0.078 0.093-0.167 0.166-0.267 0.219s-0.206 0.087-0.314 0.1c-0.11 0.013-0.218 0.005-0.324-0.025s-0.203-0.081-0.29-0.154c-0.103-0.086-0.179-0.19-0.227-0.312s-0.068-0.248-0.058-0.378l0.343 0.069c0 0.072 0.015 0.139 0.044 0.2s0.068 0.115 0.118 0.156c0.069 0.058 0.149 0.091 0.237 0.101 0.087 0.009 0.173-0.003 0.258-0.037 0.083-0.034 0.155-0.088 0.216-0.161s0.099-0.153 0.118-0.242c0.018-0.089 0.014-0.175-0.011-0.259s-0.073-0.156-0.141-0.213c-0.053-0.044-0.112-0.074-0.18-0.090s-0.134-0.018-0.199-0.007z"></path>
<path fill="#fff" style="fill: var(--color1, #fff)" d="M6.213 23.755c0.093 0.121 0.147 0.255 0.161 0.402s-0.008 0.29-0.066 0.429c-0.060 0.139-0.153 0.258-0.28 0.356-0.096 0.074-0.199 0.126-0.308 0.156s-0.22 0.040-0.328 0.029c-0.11-0.011-0.214-0.043-0.311-0.095s-0.18-0.123-0.25-0.213c-0.093-0.121-0.146-0.254-0.16-0.401s0.008-0.291 0.068-0.43c0.059-0.14 0.152-0.26 0.28-0.358 0.095-0.073 0.198-0.125 0.307-0.155s0.219-0.039 0.329-0.028c0.109 0.011 0.212 0.042 0.309 0.094s0.18 0.122 0.25 0.213zM5.94 23.965c-0.056-0.073-0.125-0.123-0.208-0.151s-0.169-0.034-0.257-0.019c-0.090 0.015-0.172 0.051-0.247 0.108-0.076 0.059-0.133 0.13-0.169 0.214s-0.053 0.168-0.046 0.255c0.006 0.087 0.036 0.166 0.091 0.237s0.125 0.122 0.208 0.151c0.083 0.028 0.169 0.035 0.259 0.019s0.172-0.053 0.247-0.111c0.078-0.060 0.135-0.132 0.171-0.215s0.051-0.168 0.044-0.255c-0.008-0.087-0.039-0.165-0.092-0.234z"></path>
<path fill="#fff" style="fill: var(--color1, #fff)" d="M4.605 21.167l0.187 0.4-1.246 1.25-0.156-0.333 0.949-0.948-1.337 0.119-0.155-0.331 1.757-0.157z"></path>
<path fill="#fff" style="fill: var(--color1, #fff)" d="M3.879 18.849c0.033 0.149 0.025 0.293-0.024 0.433-0.050 0.139-0.13 0.259-0.242 0.36-0.113 0.101-0.248 0.169-0.404 0.203-0.119 0.026-0.234 0.030-0.345 0.010-0.113-0.019-0.216-0.057-0.31-0.113-0.095-0.057-0.176-0.13-0.241-0.218s-0.111-0.188-0.136-0.299c-0.027-0.124-0.027-0.243 0.002-0.358 0.028-0.115 0.079-0.219 0.153-0.312 0.073-0.093 0.165-0.17 0.274-0.23 0.109-0.060 0.23-0.098 0.365-0.113l0.276 1.246c0.071-0.030 0.133-0.072 0.184-0.126 0.050-0.054 0.086-0.116 0.106-0.186 0.020-0.071 0.023-0.146 0.006-0.224-0.018-0.082-0.055-0.152-0.111-0.209-0.056-0.059-0.125-0.102-0.207-0.129l0.004-0.358c0.158 0.033 0.297 0.104 0.417 0.214 0.119 0.11 0.197 0.246 0.233 0.408zM2.991 19.527l-0.203-0.918c-0.075 0.028-0.139 0.071-0.192 0.129-0.054 0.057-0.092 0.123-0.114 0.197-0.023 0.073-0.026 0.148-0.009 0.226 0.017 0.076 0.051 0.144 0.102 0.201 0.051 0.056 0.113 0.099 0.186 0.128 0.072 0.028 0.149 0.041 0.23 0.037z"></path>
<path fill="#fff" style="fill: var(--color1, #fff)" d="M3.533 16.76l-1.655 0.033-0.007-0.344 0.175-0.004c-0.070-0.056-0.125-0.125-0.166-0.209s-0.063-0.173-0.065-0.27c-0.001-0.062 0.006-0.123 0.021-0.184l0.35 0.13c-0.016 0.043-0.023 0.087-0.022 0.13 0.001 0.073 0.021 0.139 0.059 0.199 0.037 0.060 0.086 0.108 0.147 0.143s0.129 0.052 0.203 0.051l0.953-0.019 0.007 0.344z"></path>
<path fill="#fff" style="fill: var(--color1, #fff)" d="M2.153 10.813l0.13-0.384 0.95 1.157 0.991 0.335-0.11 0.326-0.991-0.335-1.457 0.34 0.13-0.384 1.026-0.24-0.669-0.815z"></path>
<path fill="#fff" style="fill: var(--color1, #fff)" d="M5.426 9.501c-0.081 0.129-0.188 0.226-0.321 0.291s-0.274 0.093-0.426 0.087c-0.151-0.008-0.295-0.054-0.431-0.139-0.103-0.064-0.187-0.143-0.253-0.235s-0.114-0.192-0.142-0.298c-0.028-0.107-0.034-0.215-0.019-0.325s0.053-0.212 0.113-0.308c0.081-0.129 0.188-0.226 0.32-0.29s0.275-0.094 0.427-0.086c0.152 0.007 0.296 0.053 0.433 0.138 0.102 0.064 0.186 0.142 0.252 0.234s0.113 0.192 0.141 0.299c0.027 0.106 0.034 0.213 0.019 0.322-0.014 0.108-0.052 0.211-0.113 0.308zM5.134 9.318c0.049-0.078 0.072-0.16 0.069-0.248s-0.026-0.17-0.071-0.248c-0.045-0.079-0.108-0.144-0.187-0.194-0.081-0.051-0.168-0.079-0.26-0.085s-0.176 0.009-0.255 0.045c-0.080 0.036-0.143 0.092-0.191 0.168s-0.071 0.159-0.069 0.248c0.002 0.088 0.026 0.171 0.072 0.25s0.109 0.143 0.19 0.193c0.083 0.052 0.17 0.081 0.261 0.085s0.176-0.011 0.254-0.048c0.079-0.038 0.141-0.094 0.187-0.168z"></path>
<path fill="#fff" style="fill: var(--color1, #fff)" d="M6.141 7.38l-0.736-0.727 0.242-0.245 0.676 0.667c0.053 0.052 0.113 0.086 0.182 0.103s0.137 0.016 0.206-0.001c0.068-0.018 0.127-0.053 0.178-0.105s0.086-0.113 0.103-0.18c0.017-0.069 0.016-0.137-0.003-0.205s-0.053-0.129-0.105-0.181l-0.676-0.667 0.242-0.245 1.179 1.161-0.242 0.245-0.128-0.124c0.009 0.088-0.002 0.176-0.032 0.264s-0.080 0.165-0.147 0.234c-0.086 0.087-0.186 0.146-0.298 0.175s-0.226 0.030-0.339 0.002c-0.113-0.028-0.214-0.085-0.301-0.171z"></path>
<path fill="#fff" style="fill: var(--color1, #fff)" d="M8.602 5.974l-0.936-1.365 0.284-0.195 0.099 0.145c0.009-0.089 0.036-0.173 0.083-0.254s0.11-0.148 0.19-0.203c0.051-0.035 0.106-0.063 0.166-0.083l0.083 0.364c-0.045 0.011-0.085 0.028-0.12 0.053-0.060 0.041-0.105 0.094-0.134 0.158s-0.043 0.13-0.039 0.201 0.027 0.136 0.069 0.197l0.539 0.786-0.284 0.195z"></path>
<path fill="#fff" style="fill: var(--color1, #fff)" d="M12.021 4.152l-0.568-2.246 0.743-0.188c0.155-0.039 0.308-0.047 0.459-0.022 0.15 0.023 0.29 0.074 0.419 0.152 0.129 0.077 0.239 0.176 0.331 0.297 0.093 0.12 0.159 0.257 0.198 0.413s0.046 0.308 0.022 0.459c-0.024 0.149-0.074 0.289-0.15 0.419-0.077 0.129-0.176 0.24-0.297 0.333-0.121 0.092-0.259 0.158-0.415 0.197l-0.743 0.188zM12.27 3.734l0.409-0.103c0.109-0.028 0.206-0.074 0.29-0.138 0.085-0.065 0.155-0.143 0.209-0.234 0.055-0.091 0.091-0.19 0.108-0.295s0.011-0.213-0.016-0.322c-0.028-0.109-0.074-0.206-0.138-0.291s-0.143-0.154-0.235-0.209c-0.091-0.054-0.189-0.090-0.295-0.106-0.104-0.017-0.211-0.012-0.32 0.016l-0.409 0.103 0.399 1.579z"></path>
<path fill="#fff" style="fill: var(--color1, #fff)" d="M15.17 3.549l-0.059-1.654 0.344-0.012 0.006 0.175c0.055-0.070 0.124-0.127 0.206-0.17s0.172-0.066 0.269-0.069c0.062-0.002 0.123 0.004 0.184 0.018l-0.125 0.352c-0.044-0.015-0.087-0.022-0.13-0.020-0.073 0.003-0.139 0.023-0.198 0.062-0.059 0.037-0.106 0.087-0.14 0.149s-0.050 0.13-0.047 0.204l0.034 0.953-0.344 0.012z"></path>
<path fill="#fff" style="fill: var(--color1, #fff)" d="M17.997 3.72c-0.15-0.025-0.281-0.086-0.393-0.183-0.11-0.098-0.192-0.217-0.245-0.359-0.052-0.143-0.064-0.293-0.038-0.451 0.020-0.12 0.059-0.228 0.119-0.324 0.060-0.098 0.133-0.179 0.22-0.246 0.088-0.067 0.185-0.115 0.292-0.143s0.216-0.033 0.328-0.015c0.125 0.021 0.236 0.066 0.332 0.135 0.096 0.068 0.174 0.154 0.233 0.258 0.059 0.103 0.097 0.216 0.112 0.34 0.016 0.123 0.005 0.25-0.031 0.381l-1.259-0.207c0.002 0.077 0.018 0.15 0.048 0.218 0.032 0.067 0.076 0.123 0.133 0.168 0.059 0.045 0.127 0.075 0.205 0.089 0.083 0.014 0.161 0.005 0.236-0.025 0.075-0.030 0.141-0.078 0.196-0.144l0.331 0.137c-0.089 0.134-0.207 0.237-0.354 0.308-0.147 0.070-0.302 0.091-0.465 0.065zM17.697 2.644l0.928 0.152c0.002-0.080-0.014-0.155-0.048-0.226-0.033-0.071-0.080-0.131-0.14-0.179-0.059-0.049-0.128-0.080-0.206-0.093-0.077-0.013-0.152-0.006-0.225 0.020-0.071 0.026-0.134 0.068-0.188 0.125-0.053 0.056-0.093 0.123-0.12 0.2z"></path>
<path fill="#fff" style="fill: var(--color1, #fff)" d="M21.878 3.111l0.319 0.131-0.628 1.531-0.32-0.131 0.079-0.227c-0.077 0.060-0.164 0.099-0.26 0.115s-0.196 0.004-0.301-0.039c-0.112-0.046-0.209-0.11-0.291-0.193-0.081-0.083-0.145-0.178-0.189-0.285-0.044-0.106-0.066-0.217-0.068-0.332-0.001-0.116 0.021-0.231 0.068-0.344 0.045-0.109 0.107-0.204 0.187-0.283 0.081-0.080 0.172-0.142 0.274-0.185s0.209-0.065 0.321-0.067c0.113-0.003 0.224 0.019 0.334 0.063 0.111 0.046 0.199 0.111 0.263 0.197 0.065 0.085 0.11 0.179 0.134 0.28l0.079-0.232zM20.886 4.179c0.090 0.037 0.177 0.047 0.263 0.031 0.086-0.017 0.163-0.056 0.23-0.117 0.069-0.060 0.122-0.136 0.16-0.228s0.054-0.185 0.047-0.276c-0.007-0.091-0.035-0.172-0.084-0.244-0.048-0.072-0.117-0.127-0.207-0.163-0.089-0.036-0.179-0.047-0.271-0.032s-0.175 0.051-0.249 0.109c-0.074 0.058-0.13 0.133-0.167 0.225-0.038 0.093-0.051 0.186-0.038 0.28 0.014 0.093 0.049 0.177 0.103 0.251 0.056 0.074 0.127 0.129 0.213 0.164z"></path>
<path fill="#fff" style="fill: var(--color1, #fff)" d="M22.638 5.316l1.002-1.317 0.274 0.208-0.106 0.14c0.087-0.020 0.176-0.020 0.265-0.002s0.175 0.058 0.252 0.117c0.094 0.072 0.163 0.16 0.207 0.266s0.062 0.212 0.052 0.322c0.103-0.039 0.211-0.052 0.322-0.038 0.113 0.014 0.216 0.056 0.31 0.128 0.097 0.074 0.168 0.165 0.212 0.274s0.059 0.22 0.046 0.336c-0.013 0.116-0.057 0.223-0.131 0.32l-0.628 0.826-0.274-0.208 0.575-0.756c0.044-0.058 0.070-0.122 0.079-0.191s0.001-0.137-0.024-0.203c-0.025-0.066-0.066-0.121-0.124-0.165s-0.121-0.070-0.19-0.078c-0.069-0.008-0.136 0.002-0.2 0.028s-0.121 0.071-0.167 0.133l-0.575 0.756-0.274-0.208 0.575-0.756c0.047-0.061 0.075-0.127 0.083-0.197s-0-0.137-0.027-0.202c-0.026-0.064-0.068-0.118-0.126-0.162s-0.121-0.069-0.192-0.075c-0.070-0.006-0.138 0.004-0.202 0.031s-0.119 0.069-0.163 0.127l-0.575 0.756-0.274-0.208z"></path>
<path fill="#fff" style="fill: var(--color1, #fff)" d="M26.549 9.162l2.006-1.16 0.399 0.691c0.062 0.108 0.092 0.221 0.089 0.339s-0.034 0.23-0.095 0.334c-0.060 0.105-0.145 0.189-0.255 0.253-0.112 0.065-0.228 0.096-0.35 0.095-0.12-0.001-0.232-0.029-0.337-0.086s-0.187-0.138-0.248-0.243l-0.227-0.393-0.809 0.468-0.172-0.298zM27.829 8.82l0.21 0.362c0.033 0.057 0.078 0.101 0.133 0.131 0.056 0.031 0.116 0.047 0.18 0.047s0.127-0.016 0.187-0.051 0.106-0.080 0.137-0.137c0.033-0.056 0.049-0.116 0.049-0.179 0.002-0.063-0.014-0.124-0.047-0.181l-0.21-0.362-0.639 0.37z"></path>
<path fill="#fff" style="fill: var(--color1, #fff)" d="M27.759 11.539l1.564-0.542 0.113 0.325-0.166 0.057c0.083 0.032 0.158 0.081 0.223 0.147s0.113 0.145 0.145 0.237c0.020 0.058 0.032 0.119 0.037 0.182l-0.373-0.016c0.002-0.046-0.005-0.089-0.019-0.13-0.024-0.069-0.063-0.126-0.117-0.171-0.053-0.046-0.114-0.076-0.184-0.091s-0.139-0.010-0.209 0.014l-0.901 0.312-0.113-0.325z"></path>
<path fill="#fff" style="fill: var(--color1, #fff)" d="M28.426 14.292c-0.021-0.151-0.001-0.294 0.060-0.429 0.061-0.134 0.151-0.247 0.271-0.339 0.121-0.091 0.261-0.147 0.42-0.169 0.12-0.016 0.235-0.010 0.345 0.018 0.111 0.028 0.211 0.074 0.299 0.138 0.090 0.065 0.164 0.144 0.223 0.237s0.095 0.196 0.111 0.309c0.021 0.151 0 0.293-0.060 0.427-0.061 0.135-0.152 0.248-0.273 0.339-0.121 0.092-0.261 0.149-0.421 0.171-0.119 0.016-0.234 0.010-0.343-0.018s-0.21-0.075-0.3-0.14c-0.089-0.064-0.162-0.142-0.221-0.235-0.058-0.092-0.095-0.195-0.111-0.309zM28.767 14.245c0.012 0.091 0.047 0.169 0.105 0.235s0.129 0.114 0.213 0.145c0.086 0.032 0.175 0.041 0.268 0.029 0.095-0.013 0.18-0.047 0.253-0.101 0.074-0.053 0.13-0.12 0.167-0.198 0.038-0.079 0.051-0.162 0.039-0.251-0.012-0.090-0.047-0.168-0.105-0.235-0.058-0.066-0.13-0.114-0.215-0.146-0.085-0.031-0.175-0.040-0.269-0.027-0.097 0.013-0.182 0.047-0.255 0.102s-0.128 0.121-0.165 0.2c-0.036 0.079-0.048 0.162-0.036 0.249z"></path>
<path fill="#fff" style="fill: var(--color1, #fff)" d="M27.762 16.658l0.031-0.343 2.472 0.225-0.031 0.343-0.242-0.022c0.080 0.063 0.142 0.139 0.187 0.23s0.062 0.194 0.052 0.31c-0.011 0.12-0.044 0.23-0.098 0.33-0.055 0.101-0.126 0.188-0.213 0.26-0.086 0.072-0.184 0.126-0.292 0.161s-0.223 0.048-0.342 0.037c-0.12-0.011-0.23-0.044-0.332-0.098s-0.189-0.125-0.262-0.212c-0.072-0.086-0.126-0.184-0.161-0.294-0.036-0.108-0.048-0.223-0.037-0.342 0.011-0.116 0.046-0.215 0.107-0.296 0.062-0.081 0.137-0.145 0.225-0.192l-1.063-0.097zM29.899 17.368c0.009-0.096-0.008-0.182-0.050-0.259s-0.101-0.139-0.179-0.187c-0.076-0.048-0.164-0.076-0.263-0.085s-0.191 0.003-0.276 0.036-0.155 0.084-0.21 0.152c-0.055 0.068-0.087 0.15-0.096 0.246-0.009 0.095 0.007 0.183 0.047 0.267 0.041 0.084 0.1 0.153 0.177 0.207s0.166 0.087 0.265 0.096c0.098 0.009 0.189-0.007 0.275-0.046 0.085-0.039 0.156-0.095 0.212-0.17s0.088-0.16 0.096-0.255z"></path>
<path fill="#fff" style="fill: var(--color1, #fff)" d="M27.955 19.878c0.047-0.145 0.128-0.265 0.242-0.36 0.113-0.094 0.244-0.156 0.392-0.187 0.149-0.029 0.299-0.018 0.451 0.031 0.115 0.038 0.216 0.094 0.302 0.167 0.087 0.074 0.157 0.159 0.209 0.255 0.053 0.097 0.085 0.201 0.097 0.31s-0 0.218-0.036 0.326c-0.040 0.121-0.101 0.223-0.184 0.307-0.082 0.084-0.179 0.148-0.291 0.19-0.11 0.043-0.228 0.062-0.354 0.058-0.124-0.004-0.248-0.033-0.372-0.089l0.398-1.212c-0.077-0.010-0.151-0.005-0.222 0.014-0.071 0.021-0.133 0.056-0.186 0.106-0.054 0.051-0.094 0.114-0.119 0.189-0.026 0.080-0.030 0.159-0.011 0.237 0.018 0.079 0.055 0.151 0.112 0.216l-0.186 0.307c-0.119-0.109-0.202-0.241-0.249-0.397-0.046-0.156-0.044-0.312 0.008-0.47zM29.064 19.747l-0.293 0.893c0.079 0.014 0.156 0.010 0.231-0.013 0.076-0.022 0.142-0.059 0.198-0.111 0.057-0.051 0.098-0.114 0.123-0.189 0.024-0.074 0.029-0.149 0.015-0.225-0.015-0.075-0.047-0.143-0.095-0.205-0.047-0.061-0.107-0.111-0.179-0.149z"></path>
<path fill="#fff" style="fill: var(--color1, #fff)" d="M27.188 21.851l1.44 0.815-0.17 0.3-0.153-0.086c0.031 0.084 0.044 0.172 0.037 0.264s-0.034 0.181-0.082 0.266c-0.030 0.054-0.068 0.103-0.112 0.148l-0.235-0.291c0.036-0.029 0.064-0.063 0.085-0.1 0.036-0.063 0.053-0.13 0.051-0.201s-0.019-0.136-0.054-0.198c-0.035-0.062-0.084-0.111-0.149-0.147l-0.83-0.47 0.17-0.3z"></path>
<path fill="#fff" style="fill: var(--color1, #fff)" d="M26.513 25.153l0.22-0.269-1.014-0.83 0.218-0.267 1.014 0.83 0.166-0.204 0.267 0.218-0.166 0.204 0.404 0.327-0.218 0.267-0.404-0.327-0.22 0.269-0.267-0.218z"></path>
<path fill="#fff" style="fill: var(--color1, #fff)" d="M24.83 27.226l-0.282 0.235-0.894-2.487 0.281-0.234 0.3 0.827 1.516 0.89-0.289 0.241-1.058-0.659 0.425 1.186z"></path>
</symbol>
<symbol id="icon-text-tablet" viewBox="0 0 32 32">
<path fill="#fff" style="fill: var(--color1, #fff)" d="M19.374 27.658l-3.276 0.459 0.459 3.276 3.276-0.459-0.459-3.276z"></path>
<path fill="#fff" style="fill: var(--color1, #fff)" d="M15.116 28.755l-0.348 2.29-0.757-0.115c-0.158-0.024-0.302-0.077-0.431-0.158-0.13-0.080-0.239-0.181-0.327-0.302-0.089-0.121-0.152-0.255-0.19-0.402-0.039-0.147-0.047-0.299-0.023-0.457s0.076-0.302 0.158-0.431c0.080-0.128 0.18-0.238 0.301-0.327 0.121-0.089 0.255-0.153 0.402-0.192 0.147-0.038 0.3-0.045 0.458-0.021l0.757 0.115zM14.724 29.043l-0.417-0.063c-0.111-0.017-0.218-0.012-0.32 0.015-0.103 0.027-0.198 0.072-0.283 0.134-0.086 0.063-0.158 0.139-0.214 0.23s-0.093 0.192-0.11 0.303c-0.017 0.111-0.012 0.218 0.015 0.322s0.072 0.198 0.136 0.284c0.063 0.085 0.14 0.156 0.23 0.212 0.090 0.056 0.19 0.092 0.301 0.109l0.417 0.063 0.244-1.609z"></path>
<path fill="#fff" style="fill: var(--color1, #fff)" d="M11.362 29.624l-0.324-0.115 0.554-1.559 0.324 0.115-0.554 1.559zM11.117 29.792c0.050 0.018 0.086 0.049 0.107 0.093s0.024 0.090 0.007 0.139c-0.017 0.048-0.048 0.082-0.093 0.102-0.045 0.022-0.092 0.024-0.141 0.006-0.048-0.017-0.082-0.048-0.104-0.093-0.022-0.044-0.024-0.090-0.007-0.138s0.048-0.083 0.093-0.104c0.044-0.021 0.089-0.023 0.137-0.006z"></path>
<path fill="#fff" style="fill: var(--color1, #fff)" d="M9.986 27.188c0.074 0.046 0.14 0.102 0.199 0.168s0.103 0.136 0.134 0.21c0.030 0.075 0.041 0.15 0.035 0.226l-0.317-0.029c0.002-0.033-0.006-0.071-0.024-0.113s-0.044-0.084-0.078-0.123c-0.034-0.039-0.075-0.071-0.121-0.096s-0.091-0.041-0.137-0.050c-0.047-0.008-0.091-0.005-0.131 0.008s-0.070 0.039-0.091 0.077c-0.023 0.043-0.026 0.084-0.010 0.123 0.015 0.040 0.040 0.077 0.076 0.113s0.072 0.071 0.108 0.106c0.083 0.073 0.155 0.149 0.214 0.229 0.058 0.080 0.094 0.162 0.109 0.246s-0.002 0.169-0.048 0.255c-0.050 0.093-0.119 0.16-0.207 0.2s-0.182 0.059-0.284 0.051c-0.102-0.008-0.2-0.037-0.293-0.088-0.116-0.063-0.21-0.146-0.28-0.248s-0.107-0.21-0.112-0.324l0.317-0.012c-0.001 0.037 0.006 0.075 0.023 0.114s0.039 0.075 0.069 0.109c0.029 0.035 0.063 0.064 0.101 0.087 0.048 0.029 0.098 0.048 0.148 0.058 0.049 0.010 0.093 0.008 0.133-0.007s0.073-0.043 0.096-0.087c0.023-0.043 0.025-0.083 0.007-0.12s-0.048-0.074-0.087-0.111c-0.040-0.038-0.080-0.078-0.12-0.119-0.072-0.074-0.134-0.151-0.188-0.232s-0.090-0.161-0.105-0.243 0-0.164 0.047-0.246c0.049-0.091 0.12-0.156 0.213-0.195s0.191-0.053 0.297-0.042 0.207 0.047 0.302 0.106z"></path>
<path fill="#fff" style="fill: var(--color1, #fff)" d="M7.258 25.902l-0.129-0.325c0.125-0.032 0.252-0.036 0.381-0.010s0.244 0.081 0.348 0.167c0.117 0.097 0.199 0.217 0.245 0.357s0.055 0.284 0.029 0.433c-0.028 0.149-0.093 0.285-0.196 0.408-0.078 0.093-0.167 0.166-0.267 0.219s-0.205 0.087-0.314 0.1c-0.11 0.013-0.218 0.005-0.324-0.025s-0.203-0.081-0.29-0.153c-0.103-0.086-0.179-0.19-0.227-0.312s-0.068-0.248-0.058-0.378l0.343 0.069c0 0.072 0.015 0.139 0.044 0.2s0.067 0.114 0.117 0.156c0.069 0.058 0.148 0.091 0.237 0.101 0.087 0.009 0.173-0.003 0.257-0.037 0.083-0.034 0.155-0.088 0.216-0.16s0.099-0.153 0.118-0.242c0.018-0.089 0.014-0.175-0.011-0.259s-0.073-0.155-0.141-0.213c-0.053-0.044-0.112-0.074-0.18-0.089s-0.134-0.018-0.199-0.007z"></path>
<path fill="#fff" style="fill: var(--color1, #fff)" d="M5.974 23.789c0.093 0.121 0.147 0.255 0.161 0.402s-0.008 0.29-0.066 0.429c-0.060 0.139-0.153 0.258-0.28 0.355-0.096 0.074-0.199 0.126-0.308 0.156s-0.219 0.040-0.328 0.029c-0.11-0.011-0.214-0.043-0.311-0.095s-0.18-0.123-0.25-0.213c-0.093-0.121-0.146-0.254-0.16-0.401s0.008-0.291 0.068-0.43c0.059-0.14 0.152-0.259 0.28-0.358 0.095-0.073 0.197-0.125 0.307-0.155s0.219-0.039 0.329-0.028c0.109 0.011 0.212 0.042 0.309 0.094s0.18 0.122 0.25 0.213zM5.702 23.999c-0.056-0.073-0.125-0.123-0.208-0.151s-0.169-0.034-0.257-0.019c-0.090 0.015-0.172 0.051-0.246 0.108-0.076 0.059-0.132 0.13-0.169 0.214s-0.053 0.168-0.046 0.255c0.006 0.087 0.036 0.166 0.091 0.237s0.125 0.122 0.208 0.151c0.083 0.028 0.169 0.035 0.259 0.019s0.172-0.053 0.247-0.111c0.078-0.060 0.135-0.132 0.171-0.215s0.051-0.168 0.044-0.255c-0.008-0.087-0.039-0.165-0.092-0.234z"></path>
<path fill="#fff" style="fill: var(--color1, #fff)" d="M4.333 21.145l0.187 0.4-1.246 1.249-0.155-0.333 0.949-0.947-1.336 0.119-0.155-0.331 1.757-0.156z"></path>
<path fill="#fff" style="fill: var(--color1, #fff)" d="M3.584 18.764c0.033 0.149 0.025 0.293-0.025 0.432-0.049 0.139-0.13 0.259-0.242 0.36-0.113 0.101-0.248 0.168-0.404 0.203-0.118 0.026-0.233 0.030-0.345 0.010-0.113-0.019-0.216-0.057-0.31-0.113-0.095-0.057-0.176-0.129-0.241-0.218s-0.111-0.188-0.136-0.299c-0.027-0.124-0.027-0.243 0.002-0.358 0.028-0.115 0.079-0.218 0.153-0.312 0.073-0.093 0.165-0.17 0.274-0.23 0.109-0.060 0.23-0.098 0.365-0.113l0.276 1.245c0.071-0.030 0.132-0.072 0.184-0.125 0.050-0.054 0.086-0.116 0.106-0.186 0.020-0.071 0.022-0.146 0.006-0.223-0.018-0.082-0.055-0.152-0.111-0.209-0.056-0.059-0.125-0.102-0.206-0.129l0.004-0.358c0.158 0.033 0.296 0.104 0.417 0.214 0.119 0.11 0.197 0.246 0.233 0.408zM2.698 19.442l-0.203-0.917c-0.075 0.028-0.139 0.071-0.192 0.129-0.054 0.057-0.092 0.123-0.114 0.196-0.023 0.073-0.026 0.148-0.009 0.226 0.017 0.076 0.051 0.143 0.102 0.201 0.051 0.056 0.113 0.099 0.186 0.128 0.072 0.028 0.148 0.041 0.23 0.037z"></path>
<path fill="#fff" style="fill: var(--color1, #fff)" d="M3.232 16.616l-1.654 0.033-0.007-0.344 0.175-0.004c-0.069-0.056-0.125-0.125-0.166-0.208s-0.063-0.173-0.065-0.27c-0.001-0.062 0.006-0.123 0.021-0.184l0.35 0.13c-0.016 0.043-0.023 0.086-0.022 0.13 0.001 0.073 0.021 0.139 0.059 0.199 0.036 0.060 0.085 0.107 0.147 0.143s0.129 0.052 0.203 0.050l0.953-0.019 0.007 0.344z"></path>
<path fill="#fff" style="fill: var(--color1, #fff)" d="M1.869 10.567l0.13-0.384 0.95 1.156 0.99 0.335-0.11 0.326-0.99-0.335-1.456 0.34 0.13-0.384 1.026-0.24-0.669-0.815z"></path>
<path fill="#fff" style="fill: var(--color1, #fff)" d="M5.171 9.192c-0.081 0.129-0.188 0.226-0.321 0.291s-0.274 0.093-0.425 0.087c-0.151-0.008-0.295-0.054-0.43-0.139-0.103-0.064-0.187-0.143-0.253-0.235s-0.114-0.192-0.142-0.298c-0.028-0.107-0.034-0.215-0.019-0.324s0.053-0.212 0.113-0.308c0.081-0.129 0.187-0.226 0.32-0.29s0.275-0.094 0.427-0.086c0.152 0.007 0.296 0.053 0.433 0.138 0.102 0.064 0.186 0.142 0.252 0.234s0.113 0.192 0.141 0.299c0.027 0.106 0.034 0.213 0.019 0.322s-0.052 0.211-0.113 0.308zM4.879 9.009c0.049-0.078 0.072-0.16 0.069-0.248s-0.026-0.17-0.071-0.248c-0.045-0.079-0.108-0.144-0.187-0.193-0.081-0.051-0.168-0.079-0.259-0.084s-0.176 0.009-0.255 0.045c-0.080 0.036-0.143 0.092-0.191 0.167s-0.071 0.159-0.069 0.248c0.002 0.087 0.026 0.171 0.072 0.25s0.109 0.143 0.19 0.193c0.083 0.052 0.17 0.081 0.261 0.085s0.176-0.011 0.254-0.048c0.078-0.038 0.141-0.094 0.187-0.168z"></path>
<path fill="#fff" style="fill: var(--color1, #fff)" d="M5.927 7.019l-0.736-0.726 0.242-0.245 0.676 0.667c0.053 0.052 0.113 0.086 0.182 0.103s0.137 0.016 0.206-0.001c0.068-0.018 0.127-0.053 0.178-0.105s0.086-0.112 0.103-0.18c0.017-0.069 0.016-0.137-0.003-0.205s-0.053-0.129-0.105-0.181l-0.676-0.667 0.242-0.245 1.179 1.161-0.242 0.245-0.128-0.124c0.009 0.088-0.002 0.176-0.032 0.263s-0.080 0.165-0.147 0.234c-0.086 0.087-0.185 0.145-0.298 0.175s-0.226 0.030-0.339 0.002c-0.113-0.028-0.213-0.085-0.301-0.171z"></path>
<path fill="#fff" style="fill: var(--color1, #fff)" d="M8.432 5.577l-0.935-1.364 0.284-0.195 0.099 0.145c0.009-0.089 0.036-0.173 0.083-0.253s0.11-0.148 0.19-0.203c0.051-0.035 0.106-0.063 0.165-0.083l0.083 0.364c-0.045 0.011-0.085 0.028-0.12 0.053-0.060 0.041-0.105 0.094-0.134 0.158s-0.043 0.13-0.039 0.201 0.027 0.136 0.069 0.197l0.539 0.786-0.284 0.195z"></path>
<path fill="#fff" style="fill: var(--color1, #fff)" d="M11.947 3.711l-0.567-2.245 0.743-0.188c0.155-0.039 0.308-0.046 0.459-0.022 0.15 0.023 0.29 0.074 0.419 0.152 0.129 0.077 0.239 0.176 0.331 0.297 0.093 0.12 0.159 0.257 0.198 0.412s0.046 0.308 0.022 0.459c-0.024 0.149-0.074 0.289-0.15 0.418-0.077 0.129-0.176 0.239-0.296 0.333-0.121 0.092-0.259 0.158-0.414 0.197l-0.743 0.188zM12.197 3.293l0.409-0.103c0.109-0.028 0.206-0.074 0.289-0.138 0.085-0.065 0.155-0.143 0.209-0.234 0.055-0.091 0.091-0.19 0.108-0.295s0.011-0.213-0.016-0.322c-0.028-0.109-0.074-0.206-0.138-0.291s-0.143-0.154-0.235-0.208c-0.091-0.054-0.189-0.090-0.295-0.106-0.104-0.017-0.211-0.012-0.32 0.016l-0.409 0.103 0.399 1.578z"></path>
<path fill="#fff" style="fill: var(--color1, #fff)" d="M15.16 3.099l-0.058-1.653 0.344-0.012 0.006 0.175c0.055-0.070 0.123-0.127 0.206-0.169s0.172-0.066 0.269-0.069c0.062-0.002 0.123 0.004 0.184 0.018l-0.125 0.352c-0.044-0.015-0.087-0.022-0.13-0.020-0.073 0.003-0.139 0.023-0.198 0.062-0.059 0.037-0.106 0.087-0.14 0.149s-0.050 0.13-0.047 0.204l0.034 0.952-0.344 0.012z"></path>
<path fill="#fff" style="fill: var(--color1, #fff)" d="M18.046 3.274c-0.15-0.025-0.281-0.086-0.392-0.183-0.11-0.097-0.192-0.217-0.245-0.359-0.052-0.143-0.064-0.293-0.038-0.451 0.020-0.12 0.059-0.228 0.119-0.324 0.060-0.097 0.133-0.179 0.22-0.246 0.088-0.067 0.185-0.115 0.292-0.143s0.216-0.033 0.328-0.015c0.125 0.021 0.236 0.066 0.332 0.135 0.096 0.068 0.174 0.154 0.233 0.258 0.059 0.102 0.096 0.216 0.112 0.34 0.016 0.123 0.005 0.25-0.031 0.381l-1.259-0.207c0.002 0.077 0.018 0.15 0.048 0.217 0.032 0.067 0.076 0.123 0.133 0.168 0.058 0.045 0.127 0.075 0.205 0.089 0.083 0.014 0.161 0.005 0.235-0.025 0.075-0.030 0.141-0.078 0.196-0.144l0.331 0.136c-0.089 0.134-0.207 0.236-0.354 0.307-0.147 0.070-0.302 0.091-0.465 0.065zM17.746 2.199l0.927 0.152c0.002-0.080-0.014-0.155-0.048-0.226-0.033-0.071-0.080-0.131-0.14-0.179-0.059-0.049-0.128-0.080-0.206-0.093-0.077-0.013-0.152-0.006-0.225 0.020-0.071 0.026-0.134 0.068-0.188 0.125-0.053 0.056-0.093 0.123-0.12 0.2z"></path>
<path fill="#fff" style="fill: var(--color1, #fff)" d="M21.992 2.683l0.318 0.13-0.627 1.531-0.32-0.131 0.079-0.227c-0.077 0.060-0.164 0.099-0.26 0.115s-0.196 0.004-0.3-0.039c-0.112-0.046-0.209-0.11-0.291-0.193-0.081-0.083-0.144-0.178-0.189-0.285-0.044-0.106-0.066-0.217-0.068-0.332-0.001-0.116 0.021-0.231 0.068-0.344 0.045-0.109 0.107-0.203 0.187-0.283 0.081-0.080 0.172-0.142 0.274-0.184s0.209-0.065 0.321-0.067c0.113-0.003 0.224 0.019 0.333 0.063 0.111 0.046 0.199 0.111 0.263 0.197 0.065 0.085 0.11 0.178 0.134 0.28l0.079-0.232zM21 3.752c0.090 0.037 0.177 0.047 0.263 0.031s0.162-0.056 0.23-0.117c0.069-0.060 0.122-0.136 0.16-0.228 0.038-0.093 0.054-0.185 0.047-0.276s-0.035-0.172-0.084-0.244c-0.048-0.072-0.117-0.127-0.207-0.163s-0.179-0.047-0.271-0.032-0.175 0.051-0.249 0.109c-0.074 0.058-0.13 0.133-0.167 0.225-0.038 0.093-0.051 0.186-0.038 0.28 0.014 0.093 0.049 0.177 0.103 0.251 0.055 0.074 0.127 0.129 0.213 0.164z"></path>
<path fill="#fff" style="fill: var(--color1, #fff)" d="M22.82 4.927l1.002-1.316 0.274 0.208-0.106 0.14c0.087-0.020 0.175-0.020 0.265-0.002s0.175 0.058 0.252 0.117c0.094 0.071 0.163 0.16 0.207 0.266s0.062 0.212 0.052 0.322c0.103-0.039 0.211-0.052 0.322-0.038 0.113 0.014 0.216 0.056 0.31 0.128 0.097 0.074 0.168 0.165 0.212 0.273s0.059 0.22 0.046 0.336c-0.013 0.116-0.057 0.223-0.131 0.32l-0.628 0.825-0.274-0.208 0.575-0.756c0.044-0.058 0.070-0.122 0.079-0.191s0.001-0.137-0.024-0.203c-0.025-0.066-0.066-0.121-0.124-0.165s-0.121-0.070-0.19-0.078c-0.069-0.008-0.136 0.002-0.2 0.028s-0.121 0.071-0.167 0.133l-0.575 0.756-0.274-0.208 0.575-0.756c0.047-0.061 0.074-0.127 0.083-0.197s-0-0.137-0.027-0.202c-0.026-0.064-0.068-0.118-0.126-0.162s-0.121-0.069-0.192-0.075c-0.070-0.006-0.138 0.004-0.202 0.031s-0.119 0.069-0.163 0.127l-0.575 0.756-0.274-0.208z"></path>
<path fill="#fff" style="fill: var(--color1, #fff)" d="M26.81 8.863l2.005-1.159 0.399 0.69c0.062 0.108 0.092 0.221 0.089 0.338s-0.034 0.23-0.095 0.334c-0.060 0.105-0.145 0.189-0.255 0.253-0.112 0.065-0.228 0.096-0.35 0.095-0.12-0.001-0.232-0.029-0.337-0.086s-0.187-0.138-0.247-0.243l-0.227-0.392-0.809 0.468-0.172-0.298zM28.089 8.52l0.21 0.362c0.033 0.057 0.078 0.101 0.133 0.131s0.116 0.047 0.18 0.047c0.064 0.001 0.127-0.016 0.187-0.051s0.106-0.080 0.137-0.137c0.033-0.056 0.049-0.116 0.049-0.179 0.002-0.063-0.014-0.124-0.047-0.181l-0.21-0.362-0.639 0.369z"></path>
<path fill="#fff" style="fill: var(--color1, #fff)" d="M28.043 11.291l1.563-0.541 0.113 0.325-0.166 0.057c0.083 0.032 0.158 0.081 0.223 0.147s0.113 0.145 0.145 0.237c0.020 0.058 0.033 0.119 0.037 0.182l-0.373-0.016c0.002-0.046-0.005-0.089-0.019-0.13-0.024-0.069-0.063-0.126-0.117-0.171-0.053-0.046-0.114-0.076-0.184-0.090s-0.139-0.010-0.209 0.014l-0.9 0.312-0.113-0.325z"></path>
<path fill="#fff" style="fill: var(--color1, #fff)" d="M28.724 14.102c-0.021-0.151-0.001-0.294 0.060-0.429 0.061-0.134 0.151-0.247 0.271-0.339 0.121-0.091 0.261-0.147 0.419-0.169 0.12-0.016 0.235-0.010 0.345 0.018s0.21 0.074 0.299 0.138c0.090 0.065 0.164 0.143 0.223 0.237s0.095 0.196 0.111 0.309c0.020 0.151 0 0.293-0.060 0.427-0.061 0.135-0.151 0.248-0.273 0.339-0.121 0.092-0.261 0.149-0.421 0.171-0.119 0.016-0.233 0.010-0.343-0.018s-0.209-0.075-0.299-0.139c-0.089-0.064-0.162-0.142-0.221-0.235-0.058-0.092-0.095-0.195-0.111-0.309zM29.065 14.055c0.012 0.091 0.047 0.169 0.105 0.234s0.129 0.114 0.213 0.145c0.086 0.032 0.175 0.041 0.268 0.029 0.095-0.013 0.18-0.047 0.253-0.101 0.074-0.053 0.129-0.119 0.167-0.198 0.038-0.079 0.051-0.162 0.039-0.251-0.012-0.090-0.048-0.168-0.106-0.234-0.058-0.066-0.13-0.114-0.215-0.146-0.085-0.031-0.175-0.040-0.269-0.027-0.097 0.013-0.182 0.047-0.255 0.102s-0.128 0.121-0.165 0.199c-0.036 0.079-0.048 0.162-0.036 0.249z"></path>
<path fill="#fff" style="fill: var(--color1, #fff)" d="M28.061 16.536l0.031-0.343 2.471 0.225-0.031 0.343-0.242-0.022c0.080 0.063 0.142 0.139 0.187 0.23s0.062 0.194 0.051 0.31c-0.011 0.12-0.044 0.23-0.098 0.33-0.055 0.101-0.126 0.188-0.213 0.26s-0.184 0.126-0.292 0.161c-0.108 0.036-0.223 0.048-0.342 0.037s-0.23-0.044-0.332-0.098c-0.101-0.055-0.189-0.125-0.261-0.212-0.072-0.086-0.126-0.184-0.161-0.294-0.036-0.108-0.048-0.223-0.037-0.342 0.011-0.116 0.046-0.215 0.107-0.296 0.062-0.081 0.137-0.145 0.225-0.192l-1.063-0.097zM30.198 17.246c0.009-0.096-0.008-0.182-0.050-0.259s-0.101-0.139-0.179-0.187c-0.077-0.048-0.164-0.076-0.263-0.085s-0.191 0.003-0.276 0.036c-0.085 0.033-0.155 0.084-0.21 0.152s-0.087 0.15-0.095 0.245c-0.009 0.094 0.007 0.183 0.047 0.267 0.041 0.083 0.1 0.153 0.177 0.207s0.165 0.087 0.265 0.096c0.098 0.009 0.189-0.007 0.275-0.046 0.085-0.039 0.156-0.095 0.212-0.17s0.088-0.16 0.096-0.255z"></path>
<path fill="#fff" style="fill: var(--color1, #fff)" d="M28.241 19.822c0.047-0.145 0.128-0.264 0.242-0.359 0.113-0.094 0.244-0.156 0.392-0.186 0.149-0.029 0.299-0.018 0.451 0.031 0.115 0.038 0.216 0.093 0.302 0.167 0.087 0.074 0.157 0.159 0.209 0.255 0.053 0.097 0.085 0.201 0.097 0.31s-0 0.218-0.036 0.326c-0.040 0.121-0.101 0.223-0.184 0.307-0.082 0.084-0.179 0.148-0.29 0.19-0.11 0.043-0.228 0.062-0.353 0.058-0.124-0.004-0.248-0.033-0.371-0.089l0.398-1.212c-0.077-0.010-0.151-0.005-0.222 0.014-0.071 0.021-0.133 0.056-0.186 0.106-0.054 0.051-0.094 0.114-0.119 0.189-0.026 0.080-0.030 0.158-0.011 0.236 0.018 0.079 0.055 0.151 0.112 0.216l-0.186 0.306c-0.119-0.109-0.202-0.241-0.249-0.397-0.046-0.156-0.044-0.312 0.008-0.469zM29.349 19.691l-0.293 0.893c0.079 0.014 0.156 0.010 0.231-0.013 0.076-0.022 0.142-0.059 0.198-0.111 0.057-0.051 0.098-0.114 0.123-0.189 0.024-0.074 0.029-0.149 0.015-0.225-0.015-0.075-0.047-0.143-0.095-0.205-0.047-0.061-0.107-0.111-0.179-0.149z"></path>
<path fill="#fff" style="fill: var(--color1, #fff)" d="M27.449 21.85l1.44 0.815-0.169 0.299-0.153-0.086c0.031 0.084 0.044 0.172 0.037 0.264s-0.034 0.181-0.082 0.265c-0.030 0.054-0.068 0.103-0.112 0.148l-0.235-0.291c0.036-0.029 0.064-0.063 0.085-0.1 0.036-0.063 0.053-0.13 0.051-0.201s-0.019-0.136-0.054-0.198-0.084-0.11-0.149-0.147l-0.829-0.469 0.169-0.299z"></path>
<path fill="#fff" style="fill: var(--color1, #fff)" d="M26.745 25.193l0.22-0.269-1.014-0.83 0.218-0.267 1.014 0.83 0.166-0.204 0.267 0.218-0.166 0.204 0.403 0.327-0.218 0.267-0.403-0.327-0.22 0.269-0.267-0.218z"></path>
<path fill="#fff" style="fill: var(--color1, #fff)" d="M25.022 27.307l-0.282 0.235-0.893-2.486 0.281-0.234 0.3 0.827 1.516 0.89-0.288 0.241-1.057-0.658 0.425 1.186z"></path>
</symbol>
</defs>
</svg>
