<svg aria-hidden="true" style="position: absolute; width: 0; height: 0; overflow: hidden;" version="1.1" xmlns="http://www.w3.org/2000/svg" xmlns:xlink="http://www.w3.org/1999/xlink">
<defs>
<symbol id="icon-text" viewBox="0 0 32 32">
<path fill="#FEE03C" style="fill: var(--color1, #FEE03C)" d="M17.126 28.095l0.011 0.080c0.069 0.599-0.053 1.021-0.053 1.021-0.15 0.482-1.101 0.636-1.101 0.636 0.127-0.018 0.26-0.026 0.388-0.039 0.123-0.007 0.251-0.020 0.381-0.013 0.114 0.005 0.228 0.035 0.324 0.098 0.080 0.055 0.138 0.134 0.176 0.221 0.045 0.096 0.070 0.205 0.105 0.307 0.056 0.177 0.101 0.349 0.146 0.527 0.021 0.079 0.038 0.158 0.059 0.237 0 0-0.051-1.103 0.024-1.303 0 0 0.084-0.283 1.039-0.417 0 0-0.897 0.1-1.139-0.301 0 0-0.283-0.543-0.354-1.045z"></path>
<path fill="#FEE03C" style="fill: var(--color1, #FEE03C)" d="M18.107 27.774l0.006 0.040c0.036 0.292-0.024 0.495-0.024 0.495-0.071 0.235-0.536 0.31-0.536 0.31 0.061-0.008 0.128-0.013 0.189-0.016s0.123-0.007 0.185-0.005c0 0 0 0 0.001 0 0.059 0 0.113 0.019 0.157 0.050l-0.001-0.001c0.040 0.025 0.067 0.067 0.082 0.106 0.022 0.048 0.034 0.097 0.051 0.146 0.027 0.083 0.050 0.172 0.072 0.256 0.011 0.040 0.021 0.074 0.026 0.114 0 0-0.023-0.534 0.010-0.631 0 0 0.044-0.134 0.505-0.199 0 0-0.434 0.046-0.554-0.147 0 0-0.135-0.263-0.17-0.508zM18.833 29.404l0.006 0.040c0.036 0.292-0.024 0.494-0.024 0.494-0.071 0.235-0.536 0.31-0.536 0.31 0.052-0.007 0.118-0.013 0.184-0.016l0.005-0c0.062-0.003 0.123-0.007 0.186-0.005 0 0 0 0 0.001 0 0.059 0 0.113 0.019 0.157 0.050l-0.001-0.001c0.040 0.025 0.066 0.068 0.082 0.106 0.022 0.048 0.034 0.098 0.051 0.146 0.027 0.083 0.050 0.172 0.072 0.256 0.011 0.040 0.020 0.074 0.026 0.114 0 0-0.023-0.534 0.010-0.631 0 0 0.043-0.134 0.505-0.199 0 0-0.433 0.045-0.554-0.148 0 0-0.135-0.262-0.17-0.508z"></path>
<path d="M14.949 28.394l-0.348 2.291-0.758-0.115c-0.162-0.024-0.308-0.079-0.436-0.16l0.005 0.003c-0.13-0.080-0.239-0.181-0.325-0.299l-0.002-0.003c-0.085-0.114-0.15-0.249-0.188-0.394l-0.002-0.008c-0.023-0.085-0.037-0.182-0.037-0.282 0-0.062 0.005-0.122 0.015-0.181l-0.001 0.006c0.024-0.158 0.077-0.302 0.158-0.431 0.080-0.129 0.18-0.238 0.301-0.328 0.188-0.142 0.425-0.227 0.682-0.227 0.063 0 0.125 0.005 0.186 0.015l-0.007-0.001 0.757 0.115zM14.557 28.683l-0.417-0.063c-0.037-0.006-0.081-0.010-0.125-0.010-0.070 0-0.137 0.009-0.201 0.026l0.005-0.001c-0.103 0.027-0.198 0.072-0.283 0.135-0.172 0.125-0.291 0.313-0.323 0.529l-0.001 0.004c-0.006 0.038-0.010 0.081-0.010 0.126 0 0.181 0.060 0.348 0.162 0.482l-0.001-0.002c0.063 0.085 0.14 0.156 0.231 0.212 0.089 0.056 0.19 0.092 0.301 0.11l0.417 0.063 0.244-1.61zM11.251 29.278l-0.324-0.115 0.554-1.559 0.325 0.115-0.555 1.559zM11.005 29.446c0.050 0.018 0.086 0.049 0.108 0.093 0.012 0.023 0.018 0.049 0.018 0.077 0 0.022-0.004 0.044-0.012 0.064l0-0.001c-0.015 0.046-0.049 0.082-0.091 0.102l-0.001 0c-0.023 0.011-0.049 0.018-0.078 0.018-0.023 0-0.044-0.004-0.064-0.012l0.001 0c-0.046-0.016-0.083-0.049-0.103-0.092l-0-0.001c-0.012-0.022-0.018-0.049-0.018-0.077 0-0.022 0.004-0.043 0.012-0.062l-0 0.001c0.015-0.047 0.049-0.083 0.092-0.103l0.001-0c0.022-0.011 0.048-0.017 0.075-0.017 0.022 0 0.043 0.004 0.063 0.012l-0.001-0zM9.917 26.861c0.074 0.047 0.14 0.102 0.199 0.168s0.103 0.136 0.134 0.21c0.030 0.075 0.042 0.15 0.035 0.226l-0.317-0.029c0-0.001 0-0.002 0-0.003 0-0.040-0.009-0.078-0.024-0.112l0.001 0.002c-0.040-0.095-0.11-0.171-0.197-0.218l-0.002-0.001c-0.039-0.022-0.085-0.039-0.134-0.049l-0.003-0c-0.015-0.003-0.032-0.005-0.050-0.005-0.029 0-0.057 0.005-0.083 0.013l0.002-0.001c-0.040 0.013-0.072 0.041-0.090 0.076l-0 0.001c-0.013 0.020-0.020 0.045-0.020 0.071 0 0.019 0.004 0.036 0.010 0.052l-0-0.001c0.015 0.040 0.040 0.077 0.076 0.113s0.072 0.071 0.109 0.106c0.083 0.073 0.155 0.149 0.214 0.229 0.058 0.081 0.094 0.163 0.11 0.246s-0.002 0.169-0.048 0.255c-0.046 0.088-0.117 0.157-0.204 0.199l-0.003 0.001c-0.070 0.033-0.151 0.053-0.238 0.053-0.016 0-0.032-0.001-0.048-0.002l0.002 0c-0.109-0.009-0.209-0.040-0.297-0.089l0.004 0.002c-0.113-0.061-0.207-0.144-0.278-0.245l-0.002-0.003c-0.065-0.091-0.106-0.202-0.112-0.323l-0-0.001 0.317-0.012c-0 0.001-0 0.003-0 0.005 0 0.040 0.009 0.077 0.024 0.111l-0.001-0.002c0.017 0.039 0.039 0.075 0.069 0.109s0.063 0.064 0.102 0.087c0.049 0.029 0.098 0.048 0.148 0.057 0.049 0.010 0.093 0.008 0.133-0.007 0.042-0.016 0.076-0.047 0.096-0.086l0-0.001c0.023-0.043 0.025-0.083 0.007-0.12-0.024-0.043-0.052-0.080-0.086-0.111l-0-0c-0.041-0.039-0.080-0.078-0.119-0.118l-0.001-0.001c-0.068-0.070-0.13-0.145-0.185-0.226l-0.004-0.006c-0.050-0.069-0.086-0.151-0.105-0.239l-0.001-0.004c-0.015-0.082 0-0.164 0.047-0.246 0.050-0.091 0.12-0.156 0.213-0.195s0.191-0.053 0.298-0.042c0.107 0.012 0.207 0.047 0.302 0.106zM7.239 25.608l-0.129-0.326c0.064-0.017 0.136-0.027 0.212-0.027 0.060 0 0.118 0.006 0.175 0.018l-0.005-0.001c0.128 0.025 0.244 0.081 0.348 0.167 0.117 0.098 0.199 0.217 0.245 0.357s0.055 0.285 0.029 0.433c-0.031 0.158-0.1 0.296-0.197 0.409l0.001-0.001c-0.073 0.089-0.162 0.163-0.263 0.217l-0.005 0.002c-0.091 0.050-0.197 0.085-0.309 0.099l-0.004 0c-0.11 0.013-0.218 0.005-0.324-0.025-0.112-0.032-0.209-0.085-0.291-0.154l0.001 0.001c-0.099-0.082-0.177-0.187-0.225-0.307l-0.002-0.005c-0.038-0.092-0.060-0.199-0.060-0.311 0-0.023 0.001-0.047 0.003-0.069l-0 0.003 0.343 0.069c0 0.072 0.015 0.139 0.044 0.201s0.068 0.114 0.117 0.156c0.069 0.058 0.148 0.092 0.237 0.101 0.087 0.009 0.173-0.003 0.257-0.038 0.083-0.034 0.155-0.087 0.216-0.16s0.1-0.153 0.118-0.242c0.018-0.089 0.014-0.175-0.011-0.259-0.026-0.086-0.076-0.158-0.141-0.212l-0.001-0.001c-0.050-0.042-0.11-0.073-0.177-0.089l-0.003-0.001c-0.035-0.009-0.075-0.014-0.116-0.014-0.030 0-0.059 0.003-0.087 0.008l0.003-0zM6 23.542c0.093 0.121 0.147 0.255 0.162 0.402 0.014 0.146-0.008 0.289-0.066 0.429-0.063 0.144-0.159 0.264-0.278 0.354l-0.002 0.002c-0.087 0.069-0.19 0.122-0.302 0.154l-0.006 0.002c-0.072 0.021-0.156 0.034-0.242 0.034-0.031 0-0.061-0.002-0.090-0.005l0.004 0c-0.116-0.012-0.221-0.045-0.315-0.097l0.004 0.002c-0.099-0.054-0.183-0.125-0.248-0.211l-0.001-0.002c-0.087-0.11-0.145-0.248-0.16-0.398l-0-0.003c-0.003-0.026-0.004-0.056-0.004-0.086 0-0.125 0.027-0.243 0.074-0.35l-0.002 0.005c0.063-0.145 0.158-0.265 0.278-0.356l0.002-0.002c0.095-0.074 0.197-0.125 0.307-0.155s0.219-0.039 0.329-0.028c0.109 0.011 0.212 0.042 0.309 0.094 0.096 0.051 0.18 0.122 0.25 0.213zM5.728 23.752c-0.056-0.073-0.125-0.123-0.208-0.151-0.050-0.017-0.108-0.026-0.168-0.026-0.127 0-0.244 0.043-0.337 0.116l0.001-0.001c-0.076 0.059-0.133 0.13-0.17 0.214-0.038 0.083-0.053 0.168-0.046 0.255 0.006 0.090 0.039 0.172 0.092 0.238l-0.001-0.001c0.055 0.072 0.125 0.122 0.208 0.151s0.17 0.035 0.259 0.020c0.089-0.017 0.172-0.053 0.247-0.111 0.132-0.099 0.216-0.256 0.216-0.431 0-0.014-0-0.027-0.002-0.041l0 0.002c-0.008-0.089-0.042-0.169-0.093-0.235l0.001 0.001zM4.393 20.954l0.187 0.4-1.247 1.25-0.155-0.333 0.949-0.947-1.336 0.119-0.155-0.332 1.757-0.156zM3.666 18.636c0.033 0.148 0.025 0.293-0.025 0.432s-0.13 0.259-0.242 0.361c-0.111 0.098-0.247 0.169-0.398 0.202l-0.006 0.001c-0.119 0.026-0.234 0.030-0.345 0.011-0.117-0.019-0.221-0.059-0.314-0.115l0.004 0.002c-0.095-0.058-0.176-0.13-0.24-0.216l-0.002-0.002c-0.066-0.088-0.111-0.188-0.136-0.299-0.013-0.053-0.020-0.113-0.020-0.175 0-0.065 0.008-0.128 0.023-0.188l-0.001 0.005c0.028-0.115 0.079-0.219 0.153-0.312s0.165-0.17 0.274-0.23c0.109-0.060 0.23-0.098 0.365-0.113l0.276 1.246c0.071-0.031 0.132-0.073 0.184-0.125 0.048-0.051 0.084-0.114 0.105-0.183l0.001-0.003c0.020-0.071 0.023-0.145 0.007-0.223-0.018-0.082-0.057-0.153-0.111-0.21l0 0c-0.056-0.058-0.125-0.102-0.203-0.128l-0.003-0.001 0.003-0.359c0.158 0.033 0.297 0.104 0.417 0.214s0.197 0.246 0.233 0.408zM2.779 19.314l-0.203-0.917c-0.076 0.028-0.14 0.072-0.192 0.128l-0 0c-0.051 0.054-0.091 0.12-0.113 0.193l-0.001 0.003c-0.023 0.073-0.026 0.148-0.010 0.226s0.051 0.144 0.102 0.201c0.051 0.057 0.113 0.099 0.186 0.128s0.148 0.041 0.23 0.037zM3.321 16.547l-1.655 0.033-0.007-0.344 0.175-0.003c-0.14-0.114-0.229-0.286-0.232-0.478v-0c-0-0.004-0-0.008-0-0.013 0-0.061 0.008-0.12 0.023-0.177l-0.001 0.005 0.35 0.13c-0.016 0.044-0.023 0.087-0.022 0.13 0.001 0.073 0.021 0.139 0.058 0.199 0.037 0.060 0.086 0.108 0.147 0.142s0.129 0.052 0.203 0.051l0.953-0.019 0.007 0.344zM1.941 10.6l0.13-0.384 0.95 1.157 0.991 0.335-0.111 0.326-0.991-0.335-1.457 0.34 0.13-0.384 1.026-0.24-0.669-0.815zM5.214 9.288c-0.081 0.129-0.188 0.226-0.321 0.291-0.112 0.056-0.244 0.088-0.384 0.088-0.015 0-0.029-0-0.044-0.001l0.002 0c-0.161-0.009-0.308-0.059-0.434-0.141l0.003 0.002c-0.1-0.062-0.185-0.141-0.252-0.232l-0.002-0.002c-0.063-0.085-0.111-0.184-0.14-0.291l-0.001-0.006c-0.017-0.063-0.027-0.136-0.027-0.211 0-0.040 0.003-0.079 0.008-0.118l-0.001 0.004c0.015-0.109 0.053-0.212 0.113-0.308 0.077-0.125 0.186-0.224 0.315-0.288l0.005-0.002c0.11-0.055 0.24-0.088 0.378-0.088 0.017 0 0.034 0 0.051 0.002l-0.002-0c0.152 0.007 0.297 0.053 0.433 0.139 0.102 0.064 0.186 0.142 0.252 0.234s0.113 0.192 0.141 0.299c0.028 0.106 0.034 0.213 0.019 0.322-0.016 0.116-0.056 0.22-0.115 0.311l0.002-0.003zM4.922 9.105c0.048-0.078 0.072-0.16 0.069-0.247-0.008-0.186-0.109-0.348-0.256-0.44l-0.002-0.001c-0.074-0.048-0.163-0.078-0.258-0.084l-0.002-0c-0.012-0.001-0.027-0.002-0.041-0.002-0.078 0-0.151 0.017-0.217 0.048l0.003-0.001c-0.080 0.036-0.145 0.094-0.19 0.166l-0.001 0.002c-0.044 0.067-0.069 0.149-0.069 0.237 0 0.004 0 0.007 0 0.011v-0.001c0.003 0.088 0.026 0.171 0.072 0.25s0.109 0.143 0.19 0.193c0.083 0.054 0.184 0.086 0.292 0.086 0.081 0 0.157-0.018 0.226-0.050l-0.003 0.001c0.079-0.038 0.141-0.094 0.187-0.168zM5.928 7.167l-0.736-0.726 0.242-0.245 0.676 0.667c0.052 0.052 0.113 0.086 0.182 0.103s0.138 0.016 0.206-0.001c0.068-0.018 0.127-0.053 0.178-0.106s0.086-0.112 0.103-0.179c0.016-0.069 0.016-0.137-0.002-0.205-0.019-0.071-0.056-0.133-0.105-0.181l-0-0-0.676-0.667 0.242-0.245 1.179 1.161-0.242 0.245-0.129-0.124c0.002 0.017 0.003 0.038 0.003 0.058 0 0.172-0.069 0.327-0.182 0.439v0c-0.086 0.087-0.185 0.145-0.298 0.175s-0.226 0.031-0.34 0.002c-0.118-0.030-0.22-0.090-0.3-0.171l-0-0zM8.389 5.762l-0.936-1.365 0.284-0.195 0.099 0.144c0.020-0.191 0.123-0.354 0.271-0.455l0.002-0.001c0.051-0.035 0.106-0.063 0.166-0.083l0.083 0.364c-0.046 0.011-0.086 0.029-0.122 0.054l0.001-0.001c-0.058 0.039-0.104 0.093-0.133 0.156l-0.001 0.002c-0.030 0.063-0.043 0.131-0.039 0.201s0.027 0.136 0.069 0.197l0.539 0.786-0.284 0.195zM11.809 3.939l-0.567-2.247 0.743-0.187c0.155-0.040 0.308-0.046 0.459-0.022s0.29 0.074 0.419 0.152c0.129 0.077 0.239 0.176 0.331 0.297s0.159 0.258 0.198 0.413c0.040 0.155 0.047 0.308 0.022 0.459-0.025 0.157-0.078 0.298-0.153 0.424l0.003-0.005c-0.156 0.262-0.406 0.453-0.703 0.528l-0.008 0.002-0.743 0.188zM12.058 3.521l0.409-0.103c0.109-0.028 0.206-0.074 0.29-0.138s0.154-0.143 0.209-0.234c0.074-0.118 0.117-0.262 0.117-0.416 0-0.071-0.009-0.14-0.027-0.206l0.001 0.006c-0.054-0.215-0.189-0.391-0.37-0.498l-0.004-0.002c-0.085-0.051-0.184-0.089-0.29-0.106l-0.005-0.001c-0.037-0.006-0.079-0.010-0.122-0.010-0.070 0-0.139 0.009-0.203 0.027l0.005-0.001-0.409 0.104 0.399 1.579zM14.958 3.337l-0.059-1.654 0.344-0.012 0.007 0.175c0.112-0.142 0.282-0.233 0.474-0.239l0.001-0c0.062-0.002 0.123 0.004 0.184 0.018l-0.125 0.352c-0.035-0.013-0.076-0.020-0.119-0.020-0.004 0-0.008 0-0.011 0h0.001c-0.073 0.003-0.139 0.023-0.198 0.062-0.059 0.037-0.107 0.087-0.141 0.149-0.030 0.054-0.048 0.118-0.048 0.186 0 0.006 0 0.012 0 0.018l-0-0.001 0.034 0.953-0.344 0.012zM17.785 3.507c-0.152-0.024-0.286-0.089-0.393-0.184l0.001 0.001c-0.108-0.096-0.192-0.216-0.242-0.353l-0.002-0.006c-0.033-0.089-0.052-0.191-0.052-0.298 0-0.054 0.005-0.107 0.014-0.158l-0.001 0.005c0.020-0.12 0.059-0.228 0.119-0.324 0.059-0.098 0.133-0.179 0.22-0.246 0.088-0.067 0.185-0.115 0.292-0.143s0.216-0.034 0.328-0.015c0.243 0.041 0.446 0.187 0.562 0.389l0.002 0.004c0.059 0.103 0.096 0.216 0.112 0.341 0.015 0.123 0.005 0.25-0.031 0.381l-1.259-0.207c0.002 0.078 0.018 0.15 0.048 0.218 0.032 0.067 0.077 0.123 0.133 0.167l0.001 0.001c0.058 0.045 0.127 0.075 0.205 0.089 0.083 0.013 0.162 0.005 0.236-0.025 0.079-0.032 0.144-0.081 0.196-0.143l0.001-0.001 0.331 0.137c-0.089 0.134-0.207 0.237-0.354 0.307-0.097 0.048-0.212 0.076-0.333 0.076-0.047 0-0.092-0.004-0.136-0.012l0.005 0.001zM17.485 2.432l0.927 0.152c0-0.005 0-0.010 0-0.015 0-0.077-0.018-0.149-0.050-0.213l0.001 0.003c-0.033-0.072-0.081-0.131-0.139-0.178l-0.001-0.001c-0.057-0.047-0.127-0.080-0.204-0.092l-0.002-0c-0.022-0.004-0.048-0.006-0.074-0.006-0.054 0-0.106 0.010-0.153 0.027l0.003-0.001c-0.071 0.026-0.134 0.068-0.188 0.125-0.053 0.056-0.093 0.123-0.12 0.2zM21.666 2.897l0.318 0.131-0.627 1.531-0.32-0.131 0.079-0.227c-0.072 0.057-0.16 0.098-0.257 0.115l-0.003 0c-0.096 0.016-0.196 0.003-0.3-0.039-0.114-0.046-0.211-0.112-0.292-0.193v0c-0.078-0.080-0.142-0.174-0.187-0.279l-0.002-0.006c-0.043-0.1-0.068-0.216-0.068-0.338s0.025-0.238 0.070-0.344l-0.002 0.006c0.045-0.109 0.107-0.203 0.187-0.282 0.152-0.153 0.362-0.249 0.594-0.252h0.001c0.113-0.003 0.224 0.018 0.334 0.063 0.111 0.046 0.199 0.111 0.263 0.197 0.065 0.085 0.11 0.179 0.134 0.28l0.079-0.233zM20.673 3.966c0.090 0.037 0.177 0.047 0.263 0.031 0.086-0.018 0.163-0.056 0.23-0.117s0.122-0.136 0.16-0.228c0.038-0.093 0.054-0.185 0.047-0.276s-0.037-0.176-0.085-0.246l0.001 0.002c-0.051-0.073-0.121-0.13-0.204-0.162l-0.003-0.001c-0.057-0.025-0.123-0.039-0.192-0.039-0.028 0-0.055 0.002-0.082 0.007l0.003-0c-0.19 0.032-0.345 0.159-0.414 0.33l-0.001 0.004c-0.027 0.062-0.043 0.134-0.043 0.209 0 0.025 0.002 0.050 0.005 0.074l-0-0.003c0.015 0.093 0.049 0.176 0.103 0.251 0.056 0.074 0.127 0.129 0.213 0.165zM22.426 5.103l1.002-1.317 0.274 0.208-0.106 0.14c0.041-0.010 0.088-0.015 0.137-0.015 0.144 0 0.277 0.049 0.383 0.132l-0.001-0.001c0.094 0.071 0.163 0.16 0.207 0.266s0.062 0.212 0.052 0.323c0.104-0.040 0.211-0.052 0.322-0.038 0.113 0.014 0.216 0.056 0.31 0.128 0.097 0.074 0.168 0.165 0.212 0.274s0.059 0.22 0.046 0.336c-0.013 0.116-0.057 0.223-0.131 0.32l-0.628 0.826-0.274-0.208 0.575-0.756c0.044-0.058 0.071-0.122 0.079-0.191 0.002-0.016 0.003-0.035 0.003-0.054 0-0.054-0.010-0.105-0.028-0.153l0.001 0.003c-0.025-0.066-0.066-0.121-0.124-0.165-0.053-0.041-0.117-0.069-0.188-0.078l-0.002-0c-0.014-0.002-0.030-0.003-0.047-0.003-0.131 0-0.248 0.064-0.32 0.163l-0.001 0.001-0.575 0.756-0.274-0.208 0.575-0.756c0.054-0.067 0.087-0.153 0.087-0.247 0-0.128-0.061-0.242-0.156-0.314l-0.001-0.001c-0.053-0.041-0.119-0.069-0.191-0.076l-0.002-0c-0.012-0.001-0.025-0.002-0.038-0.002-0.059 0-0.116 0.012-0.167 0.034l0.003-0.001c-0.065 0.027-0.119 0.069-0.163 0.127l-0.575 0.756-0.274-0.208zM26.337 8.949l2.006-1.16 0.399 0.69c0.063 0.108 0.092 0.221 0.089 0.338-0.003 0.119-0.034 0.23-0.096 0.335-0.060 0.105-0.145 0.189-0.255 0.253-0.099 0.060-0.219 0.096-0.347 0.096-0.001 0-0.002 0-0.003 0h0c-0.123-0-0.239-0.032-0.34-0.088l0.004 0.002c-0.104-0.057-0.189-0.14-0.246-0.24l-0.002-0.003-0.227-0.393-0.809 0.468-0.173-0.298zM27.617 8.607l0.209 0.362c0.033 0.057 0.078 0.101 0.133 0.131 0.052 0.030 0.114 0.048 0.181 0.048 0.069 0 0.133-0.019 0.188-0.052l-0.002 0.001c0.058-0.033 0.104-0.079 0.136-0.135l0.001-0.002c0.033-0.056 0.049-0.115 0.049-0.179 0-0.003 0-0.005 0-0.008 0-0.064-0.018-0.123-0.048-0.174l0.001 0.002-0.209-0.363-0.639 0.37zM27.547 11.326l1.564-0.542 0.113 0.325-0.166 0.057c0.174 0.068 0.307 0.207 0.366 0.38l0.001 0.004c0.020 0.058 0.032 0.119 0.037 0.182l-0.373-0.016c0-0.004 0-0.010 0-0.015 0-0.041-0.007-0.081-0.020-0.118l0.001 0.002c-0.024-0.069-0.064-0.127-0.117-0.171l-0.001-0c-0.050-0.044-0.113-0.076-0.181-0.090l-0.003-0c-0.069-0.014-0.139-0.010-0.209 0.014l-0.901 0.312-0.113-0.325zM28.213 14.079c-0.005-0.033-0.008-0.072-0.008-0.111 0-0.115 0.025-0.225 0.070-0.323l-0.002 0.005c0.063-0.137 0.155-0.251 0.269-0.338l0.002-0.002c0.117-0.088 0.26-0.148 0.415-0.168l0.004-0c0.038-0.006 0.082-0.009 0.127-0.009 0.077 0 0.153 0.010 0.224 0.029l-0.006-0.001c0.111 0.028 0.21 0.074 0.299 0.138 0.090 0.065 0.164 0.143 0.223 0.237s0.096 0.196 0.111 0.309c0.020 0.151 0 0.293-0.060 0.427-0.061 0.135-0.152 0.248-0.273 0.34-0.117 0.089-0.26 0.15-0.417 0.17l-0.004 0c-0.038 0.006-0.081 0.009-0.125 0.009-0.077 0-0.153-0.010-0.224-0.029l0.006 0.001c-0.114-0.030-0.214-0.078-0.302-0.141l0.003 0.002c-0.089-0.064-0.162-0.142-0.219-0.232l-0.002-0.003c-0.056-0.088-0.095-0.193-0.11-0.305l-0-0.004zM28.555 14.033c0.013 0.091 0.047 0.169 0.106 0.234 0.1 0.11 0.244 0.179 0.404 0.179 0.027 0 0.054-0.002 0.080-0.006l-0.003 0c0.095-0.013 0.179-0.046 0.253-0.101s0.13-0.12 0.167-0.198c0.028-0.055 0.044-0.12 0.044-0.189 0-0.022-0.002-0.044-0.005-0.065l0 0.002c-0.012-0.091-0.050-0.171-0.106-0.235l0 0.001c-0.057-0.065-0.13-0.115-0.212-0.145l-0.004-0.001c-0.056-0.021-0.121-0.033-0.188-0.033-0.029 0-0.057 0.002-0.084 0.006l0.003-0c-0.186 0.024-0.34 0.139-0.419 0.298l-0.001 0.003c-0.026 0.055-0.041 0.119-0.041 0.186 0 0.022 0.002 0.044 0.005 0.065l-0-0.002zM27.55 16.445l0.031-0.343 2.472 0.225-0.031 0.343-0.242-0.022c0.079 0.063 0.142 0.139 0.187 0.23s0.062 0.194 0.051 0.31c-0.022 0.239-0.138 0.446-0.31 0.589l-0.001 0.001c-0.086 0.072-0.183 0.126-0.292 0.162-0.077 0.026-0.166 0.041-0.259 0.041-0.029 0-0.058-0.002-0.087-0.004l0.004 0c-0.123-0.011-0.236-0.046-0.336-0.101l0.004 0.002c-0.102-0.055-0.189-0.126-0.261-0.21l-0.001-0.001c-0.069-0.083-0.124-0.181-0.159-0.288l-0.002-0.006c-0.026-0.078-0.041-0.167-0.041-0.26 0-0.029 0.001-0.058 0.004-0.086l-0 0.004c0.011-0.116 0.046-0.215 0.107-0.296 0.062-0.081 0.137-0.145 0.225-0.192l-1.063-0.097zM29.687 17.155c0.002-0.015 0.003-0.032 0.003-0.049 0-0.077-0.019-0.149-0.053-0.212l0.001 0.002c-0.043-0.078-0.104-0.141-0.177-0.186l-0.002-0.001c-0.075-0.047-0.165-0.078-0.261-0.085l-0.002-0c-0.099-0.009-0.191 0.003-0.276 0.036s-0.155 0.084-0.21 0.152c-0.054 0.067-0.089 0.152-0.096 0.244l-0 0.001c-0.009 0.094 0.007 0.183 0.047 0.267 0.041 0.083 0.1 0.152 0.177 0.207s0.165 0.086 0.265 0.096c0.098 0.009 0.19-0.007 0.275-0.046s0.156-0.096 0.212-0.171c0.053-0.071 0.088-0.158 0.096-0.254l0-0.002zM27.743 19.665c0.047-0.145 0.128-0.265 0.242-0.36s0.244-0.156 0.392-0.187c0.050-0.010 0.108-0.016 0.166-0.016 0.102 0 0.2 0.017 0.291 0.049l-0.006-0.002c0.115 0.038 0.216 0.093 0.302 0.167 0.087 0.074 0.157 0.159 0.209 0.255 0.053 0.098 0.085 0.201 0.097 0.31s0 0.218-0.036 0.327c-0.040 0.12-0.101 0.223-0.184 0.307s-0.179 0.148-0.291 0.19c-0.11 0.043-0.228 0.062-0.354 0.058-0.136-0.005-0.263-0.037-0.377-0.092l0.006 0.003 0.398-1.212c-0.023-0.003-0.050-0.005-0.077-0.005-0.052 0-0.102 0.007-0.149 0.020l0.004-0.001c-0.073 0.022-0.135 0.058-0.187 0.106l0-0c-0.053 0.051-0.094 0.114-0.118 0.186l-0.001 0.003c-0.026 0.079-0.030 0.158-0.012 0.237 0.020 0.084 0.059 0.157 0.113 0.217l-0-0-0.186 0.307c-0.119-0.109-0.202-0.241-0.249-0.397-0.021-0.067-0.033-0.143-0.033-0.223 0-0.088 0.015-0.173 0.042-0.252l-0.002 0.005zM28.852 19.534l-0.293 0.893c0.079 0.015 0.156 0.010 0.231-0.013 0.076-0.021 0.142-0.058 0.198-0.11 0.056-0.050 0.099-0.114 0.122-0.187l0.001-0.003c0.024-0.074 0.030-0.149 0.015-0.225-0.016-0.079-0.049-0.148-0.095-0.206l0.001 0.001c-0.048-0.061-0.108-0.111-0.176-0.148l-0.003-0.001zM26.976 21.638l1.44 0.815-0.17 0.3-0.153-0.086c0.025 0.064 0.039 0.139 0.039 0.217 0 0.115-0.031 0.223-0.086 0.316l0.002-0.003c-0.032 0.056-0.069 0.105-0.112 0.148l0-0-0.235-0.291c0.036-0.029 0.064-0.063 0.085-0.1 0.036-0.063 0.053-0.13 0.051-0.201-0.001-0.073-0.021-0.141-0.055-0.2l0.001 0.002c-0.036-0.062-0.086-0.112-0.147-0.146l-0.002-0.001-0.83-0.47 0.17-0.3zM26.301 24.94l0.22-0.269-1.014-0.83 0.218-0.267 1.014 0.83 0.167-0.204 0.267 0.218-0.166 0.204 0.403 0.328-0.218 0.267-0.403-0.327-0.22 0.269-0.267-0.218zM24.618 27.013l-0.282 0.235-0.894-2.487 0.281-0.234 0.3 0.827 1.516 0.891-0.288 0.24-1.058-0.658 0.425 1.187z"></path>
</symbol>
</defs>
</svg>
