<svg aria-hidden="true" style="position: absolute; width: 0; height: 0; overflow: hidden;" version="1.1" xmlns="http://www.w3.org/2000/svg" xmlns:xlink="http://www.w3.org/1999/xlink">
<defs>
<symbol id="icon-investments" viewBox="0 0 32 32">
<path d="M16.195 10.61c0.229 0 0.415 0.186 0.415 0.415v1.244c0 0.229-0.186 0.415-0.415 0.415s-0.415-0.186-0.415-0.415v-1.244c0-0.229 0.186-0.415 0.415-0.415z"></path>
<path d="M13.707 16c0-1.374 1.114-2.488 2.488-2.488s2.488 1.114 2.488 2.488c0 1.374-1.114 2.488-2.488 2.488s-2.488-1.114-2.488-2.488z"></path>
<path d="M20.007 12.775c0.162-0.162 0.162-0.424 0-0.586s-0.424-0.162-0.586 0l-0.88 0.88c-0.162 0.162-0.162 0.424 0 0.586s0.424 0.162 0.586 0l0.88-0.88z"></path>
<path d="M21.585 16c0 0.229-0.186 0.415-0.415 0.415h-1.244c-0.229 0-0.415-0.186-0.415-0.415s0.186-0.415 0.415-0.415h1.244c0.229 0 0.415 0.186 0.415 0.415z"></path>
<path d="M19.42 19.811c0.162 0.162 0.424 0.162 0.586 0s0.162-0.424 0-0.586l-0.88-0.88c-0.162-0.162-0.424-0.162-0.586 0s-0.162 0.424 0 0.586l0.88 0.88z"></path>
<path d="M16.195 19.317c0.229 0 0.415 0.186 0.415 0.415v1.244c0 0.229-0.186 0.415-0.415 0.415s-0.415-0.186-0.415-0.415v-1.244c0-0.229 0.186-0.415 0.415-0.415z"></path>
<path d="M13.85 18.932c0.162-0.162 0.162-0.424 0-0.586s-0.424-0.162-0.586 0l-0.88 0.88c-0.162 0.162-0.162 0.424 0 0.586s0.424 0.162 0.586 0l0.88-0.88z"></path>
<path d="M12.878 16c0 0.229-0.186 0.415-0.415 0.415h-1.244c-0.229 0-0.415-0.186-0.415-0.415s0.186-0.415 0.415-0.415h1.244c0.229 0 0.415 0.186 0.415 0.415z"></path>
<path d="M13.263 13.654c0.162 0.162 0.424 0.162 0.586 0s0.162-0.424 0-0.586l-0.88-0.88c-0.162-0.162-0.424-0.162-0.586 0s-0.162 0.424 0 0.586l0.88 0.88z"></path>
</symbol>
<symbol id="icon-abstract-stars" viewBox="0 0 74 32">
<path fill="#666" style="fill: var(--color3, #666)" d="M16 32.018c8.837 0 16-7.163 16-16s-7.163-16-16-16c-8.837 0-16 7.163-16 16s7.163 16 16 16z"></path>
<path fill="#333" style="fill: var(--color5, #333)" d="M48 25.611c5.302 0 9.6-4.298 9.6-9.6s-4.298-9.6-9.6-9.6-9.6 4.298-9.6 9.6c0 5.302 4.298 9.6 9.6 9.6z"></path>
<path fill="#333" style="fill: var(--color5, #333)" d="M68.48 20.485c2.474 0 4.48-2.006 4.48-4.48s-2.006-4.48-4.48-4.48-4.48 2.006-4.48 4.48c0 2.474 2.006 4.48 4.48 4.48z"></path>
</symbol>
<symbol id="icon-arrow-move" viewBox="0 0 32 32">
<path fill="#fff" style="fill: var(--color6, #fff)" d="M4.8 16c0-0.663 0.537-1.2 1.2-1.2h17.021l-6.652-6.335c-0.478-0.459-0.493-1.219-0.033-1.697s1.219-0.493 1.697-0.033l8.8 8.4c0.235 0.226 0.368 0.539 0.368 0.865s-0.133 0.639-0.368 0.865l-8.8 8.4c-0.478 0.459-1.237 0.444-1.697-0.033s-0.444-1.237 0.033-1.697l6.652-6.335h-17.021c-0.663 0-1.2-0.537-1.2-1.2z"></path>
</symbol>
<symbol id="icon-arrow" viewBox="0 0 33 32">
<path fill="none" stroke="#fff" style="stroke: var(--color6, #fff)" stroke-linejoin="round" stroke-linecap="round" stroke-miterlimit="4" stroke-width="1.8824" d="M6.471 26l20-20M26.471 6h-15M26.471 6v15"></path>
</symbol>
<symbol id="icon-bath" viewBox="0 0 30 32">
<path d="M0.411 21.732h14.995v2.755h9.374v-2.749h3.724c0.241 3.277 0.26 6.194-3.101 8.418-0.041 0.027-0.074 0.064-0.165 0.145 0.413 0.343 0.821 0.683 1.224 1.018-0.544 0.521-0.982 0.939-1.483 1.419-0.442-0.456-0.921-0.986-1.442-1.468-0.153-0.142-0.424-0.2-0.647-0.214-0.363-0.022-0.732 0.037-1.098 0.038-4.869 0.003-9.738 0.002-14.608 0.002-0.233 0-0.482 0.045-0.698-0.020-0.65-0.195-1.062 0.106-1.448 0.572-0.329 0.396-0.705 0.754-1.048 1.116-0.463-0.487-0.883-0.928-1.347-1.417 0.311-0.275 0.707-0.626 1.151-1.020-0.306-0.219-0.535-0.371-0.753-0.539-1.627-1.254-2.507-2.917-2.622-4.96-0.057-1.012-0.010-2.030-0.010-3.095h0.001z"></path>
<path d="M0.42 14.152c-0.008-0.181-0.022-0.344-0.022-0.507-0.001-2.652-0.004-5.303 0-7.955 0.004-2.914 2.027-4.948 4.937-4.927 0.977 0.007 1.984-0.013 2.922 0.208 1.665 0.393 2.714 1.548 3.221 3.176 0.098 0.316 0.225 0.469 0.572 0.563 1.96 0.531 3.335 2.363 3.36 4.407 0.004 0.329 0 0.659 0 1.016h-9.275c-0.442-2.339 0.829-4.753 3.486-5.506-0.24-1.044-1.268-1.925-2.347-1.963-0.816-0.029-1.634-0.032-2.45 0-1.406 0.055-2.537 1.346-2.543 2.894-0.010 2.668-0.003 5.337-0.003 8.006 0 0.182 0 0.364 0 0.588l-1.857 0.001z"></path>
<path d="M15.38 19.859c-0.196 0-0.343 0-0.49 0-4.766 0-9.533 0.001-14.299-0.001-1.026 0-1.763-0.485-2.023-1.314-0.39-1.247 0.493-2.448 1.841-2.466 1.433-0.019 2.866-0.005 4.3-0.005 3.367 0 6.732 0 10.099 0 0.18 0 0.36 0 0.572 0v3.786z"></path>
<path d="M22.893 22.661h-5.578c-0.009-0.176-0.024-0.336-0.024-0.496-0.002-1.933-0.002-3.866 0-5.799 0.001-1.398 0.765-2.167 2.157-2.173 0.516-0.002 1.033-0.013 1.549 0.003 1.16 0.037 1.918 0.817 1.921 1.98 0.006 2.017 0.002 4.032 0 6.049 0 0.131-0.014 0.261-0.025 0.436z"></path>
<path d="M24.813 19.841v-3.768c0.907 0 1.801-0.003 2.693 0.001 0.465 0.002 0.941-0.036 1.396 0.039 0.994 0.164 1.64 0.978 1.599 1.928-0.040 0.932-0.728 1.731-1.703 1.782-1.309 0.069-2.624 0.017-3.984 0.017l-0.001 0.001z"></path>
</symbol>
<symbol id="icon-bed" viewBox="0 0 30 32">
<path d="M15.256 27.367c-4.569 0-9.136 0-13.705 0-0.462 0-0.675 0.211-0.675 0.667 0 0.118 0.006 0.236-0.001 0.353-0.010 0.142-0.024 0.283-0.050 0.422-0.098 0.504-0.582 0.908-1.16 0.902-0.581-0.006-1.062-0.437-1.149-0.991-0.020-0.13-0.031-0.263-0.031-0.395-0.001-2.684-0.019-5.369 0.006-8.053 0.014-1.564 0.593-2.925 1.701-4.057 0.673-0.688 1.473-1.177 2.389-1.488 0.72-0.245 1.464-0.319 2.222-0.319 7.027 0.002 14.054-0.004 21.081 0.005 2.059 0.002 3.726 0.82 4.962 2.445 0.607 0.8 0.969 1.708 1.093 2.7 0.042 0.334 0.060 0.674 0.061 1.012 0.005 2.606 0.004 5.212 0.002 7.817 0 0.408-0.102 0.779-0.443 1.048-0.36 0.285-0.762 0.359-1.19 0.185-0.41-0.168-0.669-0.476-0.728-0.917-0.030-0.222-0.026-0.45-0.032-0.675-0.010-0.363-0.162-0.581-0.467-0.648-0.067-0.015-0.138-0.014-0.208-0.014-4.558 0-9.116 0-13.675 0l-0.002-0.001z"></path>
<path d="M15.089 3.81c2.963 0 5.926 0 8.888 0 0.992 0 1.92 0.219 2.72 0.822 1.029 0.776 1.63 1.798 1.681 3.081 0.043 1.088 0.024 2.178 0.029 3.267 0.004 0.702 0 1.403 0 2.105 0 0.063-0.004 0.129-0.020 0.189-0.052 0.19-0.156 0.266-0.353 0.229-0.215-0.040-0.422-0.126-0.637-0.15-0.505-0.054-1.011-0.092-1.519-0.118-0.338-0.018-0.443-0.078-0.491-0.405-0.153-1.037-1.129-1.97-2.377-1.956-1.392 0.015-2.783 0.004-4.174 0.004-1.035 0-1.92 0.607-2.271 1.564-0.050 0.137-0.070 0.286-0.096 0.43-0.049 0.259-0.146 0.356-0.408 0.359-0.548 0.006-1.098 0.006-1.646 0-0.252-0.002-0.352-0.1-0.397-0.387-0.064-0.403-0.222-0.762-0.481-1.077-0.469-0.572-1.076-0.882-1.825-0.886-1.436-0.007-2.872-0.004-4.31-0.001-1.207 0.001-2.151 0.93-2.305 1.949-0.049 0.33-0.149 0.387-0.487 0.409-0.56 0.037-1.121 0.089-1.68 0.148-0.172 0.018-0.336 0.091-0.506 0.119-0.184 0.030-0.269-0.032-0.32-0.209-0.020-0.070-0.030-0.144-0.030-0.217-0.001-1.683-0.024-3.367 0.005-5.050 0.030-1.761 0.857-3.056 2.474-3.839 0.641-0.308 1.335-0.378 2.038-0.378 2.833 0 5.665 0 8.498 0z"></path>
</symbol>
<symbol id="icon-close" viewBox="0 0 32 32">
<path d="M8 24l16-16M8 8l16 16"></path>
</symbol>
<symbol id="icon-dream-home" viewBox="0 0 32 32">
<path d="M11.471 14.090c0.777 0.777 2.037 0.777 2.815 0 0.096-0.095 0.179-0.198 0.251-0.307 0.357 0.536 0.966 0.89 1.658 0.89s1.302-0.353 1.659-0.89c0.072 0.108 0.156 0.211 0.251 0.307 0.777 0.777 2.037 0.777 2.815 0s0.777-2.037 0-2.815l-0.194-0.194c-0.249-0.249-0.586-0.389-0.938-0.389h-7.184c-0.352 0-0.689 0.14-0.938 0.389l-0.194 0.194c-0.777 0.777-0.777 2.037 0 2.815z"></path>
<path d="M11.551 15.358c0.947 0.47 2.092 0.406 2.986-0.193 0.474 0.317 1.044 0.503 1.658 0.503s1.184-0.186 1.658-0.503c0.893 0.598 2.038 0.663 2.986 0.193v4.954h0.166c0.275 0 0.498 0.223 0.498 0.498s-0.223 0.498-0.498 0.498h-2.985c-0.275 0-0.498-0.223-0.498-0.498v-2.322c0-0.275-0.223-0.498-0.498-0.498h-1.659c-0.275 0-0.498 0.223-0.498 0.498v2.322c0 0.275-0.223 0.498-0.498 0.498h-2.985c-0.275 0-0.498-0.223-0.498-0.498s0.223-0.498 0.498-0.498h0.166v-4.954z"></path>
</symbol>
<symbol id="icon-email" viewBox="0 0 32 32">
<path d="M22.667 9.333h1.333v1.333c0 0.354 0.141 0.693 0.391 0.943s0.589 0.391 0.943 0.391c0.354 0 0.693-0.14 0.943-0.391s0.391-0.589 0.391-0.943v-1.333h1.333c0.354 0 0.693-0.14 0.943-0.391s0.391-0.589 0.391-0.943c0-0.354-0.141-0.693-0.391-0.943s-0.589-0.391-0.943-0.391h-1.333v-1.333c0-0.354-0.141-0.693-0.391-0.943s-0.589-0.391-0.943-0.391c-0.354 0-0.693 0.14-0.943 0.391s-0.391 0.589-0.391 0.943v1.333h-1.333c-0.354 0-0.693 0.14-0.943 0.391s-0.391 0.589-0.391 0.943c0 0.354 0.141 0.693 0.391 0.943s0.589 0.391 0.943 0.391zM28 14.667c-0.354 0-0.693 0.141-0.943 0.391s-0.391 0.589-0.391 0.943v8c0 0.354-0.141 0.693-0.391 0.943s-0.589 0.391-0.943 0.391h-18.667c-0.354 0-0.693-0.141-0.943-0.391s-0.391-0.589-0.391-0.943v-12.787l7.84 7.853c0.75 0.749 1.767 1.17 2.827 1.17s2.077-0.421 2.827-1.17l3.293-3.293c0.251-0.251 0.392-0.592 0.392-0.947s-0.141-0.696-0.392-0.947c-0.251-0.251-0.592-0.392-0.947-0.392s-0.696 0.141-0.947 0.392l-3.293 3.293c-0.249 0.244-0.584 0.381-0.933 0.381s-0.684-0.137-0.933-0.381l-7.853-7.84h10.12c0.354 0 0.693-0.14 0.943-0.391s0.391-0.589 0.391-0.943c0-0.354-0.141-0.693-0.391-0.943s-0.589-0.391-0.943-0.391h-10.667c-1.061 0-2.078 0.421-2.828 1.172s-1.172 1.768-1.172 2.828v13.333c0 1.061 0.421 2.078 1.172 2.828s1.768 1.172 2.828 1.172h18.667c1.061 0 2.078-0.421 2.828-1.172s1.172-1.768 1.172-2.828v-8c0-0.354-0.141-0.693-0.391-0.943s-0.589-0.391-0.943-0.391z"></path>
</symbol>
<symbol id="icon-facebook" viewBox="0 0 32 32">
<path d="M20.992 5.312h3.008v-5.088c-1.456-0.151-2.92-0.226-4.384-0.224-4.352 0-7.328 2.656-7.328 7.52v4.192h-4.912v5.696h4.912v14.592h5.888v-14.592h4.896l0.736-5.696h-5.632v-3.632c0-1.68 0.448-2.768 2.816-2.768z"></path>
</symbol>
<symbol id="icon-linkedIn" viewBox="0 0 32 32">
<path d="M27.293 2.667h-22.587c-0.254-0.004-0.506 0.043-0.742 0.137s-0.451 0.233-0.633 0.41c-0.182 0.177-0.327 0.388-0.428 0.621s-0.154 0.484-0.157 0.738v22.853c0.003 0.254 0.057 0.505 0.157 0.738s0.246 0.444 0.428 0.621c0.182 0.177 0.397 0.317 0.633 0.41s0.488 0.14 0.742 0.137h22.587c0.254 0.003 0.506-0.043 0.742-0.137s0.451-0.233 0.633-0.41c0.182-0.177 0.327-0.388 0.428-0.621s0.154-0.484 0.157-0.738v-22.853c-0.003-0.254-0.057-0.505-0.157-0.738s-0.246-0.444-0.428-0.621c-0.182-0.177-0.397-0.317-0.633-0.41s-0.488-0.14-0.742-0.137zM10.787 24.987h-4v-12h4v12zM8.787 11.307c-0.552 0-1.081-0.219-1.471-0.609s-0.609-0.919-0.609-1.471c0-0.552 0.219-1.081 0.609-1.471s0.919-0.609 1.471-0.609c0.293-0.033 0.59-0.004 0.87 0.085s0.54 0.237 0.76 0.433c0.22 0.196 0.396 0.437 0.516 0.706s0.183 0.561 0.183 0.855c0 0.295-0.062 0.586-0.183 0.855s-0.296 0.51-0.516 0.706c-0.22 0.196-0.479 0.344-0.76 0.433s-0.578 0.118-0.87 0.085zM25.213 24.987h-4v-6.44c0-1.613-0.573-2.667-2.027-2.667-0.45 0.003-0.888 0.144-1.255 0.404s-0.646 0.626-0.798 1.049c-0.104 0.313-0.15 0.643-0.133 0.973v6.667h-4c0 0 0-10.907 0-12h4v1.693c0.363-0.631 0.892-1.15 1.529-1.502s1.357-0.524 2.085-0.498c2.667 0 4.6 1.72 4.6 5.413v6.907z"></path>
</symbol>
<symbol id="icon-logo" viewBox="0 0 105 32">
<path fill="#703bf7" style="fill: var(--color8, #703bf7)" d="M15.673 31.673c-8.655 0-15.673-7.018-15.673-15.673h15.673v15.673z"></path>
<path fill="#703bf7" style="fill: var(--color8, #703bf7)" d="M0 0.327c8.655 0 15.673 7.018 15.673 15.673h-15.673v-15.673z"></path>
<path fill="#703bf7" style="fill: var(--color8, #703bf7)" d="M15.673 31.673c8.655 0 15.673-7.018 15.673-15.673h-15.673v15.673z"></path>
<path fill="#703bf7" style="fill: var(--color8, #703bf7)" d="M31.347 16c0-8.655-7.018-15.673-15.673-15.673v15.673h15.673z"></path>
<path fill="#fff" style="fill: var(--color6, #fff)" d="M102.413 23.092v-5.229c0-0.604-0.195-1.101-0.585-1.491-0.377-0.39-0.868-0.585-1.472-0.585-0.403 0-0.761 0.088-1.076 0.264s-0.56 0.422-0.736 0.736c-0.176 0.315-0.264 0.673-0.264 1.076l-0.812-0.453c0-0.692 0.151-1.303 0.453-1.831 0.302-0.541 0.717-0.963 1.246-1.265 0.541-0.315 1.145-0.472 1.812-0.472 0.679 0 1.283 0.176 1.812 0.529 0.529 0.34 0.944 0.787 1.246 1.34 0.302 0.541 0.453 1.107 0.453 1.699v5.682h-2.077zM96.203 23.092v-9.061h2.076v9.061h-2.076z"></path>
<path fill="#fff" style="fill: var(--color6, #fff)" d="M91.798 23.093v-9.061h2.077v9.061h-2.077zM92.836 12.37c-0.353 0-0.648-0.12-0.888-0.359-0.227-0.239-0.34-0.535-0.34-0.887s0.113-0.648 0.34-0.887c0.239-0.239 0.535-0.359 0.888-0.359 0.365 0 0.66 0.12 0.887 0.359s0.34 0.535 0.34 0.887c0 0.352-0.114 0.648-0.34 0.887s-0.522 0.359-0.887 0.359z"></path>
<path fill="#fff" style="fill: var(--color6, #fff)" d="M85.904 23.281c-0.906 0-1.724-0.201-2.454-0.604-0.717-0.415-1.29-0.982-1.718-1.699-0.415-0.717-0.623-1.523-0.623-2.416s0.208-1.693 0.623-2.397c0.415-0.717 0.976-1.284 1.68-1.699 0.717-0.415 1.51-0.623 2.378-0.623 0.843 0 1.586 0.195 2.228 0.585 0.654 0.39 1.164 0.925 1.529 1.605 0.377 0.68 0.566 1.454 0.566 2.322 0 0.151-0.012 0.308-0.038 0.472-0.012 0.151-0.038 0.321-0.075 0.51h-7.438v-1.699h6.361l-0.774 0.68c-0.025-0.554-0.132-1.019-0.321-1.397s-0.459-0.667-0.811-0.868c-0.34-0.201-0.761-0.302-1.265-0.302-0.528 0-0.988 0.113-1.378 0.34s-0.692 0.547-0.906 0.963c-0.214 0.403-0.321 0.887-0.321 1.454s0.113 1.063 0.34 1.491 0.548 0.761 0.963 1c0.415 0.226 0.894 0.34 1.435 0.34 0.466 0 0.893-0.082 1.284-0.245 0.402-0.164 0.743-0.403 1.019-0.717l1.321 1.34c-0.44 0.516-0.975 0.906-1.605 1.17s-1.296 0.396-2.001 0.396z"></path>
<path fill="#fff" style="fill: var(--color6, #fff)" d="M76.197 23.093v-12.836h2.076v12.836h-2.076zM74.026 15.919v-1.888h6.418v1.888h-6.418z"></path>
<path fill="#fff" style="fill: var(--color6, #fff)" d="M67.663 23.281c-0.818 0-1.56-0.208-2.228-0.623-0.654-0.415-1.176-0.975-1.566-1.68-0.378-0.717-0.566-1.516-0.566-2.397 0-0.894 0.189-1.693 0.566-2.397 0.39-0.717 0.912-1.284 1.566-1.699 0.667-0.428 1.41-0.642 2.228-0.642 0.692 0 1.303 0.151 1.831 0.453 0.541 0.289 0.969 0.692 1.284 1.208s0.472 1.101 0.472 1.756v2.605c0 0.654-0.157 1.24-0.472 1.756-0.302 0.516-0.724 0.925-1.265 1.227-0.541 0.289-1.158 0.434-1.85 0.434zM68.003 21.318c0.767 0 1.384-0.258 1.849-0.774 0.479-0.516 0.718-1.177 0.718-1.982 0-0.541-0.107-1.019-0.321-1.435s-0.516-0.736-0.906-0.963c-0.377-0.239-0.824-0.359-1.34-0.359-0.504 0-0.95 0.12-1.341 0.359-0.377 0.227-0.679 0.547-0.906 0.963-0.214 0.415-0.321 0.894-0.321 1.435s0.107 1.019 0.321 1.435c0.227 0.415 0.528 0.742 0.906 0.982 0.391 0.226 0.837 0.34 1.341 0.34zM70.438 23.092v-2.435l0.359-2.209-0.359-2.19v-2.227h2.077v9.061h-2.077z"></path>
<path fill="#fff" style="fill: var(--color6, #fff)" d="M58.37 23.093v-12.836h2.076v12.836h-2.076zM56.2 15.919v-1.888h6.418v1.888h-6.418z"></path>
<path fill="#fff" style="fill: var(--color6, #fff)" d="M51.845 23.281c-0.503 0-0.988-0.063-1.454-0.189-0.466-0.138-0.894-0.327-1.284-0.566-0.39-0.252-0.73-0.554-1.019-0.906l1.321-1.321c0.315 0.365 0.673 0.642 1.076 0.831 0.415 0.176 0.881 0.264 1.397 0.264 0.466 0 0.818-0.069 1.057-0.208s0.359-0.34 0.359-0.604c0-0.277-0.113-0.491-0.34-0.642s-0.522-0.277-0.887-0.378c-0.352-0.113-0.73-0.227-1.133-0.34-0.39-0.113-0.768-0.264-1.133-0.453-0.352-0.201-0.642-0.472-0.868-0.812s-0.34-0.78-0.34-1.321c0-0.579 0.132-1.076 0.396-1.491 0.277-0.415 0.661-0.736 1.151-0.963 0.503-0.227 1.101-0.34 1.793-0.34 0.73 0 1.372 0.132 1.925 0.396 0.566 0.252 1.038 0.636 1.416 1.151l-1.321 1.321c-0.264-0.327-0.566-0.573-0.906-0.736s-0.73-0.245-1.17-0.245c-0.415 0-0.736 0.063-0.963 0.189s-0.34 0.308-0.34 0.547c0 0.252 0.113 0.447 0.34 0.585s0.516 0.258 0.868 0.359c0.365 0.101 0.742 0.214 1.133 0.34 0.403 0.113 0.78 0.277 1.133 0.491 0.365 0.201 0.661 0.478 0.887 0.831 0.227 0.34 0.34 0.787 0.34 1.34 0 0.881-0.308 1.579-0.925 2.095s-1.454 0.774-2.511 0.774z"></path>
<path fill="#fff" style="fill: var(--color6, #fff)" d="M38.030 23.093v-13.214h2.171v13.214h-2.171zM39.522 23.093v-1.982h7.4v1.982h-7.4zM39.522 17.297v-1.907h6.758v1.907h-6.758zM39.522 11.861v-1.982h7.305v1.982h-7.305z"></path>
</symbol>
<symbol id="icon-management" viewBox="0 0 32 32">
<path d="M10.224 11.19c0-0.275 0.223-0.498 0.498-0.498h6.966c0.275 0 0.498 0.223 0.498 0.498s-0.223 0.498-0.498 0.498h-0.166v9.122c0 0.275-0.223 0.498-0.498 0.498h-0.995c-0.275 0-0.498-0.223-0.498-0.498v-1.659c0-0.275-0.223-0.498-0.498-0.498h-1.659c-0.275 0-0.498 0.223-0.498 0.498v1.659c0 0.275-0.223 0.498-0.498 0.498h-1.659c-0.275 0-0.498-0.223-0.498-0.498s0.223-0.498 0.498-0.498h0.166v-8.624h-0.166c-0.275 0-0.498-0.223-0.498-0.498zM12.215 13.015v0.663c0 0.183 0.149 0.332 0.332 0.332h0.663c0.183 0 0.332-0.149 0.332-0.332v-0.663c0-0.183-0.149-0.332-0.332-0.332h-0.663c-0.183 0-0.332 0.149-0.332 0.332zM12.546 15.337c-0.183 0-0.332 0.149-0.332 0.332v0.663c0 0.183 0.149 0.332 0.332 0.332h0.663c0.183 0 0.332-0.149 0.332-0.332v-0.663c0-0.183-0.149-0.332-0.332-0.332h-0.663zM14.868 13.015v0.663c0 0.183 0.149 0.332 0.332 0.332h0.663c0.183 0 0.332-0.149 0.332-0.332v-0.663c0-0.183-0.149-0.332-0.332-0.332h-0.663c-0.183 0-0.332 0.149-0.332 0.332zM15.2 15.337c-0.183 0-0.332 0.149-0.332 0.332v0.663c0 0.183 0.149 0.332 0.332 0.332h0.663c0.183 0 0.332-0.149 0.332-0.332v-0.663c0-0.183-0.149-0.332-0.332-0.332h-0.663z"></path>
<path d="M19.015 13.346h2.654c0.275 0 0.498 0.223 0.498 0.498s-0.223 0.498-0.498 0.498h-0.166v5.971h0.166c0.275 0 0.498 0.223 0.498 0.498s-0.223 0.498-0.498 0.498h-2.488c-0.366 0-0.663-0.297-0.663-0.663v-6.8c0-0.275 0.223-0.498 0.498-0.498zM19.346 15.668v0.663c0 0.183 0.149 0.332 0.332 0.332h0.663c0.183 0 0.332-0.149 0.332-0.332v-0.663c0-0.183-0.149-0.332-0.332-0.332h-0.663c-0.183 0-0.332 0.149-0.332 0.332zM19.678 17.99c-0.183 0-0.332 0.149-0.332 0.332v0.663c0 0.183 0.149 0.332 0.332 0.332h0.663c0.183 0 0.332-0.149 0.332-0.332v-0.663c0-0.183-0.149-0.332-0.332-0.332h-0.663z"></path>
</symbol>
<symbol id="icon-menu" viewBox="0 0 32 32">
<path  d="M4 9c0 0.552 0.448 1 1 1h22c0.552 0 1-0.448 1-1s-0.448-1-1-1h-22c-0.552 0-1 0.448-1 1zM4 16c0 0.552 0.448 1 1 1h22c0.552 0 1-0.448 1-1s-0.448-1-1-1h-22c-0.552 0-1 0.448-1 1zM15 23c0 0.552 0.448 1 1 1h11c0.552 0 1-0.448 1-1s-0.448-1-1-1h-11c-0.552 0-1 0.448-1 1z"></path>
</symbol>
<symbol id="icon-send" viewBox="0 0 32 32">
<path d="M28.57 3.438c-0.667-0.681-1.653-0.933-2.573-0.667l-21.453 6.199c-0.971 0.269-1.659 1.039-1.844 2.015-0.189 0.995 0.472 2.259 1.336 2.787l6.708 4.096c0.688 0.421 1.576 0.316 2.145-0.255l7.681-7.681c0.387-0.401 1.027-0.401 1.413 0 0.387 0.385 0.387 1.013 0 1.413l-7.695 7.681c-0.571 0.571-0.677 1.456-0.257 2.145l4.099 6.733c0.48 0.799 1.307 1.253 2.213 1.253 0.107 0 0.227 0 0.333-0.015 1.040-0.132 1.867-0.84 2.173-1.84l6.36-21.292c0.28-0.907 0.027-1.893-0.64-2.573z"></path>
<path opacity="0.4" d="M12.602 25.523c0.389 0.391 0.389 1.024 0 1.415l-1.821 1.82c-0.195 0.196-0.451 0.293-0.707 0.293s-0.512-0.097-0.707-0.293c-0.391-0.391-0.391-1.023 0-1.413l1.82-1.821c0.391-0.389 1.024-0.389 1.415 0zM11.557 20.472c0.389 0.391 0.389 1.024 0 1.415l-1.821 1.82c-0.195 0.196-0.451 0.293-0.707 0.293s-0.512-0.097-0.707-0.293c-0.391-0.391-0.391-1.023 0-1.413l1.82-1.821c0.391-0.389 1.024-0.389 1.415 0zM6.542 18.882c0.389 0.391 0.389 1.024 0 1.415l-1.821 1.82c-0.195 0.196-0.451 0.293-0.707 0.293s-0.512-0.097-0.707-0.293c-0.391-0.391-0.391-1.023 0-1.413l1.82-1.821c0.391-0.389 1.024-0.389 1.415 0z"></path>
</symbol>
<symbol id="icon-star" viewBox="0 0 32 32">
<path  d="M14.776 1.905c0.572-0.891 1.875-0.891 2.448 0l4.42 6.882c0.197 0.307 0.502 0.528 0.854 0.621l7.911 2.077c1.025 0.269 1.427 1.508 0.756 2.328l-5.179 6.331c-0.231 0.282-0.347 0.641-0.326 1.004l0.469 8.166c0.061 1.057-0.993 1.823-1.98 1.439l-7.622-2.97c-0.34-0.132-0.716-0.132-1.056 0l-7.621 2.97c-0.987 0.385-2.041-0.381-1.98-1.439l0.469-8.166c0.021-0.364-0.096-0.722-0.326-1.004l-5.179-6.331c-0.671-0.82-0.268-2.059 0.756-2.328l7.911-2.077c0.353-0.093 0.657-0.314 0.854-0.621l4.42-6.882z"></path>
</symbol>
<symbol id="icon-twitter" viewBox="0 0 32 32">
<path d="M29.333 7.733c-1.002 0.435-2.062 0.722-3.147 0.853 1.144-0.684 2.002-1.759 2.413-3.027-1.075 0.64-2.252 1.091-3.48 1.333-0.821-0.89-1.913-1.482-3.107-1.684s-2.42-0.002-3.488 0.568c-1.068 0.57-1.916 1.479-2.411 2.584s-0.611 2.342-0.327 3.519c-2.174-0.11-4.301-0.676-6.242-1.662s-3.653-2.368-5.025-4.058c-0.481 0.84-0.734 1.792-0.733 2.76-0.002 0.899 0.219 1.785 0.642 2.578s1.036 1.47 1.784 1.969c-0.869-0.024-1.72-0.257-2.48-0.68v0.067c0.007 1.26 0.448 2.479 1.25 3.451s1.915 1.637 3.15 1.883c-0.476 0.145-0.97 0.221-1.467 0.227-0.344-0.004-0.687-0.035-1.027-0.093 0.352 1.084 1.033 2.031 1.948 2.709s2.019 1.055 3.159 1.077c-1.924 1.514-4.299 2.34-6.747 2.347-0.446 0.001-0.891-0.025-1.333-0.080 2.499 1.614 5.412 2.47 8.387 2.467 2.053 0.021 4.089-0.367 5.991-1.141s3.629-1.92 5.083-3.37c1.454-1.45 2.604-3.175 3.383-5.074s1.173-3.935 1.157-5.988c0-0.227 0-0.467 0-0.707 1.046-0.78 1.949-1.737 2.667-2.827z"></path>
</symbol>
<symbol id="icon-unlock-value" viewBox="0 0 32 32">
<path d="M16.195 13.512c-0.687 0-1.244 0.557-1.244 1.244s0.557 1.244 1.244 1.244c0.687 0 1.244-0.557 1.244-1.244s-0.557-1.244-1.244-1.244z"></path>
<path d="M10.39 12.061v5.39c0 0.573 0.464 1.037 1.037 1.037h9.537c0.573 0 1.037-0.464 1.037-1.037v-5.39c0-0.572-0.464-1.037-1.037-1.037h-9.537c-0.572 0-1.037 0.464-1.037 1.037zM14.122 14.756c0-1.145 0.928-2.073 2.073-2.073s2.073 0.928 2.073 2.073c0 1.145-0.928 2.073-2.073 2.073s-2.073-0.928-2.073-2.073zM19.927 14.341h0.004c0.229 0 0.415 0.186 0.415 0.415v0.004c0 0.229-0.186 0.415-0.415 0.415h-0.004c-0.229 0-0.415-0.186-0.415-0.415v-0.004c0-0.229 0.186-0.415 0.415-0.415zM12.049 14.756c0-0.229 0.186-0.415 0.415-0.415h0.004c0.229 0 0.415 0.186 0.415 0.415v0.004c0 0.229-0.186 0.415-0.415 0.415h-0.004c-0.229 0-0.415-0.186-0.415-0.415v-0.004z"></path>
<path d="M10.805 19.317c-0.229 0-0.415 0.186-0.415 0.415s0.186 0.415 0.415 0.415c2.985 0 5.877 0.399 8.624 1.147 0.658 0.179 1.327-0.309 1.327-1.006v-0.556c0-0.229-0.186-0.415-0.415-0.415h-9.537z"></path>
</symbol>
<symbol id="icon-villa" viewBox="0 0 30 32">
<path d="M6.095 25.905v-19.81h-0.381c-0.631 0-1.143-0.512-1.143-1.143s0.512-1.143 1.143-1.143h19.048c0.631 0 1.143 0.512 1.143 1.143s-0.512 1.143-1.143 1.143h-0.381v19.81h0.381c0.631 0 1.143 0.512 1.143 1.143s-0.512 1.143-1.143 1.143h-5.333c-0.631 0-1.143-0.512-1.143-1.143v-3.81c0-0.631-0.512-1.143-1.143-1.143h-3.81c-0.631 0-1.143 0.512-1.143 1.143v3.81c0 0.631-0.512 1.143-1.143 1.143h-5.333c-0.631 0-1.143-0.512-1.143-1.143s0.512-1.143 1.143-1.143h0.381zM10.667 9.143v1.524c0 0.421 0.341 0.762 0.762 0.762h1.524c0.421 0 0.762-0.341 0.762-0.762v-1.524c0-0.421-0.341-0.762-0.762-0.762h-1.524c-0.421 0-0.762 0.341-0.762 0.762zM11.429 14.476c-0.421 0-0.762 0.341-0.762 0.762v1.524c0 0.421 0.341 0.762 0.762 0.762h1.524c0.421 0 0.762-0.341 0.762-0.762v-1.524c0-0.421-0.341-0.762-0.762-0.762h-1.524zM16.762 9.143v1.524c0 0.421 0.341 0.762 0.762 0.762h1.524c0.421 0 0.762-0.341 0.762-0.762v-1.524c0-0.421-0.341-0.762-0.762-0.762h-1.524c-0.421 0-0.762 0.341-0.762 0.762zM17.524 14.476c-0.421 0-0.762 0.341-0.762 0.762v1.524c0 0.421 0.341 0.762 0.762 0.762h1.524c0.421 0 0.762-0.341 0.762-0.762v-1.524c0-0.421-0.341-0.762-0.762-0.762h-1.524z"></path>
</symbol>
<symbol id="icon-youtube" viewBox="0 0 32 32">
<path d="M30.667 12.947c0.066-1.908-0.351-3.803-1.213-5.507-0.585-0.699-1.396-1.171-2.293-1.333-3.71-0.337-7.435-0.475-11.16-0.413-3.711-0.064-7.423 0.069-11.12 0.4-0.731 0.133-1.407 0.476-1.947 0.987-1.2 1.107-1.333 3-1.467 4.6-0.193 2.877-0.193 5.763 0 8.64 0.039 0.901 0.173 1.794 0.4 2.667 0.161 0.673 0.486 1.296 0.947 1.813 0.543 0.538 1.235 0.9 1.987 1.040 2.875 0.355 5.771 0.502 8.667 0.44 4.667 0.067 8.76 0 13.6-0.373 0.77-0.131 1.482-0.494 2.040-1.040 0.373-0.373 0.652-0.831 0.813-1.333 0.477-1.463 0.711-2.995 0.693-4.533 0.053-0.747 0.053-5.253 0.053-6.053zM12.987 19.8v-8.253l7.893 4.147c-2.213 1.227-5.133 2.613-7.893 4.107z"></path>
</symbol>
</defs>
</svg>
<svg id='icon-circle' width="82" height="82" viewBox="0 0 82 82" fill="none" xmlns="http://www.w3.org/2000/svg">
  <circle cx="41" cy="41" r="40.5" stroke="url(#paint0_linear_320_3)" />
  <circle cx="41" cy="41" r="40.5" stroke="url(#paint1_linear_320_3)" />
  <circle cx="41" cy="41" r="30.5" stroke="url(#paint2_linear_320_3)" />
  <circle cx="41" cy="41" r="30.5" stroke="url(#paint3_linear_320_3)" />
  <defs>
    <linearGradient id="paint0_linear_320_3" x1="6.75" y1="86.5" x2="85.75" y2="-5.5" gradientUnits="userSpaceOnUse">
      <stop stop-color="#A685FA" />
      <stop offset="0.323723" stop-color="#A685FA" stop-opacity="0" />
    </linearGradient>
    <linearGradient id="paint1_linear_320_3" x1="81.75" y1="-10.5" x2="6.75" y2="82" gradientUnits="userSpaceOnUse">
      <stop stop-color="#A685FA" />
      <stop offset="0.576615" stop-color="#A685FA" stop-opacity="0" />
    </linearGradient>
    <linearGradient id="paint2_linear_320_3" x1="3.25" y1="13.5" x2="71.75" y2="72" gradientUnits="userSpaceOnUse">
      <stop stop-color="#A685FA" />
      <stop offset="0.323723" stop-color="#A685FA" stop-opacity="0" />
    </linearGradient>
    <linearGradient id="paint3_linear_320_3" x1="84.25" y1="86" x2="12.25" y2="35" gradientUnits="userSpaceOnUse">
      <stop stop-color="#A685FA" />
      <stop offset="0.576615" stop-color="#A685FA" stop-opacity="0" />
    </linearGradient>
  </defs>
</svg>